<svg width="601" height="86" viewBox="0 0 601 86" fill="none" xmlns="http://www.w3.org/2000/svg">
<path d="M28.9375 68.75C27.8542 69.6667 27.3333 71.1875 27.375 73.3125C27.4583 75.4375 27.4583 77.5208 27.375 79.5625C27.2917 81.6042 26.5 83 25 83.75C23.7083 84.25 21.7083 84.75 19 85.25C16.3333 85.75 13.5833 86 10.75 86C8.875 86 7.10417 85.8333 5.4375 85.5C3.8125 85.1667 2.5 84.6042 1.5 83.8125C0.5 83.0208 0 81.9167 0 80.5C0 76.125 1.5 68.75 4.5 58.375C7.54167 47.9583 10.9792 37.7083 14.8125 27.625C18.6875 17.5 22.0833 10.125 25 5.5C26.2083 3.75 27.9583 2.45833 30.25 1.625C32.5417 0.75 34.9583 0.3125 37.5 0.3125C40.0417 0.3125 42.4583 0.75 44.75 1.625C47.0417 2.45833 48.7917 3.75 50 5.5C52.9167 10.125 56.2917 17.5 60.125 27.625C64 37.7083 67.4375 47.9583 70.4375 58.375C73.4792 68.75 75 76.125 75 80.5C75 81.9167 74.5 83.0208 73.5 83.8125C72.5 84.6042 71.1667 85.1667 69.5 85.5C67.875 85.8333 66.125 86 64.25 86C61.4167 86 58.6458 85.75 55.9375 85.25C53.2708 84.75 51.2917 84.25 50 83.75C48.5 83 47.7083 81.6042 47.625 79.5625C47.5417 77.5208 47.5208 75.4375 47.5625 73.3125C47.6458 71.1875 47.1458 69.6667 46.0625 68.75C44.8125 67.9167 43.0625 67.375 40.8125 67.125C38.6042 66.8333 36.375 66.8333 34.125 67.125C31.9167 67.375 30.1875 67.9167 28.9375 68.75ZM37.5 43C37 43 36.3542 44.2083 35.5625 46.625C34.7708 49.0417 34.4375 50.75 34.5625 51.75C34.8125 52.2083 35.3542 52.5208 36.1875 52.6875C37.0625 52.8542 37.9167 52.8542 38.75 52.6875C39.625 52.5208 40.1875 52.2083 40.4375 51.75C40.5208 51.3333 40.4583 50.6667 40.25 49.75C40.0833 48.8333 39.8333 47.8542 39.5 46.8125C39.1667 45.7708 38.8125 44.875 38.4375 44.125C38.0625 43.375 37.75 43 37.5 43ZM121.375 85.5625C119.167 85.8542 116.562 86 113.562 86C109.354 86 105.083 85.8542 100.75 85.5625C96.4583 85.2292 93.4792 85.0417 91.8125 85C89.3125 84.9583 87.0417 84.4583 85 83.5C82.9583 82.5 81.6042 81.0208 80.9375 79.0625C80.3125 76.9792 79.7917 74.0833 79.375 70.375C78.9583 66.625 78.6458 62.3542 78.4375 57.5625C78.2292 52.7708 78.125 47.8542 78.125 42.8125C78.125 37.8125 78.2292 32.9167 78.4375 28.125C78.6458 23.3333 78.9583 19.0625 79.375 15.3125C79.7917 11.5625 80.3125 8.64583 80.9375 6.5625C81.6042 4.60417 83.0208 3.14583 85.1875 2.1875C87.3542 1.1875 89.6875 0.6875 92.1875 0.6875H92.875C93.9583 0.729167 95.875 0.729167 98.625 0.6875C101.417 0.604167 104.458 0.5625 107.75 0.5625C110.375 0.5625 112.979 0.604167 115.562 0.6875C120.229 0.6875 124.562 1.22917 128.562 2.3125C132.604 3.39583 136.062 4.70833 138.938 6.25C141.854 7.79167 143.938 9.27083 145.188 10.6875C147.438 13.2708 149.062 15.875 150.062 18.5C151.104 21.0833 151.625 23.6875 151.625 26.3125C151.625 29.1042 151.104 31.8958 150.062 34.6875C149.062 37.4375 147.688 40.125 145.938 42.75C147.938 45.1667 149.375 47.625 150.25 50.125C151.167 52.5833 151.625 55.0417 151.625 57.5C151.625 60.625 151 63.7083 149.75 66.75C148.542 69.7917 146.875 72.75 144.75 75.625C142.708 78.375 139.604 80.6042 135.438 82.3125C131.271 83.9792 126.583 85.0625 121.375 85.5625ZM121.375 61.1875C123.75 60.1042 124.917 58.4792 124.875 56.3125C124.833 54.1042 123.667 52.5625 121.375 51.6875C119.667 51.2292 117.354 50.9375 114.438 50.8125C111.521 50.6458 109.271 50.9375 107.688 51.6875C106.812 52.2708 106.208 53.2083 105.875 54.5C105.583 55.7917 105.583 57.0833 105.875 58.375C106.208 59.6667 106.812 60.6042 107.688 61.1875C109.271 61.9792 111.521 62.3333 114.438 62.25C117.396 62.1667 119.708 61.8125 121.375 61.1875ZM119.625 34.4375C122.375 33.4792 123.75 31.9167 123.75 29.75C123.75 27.5417 122.375 25.9375 119.625 24.9375C118 24.4792 115.979 24.1875 113.562 24.0625C111.146 23.8958 109.188 24.1875 107.688 24.9375C106.812 25.5208 106.208 26.4583 105.875 27.75C105.583 29.0417 105.583 30.3333 105.875 31.625C106.208 32.9167 106.812 33.8542 107.688 34.4375C109.188 35.1875 111.146 35.5 113.562 35.375C115.979 35.25 118 34.9375 119.625 34.4375ZM167.625 14.3125C172.5 9.47917 177.479 6.0625 182.562 4.0625C187.688 2.02083 192.667 1 197.5 1C202.708 1 207.583 1.85417 212.125 3.5625C216.667 5.27083 220.542 7.33333 223.75 9.75C227 12.1667 229.333 14.5 230.75 16.75C233.25 20.7917 235.083 24.875 236.25 29C237.417 33.125 238 37.25 238 41.375C238 46.2917 237.292 51.1458 235.875 55.9375C234.5 60.7292 232.646 65.3958 230.312 69.9375C227.521 75.0208 223.083 78.9792 217 81.8125C210.917 84.6042 204.354 86 197.312 86C192.688 86 188.125 85.3542 183.625 84.0625C179.167 82.7292 175.104 80.6667 171.438 77.875C166.438 73.9583 162.667 69 160.125 63C157.625 56.9583 156.375 50.6875 156.375 44.1875C156.375 38.6042 157.292 33.2083 159.125 28C161 22.7917 163.833 18.2292 167.625 14.3125ZM187.062 34.5625C184.271 37.5208 183 41.1042 183.25 45.3125C183.5 49.4792 185.188 52.8333 188.312 55.375C191.688 57.625 195.417 58.4583 199.5 57.875C203.625 57.2917 206.542 55.5833 208.25 52.75C209.75 50 210.604 47.1458 210.812 44.1875C211.021 41.1875 210.208 38.25 208.375 35.375C207.583 34.0833 206.042 32.875 203.75 31.75C201.5 30.5833 198.875 30.0833 195.875 30.25C192.917 30.4167 189.979 31.8542 187.062 34.5625ZM280.25 60.9375C281.917 60.9375 283.312 60.5417 284.438 59.75C285.604 58.9167 286.562 57.7708 287.312 56.3125C288.062 54.8125 288.646 53.0833 289.062 51.125C289.479 49.125 289.771 46.9792 289.938 44.6875C290.104 42.3958 290.208 40.0208 290.25 37.5625C290.292 35.0625 290.292 32.5625 290.25 30.0625C290.208 27.5625 290.188 25.1458 290.188 22.8125C290.188 20.4792 290.25 18.3125 290.375 16.3125C290.5 14.2708 290.708 12.4792 291 10.9375C291.333 9.39583 291.812 8.16667 292.438 7.25C293.771 5.45833 295.812 4.0625 298.562 3.0625C301.354 2.0625 304.167 1.5625 307 1.5625C309.625 1.5625 311.917 2.02083 313.875 2.9375C315.875 3.85417 317.062 5.29167 317.438 7.25C317.771 9.33333 318.146 12.4792 318.562 16.6875C319.021 20.8958 319.25 25.6667 319.25 31C319.25 35.7083 318.938 40.625 318.312 45.75C317.729 50.875 316.625 55.8333 315 60.625C313.417 65.375 311.167 69.6667 308.25 73.5C305.333 77.2917 301.604 80.3333 297.062 82.625C292.521 84.875 286.979 86 280.438 86H280.188C271.896 85.8333 265.167 83.8958 260 80.1875C254.833 76.4375 250.875 71.625 248.125 65.75C245.417 59.8333 243.562 53.5 242.562 46.75C241.604 40 241.125 33.6458 241.125 27.6875C241.125 23.0625 241.271 18.9583 241.562 15.375C241.896 11.7917 242.188 9.08333 242.438 7.25C242.771 5.29167 243.917 3.85417 245.875 2.9375C247.875 2.02083 250.188 1.5625 252.812 1.5625C255.646 1.5625 258.458 2.0625 261.25 3.0625C264.042 4.0625 266.104 5.45833 267.438 7.25C268.646 9.125 269.354 12.125 269.562 16.25C269.812 20.3333 269.917 24.8958 269.875 29.9375C269.833 34.9792 270 39.8542 270.375 44.5625C270.75 49.2292 271.667 53.1042 273.125 56.1875C274.625 59.2292 277 60.8125 280.25 60.9375ZM352 28.125C351.042 26.3333 349.438 25.4792 347.188 25.5625C344.938 25.6042 342.458 26.0417 339.75 26.875C337.042 27.6667 334.521 28.3125 332.188 28.8125C329.854 29.3125 328.125 29.0833 327 28.125C326.208 27.2917 325.458 26.0625 324.75 24.4375C324.042 22.7708 323.458 20.9167 323 18.875C322.583 16.7917 322.375 14.75 322.375 12.75C322.375 10.5 322.729 8.5 323.438 6.75C324.146 4.95833 325.333 3.75 327 3.125C330.333 2.08333 335.458 1.3125 342.375 0.8125C349.292 0.270833 356.667 0 364.5 0C372.292 0 379.646 0.270833 386.562 0.8125C393.521 1.3125 398.667 2.08333 402 3.125C403.667 3.75 404.854 4.9375 405.562 6.6875C406.271 8.4375 406.625 10.4375 406.625 12.6875C406.625 13.8958 406.542 15.125 406.375 16.375C406.208 17.625 405.979 18.8542 405.688 20.0625C405.396 21.2292 405.042 22.3333 404.625 23.375C404.25 24.4167 403.833 25.3542 403.375 26.1875C402.958 26.9792 402.5 27.625 402 28.125C400.875 29.0833 399.146 29.3125 396.812 28.8125C394.521 28.3125 392.021 27.6667 389.312 26.875C386.604 26.0417 384.104 25.6042 381.812 25.5625C379.562 25.4792 377.958 26.3333 377 28.125C376 30.4167 375.604 33.9583 375.812 38.75C376.021 43.5 376.417 48.6667 377 54.25C377.583 59.7917 377.979 64.9583 378.188 69.75C378.396 74.5 378 78.0417 377 80.375C376.042 82.25 374.396 83.6667 372.062 84.625C369.729 85.5417 367.208 86 364.5 86C361.833 86 359.333 85.5417 357 84.625C354.667 83.6667 353 82.25 352 80.375C351 78.0417 350.604 74.5 350.812 69.75C351.021 64.9583 351.417 59.7917 352 54.25C352.583 48.6667 352.979 43.5 353.188 38.75C353.396 33.9583 353 30.4167 352 28.125ZM482.875 60.9375C484.542 60.9375 485.938 60.5417 487.062 59.75C488.229 58.9167 489.188 57.7708 489.938 56.3125C490.688 54.8125 491.271 53.0833 491.688 51.125C492.104 49.125 492.396 46.9792 492.562 44.6875C492.729 42.3958 492.833 40.0208 492.875 37.5625C492.917 35.0625 492.917 32.5625 492.875 30.0625C492.833 27.5625 492.812 25.1458 492.812 22.8125C492.812 20.4792 492.875 18.3125 493 16.3125C493.125 14.2708 493.333 12.4792 493.625 10.9375C493.958 9.39583 494.438 8.16667 495.062 7.25C496.396 5.45833 498.438 4.0625 501.188 3.0625C503.979 2.0625 506.792 1.5625 509.625 1.5625C512.25 1.5625 514.542 2.02083 516.5 2.9375C518.5 3.85417 519.688 5.29167 520.062 7.25C520.396 9.33333 520.771 12.4792 521.188 16.6875C521.646 20.8958 521.875 25.6667 521.875 31C521.875 35.7083 521.562 40.625 520.938 45.75C520.354 50.875 519.25 55.8333 517.625 60.625C516.042 65.375 513.792 69.6667 510.875 73.5C507.958 77.2917 504.229 80.3333 499.688 82.625C495.146 84.875 489.604 86 483.062 86H482.812C474.521 85.8333 467.792 83.8958 462.625 80.1875C457.458 76.4375 453.5 71.625 450.75 65.75C448.042 59.8333 446.188 53.5 445.188 46.75C444.229 40 443.75 33.6458 443.75 27.6875C443.75 23.0625 443.896 18.9583 444.188 15.375C444.521 11.7917 444.812 9.08333 445.062 7.25C445.396 5.29167 446.542 3.85417 448.5 2.9375C450.5 2.02083 452.812 1.5625 455.438 1.5625C458.271 1.5625 461.083 2.0625 463.875 3.0625C466.667 4.0625 468.729 5.45833 470.062 7.25C471.271 9.125 471.979 12.125 472.188 16.25C472.438 20.3333 472.542 24.8958 472.5 29.9375C472.458 34.9792 472.625 39.8542 473 44.5625C473.375 49.2292 474.292 53.1042 475.75 56.1875C477.25 59.2292 479.625 60.8125 482.875 60.9375ZM595.062 29.375C593.562 30.375 591.125 30.8542 587.75 30.8125C584.417 30.7708 580.854 30.5208 577.062 30.0625C573.271 29.5625 569.979 29.1875 567.188 28.9375C564.396 28.6875 562.854 28.8333 562.562 29.375C562.479 29.625 562.583 29.9167 562.875 30.25C563.208 30.5417 563.688 30.875 564.312 31.25C564.979 31.625 565.75 32.0417 566.625 32.5C567.542 32.9167 568.542 33.3542 569.625 33.8125C570.75 34.2708 571.917 34.7708 573.125 35.3125C574.333 35.8125 575.562 36.3542 576.812 36.9375C578.104 37.4792 579.375 38.0417 580.625 38.625C581.875 39.2083 583.083 39.8125 584.25 40.4375C585.417 41.0208 586.5 41.625 587.5 42.25C588.542 42.875 589.479 43.5 590.312 44.125C593.312 46.4583 595.75 49.1458 597.625 52.1875C599.5 55.1875 600.438 58.6458 600.438 62.5625C600.438 64.8125 600.042 67.2708 599.25 69.9375C598.5 72.5625 597.271 75.375 595.562 78.375C593.729 81.2083 590.042 83.1875 584.5 84.3125C579 85.4375 572.875 86 566.125 86C558.792 86 551.708 85.5625 544.875 84.6875C538.083 83.8125 533.146 82.875 530.062 81.875C528.271 81.25 526.979 79.9583 526.188 78C525.396 76.0417 525 73.8542 525 71.4375C525 68.5208 525.458 65.6875 526.375 62.9375C527.333 60.1458 528.562 58.125 530.062 56.875C530.562 56.5 531.208 56.2083 532 56C532.833 55.7917 533.771 55.6667 534.812 55.625C535.854 55.5417 536.979 55.5208 538.188 55.5625C539.438 55.6042 540.729 55.6875 542.062 55.8125C543.396 55.8958 544.729 56.0208 546.062 56.1875C547.438 56.3125 548.792 56.4583 550.125 56.625C551.458 56.7917 552.729 56.9583 553.938 57.125C555.146 57.25 556.25 57.3542 557.25 57.4375C558.292 57.5208 559.188 57.5833 559.938 57.625C560.729 57.625 561.354 57.5625 561.812 57.4375C562.271 57.3125 562.521 57.125 562.562 56.875C562.479 55.9167 560.479 54.5625 556.562 52.8125C552.688 51.0625 548.417 49.0625 543.75 46.8125C539.083 44.5625 535.521 42.2083 533.062 39.75C531.062 37.5417 529.458 34.7917 528.25 31.5C527.083 28.1667 526.5 24.7292 526.5 21.1875C526.5 18.3958 526.938 15.7083 527.812 13.125C528.688 10.5417 530.104 8.29167 532.062 6.375C534.396 4.375 538.354 2.95833 543.938 2.125C549.562 1.29167 555.646 0.875 562.188 0.875C568.979 0.875 575.438 1.20833 581.562 1.875C587.688 2.54167 592.188 3.375 595.062 4.375C596.812 5.08333 598.083 6.41667 598.875 8.375C599.667 10.3333 600.062 12.5208 600.062 14.9375C600.062 17.8542 599.604 20.6875 598.688 23.4375C597.771 26.1875 596.562 28.1667 595.062 29.375Z" fill="#2794EF" fill-opacity="0.6"/>
</svg>
