<svg width="189" height="58" viewBox="0 0 189 58" fill="none" xmlns="http://www.w3.org/2000/svg">
<rect width="189" height="58" rx="20" fill="#FC8DCF"/>
<path d="M43.816 34.16C43.816 34.288 43.912 34.384 44.04 34.384H44.84C45.384 34.384 45.864 33.936 45.864 33.36V29.648C45.864 29.104 45.384 28.624 44.84 28.624H44.04C43.912 28.624 43.816 28.72 43.816 28.848V34.16ZM51.944 22.128C51.944 23.376 51.592 24.56 50.984 25.552C50.472 26.352 50.472 27.28 50.984 28.08C51.592 29.072 51.944 30.256 51.944 31.504C51.944 35.088 49.032 38 45.448 38H40.072C38.792 38 37.736 36.944 37.736 35.664C37.736 29.744 37.736 23.888 37.736 17.968C37.736 16.688 38.792 15.632 40.072 15.632H45.448C49.032 15.632 51.944 18.544 51.944 22.128ZM43.816 24.784C43.816 24.912 43.912 25.008 44.04 25.008H44.84C45.384 25.008 45.864 24.528 45.864 23.984V20.272C45.864 19.696 45.384 19.248 44.84 19.248H44.04C43.912 19.248 43.816 19.344 43.816 19.472V24.784ZM52.8565 24.368C52.8565 23.056 53.9125 22 55.1925 22H56.6005C57.8805 22 58.9365 23.056 58.9365 24.368V33.296C58.9365 33.84 59.4165 34.288 59.9605 34.288C60.5045 34.288 60.9845 33.84 60.9845 33.296V29.968H61.0165V24.368C61.0165 23.056 62.0725 22 63.3525 22H64.7605C66.0405 22 67.0965 23.056 67.0965 24.368V36.048C67.0965 37.104 66.2645 37.936 65.2405 37.936H62.0085C61.4645 37.936 61.0165 37.488 61.0165 36.912C60.1205 37.584 59.0005 37.936 57.6245 37.936C54.0725 37.936 52.8565 35.504 52.8565 30.8V24.368ZM69.6365 22.928C70.1165 22.32 70.7565 22 71.5245 22C72.0045 22 72.5165 22 72.9645 22C74.1165 22 75.1405 22.768 75.2685 23.92C75.6845 27.344 75.4285 29.808 75.7805 32.592C75.8125 32.848 76.2285 32.816 76.2285 32.56C76.2285 30.64 76.3245 28.368 77.1565 23.792C77.3805 22.704 78.3725 22 79.4605 22C79.9405 22 80.4205 22 80.9325 22C81.7005 22 82.3405 22.32 82.7885 22.928C83.2685 23.504 83.3965 24.24 83.2045 24.976C81.9565 29.616 80.0365 34.128 78.7245 38.992C77.7325 42.8 76.1005 45.264 72.3245 44.24C66.8845 42.8 67.6845 37.168 70.3405 37.616C72.0685 37.904 72.7085 38.864 72.4525 39.824C72.2605 40.496 72.5805 40.56 72.8685 40.624C73.1885 40.688 73.5405 40.432 73.7005 39.824L74.2445 37.808C73.6045 37.52 73.1245 36.976 72.9325 36.272C72.8685 35.952 72.7725 35.632 72.6765 35.312C71.2045 29.744 70.7245 30.544 69.2525 24.976C69.0605 24.24 69.1885 23.504 69.6365 22.928ZM90.9548 17.968C90.9548 16.688 92.0108 15.632 93.2908 15.632H94.6988C95.5948 15.632 96.3948 16.144 96.7788 16.88C96.9068 17.168 97.0028 17.456 97.0348 17.776L99.0828 24.688V17.968C99.0828 16.688 100.139 15.632 101.419 15.632H102.827C104.107 15.632 105.163 16.688 105.163 17.968V35.664C105.163 36.944 104.107 38 102.827 38H101.419C100.395 38 99.5308 37.36 99.2108 36.432L97.0348 29.936V35.664C97.0348 36.944 95.9788 38 94.6988 38H93.2908C92.0108 38 90.9548 36.944 90.9548 35.664V17.968ZM112.274 33.36C112.274 33.936 112.754 34.384 113.298 34.384C113.842 34.384 114.322 33.936 114.322 33.36C114.322 31.152 114.322 28.944 114.322 26.736C114.322 26.16 113.842 25.712 113.298 25.712C112.754 25.712 112.274 26.16 112.274 26.736C112.274 28.944 112.274 31.152 112.274 33.36ZM113.298 22.064C117.202 22.064 120.402 25.296 120.402 29.2C120.402 29.776 120.402 30.32 120.402 30.896C120.402 34.8 117.202 38 113.298 38C109.394 38 106.194 34.8 106.194 30.896C106.194 30.32 106.194 29.776 106.194 29.2C106.194 25.296 109.394 22.064 113.298 22.064ZM123.504 22C124.016 22 124.496 22 124.976 22C126.096 22 127.152 22.768 127.28 23.92C127.696 27.344 127.408 29.84 127.792 32.592C127.824 32.848 128.208 32.816 128.208 32.56C128.24 30.64 128.304 28.368 129.168 23.792C129.36 22.704 130.352 22 131.44 22H133.168C134.32 22 135.344 22.768 135.504 23.92C135.888 27.344 135.632 29.84 136.016 32.592C136.048 32.848 136.432 32.816 136.432 32.56C136.464 30.64 136.528 28.368 137.392 23.792C137.583 22.704 138.576 22 139.664 22C140.144 22 140.624 22 141.136 22C141.904 22 142.544 22.32 143.024 22.928C143.472 23.504 143.6 24.24 143.408 24.976C141.936 30.544 141.424 29.744 139.92 35.312C139.856 35.632 139.76 35.952 139.664 36.272C139.408 37.296 138.48 38 137.392 38H135.44C134.352 38 133.424 37.296 133.168 36.272C133.072 35.952 132.976 35.632 132.912 35.312C132.688 34.512 132.496 33.84 132.304 33.232C132.112 33.84 131.92 34.512 131.696 35.312C131.632 35.632 131.536 35.952 131.44 36.272C131.184 37.296 130.256 38 129.168 38H127.216C126.128 38 125.232 37.296 124.944 36.272C124.848 35.952 124.752 35.632 124.688 35.312C123.184 29.744 122.736 30.544 121.232 24.976C121.04 24.24 121.168 23.504 121.648 22.928C122.096 22.32 122.768 22 123.504 22ZM147.776 32.752C149.472 32.752 150.816 33.968 150.816 35.472C150.816 36.976 149.472 38.192 147.776 38.192C146.08 38.192 144.736 36.976 144.736 35.472C144.736 33.968 146.08 32.752 147.776 32.752ZM144.736 17.648C144.704 17.136 144.896 16.688 145.28 16.336C145.632 15.984 146.08 15.792 146.592 15.792H148.96C149.984 15.792 150.816 16.624 150.816 17.648C150.816 22.864 150.496 29.712 150.496 29.936C150.4 30.896 149.6 31.664 148.608 31.664H146.912C146.368 31.664 145.92 31.472 145.536 31.088C145.184 30.704 144.992 30.224 145.024 29.712C145.024 29.424 144.736 22.896 144.736 17.648Z" fill="white"/>
</svg>
