<svg width="185" height="41" viewBox="0 0 185 41" fill="none" xmlns="http://www.w3.org/2000/svg">
<rect width="185" height="41" rx="20.5" fill="#FC8DCF"/>
<path d="M25.816 25.16C25.816 25.288 25.912 25.384 26.04 25.384H26.84C27.384 25.384 27.864 24.936 27.864 24.36V20.648C27.864 20.104 27.384 19.624 26.84 19.624H26.04C25.912 19.624 25.816 19.72 25.816 19.848V25.16ZM33.944 13.128C33.944 14.376 33.592 15.56 32.984 16.552C32.472 17.352 32.472 18.28 32.984 19.08C33.592 20.072 33.944 21.256 33.944 22.504C33.944 26.088 31.032 29 27.448 29H22.072C20.792 29 19.736 27.944 19.736 26.664C19.736 20.744 19.736 14.888 19.736 8.968C19.736 7.688 20.792 6.632 22.072 6.632H27.448C31.032 6.632 33.944 9.544 33.944 13.128ZM25.816 15.784C25.816 15.912 25.912 16.008 26.04 16.008H26.84C27.384 16.008 27.864 15.528 27.864 14.984V11.272C27.864 10.696 27.384 10.248 26.84 10.248H26.04C25.912 10.248 25.816 10.344 25.816 10.472V15.784ZM34.8565 15.368C34.8565 14.056 35.9125 13 37.1925 13H38.6005C39.8805 13 40.9365 14.056 40.9365 15.368V24.296C40.9365 24.84 41.4165 25.288 41.9605 25.288C42.5045 25.288 42.9845 24.84 42.9845 24.296V20.968H43.0165V15.368C43.0165 14.056 44.0725 13 45.3525 13H46.7605C48.0405 13 49.0965 14.056 49.0965 15.368V27.048C49.0965 28.104 48.2645 28.936 47.2405 28.936H44.0085C43.4645 28.936 43.0165 28.488 43.0165 27.912C42.1205 28.584 41.0005 28.936 39.6245 28.936C36.0725 28.936 34.8565 26.504 34.8565 21.8V15.368ZM51.6365 13.928C52.1165 13.32 52.7565 13 53.5245 13C54.0045 13 54.5165 13 54.9645 13C56.1165 13 57.1405 13.768 57.2685 14.92C57.6845 18.344 57.4285 20.808 57.7805 23.592C57.8125 23.848 58.2285 23.816 58.2285 23.56C58.2285 21.64 58.3245 19.368 59.1565 14.792C59.3805 13.704 60.3725 13 61.4605 13C61.9405 13 62.4205 13 62.9325 13C63.7005 13 64.3405 13.32 64.7885 13.928C65.2685 14.504 65.3965 15.24 65.2045 15.976C63.9565 20.616 62.0365 25.128 60.7245 29.992C59.7325 33.8 58.1005 36.264 54.3245 35.24C48.8845 33.8 49.6845 28.168 52.3405 28.616C54.0685 28.904 54.7085 29.864 54.4525 30.824C54.2605 31.496 54.5805 31.56 54.8685 31.624C55.1885 31.688 55.5405 31.432 55.7005 30.824L56.2445 28.808C55.6045 28.52 55.1245 27.976 54.9325 27.272C54.8685 26.952 54.7725 26.632 54.6765 26.312C53.2045 20.744 52.7245 21.544 51.2525 15.976C51.0605 15.24 51.1885 14.504 51.6365 13.928ZM72.9548 8.968C72.9548 7.688 74.0108 6.632 75.2908 6.632H76.6988C77.5948 6.632 78.3948 7.144 78.7788 7.88C78.9068 8.168 79.0028 8.456 79.0348 8.776L81.0828 15.688V8.968C81.0828 7.688 82.1388 6.632 83.4188 6.632H84.8268C86.1068 6.632 87.1628 7.688 87.1628 8.968V26.664C87.1628 27.944 86.1068 29 84.8268 29H83.4188C82.3948 29 81.5308 28.36 81.2108 27.432L79.0348 20.936V26.664C79.0348 27.944 77.9788 29 76.6988 29H75.2908C74.0108 29 72.9548 27.944 72.9548 26.664V8.968ZM94.2735 24.36C94.2735 24.936 94.7535 25.384 95.2975 25.384C95.8415 25.384 96.3215 24.936 96.3215 24.36C96.3215 22.152 96.3215 19.944 96.3215 17.736C96.3215 17.16 95.8415 16.712 95.2975 16.712C94.7535 16.712 94.2735 17.16 94.2735 17.736C94.2735 19.944 94.2735 22.152 94.2735 24.36ZM95.2975 13.064C99.2015 13.064 102.402 16.296 102.402 20.2C102.402 20.776 102.402 21.32 102.402 21.896C102.402 25.8 99.2015 29 95.2975 29C91.3935 29 88.1935 25.8 88.1935 21.896C88.1935 21.32 88.1935 20.776 88.1935 20.2C88.1935 16.296 91.3935 13.064 95.2975 13.064ZM105.504 13C106.016 13 106.496 13 106.976 13C108.096 13 109.152 13.768 109.28 14.92C109.696 18.344 109.408 20.84 109.792 23.592C109.824 23.848 110.208 23.816 110.208 23.56C110.24 21.64 110.304 19.368 111.168 14.792C111.36 13.704 112.352 13 113.44 13H115.168C116.32 13 117.344 13.768 117.504 14.92C117.888 18.344 117.632 20.84 118.016 23.592C118.048 23.848 118.432 23.816 118.432 23.56C118.464 21.64 118.528 19.368 119.392 14.792C119.583 13.704 120.576 13 121.664 13C122.144 13 122.624 13 123.136 13C123.904 13 124.544 13.32 125.024 13.928C125.472 14.504 125.6 15.24 125.408 15.976C123.936 21.544 123.424 20.744 121.92 26.312C121.856 26.632 121.76 26.952 121.664 27.272C121.408 28.296 120.48 29 119.392 29H117.44C116.352 29 115.424 28.296 115.168 27.272C115.072 26.952 114.976 26.632 114.912 26.312C114.688 25.512 114.496 24.84 114.304 24.232C114.112 24.84 113.92 25.512 113.696 26.312C113.632 26.632 113.536 26.952 113.44 27.272C113.184 28.296 112.256 29 111.168 29H109.216C108.128 29 107.232 28.296 106.944 27.272C106.848 26.952 106.752 26.632 106.688 26.312C105.184 20.744 104.736 21.544 103.232 15.976C103.04 15.24 103.168 14.504 103.648 13.928C104.096 13.32 104.768 13 105.504 13ZM129.776 23.752C131.472 23.752 132.816 24.968 132.816 26.472C132.816 27.976 131.472 29.192 129.776 29.192C128.08 29.192 126.736 27.976 126.736 26.472C126.736 24.968 128.08 23.752 129.776 23.752ZM126.736 8.648C126.704 8.136 126.896 7.688 127.28 7.336C127.632 6.984 128.08 6.792 128.592 6.792H130.96C131.984 6.792 132.816 7.624 132.816 8.648C132.816 13.864 132.496 20.712 132.496 20.936C132.4 21.896 131.6 22.664 130.608 22.664H128.912C128.368 22.664 127.92 22.472 127.536 22.088C127.184 21.704 126.992 21.224 127.024 20.712C127.024 20.424 126.736 13.896 126.736 8.648Z" fill="white"/>
<path d="M163.102 15.0825L160.159 24.3776C159.939 25.0376 159.362 25.4776 158.674 25.4776H147.317C146.657 25.4776 146.024 25.065 145.804 24.46L141.487 12.8276H138.957C138.352 12.8276 137.857 12.3326 137.857 11.7276C137.857 11.1226 138.352 10.6276 138.957 10.6276H142.229C142.697 10.6276 143.109 10.93 143.274 11.37L147.757 23.25H158.207L160.544 15.825H147.592C146.987 15.825 146.492 15.33 146.492 14.725C146.492 14.12 146.987 13.625 147.592 13.625H162.057C162.414 13.625 162.744 13.8175 162.937 14.0925C163.157 14.3675 163.212 14.7525 163.102 15.0825ZM147.867 26.9075C147.399 26.9075 146.932 27.1 146.602 27.43C146.272 27.76 146.079 28.2275 146.079 28.695C146.079 29.1625 146.272 29.63 146.602 29.96C146.932 30.29 147.399 30.4825 147.867 30.4825C148.334 30.4825 148.802 30.29 149.132 29.96C149.462 29.63 149.654 29.1625 149.654 28.695C149.654 28.2275 149.462 27.76 149.132 27.43C148.802 27.1 148.334 26.9075 147.867 26.9075ZM157.739 26.9075C157.272 26.9075 156.804 27.1 156.474 27.43C156.144 27.76 155.952 28.2275 155.952 28.695C155.952 29.1625 156.144 29.63 156.474 29.96C156.804 30.29 157.272 30.4825 157.739 30.4825C158.207 30.4825 158.674 30.29 159.004 29.96C159.334 29.63 159.527 29.1625 159.527 28.695C159.527 28.2275 159.334 27.76 159.004 27.43C158.674 27.1 158.207 26.9075 157.739 26.9075Z" fill="white"/>
</svg>
