<svg width="741" height="170" viewBox="0 0 741 170" fill="none" xmlns="http://www.w3.org/2000/svg">
<path d="M0 101.125C0 94.2083 1.3125 87.4583 3.9375 80.875C6.60417 74.2917 10.7708 68.875 16.4375 64.625C22.1042 60.375 29.4167 58.0833 38.375 57.75H38.8125C42.8125 57.75 46.8333 58.6458 50.875 60.4375C54.9167 62.1875 58.6042 64.4167 61.9375 67.125C65.3125 69.7917 68.0208 72.6042 70.0625 75.5625C72.1458 78.5208 73.1875 81.2083 73.1875 83.625C73.1875 84.0833 73.1458 84.5417 73.0625 85C72.2708 88.3333 70.625 90.8958 68.125 92.6875C65.6667 94.4375 62.875 95.3958 59.75 95.5625C56.625 95.7292 53.7083 95.0625 51 93.5625C49.5 92.6458 48.1042 91.375 46.8125 89.75C45.5208 88.0833 44.1875 86.5833 42.8125 85.25C41.4792 83.875 39.9792 83.1458 38.3125 83.0625C34.8958 83.2292 32.375 85.1458 30.75 88.8125C29.1667 92.4375 28.4375 96.625 28.5625 101.375C28.6458 104.333 29.0208 107.208 29.6875 110C30.3542 112.75 31.3958 115.042 32.8125 116.875C34.2292 118.708 36.0625 119.646 38.3125 119.688C39.9792 119.604 41.4792 118.896 42.8125 117.562C44.1875 116.188 45.5208 114.688 46.8125 113.062C48.1042 111.438 49.5 110.146 51 109.188C53.7083 107.688 56.625 107.021 59.75 107.188C62.875 107.354 65.6667 108.333 68.125 110.125C70.625 111.875 72.2708 114.417 73.0625 117.75C73.1458 118.208 73.1875 118.667 73.1875 119.125C73.1875 121.542 72.1458 124.229 70.0625 127.188C68.0208 130.146 65.3125 132.979 61.9375 135.688C58.6042 138.354 54.9167 140.583 50.875 142.375C46.8333 144.125 42.8125 145 38.8125 145H38.375C29.375 144.75 22.0417 142.625 16.375 138.625C10.75 134.625 6.60417 129.375 3.9375 122.875C1.3125 116.333 0 109.146 0 101.312V101.125ZM89.25 73.3125C94.125 68.4792 99.1042 65.0625 104.188 63.0625C109.312 61.0208 114.292 60 119.125 60C124.333 60 129.208 60.8542 133.75 62.5625C138.292 64.2708 142.167 66.3333 145.375 68.75C148.625 71.1667 150.958 73.5 152.375 75.75C154.875 79.7917 156.708 83.875 157.875 88C159.042 92.125 159.625 96.25 159.625 100.375C159.625 105.292 158.917 110.146 157.5 114.938C156.125 119.729 154.271 124.396 151.938 128.938C149.146 134.021 144.708 137.979 138.625 140.812C132.542 143.604 125.979 145 118.938 145C114.312 145 109.75 144.354 105.25 143.062C100.792 141.729 96.7292 139.667 93.0625 136.875C88.0625 132.958 84.2917 128 81.75 122C79.25 115.958 78 109.688 78 103.188C78 97.6042 78.9167 92.2083 80.75 87C82.625 81.7917 85.4583 77.2292 89.25 73.3125ZM108.688 93.5625C105.896 96.5208 104.625 100.104 104.875 104.312C105.125 108.479 106.812 111.833 109.938 114.375C113.312 116.625 117.042 117.458 121.125 116.875C125.25 116.292 128.167 114.583 129.875 111.75C131.375 109 132.229 106.146 132.438 103.188C132.646 100.188 131.833 97.25 130 94.375C129.208 93.0833 127.667 91.875 125.375 90.75C123.125 89.5833 120.5 89.0833 117.5 89.25C114.542 89.4167 111.604 90.8542 108.688 93.5625ZM230.375 65.125C232.542 63.875 235.125 62.7917 238.125 61.875C241.125 60.9583 244 60.5 246.75 60.5C248.792 60.5 250.583 60.8542 252.125 61.5625C253.708 62.2708 254.792 63.4583 255.375 65.125C256.417 68.4583 257.208 73.5833 257.75 80.5C258.292 87.4167 258.562 94.7917 258.562 102.625C258.562 110.417 258.292 117.792 257.75 124.75C257.208 131.667 256.417 136.792 255.375 140.125C254.75 141.875 253.479 143.125 251.562 143.875C249.688 144.625 247.562 145 245.188 145C242.271 145 239.396 144.542 236.562 143.625C233.729 142.708 231.667 141.542 230.375 140.125C229.708 139.25 229.292 137.958 229.125 136.25C229 134.5 229.021 132.521 229.188 130.312C229.396 128.104 229.667 125.854 230 123.562C230.333 121.271 230.625 119.146 230.875 117.188C231.125 115.188 231.229 113.562 231.188 112.312C231.146 111.021 230.875 110.292 230.375 110.125C230 110.042 229.521 110.333 228.938 111C228.354 111.625 227.708 112.521 227 113.688C226.292 114.854 225.521 116.188 224.688 117.688C223.896 119.146 223.062 120.688 222.188 122.312C221.312 123.896 220.417 125.458 219.5 127C218.583 128.5 217.667 129.875 216.75 131.125C215.875 132.333 215 133.312 214.125 134.062C213.25 134.771 212.417 135.125 211.625 135.125C210.375 135.125 209.021 134.25 207.562 132.5C206.146 130.75 204.708 128.625 203.25 126.125C201.792 123.583 200.396 121.062 199.062 118.562C197.729 116.062 196.521 114 195.438 112.375C194.396 110.75 193.542 110 192.875 110.125C192.167 110.458 191.917 111.917 192.125 114.5C192.375 117.042 192.75 120.062 193.25 123.562C193.792 127.062 194.104 130.354 194.188 133.438C194.312 136.521 193.875 138.75 192.875 140.125C191.625 141.542 189.583 142.708 186.75 143.625C183.917 144.542 181.021 145 178.062 145C175.688 145 173.562 144.625 171.688 143.875C169.812 143.125 168.542 141.875 167.875 140.125C166.833 136.792 166.042 131.667 165.5 124.75C165 117.792 164.75 110.417 164.75 102.625C164.75 94.7917 165 87.4167 165.5 80.5C166.042 73.5833 166.833 68.4583 167.875 65.125C168.5 63.4583 169.583 62.2708 171.125 61.5625C172.667 60.8542 174.458 60.5 176.5 60.5C179.25 60.5 182.125 60.9583 185.125 61.875C188.167 62.7917 190.75 63.875 192.875 65.125C195.375 66.6667 197.854 69.1458 200.312 72.5625C202.771 75.9375 205 79.3333 207 82.75C209 86.125 210.542 88.5833 211.625 90.125C212.708 88.5833 214.25 86.125 216.25 82.75C218.25 79.3333 220.479 75.9375 222.938 72.5625C225.438 69.1458 227.917 66.6667 230.375 65.125ZM330.75 65.125C332.917 63.875 335.5 62.7917 338.5 61.875C341.5 60.9583 344.375 60.5 347.125 60.5C349.167 60.5 350.958 60.8542 352.5 61.5625C354.083 62.2708 355.167 63.4583 355.75 65.125C356.792 68.4583 357.583 73.5833 358.125 80.5C358.667 87.4167 358.938 94.7917 358.938 102.625C358.938 110.417 358.667 117.792 358.125 124.75C357.583 131.667 356.792 136.792 355.75 140.125C355.125 141.875 353.854 143.125 351.938 143.875C350.062 144.625 347.938 145 345.562 145C342.646 145 339.771 144.542 336.938 143.625C334.104 142.708 332.042 141.542 330.75 140.125C330.083 139.25 329.667 137.958 329.5 136.25C329.375 134.5 329.396 132.521 329.562 130.312C329.771 128.104 330.042 125.854 330.375 123.562C330.708 121.271 331 119.146 331.25 117.188C331.5 115.188 331.604 113.562 331.562 112.312C331.521 111.021 331.25 110.292 330.75 110.125C330.375 110.042 329.896 110.333 329.312 111C328.729 111.625 328.083 112.521 327.375 113.688C326.667 114.854 325.896 116.188 325.062 117.688C324.271 119.146 323.438 120.688 322.562 122.312C321.688 123.896 320.792 125.458 319.875 127C318.958 128.5 318.042 129.875 317.125 131.125C316.25 132.333 315.375 133.312 314.5 134.062C313.625 134.771 312.792 135.125 312 135.125C310.75 135.125 309.396 134.25 307.938 132.5C306.521 130.75 305.083 128.625 303.625 126.125C302.167 123.583 300.771 121.062 299.438 118.562C298.104 116.062 296.896 114 295.812 112.375C294.771 110.75 293.917 110 293.25 110.125C292.542 110.458 292.292 111.917 292.5 114.5C292.75 117.042 293.125 120.062 293.625 123.562C294.167 127.062 294.479 130.354 294.562 133.438C294.688 136.521 294.25 138.75 293.25 140.125C292 141.542 289.958 142.708 287.125 143.625C284.292 144.542 281.396 145 278.438 145C276.062 145 273.938 144.625 272.062 143.875C270.188 143.125 268.917 141.875 268.25 140.125C267.208 136.792 266.417 131.667 265.875 124.75C265.375 117.792 265.125 110.417 265.125 102.625C265.125 94.7917 265.375 87.4167 265.875 80.5C266.417 73.5833 267.208 68.4583 268.25 65.125C268.875 63.4583 269.958 62.2708 271.5 61.5625C273.042 60.8542 274.833 60.5 276.875 60.5C279.625 60.5 282.5 60.9583 285.5 61.875C288.542 62.7917 291.125 63.875 293.25 65.125C295.75 66.6667 298.229 69.1458 300.688 72.5625C303.146 75.9375 305.375 79.3333 307.375 82.75C309.375 86.125 310.917 88.5833 312 90.125C313.083 88.5833 314.625 86.125 316.625 82.75C318.625 79.3333 320.854 75.9375 323.312 72.5625C325.812 69.1458 328.292 66.6667 330.75 65.125ZM403 119.938C404.667 119.938 406.062 119.542 407.188 118.75C408.354 117.917 409.312 116.771 410.062 115.312C410.812 113.812 411.396 112.083 411.812 110.125C412.229 108.125 412.521 105.979 412.688 103.688C412.854 101.396 412.958 99.0208 413 96.5625C413.042 94.0625 413.042 91.5625 413 89.0625C412.958 86.5625 412.938 84.1458 412.938 81.8125C412.938 79.4792 413 77.3125 413.125 75.3125C413.25 73.2708 413.458 71.4792 413.75 69.9375C414.083 68.3958 414.562 67.1667 415.188 66.25C416.521 64.4583 418.562 63.0625 421.312 62.0625C424.104 61.0625 426.917 60.5625 429.75 60.5625C432.375 60.5625 434.667 61.0208 436.625 61.9375C438.625 62.8542 439.812 64.2917 440.188 66.25C440.521 68.3333 440.896 71.4792 441.312 75.6875C441.771 79.8958 442 84.6667 442 90C442 94.7083 441.688 99.625 441.062 104.75C440.479 109.875 439.375 114.833 437.75 119.625C436.167 124.375 433.917 128.667 431 132.5C428.083 136.292 424.354 139.333 419.812 141.625C415.271 143.875 409.729 145 403.188 145H402.938C394.646 144.833 387.917 142.896 382.75 139.188C377.583 135.438 373.625 130.625 370.875 124.75C368.167 118.833 366.312 112.5 365.312 105.75C364.354 99 363.875 92.6458 363.875 86.6875C363.875 82.0625 364.021 77.9583 364.312 74.375C364.646 70.7917 364.938 68.0833 365.188 66.25C365.521 64.2917 366.667 62.8542 368.625 61.9375C370.625 61.0208 372.938 60.5625 375.562 60.5625C378.396 60.5625 381.208 61.0625 384 62.0625C386.792 63.0625 388.854 64.4583 390.188 66.25C391.396 68.125 392.104 71.125 392.312 75.25C392.562 79.3333 392.667 83.8958 392.625 88.9375C392.583 93.9792 392.75 98.8542 393.125 103.562C393.5 108.229 394.417 112.104 395.875 115.188C397.375 118.229 399.75 119.812 403 119.938ZM477.062 106C476.521 106 476.229 106.688 476.188 108.062C476.188 109.438 476.312 111.229 476.562 113.438C476.812 115.646 477.083 118.042 477.375 120.625C477.708 123.208 477.979 125.75 478.188 128.25C478.396 130.75 478.438 133 478.312 135C478.188 136.958 477.771 138.417 477.062 139.375C475.854 140.917 473.875 142.146 471.125 143.062C468.375 143.979 465.542 144.438 462.625 144.438C460.167 144.438 457.958 144.042 456 143.25C454.042 142.458 452.729 141.167 452.062 139.375C450.979 135.875 450.125 130.458 449.5 123.125C448.917 115.75 448.625 107.979 448.625 99.8125C448.625 94.8542 448.75 90.0417 449 85.375C449.25 80.7083 449.625 76.5625 450.125 72.9375C450.625 69.2708 451.271 66.4167 452.062 64.375C452.938 62.3333 454.375 60.875 456.375 60C458.375 59.125 460.667 58.6875 463.25 58.6875C466.5 58.6875 469.833 59.25 473.25 60.375C476.708 61.4583 479.646 62.7917 482.062 64.375C483.104 65.0833 484.146 66.1042 485.188 67.4375C486.229 68.7292 487.25 70.2292 488.25 71.9375C489.25 73.6458 490.229 75.4583 491.188 77.375C492.146 79.2917 493.062 81.2083 493.938 83.125C494.854 85.0417 495.708 86.875 496.5 88.625C497.292 90.375 498.021 91.9375 498.688 93.3125C499.396 94.6458 500.021 95.7083 500.562 96.5C501.146 97.2917 501.646 97.6875 502.062 97.6875C502.896 97.6875 503.188 96.25 502.938 93.375C502.688 90.5 502.292 87.0833 501.75 83.125C501.208 79.1667 500.875 75.4375 500.75 71.9375C500.667 68.3958 501.104 65.875 502.062 64.375C503.312 62.8333 505.312 61.6042 508.062 60.6875C510.812 59.7292 513.646 59.25 516.562 59.25C518.979 59.25 521.167 59.6667 523.125 60.5C525.083 61.2917 526.396 62.5833 527.062 64.375C528.188 67.875 529.042 73.3125 529.625 80.6875C530.208 88.0208 530.5 95.7708 530.5 103.938C530.5 108.896 530.375 113.708 530.125 118.375C529.917 123.042 529.542 127.208 529 130.875C528.5 134.5 527.854 137.333 527.062 139.375C526.229 141.375 524.812 142.812 522.812 143.688C520.812 144.562 518.521 145 515.938 145C512.688 145 509.333 144.458 505.875 143.375C502.417 142.292 499.479 140.958 497.062 139.375C494.979 137.833 492.917 135.312 490.875 131.812C488.875 128.312 486.979 124.583 485.188 120.625C483.396 116.667 481.792 113.25 480.375 110.375C479 107.458 477.896 106 477.062 106ZM565.125 66.5625C566.167 69.7708 566.958 74.7292 567.5 81.4375C568.042 88.1458 568.312 95.2708 568.312 102.812C568.312 110.396 568.042 117.542 567.5 124.25C566.958 130.917 566.167 135.854 565.125 139.062C564.375 141.062 562.792 142.562 560.375 143.562C558 144.521 555.417 145 552.625 145C549.833 145 547.229 144.521 544.812 143.562C542.438 142.562 540.875 141.062 540.125 139.062C539.458 136.979 538.875 134.083 538.375 130.375C537.917 126.625 537.562 122.354 537.312 117.562C537.104 112.771 537 107.854 537 102.812C537 97.8125 537.104 92.9167 537.312 88.125C537.562 83.3333 537.917 79.0625 538.375 75.3125C538.875 71.5625 539.458 68.6458 540.125 66.5625C540.875 64.6042 542.438 63.125 544.812 62.125C547.229 61.125 549.833 60.625 552.625 60.625C555.417 60.625 558 61.125 560.375 62.125C562.792 63.125 564.375 64.6042 565.125 66.5625ZM601.125 87.125C600.167 85.3333 598.562 84.4792 596.312 84.5625C594.062 84.6042 591.583 85.0417 588.875 85.875C586.167 86.6667 583.646 87.3125 581.312 87.8125C578.979 88.3125 577.25 88.0833 576.125 87.125C575.333 86.2917 574.583 85.0625 573.875 83.4375C573.167 81.7708 572.583 79.9167 572.125 77.875C571.708 75.7917 571.5 73.75 571.5 71.75C571.5 69.5 571.854 67.5 572.562 65.75C573.271 63.9583 574.458 62.75 576.125 62.125C579.458 61.0833 584.583 60.3125 591.5 59.8125C598.417 59.2708 605.792 59 613.625 59C621.417 59 628.771 59.2708 635.688 59.8125C642.646 60.3125 647.792 61.0833 651.125 62.125C652.792 62.75 653.979 63.9375 654.688 65.6875C655.396 67.4375 655.75 69.4375 655.75 71.6875C655.75 72.8958 655.667 74.125 655.5 75.375C655.333 76.625 655.104 77.8542 654.812 79.0625C654.521 80.2292 654.167 81.3333 653.75 82.375C653.375 83.4167 652.958 84.3542 652.5 85.1875C652.083 85.9792 651.625 86.625 651.125 87.125C650 88.0833 648.271 88.3125 645.938 87.8125C643.646 87.3125 641.146 86.6667 638.438 85.875C635.729 85.0417 633.229 84.6042 630.938 84.5625C628.688 84.4792 627.083 85.3333 626.125 87.125C625.125 89.4167 624.729 92.9583 624.938 97.75C625.146 102.5 625.542 107.667 626.125 113.25C626.708 118.792 627.104 123.958 627.312 128.75C627.521 133.5 627.125 137.042 626.125 139.375C625.167 141.25 623.521 142.667 621.188 143.625C618.854 144.542 616.333 145 613.625 145C610.958 145 608.458 144.542 606.125 143.625C603.792 142.667 602.125 141.25 601.125 139.375C600.125 137.042 599.729 133.5 599.938 128.75C600.146 123.958 600.542 118.792 601.125 113.25C601.708 107.667 602.104 102.5 602.312 97.75C602.521 92.9583 602.125 89.4167 601.125 87.125ZM712.25 116.875C711.5 119.583 711.479 122.604 712.188 125.938C712.896 129.271 713.458 132.396 713.875 135.312C714.333 138.188 713.792 140.375 712.25 141.875C710.917 142.917 708.854 143.708 706.062 144.25C703.312 144.75 700.375 145 697.25 145C694.125 145 691.167 144.75 688.375 144.25C685.625 143.708 683.583 142.917 682.25 141.875C680.708 140.375 680.146 138.188 680.562 135.312C681.021 132.396 681.604 129.271 682.312 125.938C683.021 122.604 683 119.583 682.25 116.875C681.375 114.333 679.979 111.312 678.062 107.812C676.146 104.271 674 100.521 671.625 96.5625C669.292 92.5625 667.021 88.6458 664.812 84.8125C662.646 80.9792 660.833 77.5208 659.375 74.4375C657.958 71.3125 657.25 68.875 657.25 67.125V66.875C657.417 65.125 658.312 63.8958 659.938 63.1875C661.562 62.4375 663.583 62.0625 666 62.0625C667.625 62.0625 669.333 62.2083 671.125 62.5C672.917 62.75 674.667 63.1042 676.375 63.5625C678.083 64.0208 679.667 64.5417 681.125 65.125C682.583 65.6667 683.792 66.25 684.75 66.875C686.083 67.75 687.229 69.1458 688.188 71.0625C689.188 72.9792 690.062 75.125 690.812 77.5C691.604 79.8333 692.312 82.1042 692.938 84.3125C693.604 86.4792 694.271 88.2917 694.938 89.75C695.646 91.1667 696.417 91.875 697.25 91.875C698.292 91.875 699.208 90.7917 700 88.625C700.833 86.4583 701.688 83.8958 702.562 80.9375C703.438 77.9792 704.438 75.1875 705.562 72.5625C706.688 69.8958 708.083 68 709.75 66.875C711.083 66.0417 712.792 65.2708 714.875 64.5625C717 63.8125 719.25 63.2083 721.625 62.75C724.042 62.2917 726.354 62.0625 728.562 62.0625C730.938 62.0625 732.938 62.4375 734.562 63.1875C736.229 63.8958 737.125 65.125 737.25 66.875V67.125C737.25 69.2917 736.167 72.5 734 76.75C731.833 81 729.271 85.625 726.312 90.625C723.354 95.625 720.542 100.458 717.875 105.125C715.25 109.75 713.375 113.667 712.25 116.875Z" fill="#FFF1E8"/>
<path d="M0 81.125C0 74.2083 1.3125 67.4583 3.9375 60.875C6.60417 54.2917 10.7708 48.875 16.4375 44.625C22.1042 40.375 29.4167 38.0833 38.375 37.75H38.8125C42.8125 37.75 46.8333 38.6458 50.875 40.4375C54.9167 42.1875 58.6042 44.4167 61.9375 47.125C65.3125 49.7917 68.0208 52.6042 70.0625 55.5625C72.1458 58.5208 73.1875 61.2083 73.1875 63.625C73.1875 64.0833 73.1458 64.5417 73.0625 65C72.2708 68.3333 70.625 70.8958 68.125 72.6875C65.6667 74.4375 62.875 75.3958 59.75 75.5625C56.625 75.7292 53.7083 75.0625 51 73.5625C49.5 72.6458 48.1042 71.375 46.8125 69.75C45.5208 68.0833 44.1875 66.5833 42.8125 65.25C41.4792 63.875 39.9792 63.1458 38.3125 63.0625C34.8958 63.2292 32.375 65.1458 30.75 68.8125C29.1667 72.4375 28.4375 76.625 28.5625 81.375C28.6458 84.3333 29.0208 87.2083 29.6875 90C30.3542 92.75 31.3958 95.0417 32.8125 96.875C34.2292 98.7083 36.0625 99.6458 38.3125 99.6875C39.9792 99.6042 41.4792 98.8958 42.8125 97.5625C44.1875 96.1875 45.5208 94.6875 46.8125 93.0625C48.1042 91.4375 49.5 90.1458 51 89.1875C53.7083 87.6875 56.625 87.0208 59.75 87.1875C62.875 87.3542 65.6667 88.3333 68.125 90.125C70.625 91.875 72.2708 94.4167 73.0625 97.75C73.1458 98.2083 73.1875 98.6667 73.1875 99.125C73.1875 101.542 72.1458 104.229 70.0625 107.188C68.0208 110.146 65.3125 112.979 61.9375 115.688C58.6042 118.354 54.9167 120.583 50.875 122.375C46.8333 124.125 42.8125 125 38.8125 125H38.375C29.375 124.75 22.0417 122.625 16.375 118.625C10.75 114.625 6.60417 109.375 3.9375 102.875C1.3125 96.3333 0 89.1458 0 81.3125V81.125ZM89.25 53.3125C94.125 48.4792 99.1042 45.0625 104.188 43.0625C109.312 41.0208 114.292 40 119.125 40C124.333 40 129.208 40.8542 133.75 42.5625C138.292 44.2708 142.167 46.3333 145.375 48.75C148.625 51.1667 150.958 53.5 152.375 55.75C154.875 59.7917 156.708 63.875 157.875 68C159.042 72.125 159.625 76.25 159.625 80.375C159.625 85.2917 158.917 90.1458 157.5 94.9375C156.125 99.7292 154.271 104.396 151.938 108.938C149.146 114.021 144.708 117.979 138.625 120.812C132.542 123.604 125.979 125 118.938 125C114.312 125 109.75 124.354 105.25 123.062C100.792 121.729 96.7292 119.667 93.0625 116.875C88.0625 112.958 84.2917 108 81.75 102C79.25 95.9583 78 89.6875 78 83.1875C78 77.6042 78.9167 72.2083 80.75 67C82.625 61.7917 85.4583 57.2292 89.25 53.3125ZM108.688 73.5625C105.896 76.5208 104.625 80.1042 104.875 84.3125C105.125 88.4792 106.812 91.8333 109.938 94.375C113.312 96.625 117.042 97.4583 121.125 96.875C125.25 96.2917 128.167 94.5833 129.875 91.75C131.375 89 132.229 86.1458 132.438 83.1875C132.646 80.1875 131.833 77.25 130 74.375C129.208 73.0833 127.667 71.875 125.375 70.75C123.125 69.5833 120.5 69.0833 117.5 69.25C114.542 69.4167 111.604 70.8542 108.688 73.5625ZM230.375 45.125C232.542 43.875 235.125 42.7917 238.125 41.875C241.125 40.9583 244 40.5 246.75 40.5C248.792 40.5 250.583 40.8542 252.125 41.5625C253.708 42.2708 254.792 43.4583 255.375 45.125C256.417 48.4583 257.208 53.5833 257.75 60.5C258.292 67.4167 258.562 74.7917 258.562 82.625C258.562 90.4167 258.292 97.7917 257.75 104.75C257.208 111.667 256.417 116.792 255.375 120.125C254.75 121.875 253.479 123.125 251.562 123.875C249.688 124.625 247.562 125 245.188 125C242.271 125 239.396 124.542 236.562 123.625C233.729 122.708 231.667 121.542 230.375 120.125C229.708 119.25 229.292 117.958 229.125 116.25C229 114.5 229.021 112.521 229.188 110.312C229.396 108.104 229.667 105.854 230 103.562C230.333 101.271 230.625 99.1458 230.875 97.1875C231.125 95.1875 231.229 93.5625 231.188 92.3125C231.146 91.0208 230.875 90.2917 230.375 90.125C230 90.0417 229.521 90.3333 228.938 91C228.354 91.625 227.708 92.5208 227 93.6875C226.292 94.8542 225.521 96.1875 224.688 97.6875C223.896 99.1458 223.062 100.688 222.188 102.312C221.312 103.896 220.417 105.458 219.5 107C218.583 108.5 217.667 109.875 216.75 111.125C215.875 112.333 215 113.312 214.125 114.062C213.25 114.771 212.417 115.125 211.625 115.125C210.375 115.125 209.021 114.25 207.562 112.5C206.146 110.75 204.708 108.625 203.25 106.125C201.792 103.583 200.396 101.062 199.062 98.5625C197.729 96.0625 196.521 94 195.438 92.375C194.396 90.75 193.542 90 192.875 90.125C192.167 90.4583 191.917 91.9167 192.125 94.5C192.375 97.0417 192.75 100.062 193.25 103.562C193.792 107.062 194.104 110.354 194.188 113.438C194.312 116.521 193.875 118.75 192.875 120.125C191.625 121.542 189.583 122.708 186.75 123.625C183.917 124.542 181.021 125 178.062 125C175.688 125 173.562 124.625 171.688 123.875C169.812 123.125 168.542 121.875 167.875 120.125C166.833 116.792 166.042 111.667 165.5 104.75C165 97.7917 164.75 90.4167 164.75 82.625C164.75 74.7917 165 67.4167 165.5 60.5C166.042 53.5833 166.833 48.4583 167.875 45.125C168.5 43.4583 169.583 42.2708 171.125 41.5625C172.667 40.8542 174.458 40.5 176.5 40.5C179.25 40.5 182.125 40.9583 185.125 41.875C188.167 42.7917 190.75 43.875 192.875 45.125C195.375 46.6667 197.854 49.1458 200.312 52.5625C202.771 55.9375 205 59.3333 207 62.75C209 66.125 210.542 68.5833 211.625 70.125C212.708 68.5833 214.25 66.125 216.25 62.75C218.25 59.3333 220.479 55.9375 222.938 52.5625C225.438 49.1458 227.917 46.6667 230.375 45.125ZM330.75 45.125C332.917 43.875 335.5 42.7917 338.5 41.875C341.5 40.9583 344.375 40.5 347.125 40.5C349.167 40.5 350.958 40.8542 352.5 41.5625C354.083 42.2708 355.167 43.4583 355.75 45.125C356.792 48.4583 357.583 53.5833 358.125 60.5C358.667 67.4167 358.938 74.7917 358.938 82.625C358.938 90.4167 358.667 97.7917 358.125 104.75C357.583 111.667 356.792 116.792 355.75 120.125C355.125 121.875 353.854 123.125 351.938 123.875C350.062 124.625 347.938 125 345.562 125C342.646 125 339.771 124.542 336.938 123.625C334.104 122.708 332.042 121.542 330.75 120.125C330.083 119.25 329.667 117.958 329.5 116.25C329.375 114.5 329.396 112.521 329.562 110.312C329.771 108.104 330.042 105.854 330.375 103.562C330.708 101.271 331 99.1458 331.25 97.1875C331.5 95.1875 331.604 93.5625 331.562 92.3125C331.521 91.0208 331.25 90.2917 330.75 90.125C330.375 90.0417 329.896 90.3333 329.312 91C328.729 91.625 328.083 92.5208 327.375 93.6875C326.667 94.8542 325.896 96.1875 325.062 97.6875C324.271 99.1458 323.438 100.688 322.562 102.312C321.688 103.896 320.792 105.458 319.875 107C318.958 108.5 318.042 109.875 317.125 111.125C316.25 112.333 315.375 113.312 314.5 114.062C313.625 114.771 312.792 115.125 312 115.125C310.75 115.125 309.396 114.25 307.938 112.5C306.521 110.75 305.083 108.625 303.625 106.125C302.167 103.583 300.771 101.062 299.438 98.5625C298.104 96.0625 296.896 94 295.812 92.375C294.771 90.75 293.917 90 293.25 90.125C292.542 90.4583 292.292 91.9167 292.5 94.5C292.75 97.0417 293.125 100.062 293.625 103.562C294.167 107.062 294.479 110.354 294.562 113.438C294.688 116.521 294.25 118.75 293.25 120.125C292 121.542 289.958 122.708 287.125 123.625C284.292 124.542 281.396 125 278.438 125C276.062 125 273.938 124.625 272.062 123.875C270.188 123.125 268.917 121.875 268.25 120.125C267.208 116.792 266.417 111.667 265.875 104.75C265.375 97.7917 265.125 90.4167 265.125 82.625C265.125 74.7917 265.375 67.4167 265.875 60.5C266.417 53.5833 267.208 48.4583 268.25 45.125C268.875 43.4583 269.958 42.2708 271.5 41.5625C273.042 40.8542 274.833 40.5 276.875 40.5C279.625 40.5 282.5 40.9583 285.5 41.875C288.542 42.7917 291.125 43.875 293.25 45.125C295.75 46.6667 298.229 49.1458 300.688 52.5625C303.146 55.9375 305.375 59.3333 307.375 62.75C309.375 66.125 310.917 68.5833 312 70.125C313.083 68.5833 314.625 66.125 316.625 62.75C318.625 59.3333 320.854 55.9375 323.312 52.5625C325.812 49.1458 328.292 46.6667 330.75 45.125ZM403 99.9375C404.667 99.9375 406.062 99.5417 407.188 98.75C408.354 97.9167 409.312 96.7708 410.062 95.3125C410.812 93.8125 411.396 92.0833 411.812 90.125C412.229 88.125 412.521 85.9792 412.688 83.6875C412.854 81.3958 412.958 79.0208 413 76.5625C413.042 74.0625 413.042 71.5625 413 69.0625C412.958 66.5625 412.938 64.1458 412.938 61.8125C412.938 59.4792 413 57.3125 413.125 55.3125C413.25 53.2708 413.458 51.4792 413.75 49.9375C414.083 48.3958 414.562 47.1667 415.188 46.25C416.521 44.4583 418.562 43.0625 421.312 42.0625C424.104 41.0625 426.917 40.5625 429.75 40.5625C432.375 40.5625 434.667 41.0208 436.625 41.9375C438.625 42.8542 439.812 44.2917 440.188 46.25C440.521 48.3333 440.896 51.4792 441.312 55.6875C441.771 59.8958 442 64.6667 442 70C442 74.7083 441.688 79.625 441.062 84.75C440.479 89.875 439.375 94.8333 437.75 99.625C436.167 104.375 433.917 108.667 431 112.5C428.083 116.292 424.354 119.333 419.812 121.625C415.271 123.875 409.729 125 403.188 125H402.938C394.646 124.833 387.917 122.896 382.75 119.188C377.583 115.438 373.625 110.625 370.875 104.75C368.167 98.8333 366.312 92.5 365.312 85.75C364.354 79 363.875 72.6458 363.875 66.6875C363.875 62.0625 364.021 57.9583 364.312 54.375C364.646 50.7917 364.938 48.0833 365.188 46.25C365.521 44.2917 366.667 42.8542 368.625 41.9375C370.625 41.0208 372.938 40.5625 375.562 40.5625C378.396 40.5625 381.208 41.0625 384 42.0625C386.792 43.0625 388.854 44.4583 390.188 46.25C391.396 48.125 392.104 51.125 392.312 55.25C392.562 59.3333 392.667 63.8958 392.625 68.9375C392.583 73.9792 392.75 78.8542 393.125 83.5625C393.5 88.2292 394.417 92.1042 395.875 95.1875C397.375 98.2292 399.75 99.8125 403 99.9375ZM477.062 86C476.521 86 476.229 86.6875 476.188 88.0625C476.188 89.4375 476.312 91.2292 476.562 93.4375C476.812 95.6458 477.083 98.0417 477.375 100.625C477.708 103.208 477.979 105.75 478.188 108.25C478.396 110.75 478.438 113 478.312 115C478.188 116.958 477.771 118.417 477.062 119.375C475.854 120.917 473.875 122.146 471.125 123.062C468.375 123.979 465.542 124.438 462.625 124.438C460.167 124.438 457.958 124.042 456 123.25C454.042 122.458 452.729 121.167 452.062 119.375C450.979 115.875 450.125 110.458 449.5 103.125C448.917 95.75 448.625 87.9792 448.625 79.8125C448.625 74.8542 448.75 70.0417 449 65.375C449.25 60.7083 449.625 56.5625 450.125 52.9375C450.625 49.2708 451.271 46.4167 452.062 44.375C452.938 42.3333 454.375 40.875 456.375 40C458.375 39.125 460.667 38.6875 463.25 38.6875C466.5 38.6875 469.833 39.25 473.25 40.375C476.708 41.4583 479.646 42.7917 482.062 44.375C483.104 45.0833 484.146 46.1042 485.188 47.4375C486.229 48.7292 487.25 50.2292 488.25 51.9375C489.25 53.6458 490.229 55.4583 491.188 57.375C492.146 59.2917 493.062 61.2083 493.938 63.125C494.854 65.0417 495.708 66.875 496.5 68.625C497.292 70.375 498.021 71.9375 498.688 73.3125C499.396 74.6458 500.021 75.7083 500.562 76.5C501.146 77.2917 501.646 77.6875 502.062 77.6875C502.896 77.6875 503.188 76.25 502.938 73.375C502.688 70.5 502.292 67.0833 501.75 63.125C501.208 59.1667 500.875 55.4375 500.75 51.9375C500.667 48.3958 501.104 45.875 502.062 44.375C503.312 42.8333 505.312 41.6042 508.062 40.6875C510.812 39.7292 513.646 39.25 516.562 39.25C518.979 39.25 521.167 39.6667 523.125 40.5C525.083 41.2917 526.396 42.5833 527.062 44.375C528.188 47.875 529.042 53.3125 529.625 60.6875C530.208 68.0208 530.5 75.7708 530.5 83.9375C530.5 88.8958 530.375 93.7083 530.125 98.375C529.917 103.042 529.542 107.208 529 110.875C528.5 114.5 527.854 117.333 527.062 119.375C526.229 121.375 524.812 122.812 522.812 123.688C520.812 124.562 518.521 125 515.938 125C512.688 125 509.333 124.458 505.875 123.375C502.417 122.292 499.479 120.958 497.062 119.375C494.979 117.833 492.917 115.312 490.875 111.812C488.875 108.312 486.979 104.583 485.188 100.625C483.396 96.6667 481.792 93.25 480.375 90.375C479 87.4583 477.896 86 477.062 86ZM565.125 46.5625C566.167 49.7708 566.958 54.7292 567.5 61.4375C568.042 68.1458 568.312 75.2708 568.312 82.8125C568.312 90.3958 568.042 97.5417 567.5 104.25C566.958 110.917 566.167 115.854 565.125 119.062C564.375 121.062 562.792 122.562 560.375 123.562C558 124.521 555.417 125 552.625 125C549.833 125 547.229 124.521 544.812 123.562C542.438 122.562 540.875 121.062 540.125 119.062C539.458 116.979 538.875 114.083 538.375 110.375C537.917 106.625 537.562 102.354 537.312 97.5625C537.104 92.7708 537 87.8542 537 82.8125C537 77.8125 537.104 72.9167 537.312 68.125C537.562 63.3333 537.917 59.0625 538.375 55.3125C538.875 51.5625 539.458 48.6458 540.125 46.5625C540.875 44.6042 542.438 43.125 544.812 42.125C547.229 41.125 549.833 40.625 552.625 40.625C555.417 40.625 558 41.125 560.375 42.125C562.792 43.125 564.375 44.6042 565.125 46.5625ZM601.125 67.125C600.167 65.3333 598.562 64.4792 596.312 64.5625C594.062 64.6042 591.583 65.0417 588.875 65.875C586.167 66.6667 583.646 67.3125 581.312 67.8125C578.979 68.3125 577.25 68.0833 576.125 67.125C575.333 66.2917 574.583 65.0625 573.875 63.4375C573.167 61.7708 572.583 59.9167 572.125 57.875C571.708 55.7917 571.5 53.75 571.5 51.75C571.5 49.5 571.854 47.5 572.562 45.75C573.271 43.9583 574.458 42.75 576.125 42.125C579.458 41.0833 584.583 40.3125 591.5 39.8125C598.417 39.2708 605.792 39 613.625 39C621.417 39 628.771 39.2708 635.688 39.8125C642.646 40.3125 647.792 41.0833 651.125 42.125C652.792 42.75 653.979 43.9375 654.688 45.6875C655.396 47.4375 655.75 49.4375 655.75 51.6875C655.75 52.8958 655.667 54.125 655.5 55.375C655.333 56.625 655.104 57.8542 654.812 59.0625C654.521 60.2292 654.167 61.3333 653.75 62.375C653.375 63.4167 652.958 64.3542 652.5 65.1875C652.083 65.9792 651.625 66.625 651.125 67.125C650 68.0833 648.271 68.3125 645.938 67.8125C643.646 67.3125 641.146 66.6667 638.438 65.875C635.729 65.0417 633.229 64.6042 630.938 64.5625C628.688 64.4792 627.083 65.3333 626.125 67.125C625.125 69.4167 624.729 72.9583 624.938 77.75C625.146 82.5 625.542 87.6667 626.125 93.25C626.708 98.7917 627.104 103.958 627.312 108.75C627.521 113.5 627.125 117.042 626.125 119.375C625.167 121.25 623.521 122.667 621.188 123.625C618.854 124.542 616.333 125 613.625 125C610.958 125 608.458 124.542 606.125 123.625C603.792 122.667 602.125 121.25 601.125 119.375C600.125 117.042 599.729 113.5 599.938 108.75C600.146 103.958 600.542 98.7917 601.125 93.25C601.708 87.6667 602.104 82.5 602.312 77.75C602.521 72.9583 602.125 69.4167 601.125 67.125ZM712.25 96.875C711.5 99.5833 711.479 102.604 712.188 105.938C712.896 109.271 713.458 112.396 713.875 115.312C714.333 118.188 713.792 120.375 712.25 121.875C710.917 122.917 708.854 123.708 706.062 124.25C703.312 124.75 700.375 125 697.25 125C694.125 125 691.167 124.75 688.375 124.25C685.625 123.708 683.583 122.917 682.25 121.875C680.708 120.375 680.146 118.188 680.562 115.312C681.021 112.396 681.604 109.271 682.312 105.938C683.021 102.604 683 99.5833 682.25 96.875C681.375 94.3333 679.979 91.3125 678.062 87.8125C676.146 84.2708 674 80.5208 671.625 76.5625C669.292 72.5625 667.021 68.6458 664.812 64.8125C662.646 60.9792 660.833 57.5208 659.375 54.4375C657.958 51.3125 657.25 48.875 657.25 47.125V46.875C657.417 45.125 658.312 43.8958 659.938 43.1875C661.562 42.4375 663.583 42.0625 666 42.0625C667.625 42.0625 669.333 42.2083 671.125 42.5C672.917 42.75 674.667 43.1042 676.375 43.5625C678.083 44.0208 679.667 44.5417 681.125 45.125C682.583 45.6667 683.792 46.25 684.75 46.875C686.083 47.75 687.229 49.1458 688.188 51.0625C689.188 52.9792 690.062 55.125 690.812 57.5C691.604 59.8333 692.312 62.1042 692.938 64.3125C693.604 66.4792 694.271 68.2917 694.938 69.75C695.646 71.1667 696.417 71.875 697.25 71.875C698.292 71.875 699.208 70.7917 700 68.625C700.833 66.4583 701.688 63.8958 702.562 60.9375C703.438 57.9792 704.438 55.1875 705.562 52.5625C706.688 49.8958 708.083 48 709.75 46.875C711.083 46.0417 712.792 45.2708 714.875 44.5625C717 43.8125 719.25 43.2083 721.625 42.75C724.042 42.2917 726.354 42.0625 728.562 42.0625C730.938 42.0625 732.938 42.4375 734.562 43.1875C736.229 43.8958 737.125 45.125 737.25 46.875V47.125C737.25 49.2917 736.167 52.5 734 56.75C731.833 61 729.271 65.625 726.312 70.625C723.354 75.625 720.542 80.4583 717.875 85.125C715.25 89.75 713.375 93.6667 712.25 96.875Z" fill="#2794EF" fill-opacity="0.6"/>
</svg>
