<svg width="801" height="138" viewBox="0 0 801 138" fill="none" xmlns="http://www.w3.org/2000/svg">
<path d="M54.3 90.2C55.0333 90.2 55.7333 90.5 56.4 91.1C57.0667 91.7 57.4 92.6667 57.4 94C57.4 95.0667 56.6 96.3333 55 97.8C53.4 99.2 51.3333 100.567 48.8 101.9C46.3333 103.233 43.6667 104.333 40.8 105.2C37.9333 106.133 35.2333 106.6 32.7 106.6C29.1 106.6 25.7 105.667 22.5 103.8C19.3667 101.933 16.8 99.2333 14.8 95.7C12.8 92.1 11.8 87.7333 11.8 82.6C11.8 78.0667 12.6333 73.5333 14.3 69C15.9667 64.4667 18.1667 60.1 20.9 55.9C23.7 51.7 26.7667 47.8 30.1 44.2C33.5 40.6 36.9 37.4667 40.3 34.8C43.7 32.1333 46.8667 30.0667 49.8 28.6C52.8 27.0667 55.2667 26.3 57.2 26.3C58.5333 26.3 59.6 26.8 60.4 27.8C61.2667 28.7333 61.7 29.7667 61.7 30.9C61.7 31.5667 61.5 32.2333 61.1 32.9C60.7667 33.5667 60.1667 34.1 59.3 34.5C54.9667 36.6333 50.5667 39.3667 46.1 42.7C41.6333 46.0333 37.5 49.8333 33.7 54.1C29.9 58.3 26.8333 62.8667 24.5 67.8C22.1667 72.6667 21 77.8 21 83.2C21 87.8667 22.1 91.4333 24.3 93.9C26.5 96.3 29.5 97.5 33.3 97.5C35.3 97.5 37.3667 97.1333 39.5 96.4C41.7 95.6667 43.7667 94.8333 45.7 93.9C47.7 92.9 49.4333 92.0333 50.9 91.3C52.4333 90.5667 53.5667 90.2 54.3 90.2ZM110.405 106.8C105.605 106.8 101.371 105.467 97.7047 102.8C94.1047 100.133 91.2714 96.4667 89.2047 91.8C87.2047 87.1333 86.2047 81.8 86.2047 75.8C86.2047 72.6667 86.6714 69.6 87.6047 66.6C88.6047 63.5333 89.838 60.6667 91.3047 58C92.7714 55.2667 94.2714 52.8333 95.8047 50.7C95.2714 49.9 95.0047 48.6667 95.0047 47C95.0047 45.3333 95.7047 43.4667 97.1047 41.4C98.5047 39.3333 100.438 37.3333 102.905 35.4C105.371 33.4667 108.238 31.8667 111.505 30.6C114.771 29.3333 118.238 28.7 121.905 28.7C127.971 28.7 133.105 30 137.305 32.6C141.505 35.2 144.671 38.6333 146.805 42.9C149.005 47.1 150.105 51.7 150.105 56.7C150.105 63.9 148.971 70.5333 146.705 76.6C144.438 82.6667 141.371 87.9667 137.505 92.5C133.705 97.0333 129.438 100.567 124.705 103.1C120.038 105.567 115.271 106.8 110.405 106.8ZM108.905 42.5C109.171 42.8333 109.305 43.1667 109.305 43.5C109.305 43.9667 109.138 44.4333 108.805 44.9C108.538 45.3667 108.205 45.9 107.805 46.5C106.538 48.1 105.171 50.2 103.705 52.8C102.305 55.4 100.971 58.2667 99.7047 61.4C98.5047 64.5333 97.5047 67.7667 96.7047 71.1C95.9047 74.3667 95.5047 77.5 95.5047 80.5C95.5047 85.6333 96.6714 89.8 99.0047 93C101.338 96.1333 104.805 97.7 109.405 97.7C112.871 97.7 116.171 96.8667 119.305 95.2C122.505 93.5333 125.405 91.3 128.005 88.5C130.671 85.6333 132.971 82.4667 134.905 79C136.838 75.4667 138.338 71.8333 139.405 68.1C140.471 64.3667 141.005 60.8 141.005 57.4C141.005 53.8667 140.305 50.5667 138.905 47.5C137.505 44.4333 135.471 41.9667 132.805 40.1C130.138 38.2333 126.905 37.3 123.105 37.3C119.905 37.3 117.138 37.8333 114.805 38.9C112.538 39.9 110.571 41.1 108.905 42.5ZM237.111 105.7C235.911 105.7 234.878 105.167 234.011 104.1C233.211 103.033 232.811 101.167 232.811 98.5C232.811 96.9667 233.111 95.1667 233.711 93.1C235.044 88.9 236.411 84.4 237.811 79.6C239.278 74.8 240.644 69.9 241.911 64.9C243.244 59.9 244.311 55.0667 245.111 50.4C245.911 45.6667 246.311 41.3333 246.311 37.4C246.311 36.0667 246.244 34.7667 246.111 33.5C246.044 32.2333 245.878 31.0333 245.611 29.9C238.878 36.3 232.644 45 226.911 56C221.244 66.9333 216.078 79.6667 211.411 94.2C210.611 96.4 209.611 97.9333 208.411 98.8C207.211 99.6667 206.078 100.1 205.011 100.1C204.078 100.1 203.178 99.7333 202.311 99C201.444 98.2 201.011 97 201.011 95.4C201.011 94.3333 201.278 92.8333 201.811 90.9C202.344 88.9 203.278 87.0667 204.611 85.4C205.344 81 205.944 76.3333 206.411 71.4C206.944 66.4667 207.211 61.9 207.211 57.7C207.211 55.7667 207.111 53.9667 206.911 52.3C206.778 50.5667 206.544 49.0667 206.211 47.8C202.744 51.4667 199.511 56.0667 196.511 61.6C193.578 67.0667 190.978 72.9667 188.711 79.3C186.444 85.5667 184.544 91.7 183.011 97.7C181.811 102.033 179.878 104.2 177.211 104.2C176.144 104.2 175.244 103.633 174.511 102.5C173.844 101.367 173.511 99.6667 173.511 97.4C173.511 95.2 174.044 92.2333 175.111 88.5C176.178 84.7667 177.611 80.6667 179.411 76.2C181.278 71.7333 183.344 67.3 185.611 62.9C187.944 58.4333 190.344 54.3667 192.811 50.7C195.344 46.9667 197.811 43.9667 200.211 41.7C202.611 39.4333 204.778 38.3 206.711 38.3C207.978 38.3 209.111 38.5333 210.111 39C211.111 39.4667 211.978 40.4333 212.711 41.9C213.444 43.3 213.978 45.4667 214.311 48.4C214.711 51.2667 214.911 55.1 214.911 59.9C214.911 60.7667 214.911 61.7667 214.911 62.9C216.844 57.5667 219.078 52.4 221.611 47.4C224.211 42.3333 226.944 37.8 229.811 33.8C232.678 29.8 235.544 26.6333 238.411 24.3C241.278 21.9667 243.978 20.8 246.511 20.8C249.378 20.8 251.711 22.3667 253.511 25.5C255.311 28.5667 256.211 33.4 256.211 40C256.211 46.2667 255.711 52.3667 254.711 58.3C253.711 64.2333 252.444 69.8333 250.911 75.1C249.444 80.3667 247.911 85.1667 246.311 89.5C244.778 93.7667 243.444 97.4333 242.311 100.5C241.578 102.367 240.811 103.7 240.011 104.5C239.211 105.3 238.244 105.7 237.111 105.7ZM344.923 105.7C343.723 105.7 342.69 105.167 341.823 104.1C341.023 103.033 340.623 101.167 340.623 98.5C340.623 96.9667 340.923 95.1667 341.523 93.1C342.857 88.9 344.223 84.4 345.623 79.6C347.09 74.8 348.457 69.9 349.723 64.9C351.057 59.9 352.123 55.0667 352.923 50.4C353.723 45.6667 354.123 41.3333 354.123 37.4C354.123 36.0667 354.057 34.7667 353.923 33.5C353.857 32.2333 353.69 31.0333 353.423 29.9C346.69 36.3 340.457 45 334.723 56C329.057 66.9333 323.89 79.6667 319.223 94.2C318.423 96.4 317.423 97.9333 316.223 98.8C315.023 99.6667 313.89 100.1 312.823 100.1C311.89 100.1 310.99 99.7333 310.123 99C309.257 98.2 308.823 97 308.823 95.4C308.823 94.3333 309.09 92.8333 309.623 90.9C310.157 88.9 311.09 87.0667 312.423 85.4C313.157 81 313.757 76.3333 314.223 71.4C314.757 66.4667 315.023 61.9 315.023 57.7C315.023 55.7667 314.923 53.9667 314.723 52.3C314.59 50.5667 314.357 49.0667 314.023 47.8C310.557 51.4667 307.323 56.0667 304.323 61.6C301.39 67.0667 298.79 72.9667 296.523 79.3C294.257 85.5667 292.357 91.7 290.823 97.7C289.623 102.033 287.69 104.2 285.023 104.2C283.957 104.2 283.057 103.633 282.323 102.5C281.657 101.367 281.323 99.6667 281.323 97.4C281.323 95.2 281.857 92.2333 282.923 88.5C283.99 84.7667 285.423 80.6667 287.223 76.2C289.09 71.7333 291.157 67.3 293.423 62.9C295.757 58.4333 298.157 54.3667 300.623 50.7C303.157 46.9667 305.623 43.9667 308.023 41.7C310.423 39.4333 312.59 38.3 314.523 38.3C315.79 38.3 316.923 38.5333 317.923 39C318.923 39.4667 319.79 40.4333 320.523 41.9C321.257 43.3 321.79 45.4667 322.123 48.4C322.523 51.2667 322.723 55.1 322.723 59.9C322.723 60.7667 322.723 61.7667 322.723 62.9C324.657 57.5667 326.89 52.4 329.423 47.4C332.023 42.3333 334.757 37.8 337.623 33.8C340.49 29.8 343.357 26.6333 346.223 24.3C349.09 21.9667 351.79 20.8 354.323 20.8C357.19 20.8 359.523 22.3667 361.323 25.5C363.123 28.5667 364.023 33.4 364.023 40C364.023 46.2667 363.523 52.3667 362.523 58.3C361.523 64.2333 360.257 69.8333 358.723 75.1C357.257 80.3667 355.723 85.1667 354.123 89.5C352.59 93.7667 351.257 97.4333 350.123 100.5C349.39 102.367 348.623 103.7 347.823 104.5C347.023 105.3 346.057 105.7 344.923 105.7ZM453.748 39.7C453.748 44.0333 453.481 48.6333 452.948 53.5C452.414 58.3667 451.548 63.2667 450.348 68.2C449.148 73.0667 447.581 77.7 445.648 82.1C443.781 86.4333 441.481 90.3333 438.748 93.8C436.014 97.2 432.814 99.9 429.148 101.9C425.548 103.9 421.414 104.9 416.748 104.9C410.348 104.9 405.281 102.867 401.548 98.8C397.814 94.7333 395.948 88.6333 395.948 80.5C395.948 75.9 396.414 71.4 397.348 67C398.281 62.5333 399.381 58.4667 400.648 54.8C401.914 51.1333 403.014 48.1 403.948 45.7C403.681 45.1667 403.548 44.5333 403.548 43.8C403.548 41.8 404.014 39.9333 404.948 38.2C405.881 36.4 407.014 34.9333 408.348 33.8C409.748 32.6667 411.081 32.1 412.348 32.1C413.348 32.1 414.148 32.4667 414.748 33.2C415.414 33.9333 415.748 35.0667 415.748 36.6C415.748 38.2667 415.181 40.5333 414.048 43.4C412.981 46.2667 411.748 49.6667 410.348 53.6C408.948 57.4667 407.681 61.8333 406.548 66.7C405.481 71.5 404.948 76.6667 404.948 82.2C404.948 86.4667 406.081 89.7333 408.348 92C410.614 94.2 413.981 95.3 418.448 95.3C422.114 95.3 425.314 94.1333 428.048 91.8C430.781 89.4667 433.081 86.3 434.948 82.3C436.881 78.2333 438.448 73.6333 439.648 68.5C440.914 63.3667 441.881 58 442.548 52.4C443.281 46.8 443.814 41.3 444.148 35.9C444.281 34.1667 444.781 32.9 445.648 32.1C446.581 31.2333 447.714 30.8 449.048 30.8C450.048 30.8 450.881 31 451.548 31.4C452.281 31.7333 452.814 32.5333 453.148 33.8C453.548 35.0667 453.748 37.0333 453.748 39.7ZM523.073 111C521.607 111 520.373 110.433 519.373 109.3C518.44 108.167 517.973 106.3 517.973 103.7C517.973 102.833 518.073 101.9 518.273 100.9C518.473 99.8333 518.84 98.7667 519.373 97.7C516.04 89.4333 513.24 81.4 510.973 73.6C508.707 65.8 506.773 57.6333 505.173 49.1C503.04 53.5 501.007 58.0667 499.073 62.8C497.207 67.4667 495.44 72.0333 493.773 76.5C492.107 80.9667 490.607 85.1333 489.273 89C487.94 92.8667 486.773 96.2 485.773 99C484.707 102.333 483.64 104.567 482.573 105.7C481.507 106.9 480.407 107.5 479.273 107.5C477.74 107.5 476.573 107.133 475.773 106.4C475.04 105.667 474.673 104.367 474.673 102.5C474.673 101.1 475.04 98.9333 475.773 96C476.507 93.0667 477.507 89.6667 478.773 85.8C480.107 81.9333 481.607 77.8667 483.273 73.6C484.94 69.3333 486.707 65.1667 488.573 61.1C490.507 57.0333 492.44 53.3667 494.373 50.1C496.307 46.7667 498.14 44.1333 499.873 42.2C501.673 40.2 503.307 39.2 504.773 39.2C506.307 39.2 507.607 39.5 508.673 40.1C509.807 40.7 511.04 42.2667 512.373 44.8C513.24 46.5333 514.24 49.0667 515.373 52.4C516.507 55.6667 517.64 59.3667 518.773 63.5C519.907 67.5667 521.007 71.7667 522.073 76.1C523.14 80.3667 524.073 84.3333 524.873 88C527.54 75.6667 529.873 64.8667 531.873 55.6C533.873 46.2667 535.407 38.9667 536.473 33.7C537.607 28.4333 538.207 25.6667 538.273 25.4C538.673 23.6667 539.107 22.6 539.573 22.2C540.04 21.8 540.707 21.6 541.573 21.6C542.773 21.6 543.94 22.1 545.073 23.1C546.273 24.0333 546.873 25.3333 546.873 27C546.873 27.8 546.673 29.6333 546.273 32.5C545.94 35.3667 545.407 38.9667 544.673 43.3C544.007 47.5667 543.14 52.3333 542.073 57.6C541.007 62.8 539.773 68.2333 538.373 73.9C536.973 79.5 535.407 85.0667 533.673 90.6C532.007 96.0667 530.173 101.233 528.173 106.1C527.44 107.967 526.573 109.233 525.573 109.9C524.64 110.633 523.807 111 523.073 111ZM582.508 47.4C579.641 47.4 577.708 47 576.708 46.2C575.774 45.4 575.308 44.6333 575.308 43.9C575.308 42.8333 575.841 41.8667 576.908 41C578.041 40.1333 579.408 39.5333 581.008 39.2C582.941 38.8 585.274 38.4 588.008 38C590.808 37.5333 593.708 37.1333 596.708 36.8C599.708 36.4 602.641 36.1 605.508 35.9C608.374 35.7 610.874 35.6 613.008 35.6C615.808 35.6 617.941 36.1333 619.408 37.2C620.941 38.2 621.708 39.1333 621.708 40C621.708 40.0667 621.708 40.2 621.708 40.4C621.708 40.9333 621.608 41.4 621.408 41.8C621.208 42.2 620.541 42.6 619.408 43C618.341 43.3333 616.508 43.7 613.908 44.1C611.374 44.4333 607.774 44.8 603.108 45.2C602.174 45.2667 601.141 45.3667 600.008 45.5C599.741 47.3 599.341 49.6667 598.808 52.6C598.274 55.5333 597.674 58.8 597.008 62.4C596.341 66 595.641 69.7 594.908 73.5C594.174 77.2333 593.441 80.8 592.708 84.2C592.041 87.6 591.441 90.6 590.908 93.2C590.441 95.8 590.074 97.7667 589.808 99.1C593.274 98.6333 596.341 98.3333 599.008 98.2C601.741 98 603.574 97.9 604.508 97.9C606.974 97.9 608.208 98.8333 608.208 100.7C608.208 101.233 607.074 102 604.808 103C602.541 104 599.641 105.033 596.108 106.1C592.574 107.167 588.908 108.167 585.108 109.1C581.974 109.833 578.874 110.4 575.808 110.8C572.808 111.2 570.641 111.4 569.308 111.4C567.841 111.4 566.808 111.133 566.208 110.6C565.608 110.133 565.308 109.433 565.308 108.5C565.308 107.567 565.574 106.633 566.108 105.7C566.708 104.767 567.508 104.1 568.508 103.7C570.308 103.033 572.308 102.433 574.508 101.9C576.708 101.3 578.941 100.767 581.208 100.3C581.208 99.9667 581.208 99.5667 581.208 99.1C581.208 98.1667 581.374 96.4 581.708 93.8C582.108 91.2 582.608 88.1 583.208 84.5C583.808 80.8333 584.474 77.0333 585.208 73.1C585.941 69.1 586.641 65.3 587.308 61.7C587.974 58.0333 588.574 54.8667 589.108 52.2C589.641 49.4667 590.041 47.6333 590.308 46.7C588.641 46.9 587.141 47.0667 585.808 47.2C584.474 47.3333 583.374 47.4 582.508 47.4ZM647.08 40.9C644.347 40.9 642.414 40.7667 641.28 40.5C640.147 40.1667 639.447 39.7333 639.18 39.2C638.98 38.6667 638.88 38.1333 638.88 37.6C638.88 36.8667 639.247 36.2 639.98 35.6C640.78 34.9333 642.38 34.4 644.78 34C647.847 33.3333 651.447 32.6667 655.58 32C659.78 31.2667 664.247 30.6 668.98 30C673.714 29.3333 678.447 28.7333 683.18 28.2C687.98 27.6667 692.547 27.2667 696.88 27C701.28 26.6667 705.18 26.5 708.58 26.5C713.114 26.5 716.18 26.9 717.78 27.7C719.447 28.5 720.28 29.3667 720.28 30.3C720.28 31.1667 719.814 31.9667 718.88 32.7C718.014 33.4333 716.514 33.8 714.38 33.8C713.514 33.8 711.514 34 708.38 34.4C705.247 34.7333 701.414 35.2 696.88 35.8C692.414 36.3333 687.68 36.9333 682.68 37.6C682.347 39.8667 681.847 42.8667 681.18 46.6C680.514 50.2667 679.747 54.3 678.88 58.7C678.08 63.1 677.247 67.5333 676.38 72C675.58 76.4 674.814 80.5 674.08 84.3C673.414 88.1 672.847 91.2333 672.38 93.7C671.914 96.1667 671.647 97.6333 671.58 98.1C671.314 100.167 670.714 101.733 669.78 102.8C668.914 103.8 667.947 104.3 666.88 104.3C665.614 104.3 664.547 103.767 663.68 102.7C662.88 101.567 662.48 99.6 662.48 96.8C662.48 95.8667 662.68 94.0667 663.08 91.4C663.48 88.6667 664.014 85.4333 664.68 81.7C665.347 77.9667 666.08 74 666.88 69.8C667.68 65.6 668.48 61.5 669.28 57.5C670.08 53.4333 670.814 49.7667 671.48 46.5C672.147 43.1667 672.647 40.5667 672.98 38.7C667.714 39.3 662.747 39.8333 658.08 40.3C653.48 40.7 649.814 40.9 647.08 40.9ZM761.292 115.3C759.826 115.3 758.526 114.567 757.392 113.1C756.326 111.633 755.792 109.333 755.792 106.2C755.792 104.4 757.192 99.2 759.992 90.6C762.859 81.9333 767.192 70.0667 772.992 55C770.459 58.7333 767.759 62.3333 764.892 65.8C762.026 69.2 759.092 72 756.092 74.2C753.159 76.4 750.292 77.5 747.492 77.5C743.026 77.5 739.559 76.1333 737.092 73.4C734.692 70.6 733.492 66.3 733.492 60.5C733.492 53.7 733.959 47.7 734.892 42.5C735.892 37.3 736.992 33.2333 738.192 30.3C739.459 27.3667 740.459 25.9 741.192 25.9C742.192 25.9 743.326 26.4 744.592 27.4C745.926 28.3333 746.592 29.7667 746.592 31.7C746.592 33.5667 746.159 36.2333 745.292 39.7C744.492 43.1 743.659 47 742.792 51.4C741.926 55.8 741.492 60.3667 741.492 65.1C741.492 66.5 741.792 67.5667 742.392 68.3C742.992 68.9667 743.759 69.3 744.692 69.3C747.159 69.3 749.759 68.4333 752.492 66.7C755.226 64.9667 757.926 62.7 760.592 59.9C763.259 57.0333 765.826 53.9 768.292 50.5C770.759 47.1 772.992 43.7333 774.992 40.4C777.059 37 778.792 33.9 780.192 31.1C781.992 27.4333 783.359 25.0333 784.292 23.9C785.292 22.7 786.326 22.1 787.392 22.1C788.592 22.1 789.692 22.7 790.692 23.9C791.692 25.0333 792.192 26.0667 792.192 27C792.192 27.9333 791.492 29.9 790.092 32.9C788.692 35.9 786.892 40.1 784.692 45.5C782.492 50.8333 780.226 57.6 777.892 65.8C775.026 76 772.659 84.3333 770.792 90.8C768.992 97.2667 767.492 102.267 766.292 105.8C765.159 109.4 764.192 111.867 763.392 113.2C762.659 114.6 761.959 115.3 761.292 115.3Z" fill="#F46BA4" fill-opacity="0.39"/>
</svg>
