<svg width="320" height="145" viewBox="0 0 320 145" fill="none" xmlns="http://www.w3.org/2000/svg">
<path d="M7.872 124.568C8.088 123.752 8.784 123.224 9.6 123.224C9.96 123.224 10.32 123.224 10.704 123.224C11.28 123.224 11.76 123.464 12.096 123.896C12.456 124.352 12.552 124.88 12.408 125.432L8.856 138.704C8.64 139.496 7.968 140 7.152 140H5.664C4.872 140 4.176 139.496 3.96 138.704C3.912 138.464 3.84 138.224 3.768 137.984C2.664 133.808 1.536 129.632 0.408 125.432C0.264 124.88 0.36 124.352 0.72 123.896C1.056 123.464 1.56 123.224 2.112 123.224C2.496 123.224 2.856 123.224 3.216 123.224C4.056 123.224 4.776 123.8 4.944 124.64C5.664 128.408 5.376 132.176 6.096 135.944C6.144 136.136 6.408 136.112 6.432 135.92C6.504 131.504 6.96 128.264 7.872 124.568ZM15.1712 123.224H16.2272C17.1872 123.224 17.9792 124.016 17.9792 124.976C17.9792 129.392 17.9792 133.832 17.9792 138.248C17.9792 139.208 17.1872 140 16.2272 140H15.1712C14.2112 140 13.4192 139.208 13.4192 138.248V124.976C13.4192 124.016 14.2112 123.224 15.1712 123.224ZM23.6745 129.944C23.6745 130.112 23.8185 130.256 23.9865 130.256H27.0825C27.5865 130.256 28.0185 130.664 28.0185 131.192V132.032C28.0185 132.56 27.5865 132.968 27.0825 132.968H23.9865C23.8185 132.968 23.6745 133.112 23.6745 133.28V136.976C23.6745 137.144 23.8185 137.288 23.9865 137.288H28.8345C29.3625 137.288 29.7705 137.696 29.7705 138.224V139.088C29.7705 139.592 29.3625 140 28.8345 140H20.8665C19.9065 140 19.1145 139.208 19.1145 138.248V124.976C19.1145 124.016 19.9065 123.224 20.8665 123.224H28.8345C29.3625 123.224 29.7705 123.632 29.7705 124.16V125C29.7705 125.528 29.3625 125.936 28.8345 125.936H23.9865C23.8185 125.936 23.6745 126.08 23.6745 126.248V129.944ZM38.0601 124.568C38.2521 123.752 38.9481 123.224 39.7641 123.224H41.2521C42.1161 123.224 42.8361 123.8 42.9801 124.64C43.7001 128.408 43.4121 132.176 44.1561 135.944C44.1801 136.136 44.4681 136.112 44.4681 135.92C44.5401 131.504 45.0201 128.264 45.9321 124.568C46.1241 123.752 46.8201 123.224 47.6361 123.224C47.9961 123.224 48.3801 123.224 48.7401 123.224C49.3161 123.224 49.7961 123.464 50.1561 123.896C50.4921 124.352 50.6121 124.88 50.4441 125.432L46.8921 138.704C46.7001 139.496 46.0041 140 45.1881 140H43.7241C42.9081 140 42.2121 139.496 42.0201 138.704C41.9481 138.464 41.8761 138.224 41.8281 137.984L40.5081 133.112L39.0201 138.704C38.8041 139.496 38.1321 140 37.3161 140H35.8281C35.0361 140 34.3401 139.496 34.1241 138.704L30.5721 125.432C30.4281 124.88 30.5241 124.352 30.8841 123.896C31.2201 123.464 31.7241 123.224 32.2761 123.224C32.6601 123.224 33.0201 123.224 33.3801 123.224C34.2201 123.224 34.9401 123.8 35.1081 124.64C35.8281 128.408 35.5401 132.176 36.2601 135.944C36.3081 136.136 36.5721 136.112 36.5961 135.92C36.6681 131.504 37.1241 128.264 38.0601 124.568ZM61.3749 137.288C61.7829 137.288 62.1429 136.952 62.1429 136.52C62.1429 134.192 61.7109 132.968 64.4229 132.968C69.3669 132.968 65.7429 140 61.3749 140C58.4469 140 56.0469 137.6 56.0469 134.672V128.552C56.0469 125.624 58.4469 123.224 61.3749 123.224C65.7429 123.224 69.3669 130.256 64.4229 130.256C61.7109 130.256 62.1429 129.032 62.1429 126.704C62.1429 126.296 61.7829 125.936 61.3749 125.936C60.9669 125.936 60.6069 126.296 60.6069 126.704V136.52C60.6069 136.952 60.9669 137.288 61.3749 137.288ZM72.0729 124.976V129.944C72.0729 130.112 72.2169 130.256 72.3849 130.256C72.6969 130.256 72.9849 130.256 73.2969 130.256C73.4649 130.256 73.6089 130.112 73.6089 129.944C73.6089 128.288 73.6089 126.632 73.6089 124.976C73.6089 124.016 74.4009 123.224 75.3609 123.224H76.4169C77.3769 123.224 78.1689 124.016 78.1689 124.976V138.248C78.1689 139.208 77.3769 140 76.4169 140H75.3609C74.4009 140 73.6089 139.208 73.6089 138.248V133.28C73.6089 133.112 73.4649 132.968 73.2969 132.968C72.9849 132.968 72.6969 132.968 72.3849 132.968C72.2169 132.968 72.0729 133.112 72.0729 133.28C72.0729 134.936 72.0729 136.592 72.0729 138.248C72.0729 139.208 71.2809 140 70.3209 140H69.2649C68.3049 140 67.5129 139.208 67.5129 138.248V124.976C67.5129 124.016 68.3049 123.224 69.2649 123.224H70.3209C71.2809 123.224 72.0729 124.016 72.0729 124.976ZM85.182 127.304C85.158 127.112 84.894 127.088 84.846 127.28C84.366 129.704 84.342 132.128 84.174 134.552H85.782C85.422 132.32 85.23 130.04 85.182 127.304ZM91.158 137.792C91.302 138.344 91.206 138.872 90.846 139.328C90.51 139.76 90.03 140 89.454 140C89.07 140 88.71 140 88.35 140C87.534 140 86.838 139.472 86.646 138.68C86.526 138.2 86.406 137.744 86.31 137.288H83.91C83.838 137.72 83.766 138.152 83.694 138.584C83.526 139.424 82.806 140 81.966 140C81.606 140 81.246 140 80.862 140C80.31 140 79.806 139.76 79.47 139.328C79.11 138.872 79.014 138.344 79.158 137.792C80.286 133.592 81.414 129.416 82.518 125.24C82.59 125 82.662 124.76 82.71 124.52C82.926 123.752 83.622 123.224 84.414 123.224H85.902C86.718 123.224 87.39 123.752 87.606 124.52L91.158 137.792ZM97.9532 123.224C100.641 123.224 102.825 125.408 102.825 128.096C102.825 129.584 102.153 130.952 101.073 131.84C101.673 132.128 102.105 132.728 102.201 133.376C102.777 137.792 102.249 133.832 102.825 138.248C102.945 139.232 102.249 140.024 101.289 140.024H100.233C99.2732 140.024 98.3612 139.208 98.2412 138.248L97.6172 133.376C97.5932 133.232 97.5932 133.112 97.6172 132.968H97.0412C96.8732 132.968 96.7292 133.112 96.7292 133.28V138.248C96.7292 139.208 95.9372 140 94.9772 140H93.9212C92.9612 140 92.1692 139.208 92.1692 138.248V124.976C92.1692 124.016 92.9612 123.224 93.9212 123.224H97.9532ZM98.2652 129.488V126.704C98.2652 126.296 97.9052 125.936 97.4972 125.936H97.0412C96.8732 125.936 96.7292 126.08 96.7292 126.248V129.944C96.7292 130.112 96.8732 130.256 97.0412 130.256H97.4972C97.9052 130.256 98.2652 129.896 98.2652 129.488ZM106.556 125.936H104.444C103.94 125.936 103.532 125.528 103.532 125V124.16C103.532 123.632 103.94 123.224 104.444 123.224H113.252C113.78 123.224 114.188 123.632 114.188 124.16V125C114.188 125.528 113.78 125.936 113.252 125.936H111.14V138.248C111.14 139.208 110.348 140 109.388 140H108.332C107.372 140 106.556 139.208 106.556 138.248V125.936Z" fill="#F46BA4"/>
<path d="M7.552 20.384C8.096 20.384 8.576 19.936 8.576 19.36C8.576 16.256 8 14.624 11.616 14.624C18.208 14.624 13.376 24 7.552 24C3.648 24 0.448 20.8 0.448 16.896V8.736C0.448 4.832 3.648 1.632 7.552 1.632C13.376 1.632 18.208 11.008 11.616 11.008C8 11.008 8.576 9.376 8.576 6.272C8.576 5.728 8.096 5.248 7.552 5.248C7.008 5.248 6.528 5.728 6.528 6.272V19.36C6.528 19.936 7.008 20.384 7.552 20.384ZM21.336 19.36C21.336 19.936 21.816 20.384 22.36 20.384C22.904 20.384 23.384 19.936 23.384 19.36C23.384 17.152 23.384 14.944 23.384 12.736C23.384 12.16 22.904 11.712 22.36 11.712C21.816 11.712 21.336 12.16 21.336 12.736C21.336 14.944 21.336 17.152 21.336 19.36ZM22.36 8.064C26.264 8.064 29.464 11.296 29.464 15.2C29.464 15.776 29.464 16.32 29.464 16.896C29.464 20.8 26.264 24 22.36 24C18.456 24 15.256 20.8 15.256 16.896C15.256 16.32 15.256 15.776 15.256 15.2C15.256 11.296 18.456 8.064 22.36 8.064ZM35.478 8.064C36.054 8.064 36.502 8.544 36.502 9.088C37.398 8.416 38.518 8.064 39.894 8.064C43.414 8.096 44.662 10.496 44.662 15.2V21.664C44.662 22.944 43.606 24 42.326 24H40.918C39.638 24 38.582 22.944 38.582 21.664V12.736C38.582 12.16 38.102 11.712 37.558 11.712C37.014 11.712 36.534 12.16 36.534 12.736V16.032H36.502V21.664C36.502 22.944 35.446 24 34.166 24H32.758C31.478 24 30.422 22.944 30.422 21.664V9.952C30.422 8.928 31.254 8.064 32.278 8.064H35.478ZM51.33 1.632C52.29 1.248 53.186 2.464 53.186 3.488V8.16L55.714 8.064C56.418 8.064 56.962 8.64 56.962 9.312V10.464C56.962 11.168 56.418 11.68 55.714 11.712L53.186 11.776V19.36C53.186 20.032 53.506 20.352 53.794 20.352C54.114 20.384 54.434 20.384 54.434 19.712C54.402 18.72 55.298 17.952 57.026 18.112C59.714 18.368 59.01 24.032 53.41 24.032C49.506 24.032 47.106 20.8 47.106 16.896V11.808H46.402C45.73 11.808 45.186 11.264 45.186 10.592V9.44C45.186 8.736 45.73 8.192 46.402 8.192H47.106V4.416C47.106 2.848 50.05 2.144 51.33 1.632ZM61.1218 8.064H64.3538C64.8978 8.064 65.3458 8.544 65.3458 9.088C66.2418 8.416 67.3618 8.064 68.7378 8.064C71.6498 8.096 72.9938 9.728 73.4098 12.896C73.4738 13.44 73.3138 13.952 72.9298 14.368C72.5778 14.784 72.0978 15.008 71.5218 15.008H69.2818C68.2578 15.008 67.4258 14.144 67.4258 13.12V12.736C67.4258 12.16 66.9458 11.712 66.4018 11.712C65.8578 11.712 65.3778 12.16 65.3778 12.736V16.032H65.3458V21.664C65.3458 22.944 64.2898 24 63.0098 24H61.6018C60.3218 24 59.2658 22.944 59.2658 21.664V9.952C59.2658 8.928 60.0978 8.064 61.1218 8.064ZM79.807 20.32V20.896C79.807 22.208 81.823 20.832 81.823 19.52V17.152C81.055 17.152 79.807 19.168 79.807 20.32ZM87.903 15.2V22.144C87.903 23.168 87.071 24 86.047 24H83.679C82.847 24 82.143 23.456 81.887 22.72C80.511 23.712 78.559 24 77.087 24C75.199 24 73.695 22.496 73.695 20.608C73.695 16.8 78.399 15.488 81.823 15.136V12.736C81.823 12.16 81.343 11.712 80.799 11.712C80.255 11.712 79.775 12.16 79.775 12.736C79.807 13.728 79.999 14.88 76.639 15.008C74.847 15.072 73.983 15.04 73.695 14.048V13.024C74.303 10.336 77.375 8.064 80.799 8.064C84.703 8.064 87.903 11.296 87.903 15.2ZM96.7903 19.36C96.7583 18.368 96.5663 17.216 99.8943 17.088C101.686 16.992 102.582 17.056 102.87 18.048V19.072C102.262 21.76 99.1903 24 95.7663 24C91.8623 24 88.6623 20.8 88.6623 16.896C88.6623 16.32 88.6623 15.776 88.6623 15.2C88.6623 11.296 91.8623 8.064 95.7663 8.064C99.1903 8.064 102.262 10.336 102.87 13.024V14.048C102.582 15.04 101.686 15.072 99.8943 15.008C96.5663 14.88 96.7583 13.728 96.7903 12.736C96.7903 12.16 96.3103 11.712 95.7663 11.712C95.2223 11.712 94.7423 12.16 94.7423 12.736C94.7423 14.944 94.7423 17.152 94.7423 19.36C94.7423 19.936 95.2223 20.384 95.7663 20.384C96.3103 20.384 96.7903 19.936 96.7903 19.36ZM109.236 1.632C110.196 1.248 111.092 2.464 111.092 3.488V8.16L113.62 8.064C114.324 8.064 114.868 8.64 114.868 9.312V10.464C114.868 11.168 114.324 11.68 113.62 11.712L111.092 11.776V19.36C111.092 20.032 111.412 20.352 111.7 20.352C112.02 20.384 112.34 20.384 112.34 19.712C112.308 18.72 113.204 17.952 114.932 18.112C117.62 18.368 116.916 24.032 111.316 24.032C107.412 24.032 105.012 20.8 105.012 16.896V11.808H104.308C103.636 11.808 103.092 11.264 103.092 10.592V9.44C103.092 8.736 103.636 8.192 104.308 8.192H105.012V4.416C105.012 2.848 107.956 2.144 109.236 1.632ZM131.482 7.072C131.45 6.816 131.098 6.784 131.034 7.04C130.394 10.272 130.362 13.504 130.138 16.736H132.282C131.802 13.76 131.546 10.72 131.482 7.072ZM139.45 21.056C139.642 21.792 139.514 22.496 139.034 23.104C138.586 23.68 137.946 24 137.178 24C136.666 24 136.186 24 135.706 24C134.618 24 133.69 23.296 133.434 22.24C133.274 21.6 133.114 20.992 132.986 20.384H129.786C129.69 20.96 129.594 21.536 129.498 22.112C129.274 23.232 128.314 24 127.194 24C126.714 24 126.234 24 125.722 24C124.986 24 124.314 23.68 123.866 23.104C123.386 22.496 123.258 21.792 123.45 21.056C124.954 15.456 126.458 9.888 127.93 4.32C128.026 4 128.122 3.68 128.186 3.36C128.474 2.336 129.402 1.632 130.458 1.632H132.442C133.53 1.632 134.426 2.336 134.714 3.36L139.45 21.056ZM146.559 19.36C146.559 19.936 147.039 20.384 147.583 20.384C148.127 20.384 148.607 19.936 148.607 19.36V12.736C148.607 12.16 148.127 11.712 147.583 11.712C147.039 11.712 146.559 12.16 146.559 12.736V19.36ZM148.639 9.088V3.968C148.639 2.688 149.695 1.632 150.975 1.632H152.383C153.663 1.632 154.719 2.688 154.719 3.968V21.664C154.719 22.944 153.663 24 152.383 24H150.975C150.079 24 149.311 23.52 148.895 22.784C147.999 23.616 146.751 24.032 145.247 24C141.727 24 140.479 21.568 140.479 16.896V15.2C140.479 10.496 141.695 8.096 145.247 8.064C146.623 8.064 147.743 8.416 148.639 9.088ZM161.965 19.36C161.965 19.936 162.445 20.384 162.989 20.384C163.533 20.384 164.013 19.936 164.013 19.36V12.736C164.013 12.16 163.533 11.712 162.989 11.712C162.445 11.712 161.965 12.16 161.965 12.736V19.36ZM164.045 9.088V3.968C164.045 2.688 165.101 1.632 166.381 1.632H167.789C169.069 1.632 170.125 2.688 170.125 3.968V21.664C170.125 22.944 169.069 24 167.789 24H166.381C165.485 24 164.717 23.52 164.301 22.784C163.405 23.616 162.157 24.032 160.653 24C157.133 24 155.885 21.568 155.885 16.896V15.2C155.885 10.496 157.101 8.096 160.653 8.064C162.029 8.064 163.149 8.416 164.045 9.088ZM173.403 8.064H176.635C177.179 8.064 177.627 8.544 177.627 9.088C178.523 8.416 179.643 8.064 181.019 8.064C183.931 8.096 185.275 9.728 185.691 12.896C185.755 13.44 185.595 13.952 185.211 14.368C184.859 14.784 184.379 15.008 183.803 15.008H181.563C180.539 15.008 179.707 14.144 179.707 13.12V12.736C179.707 12.16 179.227 11.712 178.683 11.712C178.139 11.712 177.659 12.16 177.659 12.736V16.032H177.627V21.664C177.627 22.944 176.571 24 175.291 24H173.883C172.603 24 171.547 22.944 171.547 21.664V9.952C171.547 8.928 172.379 8.064 173.403 8.064ZM200.28 14.048V16.608C200.28 17.312 199.736 17.856 199.032 17.856H191.992V19.36C191.992 19.936 192.472 20.384 193.016 20.384C195.864 20.384 192.632 18.4 197.176 18.4C199.288 18.4 200.376 18.848 200.28 20.032C200.216 21.6 198.008 24 193.016 24C189.112 24 185.912 20.8 185.912 16.896V15.2C185.912 11.296 189.112 8.064 193.016 8.064C196.408 8.064 200.28 10.368 200.28 14.048ZM194.04 14.24C194.04 13.696 194.04 13.248 194.04 12.736C194.04 12.16 193.56 11.712 193.016 11.712C192.472 11.712 191.992 12.16 191.992 12.736V14.24H194.04ZM209.072 19.36C209.072 19.104 209.135 19.104 209.072 18.88C208.911 18.336 208.592 17.856 208.048 17.856C198.479 17.856 198.543 8.064 208.048 8.064C211.376 8.064 213.52 9.28 214.544 10.816C214.928 11.424 214.96 12.128 214.608 12.736C214.288 13.344 213.68 13.728 212.976 13.728H210.8C209.968 13.728 209.264 13.216 209.008 12.416C208.88 12 208.496 11.712 208.048 11.712C207.472 11.712 207.024 12.16 207.024 12.736C207.024 12.992 206.96 12.992 207.024 13.216C207.184 13.76 207.504 14.24 208.048 14.24C217.616 14.24 217.52 24 208.048 24C204.72 24 202.576 22.816 201.552 21.248C201.168 20.672 201.136 19.968 201.488 19.36C201.808 18.72 202.416 18.368 203.12 18.368H205.296C206.128 18.368 206.832 18.88 207.088 19.68C207.216 20.064 207.6 20.384 208.048 20.384C208.592 20.384 209.072 19.936 209.072 19.36ZM223.822 19.36C223.822 19.104 223.885 19.104 223.822 18.88C223.661 18.336 223.342 17.856 222.798 17.856C213.229 17.856 213.293 8.064 222.798 8.064C226.126 8.064 228.27 9.28 229.294 10.816C229.678 11.424 229.71 12.128 229.358 12.736C229.038 13.344 228.43 13.728 227.726 13.728H225.55C224.718 13.728 224.014 13.216 223.758 12.416C223.63 12 223.246 11.712 222.798 11.712C222.222 11.712 221.774 12.16 221.774 12.736C221.774 12.992 221.71 12.992 221.774 13.216C221.934 13.76 222.254 14.24 222.798 14.24C232.366 14.24 232.27 24 222.798 24C219.47 24 217.326 22.816 216.302 21.248C215.918 20.672 215.886 19.968 216.238 19.36C216.558 18.72 217.166 18.368 217.87 18.368H220.046C220.878 18.368 221.582 18.88 221.838 19.68C221.966 20.064 222.35 20.384 222.798 20.384C223.342 20.384 223.822 19.936 223.822 19.36Z" fill="#F46BA4"/>
<path d="M1.896 49.936C1.4 49.936 1.04 49.808 0.816 49.552C0.592 49.312 0.48 49.048 0.48 48.76C0.48 48.44 0.536 48.184 0.648 47.992C0.776 47.8 1.016 47.656 1.368 47.56C1.736 47.464 2.272 47.408 2.976 47.392C3.856 46.944 4.744 46.392 5.64 45.736C6.552 45.064 7.424 44.32 8.256 43.504C9.088 42.688 9.832 41.832 10.488 40.936C11.144 40.04 11.664 39.136 12.048 38.224C12.432 37.312 12.624 36.424 12.624 35.56C12.624 34.744 12.368 34.112 11.856 33.664C11.36 33.2 10.624 32.968 9.648 32.968C8.72 32.968 7.896 33.088 7.176 33.328C6.472 33.552 5.896 33.776 5.448 34C5.016 34.224 4.712 34.336 4.536 34.336C4.104 34.336 3.888 34.048 3.888 33.472C3.888 33.264 4.04 32.992 4.344 32.656C4.664 32.32 5.096 31.984 5.64 31.648C6.184 31.296 6.816 31.008 7.536 30.784C8.256 30.544 9.024 30.424 9.84 30.424C11.216 30.424 12.336 30.864 13.2 31.744C14.064 32.608 14.496 33.92 14.496 35.68C14.496 36.944 14.232 38.144 13.704 39.28C13.192 40.416 12.512 41.488 11.664 42.496C10.816 43.488 9.888 44.416 8.88 45.28C7.872 46.128 6.88 46.888 5.904 47.56C7.168 47.544 8.208 47.504 9.024 47.44C9.84 47.36 10.504 47.28 11.016 47.2C11.528 47.104 11.96 47.032 12.312 46.984C12.664 46.92 13.016 46.888 13.368 46.888C13.768 46.888 14.056 47 14.232 47.224C14.424 47.432 14.52 47.688 14.52 47.992C14.52 48.248 14.456 48.48 14.328 48.688C14.216 48.88 13.976 49.04 13.608 49.168C13.24 49.312 12.68 49.416 11.928 49.48C11.176 49.56 10.168 49.6 8.904 49.6C8.04 49.6 7.144 49.592 6.216 49.576C5.304 49.56 4.416 49.536 3.552 49.504C2.752 49.792 2.2 49.936 1.896 49.936ZM20.0462 50.08C19.6942 50.08 19.4222 49.976 19.2302 49.768C19.0382 49.576 18.9422 49.088 18.9422 48.304C18.9422 47.584 19.0702 46.648 19.3262 45.496C19.5822 44.328 19.9262 43.032 20.3582 41.608C20.7902 40.184 21.2782 38.712 21.8222 37.192C22.3662 35.656 22.9342 34.152 23.5262 32.68C24.1342 31.192 24.7182 29.832 25.2782 28.6C25.4862 28.152 25.7022 27.84 25.9262 27.664C26.1502 27.488 26.4142 27.4 26.7182 27.4C26.9262 27.4 27.1022 27.464 27.2462 27.592C27.4062 27.704 27.4862 27.896 27.4862 28.168C27.4862 28.264 27.3822 28.576 27.1742 29.104C26.9822 29.632 26.7102 30.328 26.3582 31.192C26.0222 32.056 25.6462 33.024 25.2302 34.096C24.8142 35.168 24.3902 36.296 23.9582 37.48C23.5262 38.664 23.1182 39.856 22.7342 41.056C22.3502 42.24 22.0222 43.376 21.7502 44.464C21.4782 45.552 21.2942 46.528 21.1982 47.392C21.5822 46.928 22.0222 46.336 22.5182 45.616C23.0142 44.896 23.5422 44.12 24.1022 43.288C24.6622 42.456 25.2302 41.632 25.8062 40.816C26.3822 40 26.9502 39.256 27.5102 38.584C28.0702 37.912 28.5902 37.376 29.0702 36.976C29.5662 36.56 29.9982 36.352 30.3662 36.352C30.9742 36.352 31.4622 36.544 31.8302 36.928C32.2142 37.296 32.4062 37.904 32.4062 38.752C32.4062 39.232 32.3102 39.808 32.1182 40.48C31.9422 41.152 31.7342 41.856 31.4942 42.592C31.2542 43.328 31.0382 44.032 30.8462 44.704C30.6702 45.376 30.5822 45.952 30.5822 46.432C30.5822 47.088 30.8302 47.416 31.3262 47.416C32.0942 47.416 32.8622 47.248 33.6302 46.912C34.4142 46.576 35.1582 46.16 35.8622 45.664C36.5662 45.152 37.2142 44.64 37.8062 44.128C38.3982 43.6 38.9022 43.152 39.3182 42.784C39.7662 42.384 40.1422 42.184 40.4462 42.184C40.8302 42.184 41.0222 42.384 41.0222 42.784C41.0222 42.896 40.9982 43.024 40.9502 43.168C40.9022 43.312 40.7742 43.496 40.5662 43.72C40.3102 44.008 39.9422 44.384 39.4622 44.848C38.9982 45.312 38.4542 45.808 37.8302 46.336C37.2222 46.864 36.5582 47.36 35.8382 47.824C35.1342 48.288 34.4062 48.672 33.6542 48.976C32.9182 49.264 32.1982 49.408 31.4942 49.408C30.5342 49.408 29.7902 49.136 29.2622 48.592C28.7502 48.032 28.4942 47.264 28.4942 46.288C28.4942 45.68 28.5902 44.944 28.7822 44.08C28.9742 43.216 29.2142 42.304 29.5022 41.344C29.8062 40.368 30.1102 39.416 30.4142 38.488C29.9022 38.84 29.3422 39.368 28.7342 40.072C28.1422 40.76 27.5182 41.544 26.8622 42.424C26.2062 43.288 25.5502 44.168 24.8942 45.064C24.2542 45.96 23.6302 46.792 23.0222 47.56C22.4302 48.312 21.8782 48.92 21.3662 49.384C20.8542 49.848 20.4142 50.08 20.0462 50.08ZM41.1463 48.448C40.6823 48.448 40.2663 48.184 39.8983 47.656C39.5303 47.128 39.3463 46.448 39.3463 45.616C39.3463 44.704 39.4663 43.728 39.7063 42.688C39.9623 41.648 40.2743 40.592 40.6423 39.52C41.0103 38.432 41.3703 37.384 41.7223 36.376C41.8023 36.168 41.9143 36.016 42.0583 35.92C42.2183 35.808 42.4583 35.752 42.7783 35.752C43.3543 35.752 43.6423 36.032 43.6423 36.592C43.6423 36.72 43.5783 37.008 43.4503 37.456C43.3223 37.904 43.1543 38.456 42.9463 39.112C42.7543 39.768 42.5543 40.48 42.3463 41.248C42.1383 42 41.9543 42.76 41.7943 43.528C41.6343 44.296 41.5223 45.008 41.4583 45.664C41.7143 45.392 42.0023 44.976 42.3223 44.416C42.6583 43.856 43.0183 43.224 43.4023 42.52C43.7863 41.8 44.1863 41.08 44.6023 40.36C45.0183 39.624 45.4343 38.952 45.8503 38.344C46.2823 37.72 46.6983 37.224 47.0983 36.856C47.5143 36.472 47.8983 36.28 48.2503 36.28C48.7623 36.28 49.1943 36.44 49.5463 36.76C49.9143 37.064 50.1943 37.608 50.3863 38.392C50.5943 39.16 50.6983 40.248 50.6983 41.656C50.6983 42.408 50.7703 43.112 50.9143 43.768C51.0743 44.424 51.3223 44.952 51.6583 45.352C52.0103 45.736 52.4583 45.928 53.0023 45.928C53.8183 45.928 54.5463 45.784 55.1863 45.496C55.8263 45.192 56.3783 44.856 56.8423 44.488C57.3223 44.104 57.7223 43.768 58.0423 43.48C58.3623 43.176 58.6103 43.024 58.7863 43.024C59.1543 43.024 59.3383 43.216 59.3383 43.6C59.3383 43.76 59.2183 44.016 58.9783 44.368C58.7543 44.704 58.4343 45.088 58.0183 45.52C57.6183 45.936 57.1543 46.344 56.6263 46.744C56.1143 47.128 55.5623 47.448 54.9703 47.704C54.3943 47.96 53.8103 48.088 53.2183 48.088C52.1143 48.088 51.2103 47.872 50.5063 47.44C49.8183 47.008 49.3063 46.296 48.9703 45.304C48.6503 44.312 48.4903 42.984 48.4903 41.32C48.4903 40.408 48.4343 39.744 48.3223 39.328C48.2263 38.896 48.0423 38.608 47.7703 38.464C47.5783 38.8 47.3303 39.28 47.0263 39.904C46.7223 40.512 46.3703 41.192 45.9703 41.944C45.5863 42.696 45.1783 43.456 44.7463 44.224C44.3303 44.976 43.9063 45.672 43.4743 46.312C43.0423 46.952 42.6263 47.472 42.2263 47.872C41.8263 48.256 41.4663 48.448 41.1463 48.448ZM61.7331 49.048C61.3971 49.048 61.1091 48.848 60.8691 48.448C60.6291 48.048 60.5091 47.248 60.5091 46.048C60.5091 44.944 60.5891 43.56 60.7491 41.896C60.9251 40.216 61.1811 38.36 61.5171 36.328C61.6931 35.4 62.0211 34.632 62.5011 34.024C62.9971 33.416 63.6371 32.904 64.4211 32.488C65.2211 32.072 66.1571 31.704 67.2291 31.384C68.3011 31.064 69.4051 30.776 70.5411 30.52C71.6931 30.248 72.7731 30.032 73.7811 29.872C74.8051 29.696 75.6451 29.608 76.3011 29.608C76.7651 29.608 77.1171 29.704 77.3571 29.896C77.5971 30.088 77.7171 30.288 77.7171 30.496C77.7171 30.688 77.6611 30.856 77.5491 31C77.4531 31.128 77.2611 31.232 76.9731 31.312C76.7651 31.376 76.3251 31.488 75.6531 31.648C74.9971 31.792 74.1891 31.968 73.2291 32.176C72.2851 32.384 71.2851 32.608 70.2291 32.848C69.1731 33.072 68.1491 33.304 67.1571 33.544C66.0211 33.864 65.1971 34.272 64.6851 34.768C64.1891 35.248 63.8611 35.928 63.7011 36.808C63.6691 37.032 63.6211 37.36 63.5571 37.792C64.0051 37.616 64.5651 37.424 65.2371 37.216C65.9091 37.008 66.5971 36.808 67.3011 36.616C68.0051 36.424 68.6531 36.272 69.2451 36.16C69.8371 36.032 70.2771 35.968 70.5651 35.968C70.7731 35.968 70.9891 36.096 71.2131 36.352C71.4531 36.608 71.5731 36.872 71.5731 37.144C71.5731 37.272 71.5331 37.4 71.4531 37.528C71.3731 37.64 71.2371 37.728 71.0451 37.792C70.9331 37.824 70.6531 37.904 70.2051 38.032C69.7731 38.144 69.2451 38.288 68.6211 38.464C68.0131 38.64 67.3731 38.832 66.7011 39.04C66.0291 39.232 65.3891 39.416 64.7811 39.592C64.1891 39.768 63.6931 39.92 63.2931 40.048C63.2131 40.816 63.1251 41.616 63.0291 42.448C62.9331 43.28 62.8451 44.072 62.7651 44.824C62.7011 45.56 62.6451 46.192 62.5971 46.72C62.5491 47.232 62.5251 47.56 62.5251 47.704C62.5251 48.6 62.2611 49.048 61.7331 49.048ZM74.8363 56.128C74.5643 56.128 74.3483 56.032 74.1883 55.84C74.0443 55.648 73.9723 55.28 73.9723 54.736C73.9723 53.952 74.0283 53.04 74.1403 52C74.2523 50.96 74.4043 49.856 74.5963 48.688C74.8043 47.52 75.0283 46.352 75.2683 45.184C75.5243 44.016 75.7883 42.904 76.0603 41.848C76.3483 40.792 76.6283 39.856 76.9003 39.04C77.1723 38.208 77.4203 37.552 77.6443 37.072C77.8843 36.592 78.0923 36.352 78.2683 36.352C78.5723 36.352 78.8123 36.44 78.9883 36.616C79.1803 36.792 79.2763 37.056 79.2763 37.408C79.2763 37.856 79.1403 38.584 78.8683 39.592C78.5963 40.584 78.2443 41.88 77.8123 43.48C78.2123 42.744 78.6443 41.976 79.1083 41.176C79.5723 40.376 80.0603 39.6 80.5723 38.848C81.0843 38.08 81.5963 37.392 82.1083 36.784C82.6363 36.176 83.1483 35.688 83.6443 35.32C84.1403 34.952 84.6203 34.768 85.0843 34.768C85.5803 34.768 86.0203 34.928 86.4043 35.248C86.7883 35.552 87.0843 35.968 87.2923 36.496C87.5163 37.008 87.6283 37.584 87.6283 38.224C87.6283 39.552 87.4043 40.84 86.9563 42.088C86.5083 43.32 85.8843 44.432 85.0843 45.424C84.3003 46.4 83.3723 47.176 82.3003 47.752C81.2443 48.328 80.1003 48.616 78.8683 48.616C78.4043 48.616 77.9883 48.592 77.6203 48.544C77.2523 48.496 76.9323 48.44 76.6603 48.376C76.4683 49.432 76.2843 50.52 76.1083 51.64C75.9323 52.76 75.7563 53.952 75.5803 55.216C75.5323 55.552 75.4523 55.784 75.3403 55.912C75.2283 56.056 75.0603 56.128 74.8363 56.128ZM85.5163 36.592C85.1803 36.592 84.7803 36.784 84.3163 37.168C83.8683 37.552 83.3803 38.064 82.8523 38.704C82.3403 39.328 81.8203 40.024 81.2923 40.792C80.7643 41.544 80.2523 42.312 79.7563 43.096C79.2603 43.88 78.8043 44.608 78.3883 45.28C77.9883 45.952 77.6603 46.512 77.4043 46.96C78.6523 46.928 79.7483 46.68 80.6923 46.216C81.6363 45.736 82.4443 45.128 83.1163 44.392C83.7883 43.64 84.3323 42.832 84.7483 41.968C85.1803 41.088 85.4923 40.24 85.6843 39.424C85.8763 38.592 85.9723 37.872 85.9723 37.264C85.9723 36.816 85.8203 36.592 85.5163 36.592ZM92.6565 49.696C92.0965 49.696 91.6325 49.448 91.2645 48.952C90.9125 48.44 90.7365 47.536 90.7365 46.24C90.7365 44.88 90.7605 43.56 90.8085 42.28C90.8565 40.984 90.9445 39.824 91.0725 38.8C91.2165 37.776 91.4085 36.96 91.6485 36.352C91.8885 35.744 92.2005 35.44 92.5845 35.44C92.8565 35.44 93.0965 35.592 93.3045 35.896C93.5125 36.184 93.6165 36.568 93.6165 37.048C93.6165 37.544 93.5685 38.208 93.4725 39.04C93.3765 39.872 93.2565 40.768 93.1125 41.728C92.9845 42.672 92.8725 43.592 92.7765 44.488C92.6805 45.368 92.6325 46.112 92.6325 46.72C92.6325 46.976 92.6405 47.184 92.6565 47.344C92.6885 47.488 92.7365 47.56 92.8005 47.56C93.0405 47.56 93.2965 47.352 93.5685 46.936C93.8565 46.504 94.1605 45.944 94.4805 45.256C94.8005 44.552 95.1365 43.784 95.4885 42.952C95.8405 42.104 96.2005 41.264 96.5685 40.432C96.9365 39.6 97.3125 38.84 97.6965 38.152C98.0805 37.448 98.4645 36.888 98.8485 36.472C99.2325 36.04 99.6085 35.824 99.9765 35.824C100.409 35.824 100.809 36.032 101.177 36.448C101.561 36.848 101.753 37.424 101.753 38.176C101.753 38.4 101.721 38.792 101.657 39.352C101.593 39.896 101.513 40.52 101.417 41.224C101.321 41.928 101.225 42.632 101.129 43.336C101.033 44.024 100.953 44.64 100.889 45.184C100.825 45.712 100.793 46.088 100.793 46.312C100.793 47.144 100.873 47.56 101.033 47.56C101.481 47.56 101.953 47.28 102.449 46.72C102.961 46.144 103.473 45.408 103.985 44.512C104.513 43.6 105.033 42.616 105.545 41.56C106.073 40.488 106.577 39.464 107.057 38.488C107.281 37.976 107.465 37.632 107.609 37.456C107.769 37.264 107.929 37.168 108.089 37.168C108.313 37.168 108.521 37.288 108.713 37.528C108.921 37.768 109.025 38.096 109.025 38.512C109.025 38.656 109.017 38.8 109.001 38.944C108.985 39.072 108.945 39.216 108.881 39.376C108.337 40.816 107.753 42.152 107.129 43.384C106.505 44.6 105.865 45.664 105.209 46.576C104.569 47.472 103.937 48.176 103.312 48.688C102.689 49.184 102.113 49.432 101.585 49.432C100.673 49.432 99.9605 49.176 99.4485 48.664C98.9525 48.136 98.7045 47.432 98.7045 46.552C98.7045 46.184 98.7285 45.704 98.7765 45.112C98.8405 44.52 98.9125 43.88 98.9925 43.192C99.0885 42.504 99.1845 41.84 99.2805 41.2C99.3765 40.56 99.4565 40 99.5205 39.52C99.6005 39.04 99.6485 38.712 99.6645 38.536C99.6805 38.312 99.6565 38.2 99.5925 38.2C99.5285 38.2 99.4005 38.408 99.2085 38.824C99.0325 39.224 98.8165 39.736 98.5605 40.36C98.3205 40.968 98.0645 41.6 97.7925 42.256C97.4885 42.976 97.1365 43.768 96.7365 44.632C96.3525 45.48 95.9365 46.288 95.4885 47.056C95.0565 47.824 94.6005 48.456 94.1205 48.952C93.6405 49.448 93.1525 49.696 92.6565 49.696ZM113.205 51.136C112.933 51.136 112.717 51.04 112.557 50.848C112.397 50.656 112.317 50.336 112.317 49.888C112.317 49.088 112.357 48.264 112.437 47.416C112.533 46.552 112.581 45.752 112.581 45.016C112.581 43.336 112.429 41.952 112.125 40.864C111.837 39.76 111.205 39.016 110.229 38.632C110.005 38.552 109.845 38.464 109.749 38.368C109.637 38.272 109.581 38.12 109.581 37.912C109.581 37.688 109.669 37.504 109.845 37.36C110.005 37.216 110.309 37.144 110.757 37.144C111.125 37.144 111.613 37.16 112.221 37.192C112.829 37.224 113.485 37.256 114.189 37.288C114.685 35.512 115.245 34.04 115.869 32.872C116.493 31.704 117.173 30.784 117.909 30.112C118.661 29.44 119.453 28.96 120.285 28.672C121.133 28.384 122.013 28.24 122.925 28.24C123.325 28.24 123.581 28.296 123.693 28.408C123.805 28.504 123.861 28.656 123.861 28.864C123.861 29.12 123.781 29.392 123.621 29.68C123.461 29.952 123.133 30.128 122.637 30.208C121.549 30.4 120.581 30.752 119.733 31.264C118.885 31.776 118.149 32.52 117.525 33.496C116.901 34.456 116.381 35.72 115.965 37.288C117.501 37.256 118.821 37.176 119.925 37.048C121.029 36.904 121.949 36.752 122.685 36.592C123.437 36.416 124.037 36.272 124.485 36.16C124.933 36.032 125.277 35.968 125.517 35.968C125.789 35.968 125.957 36.04 126.021 36.184C126.085 36.328 126.117 36.48 126.117 36.64C126.117 36.944 125.829 37.24 125.253 37.528C124.677 37.8 123.917 38.048 122.973 38.272C122.045 38.48 121.021 38.648 119.901 38.776C118.781 38.904 117.677 38.968 116.589 38.968C116.413 38.968 116.237 38.968 116.061 38.968C115.901 38.968 115.733 38.968 115.557 38.968C115.525 39.08 115.501 39.2 115.485 39.328C115.325 40.256 115.165 41.24 115.005 42.28C114.861 43.304 114.725 44.312 114.597 45.304C114.485 46.28 114.397 47.168 114.333 47.968C114.269 48.768 114.237 49.408 114.237 49.888C114.237 50.288 114.141 50.592 113.949 50.8C113.757 51.024 113.509 51.136 113.205 51.136ZM113.781 38.872C113.317 38.824 112.885 38.76 112.485 38.68C112.693 38.92 112.869 39.2 113.013 39.52C113.173 39.84 113.309 40.184 113.421 40.552C113.533 39.96 113.653 39.4 113.781 38.872ZM124.2 46.312C124.04 46.888 123.856 47.248 123.648 47.392C123.456 47.552 123.248 47.632 123.024 47.632C122.768 47.632 122.544 47.536 122.352 47.344C122.176 47.152 122.152 46.76 122.28 46.168C122.552 44.92 122.808 43.736 123.048 42.616C123.304 41.48 123.52 40.464 123.696 39.568C123.888 38.672 124.04 37.944 124.152 37.384C124.28 36.808 124.36 36.456 124.392 36.328C124.568 35.528 124.768 34.688 124.992 33.808C125.216 32.928 125.464 32.064 125.736 31.216C126.008 30.368 126.296 29.6 126.6 28.912C126.92 28.224 127.248 27.68 127.584 27.28C127.76 27.104 127.92 26.984 128.064 26.92C128.208 26.84 128.336 26.8 128.448 26.8C128.672 26.8 128.848 26.896 128.976 27.088C129.12 27.28 129.192 27.496 129.192 27.736C129.192 27.864 129.168 27.992 129.12 28.12C128.8 29.016 128.456 30.12 128.088 31.432C127.72 32.728 127.336 34.144 126.936 35.68C127.528 35.552 128.16 35.416 128.832 35.272C129.504 35.112 130.152 34.952 130.776 34.792C131.416 34.632 131.968 34.488 132.432 34.36C132.72 34.216 132.952 34.224 133.128 34.384C133.32 34.544 133.424 34.712 133.44 34.888C133.44 35.112 133.392 35.288 133.296 35.416C133.216 35.544 133.08 35.656 132.888 35.752C132.68 35.864 132.328 36 131.832 36.16C131.336 36.32 130.768 36.488 130.128 36.664C129.504 36.824 128.864 36.984 128.208 37.144C127.568 37.288 126.984 37.408 126.456 37.504C126.088 38.928 125.712 40.392 125.328 41.896C124.96 43.384 124.584 44.856 124.2 46.312ZM133.865 50.632C133.689 50.632 133.537 50.568 133.409 50.44C133.281 50.312 133.217 50.136 133.217 49.912C133.217 49.48 133.433 48.808 133.865 47.896C134.297 46.984 134.881 45.912 135.617 44.68C136.353 43.432 137.177 42.096 138.089 40.672C139.001 39.232 139.937 37.76 140.897 36.256C141.857 34.752 142.785 33.288 143.681 31.864C142.737 32.024 141.793 32.216 140.849 32.44C139.921 32.664 139.049 32.88 138.233 33.088C137.417 33.296 136.721 33.472 136.145 33.616C135.569 33.744 135.161 33.808 134.921 33.808C134.457 33.808 134.137 33.712 133.961 33.52C133.801 33.328 133.721 33.096 133.721 32.824C133.721 32.6 133.937 32.376 134.369 32.152C134.801 31.928 135.369 31.712 136.073 31.504C136.777 31.28 137.537 31.072 138.353 30.88C139.185 30.688 139.993 30.52 140.777 30.376C141.577 30.232 142.281 30.12 142.889 30.04C143.497 29.96 143.937 29.92 144.209 29.92C144.513 29.92 144.809 29.992 145.097 30.136C145.385 30.28 145.625 30.472 145.817 30.712C146.025 30.952 146.129 31.208 146.129 31.48C146.129 31.608 145.977 31.968 145.673 32.56C145.385 33.152 144.977 33.912 144.449 34.84C143.937 35.768 143.345 36.792 142.673 37.912C142.017 39.032 141.321 40.184 140.585 41.368C139.865 42.552 139.145 43.704 138.425 44.824C137.705 45.928 137.025 46.936 136.385 47.848C135.761 48.76 135.209 49.496 134.729 50.056C134.617 50.184 134.489 50.312 134.345 50.44C134.201 50.568 134.041 50.632 133.865 50.632ZM154.951 49.72C154.423 49.72 153.991 49.64 153.655 49.48C153.319 49.32 153.071 49.136 152.911 48.928C152.767 48.72 152.695 48.552 152.695 48.424C152.695 48.04 152.791 47.776 152.983 47.632C153.175 47.488 153.575 47.416 154.183 47.416C154.535 47.416 155.023 47.352 155.647 47.224C156.287 47.08 156.991 46.88 157.759 46.624C158.527 46.352 159.311 46.024 160.111 45.64C160.911 45.256 161.655 44.816 162.343 44.32C163.031 43.824 163.607 43.28 164.071 42.688C164.551 42.08 164.855 41.432 164.983 40.744C164.519 40.648 164.047 40.584 163.567 40.552C163.103 40.504 162.639 40.48 162.175 40.48C160.767 40.48 159.335 40.632 157.879 40.936C156.423 41.224 154.951 41.552 153.463 41.92C153.415 42.368 153.375 42.776 153.343 43.144C153.311 43.512 153.287 43.904 153.271 44.32C153.223 45.344 153.103 46.024 152.911 46.36C152.735 46.68 152.535 46.84 152.311 46.84C151.959 46.84 151.687 46.632 151.495 46.216C151.303 45.8 151.207 45.136 151.207 44.224C151.207 41.312 151.495 38.8 152.071 36.688C152.647 34.576 153.503 32.952 154.639 31.816C155.775 30.68 157.167 30.112 158.815 30.112C159.983 30.112 160.887 30.424 161.527 31.048C162.183 31.672 162.511 32.576 162.511 33.76C162.511 34.576 162.367 35.424 162.079 36.304C161.791 37.168 161.367 37.96 160.807 38.68C161.239 38.6 161.663 38.544 162.079 38.512C162.495 38.464 162.879 38.44 163.231 38.44C164.447 38.44 165.391 38.64 166.063 39.04C166.735 39.44 167.071 40.032 167.071 40.816C167.071 41.728 166.815 42.584 166.303 43.384C165.807 44.184 165.143 44.912 164.311 45.568C163.495 46.224 162.607 46.816 161.647 47.344C160.687 47.856 159.751 48.288 158.839 48.64C157.927 48.992 157.119 49.256 156.415 49.432C155.727 49.624 155.239 49.72 154.951 49.72ZM153.679 39.856C155.455 39.536 156.831 39.112 157.807 38.584C158.783 38.056 159.463 37.44 159.847 36.736C160.231 36.016 160.423 35.208 160.423 34.312C160.423 34.024 160.375 33.728 160.279 33.424C160.183 33.104 159.999 32.832 159.727 32.608C159.455 32.384 159.063 32.272 158.551 32.272C157.239 32.272 156.183 32.872 155.383 34.072C154.599 35.272 154.031 37.2 153.679 39.856ZM175.018 48.736C174.794 48.736 174.586 48.672 174.394 48.544C174.218 48.416 174.082 48.16 173.986 47.776C173.89 47.376 173.842 46.792 173.842 46.024C173.842 44.424 173.994 42.84 174.298 41.272C174.602 39.704 175.034 38.232 175.594 36.856C176.154 35.464 176.818 34.24 177.586 33.184C178.37 32.112 179.234 31.272 180.178 30.664C181.138 30.056 182.154 29.752 183.226 29.752C184.394 29.752 185.314 30.112 185.986 30.832C186.658 31.536 186.994 32.544 186.994 33.856C186.994 35.072 186.65 36.08 185.962 36.88C185.29 37.68 184.354 38.08 183.154 38.08C182.946 38.08 182.722 38.064 182.482 38.032C182.242 37.984 181.994 37.92 181.738 37.84C182.714 39.472 183.69 40.888 184.666 42.088C185.642 43.288 186.634 44.368 187.642 45.328C188.666 46.272 189.706 47.184 190.762 48.064C190.922 48.208 191.042 48.352 191.122 48.496C191.202 48.624 191.242 48.776 191.242 48.952C191.242 49.224 191.178 49.424 191.05 49.552C190.938 49.68 190.698 49.744 190.33 49.744C189.93 49.744 189.434 49.568 188.842 49.216C188.266 48.864 187.634 48.384 186.946 47.776C186.258 47.168 185.562 46.48 184.858 45.712C184.154 44.944 183.474 44.144 182.818 43.312C182.178 42.464 181.602 41.64 181.09 40.84C180.578 40.024 180.17 39.272 179.866 38.584C179.578 37.896 179.434 37.312 179.434 36.832C179.434 36.512 179.514 36.264 179.674 36.088C179.834 35.896 180.05 35.8 180.322 35.8C180.674 35.8 180.994 35.848 181.282 35.944C181.586 36.04 181.906 36.088 182.242 36.088C183.122 36.088 183.818 35.864 184.33 35.416C184.858 34.952 185.122 34.192 185.122 33.136C185.122 32.208 184.498 31.744 183.25 31.744C182.386 31.744 181.554 32.088 180.754 32.776C179.954 33.448 179.218 34.416 178.546 35.68C177.89 36.944 177.346 38.464 176.914 40.24C176.482 42 176.202 43.968 176.074 46.144C176.042 46.896 175.97 47.456 175.858 47.824C175.762 48.192 175.642 48.44 175.498 48.568C175.37 48.68 175.21 48.736 175.018 48.736ZM195.335 50.08C194.983 50.08 194.711 49.976 194.519 49.768C194.327 49.576 194.231 49.088 194.231 48.304C194.231 47.584 194.359 46.648 194.615 45.496C194.871 44.328 195.215 43.032 195.647 41.608C196.079 40.184 196.567 38.712 197.111 37.192C197.655 35.656 198.223 34.152 198.815 32.68C199.423 31.192 200.007 29.832 200.567 28.6C200.775 28.152 200.991 27.84 201.215 27.664C201.439 27.488 201.703 27.4 202.007 27.4C202.215 27.4 202.391 27.464 202.535 27.592C202.695 27.704 202.775 27.896 202.775 28.168C202.775 28.264 202.671 28.576 202.463 29.104C202.271 29.632 201.999 30.328 201.647 31.192C201.311 32.056 200.935 33.024 200.519 34.096C200.103 35.168 199.679 36.296 199.247 37.48C198.815 38.664 198.407 39.856 198.023 41.056C197.639 42.24 197.311 43.376 197.039 44.464C196.767 45.552 196.583 46.528 196.487 47.392C196.871 46.928 197.311 46.336 197.807 45.616C198.303 44.896 198.831 44.12 199.391 43.288C199.951 42.456 200.519 41.632 201.095 40.816C201.671 40 202.239 39.256 202.799 38.584C203.359 37.912 203.879 37.376 204.359 36.976C204.855 36.56 205.287 36.352 205.655 36.352C206.263 36.352 206.751 36.544 207.119 36.928C207.503 37.296 207.695 37.904 207.695 38.752C207.695 39.232 207.599 39.808 207.407 40.48C207.231 41.152 207.023 41.856 206.783 42.592C206.543 43.328 206.327 44.032 206.135 44.704C205.959 45.376 205.871 45.952 205.871 46.432C205.871 47.088 206.119 47.416 206.615 47.416C207.383 47.416 208.151 47.248 208.919 46.912C209.703 46.576 210.447 46.16 211.151 45.664C211.855 45.152 212.503 44.64 213.095 44.128C213.687 43.6 214.191 43.152 214.607 42.784C215.055 42.384 215.431 42.184 215.735 42.184C216.119 42.184 216.311 42.384 216.311 42.784C216.311 42.896 216.287 43.024 216.239 43.168C216.191 43.312 216.063 43.496 215.855 43.72C215.599 44.008 215.231 44.384 214.751 44.848C214.287 45.312 213.743 45.808 213.119 46.336C212.511 46.864 211.847 47.36 211.127 47.824C210.423 48.288 209.695 48.672 208.943 48.976C208.207 49.264 207.487 49.408 206.783 49.408C205.823 49.408 205.079 49.136 204.551 48.592C204.039 48.032 203.783 47.264 203.783 46.288C203.783 45.68 203.879 44.944 204.071 44.08C204.263 43.216 204.503 42.304 204.791 41.344C205.095 40.368 205.399 39.416 205.703 38.488C205.191 38.84 204.631 39.368 204.023 40.072C203.431 40.76 202.807 41.544 202.151 42.424C201.495 43.288 200.839 44.168 200.183 45.064C199.543 45.96 198.919 46.792 198.311 47.56C197.719 48.312 197.167 48.92 196.655 49.384C196.143 49.848 195.703 50.08 195.335 50.08ZM215.515 50.08C215.163 50.08 214.891 49.976 214.699 49.768C214.507 49.576 214.411 49.088 214.411 48.304C214.411 47.584 214.539 46.648 214.795 45.496C215.051 44.328 215.395 43.032 215.827 41.608C216.259 40.184 216.747 38.712 217.291 37.192C217.835 35.656 218.403 34.152 218.995 32.68C219.603 31.192 220.187 29.832 220.747 28.6C220.955 28.152 221.171 27.84 221.395 27.664C221.619 27.488 221.883 27.4 222.187 27.4C222.395 27.4 222.571 27.464 222.715 27.592C222.875 27.704 222.955 27.896 222.955 28.168C222.955 28.264 222.851 28.576 222.643 29.104C222.451 29.632 222.179 30.328 221.827 31.192C221.491 32.056 221.115 33.024 220.699 34.096C220.283 35.168 219.859 36.296 219.427 37.48C218.995 38.664 218.587 39.856 218.203 41.056C217.819 42.24 217.491 43.376 217.219 44.464C216.947 45.552 216.763 46.528 216.667 47.392C217.051 46.928 217.491 46.336 217.987 45.616C218.483 44.896 219.011 44.12 219.571 43.288C220.131 42.456 220.699 41.632 221.275 40.816C221.851 40 222.419 39.256 222.979 38.584C223.539 37.912 224.059 37.376 224.539 36.976C225.035 36.56 225.467 36.352 225.835 36.352C226.443 36.352 226.931 36.544 227.299 36.928C227.683 37.296 227.875 37.904 227.875 38.752C227.875 39.232 227.779 39.808 227.587 40.48C227.411 41.152 227.203 41.856 226.963 42.592C226.723 43.328 226.507 44.032 226.315 44.704C226.139 45.376 226.051 45.952 226.051 46.432C226.051 47.088 226.299 47.416 226.795 47.416C227.563 47.416 228.331 47.248 229.099 46.912C229.883 46.576 230.627 46.16 231.331 45.664C232.035 45.152 232.683 44.64 233.275 44.128C233.867 43.6 234.371 43.152 234.787 42.784C235.235 42.384 235.611 42.184 235.915 42.184C236.299 42.184 236.491 42.384 236.491 42.784C236.491 42.896 236.467 43.024 236.419 43.168C236.371 43.312 236.243 43.496 236.035 43.72C235.779 44.008 235.411 44.384 234.931 44.848C234.467 45.312 233.923 45.808 233.299 46.336C232.691 46.864 232.027 47.36 231.307 47.824C230.603 48.288 229.875 48.672 229.123 48.976C228.387 49.264 227.667 49.408 226.963 49.408C226.003 49.408 225.259 49.136 224.731 48.592C224.219 48.032 223.963 47.264 223.963 46.288C223.963 45.68 224.059 44.944 224.251 44.08C224.443 43.216 224.683 42.304 224.971 41.344C225.275 40.368 225.579 39.416 225.883 38.488C225.371 38.84 224.811 39.368 224.203 40.072C223.611 40.76 222.987 41.544 222.331 42.424C221.675 43.288 221.019 44.168 220.363 45.064C219.723 45.96 219.099 46.792 218.491 47.56C217.899 48.312 217.347 48.92 216.835 49.384C216.323 49.848 215.883 50.08 215.515 50.08ZM236.216 50.632C236.04 50.632 235.888 50.568 235.76 50.44C235.632 50.312 235.568 50.136 235.568 49.912C235.568 49.48 235.784 48.808 236.216 47.896C236.648 46.984 237.232 45.912 237.968 44.68C238.704 43.432 239.528 42.096 240.44 40.672C241.352 39.232 242.288 37.76 243.248 36.256C244.208 34.752 245.136 33.288 246.032 31.864C245.088 32.024 244.144 32.216 243.2 32.44C242.272 32.664 241.4 32.88 240.584 33.088C239.768 33.296 239.072 33.472 238.496 33.616C237.92 33.744 237.512 33.808 237.272 33.808C236.808 33.808 236.488 33.712 236.312 33.52C236.152 33.328 236.072 33.096 236.072 32.824C236.072 32.6 236.288 32.376 236.72 32.152C237.152 31.928 237.72 31.712 238.424 31.504C239.128 31.28 239.888 31.072 240.704 30.88C241.536 30.688 242.344 30.52 243.128 30.376C243.928 30.232 244.632 30.12 245.24 30.04C245.848 29.96 246.288 29.92 246.56 29.92C246.864 29.92 247.16 29.992 247.448 30.136C247.736 30.28 247.976 30.472 248.168 30.712C248.376 30.952 248.48 31.208 248.48 31.48C248.48 31.608 248.328 31.968 248.024 32.56C247.736 33.152 247.328 33.912 246.8 34.84C246.288 35.768 245.696 36.792 245.024 37.912C244.368 39.032 243.672 40.184 242.936 41.368C242.216 42.552 241.496 43.704 240.776 44.824C240.056 45.928 239.376 46.936 238.736 47.848C238.112 48.76 237.56 49.496 237.08 50.056C236.968 50.184 236.84 50.312 236.696 50.44C236.552 50.568 236.392 50.632 236.216 50.632ZM252.424 51.136C252.152 51.136 251.936 51.04 251.776 50.848C251.616 50.656 251.536 50.336 251.536 49.888C251.536 49.088 251.576 48.264 251.656 47.416C251.752 46.552 251.8 45.752 251.8 45.016C251.8 43.336 251.648 41.952 251.344 40.864C251.056 39.76 250.424 39.016 249.448 38.632C249.224 38.552 249.064 38.464 248.968 38.368C248.856 38.272 248.8 38.12 248.8 37.912C248.8 37.688 248.888 37.504 249.064 37.36C249.224 37.216 249.528 37.144 249.976 37.144C250.344 37.144 250.832 37.16 251.44 37.192C252.048 37.224 252.704 37.256 253.408 37.288C253.904 35.512 254.464 34.04 255.088 32.872C255.712 31.704 256.392 30.784 257.128 30.112C257.88 29.44 258.672 28.96 259.504 28.672C260.352 28.384 261.232 28.24 262.144 28.24C262.544 28.24 262.8 28.296 262.912 28.408C263.024 28.504 263.08 28.656 263.08 28.864C263.08 29.12 263 29.392 262.84 29.68C262.68 29.952 262.352 30.128 261.856 30.208C260.768 30.4 259.8 30.752 258.952 31.264C258.104 31.776 257.368 32.52 256.744 33.496C256.12 34.456 255.6 35.72 255.184 37.288C256.72 37.256 258.04 37.176 259.144 37.048C260.248 36.904 261.168 36.752 261.904 36.592C262.656 36.416 263.256 36.272 263.704 36.16C264.152 36.032 264.496 35.968 264.736 35.968C265.008 35.968 265.176 36.04 265.24 36.184C265.304 36.328 265.336 36.48 265.336 36.64C265.336 36.944 265.048 37.24 264.472 37.528C263.896 37.8 263.136 38.048 262.192 38.272C261.264 38.48 260.24 38.648 259.12 38.776C258 38.904 256.896 38.968 255.808 38.968C255.632 38.968 255.456 38.968 255.28 38.968C255.12 38.968 254.952 38.968 254.776 38.968C254.744 39.08 254.72 39.2 254.704 39.328C254.544 40.256 254.384 41.24 254.224 42.28C254.08 43.304 253.944 44.312 253.816 45.304C253.704 46.28 253.616 47.168 253.552 47.968C253.488 48.768 253.456 49.408 253.456 49.888C253.456 50.288 253.36 50.592 253.168 50.8C252.976 51.024 252.728 51.136 252.424 51.136ZM253 38.872C252.536 38.824 252.104 38.76 251.704 38.68C251.912 38.92 252.088 39.2 252.232 39.52C252.392 39.84 252.528 40.184 252.64 40.552C252.752 39.96 252.872 39.4 253 38.872ZM265.532 49.336C264.748 49.336 264.068 49.16 263.492 48.808C262.932 48.44 262.5 47.968 262.196 47.392C261.892 46.816 261.74 46.224 261.74 45.616C261.74 44.336 261.964 43.168 262.412 42.112C262.86 41.04 263.42 40.096 264.092 39.28C264.78 38.448 265.484 37.744 266.204 37.168C266.94 36.592 267.604 36.16 268.196 35.872C268.804 35.568 269.236 35.416 269.492 35.416C270.004 35.416 270.26 35.672 270.26 36.184C270.26 36.424 270.1 36.704 269.78 37.024C269.46 37.328 269.052 37.688 268.556 38.104C268.06 38.52 267.532 38.992 266.972 39.52C266.412 40.032 265.884 40.616 265.388 41.272C264.892 41.912 264.484 42.632 264.164 43.432C263.844 44.216 263.684 45.08 263.684 46.024C263.684 46.984 264.076 47.464 264.86 47.464C265.58 47.464 266.316 47.328 267.068 47.056C267.836 46.784 268.588 46.432 269.324 46C270.076 45.552 270.796 45.088 271.484 44.608C272.172 44.128 272.796 43.672 273.356 43.24C273.916 42.792 274.388 42.432 274.772 42.16C275.156 41.888 275.428 41.752 275.588 41.752C275.908 41.752 276.068 41.928 276.068 42.28C276.068 42.552 275.884 42.912 275.516 43.36C275.148 43.808 274.652 44.296 274.028 44.824C273.404 45.352 272.708 45.888 271.94 46.432C271.172 46.96 270.396 47.448 269.612 47.896C268.828 48.328 268.076 48.68 267.356 48.952C266.652 49.208 266.044 49.336 265.532 49.336ZM277.325 49.024C276.637 49.024 276.149 48.888 275.861 48.616C275.573 48.344 275.429 47.944 275.429 47.416C275.429 44.76 275.909 41.984 276.869 39.088C277.829 36.176 279.173 33.256 280.901 30.328C281.125 29.96 281.301 29.728 281.429 29.632C281.573 29.536 281.741 29.488 281.933 29.488C282.157 29.488 282.357 29.568 282.533 29.728C282.709 29.888 282.797 30.104 282.797 30.376C282.797 30.52 282.653 30.912 282.365 31.552C282.077 32.176 281.709 32.984 281.261 33.976C280.813 34.968 280.333 36.08 279.821 37.312C279.325 38.528 278.853 39.8 278.405 41.128C277.957 42.456 277.597 43.776 277.325 45.088C277.693 44.544 278.133 43.96 278.645 43.336C279.173 42.712 279.733 42.088 280.325 41.464C280.917 40.84 281.517 40.272 282.125 39.76C282.749 39.248 283.349 38.84 283.925 38.536C284.501 38.232 285.029 38.08 285.509 38.08C286.133 38.08 286.677 38.344 287.141 38.872C287.621 39.384 287.861 40.16 287.861 41.2C287.861 42.08 287.621 42.984 287.141 43.912C286.661 44.824 285.957 45.672 285.029 46.456C284.117 47.224 283.013 47.848 281.717 48.328C280.421 48.792 278.957 49.024 277.325 49.024ZM277.421 47.2C278.749 47.2 279.957 46.976 281.045 46.528C282.133 46.08 283.061 45.512 283.829 44.824C284.613 44.12 285.213 43.392 285.629 42.64C286.061 41.872 286.277 41.176 286.277 40.552C286.277 40.104 286.125 39.88 285.821 39.88C285.453 39.88 284.981 40.056 284.405 40.408C283.829 40.76 283.205 41.224 282.533 41.8C281.877 42.376 281.221 43 280.565 43.672C279.909 44.328 279.301 44.968 278.741 45.592C278.197 46.216 277.757 46.752 277.421 47.2ZM301.745 50.272C300.705 50.272 299.745 50.024 298.865 49.528C298.001 49.032 297.217 48.392 296.513 47.608C295.825 46.824 295.209 45.984 294.665 45.088C294.137 44.176 293.681 43.32 293.297 42.52C293.025 43.816 292.809 44.864 292.649 45.664C292.505 46.464 292.385 47.072 292.289 47.488C292.209 47.904 292.129 48.184 292.049 48.328C291.969 48.472 291.865 48.544 291.737 48.544C291.385 48.544 291.049 48.352 290.729 47.968C290.409 47.584 290.249 47.088 290.249 46.48C290.249 45.84 290.361 44.992 290.585 43.936C290.809 42.864 291.105 41.68 291.473 40.384C291.857 39.072 292.297 37.72 292.793 36.328C293.289 34.92 293.801 33.552 294.329 32.224C294.873 30.88 295.417 29.656 295.961 28.552C296.233 28.008 296.465 27.656 296.657 27.496C296.865 27.336 297.113 27.256 297.401 27.256C297.865 27.256 298.097 27.472 298.097 27.904C298.097 28.064 298.049 28.24 297.953 28.432C297.873 28.624 297.785 28.84 297.689 29.08C297.401 29.784 297.081 30.576 296.729 31.456C296.393 32.336 296.049 33.256 295.697 34.216C295.361 35.176 295.041 36.128 294.737 37.072C294.433 38.016 294.169 38.888 293.945 39.688C294.633 39.208 295.441 38.728 296.369 38.248C297.297 37.768 298.257 37.336 299.249 36.952C300.241 36.552 301.177 36.232 302.057 35.992C302.937 35.752 303.665 35.632 304.241 35.632C304.545 35.632 304.777 35.728 304.937 35.92C305.113 36.096 305.201 36.296 305.201 36.52C305.201 36.696 305.145 36.872 305.033 37.048C304.937 37.208 304.729 37.352 304.409 37.48C303.353 37.848 302.305 38.224 301.265 38.608C300.225 38.976 299.137 39.376 298.001 39.808C296.881 40.224 295.657 40.72 294.329 41.296C294.745 42 295.233 42.76 295.793 43.576C296.353 44.376 296.953 45.136 297.593 45.856C298.233 46.56 298.889 47.144 299.561 47.608C300.233 48.056 300.905 48.28 301.577 48.28C302.457 48.28 303.305 48.096 304.121 47.728C304.937 47.36 305.689 46.912 306.377 46.384C307.081 45.856 307.697 45.344 308.225 44.848C308.753 44.336 309.169 43.936 309.473 43.648C309.633 43.504 309.777 43.408 309.905 43.36C310.049 43.296 310.177 43.264 310.289 43.264C310.513 43.264 310.665 43.384 310.745 43.624C310.841 43.848 310.761 44.096 310.505 44.368C310.313 44.592 310.017 44.936 309.617 45.4C309.217 45.864 308.729 46.376 308.153 46.936C307.593 47.48 306.969 48.008 306.281 48.52C305.609 49.032 304.881 49.448 304.097 49.768C303.329 50.104 302.545 50.272 301.745 50.272ZM9.624 76.272C9.368 76.272 9.104 76.096 8.832 75.744C8.576 75.408 8.448 75.032 8.448 74.616C8.448 74.536 8.488 74.24 8.568 73.728C8.648 73.216 8.76 72.544 8.904 71.712C9.048 70.88 9.208 69.96 9.384 68.952C9.576 67.928 9.768 66.872 9.96 65.784C10.152 64.696 10.336 63.64 10.512 62.616C10.704 61.592 10.88 60.656 11.04 59.808C10.528 60.944 9.992 62.064 9.432 63.168C8.872 64.256 8.296 65.248 7.704 66.144C7.112 67.04 6.504 67.752 5.88 68.28C5.256 68.808 4.64 69.072 4.032 69.072C3.168 69.072 2.512 68.816 2.064 68.304C1.616 67.776 1.392 67.104 1.392 66.288C1.392 65.44 1.592 64.56 1.992 63.648C2.392 62.72 2.92 61.808 3.576 60.912C4.248 60 4.984 59.144 5.784 58.344C6.584 57.544 7.384 56.832 8.184 56.208C8.984 55.584 9.728 55.096 10.416 54.744C11.104 54.376 11.664 54.192 12.096 54.192C12.528 54.192 12.848 54.288 13.056 54.48C13.264 54.656 13.368 54.976 13.368 55.44C13.368 55.744 13.32 56.288 13.224 57.072C13.144 57.84 13.024 58.76 12.864 59.832C12.72 60.904 12.552 62.064 12.36 63.312C12.184 64.544 12 65.784 11.808 67.032C11.616 68.264 11.432 69.44 11.256 70.56C11.08 71.68 10.92 72.656 10.776 73.488C10.648 74.32 10.552 74.936 10.488 75.336C10.424 75.688 10.32 75.928 10.176 76.056C10.032 76.2 9.848 76.272 9.624 76.272ZM3.576 67.128C4.008 67.128 4.48 66.888 4.992 66.408C5.52 65.928 6.056 65.296 6.6 64.512C7.16 63.728 7.712 62.864 8.256 61.92C8.8 60.96 9.304 60 9.768 59.04C10.248 58.08 10.664 57.2 11.016 56.4C10.152 56.992 9.264 57.688 8.352 58.488C7.456 59.288 6.616 60.144 5.832 61.056C5.064 61.968 4.44 62.904 3.96 63.864C3.496 64.824 3.264 65.768 3.264 66.696C3.264 66.984 3.368 67.128 3.576 67.128ZM17.8209 69.624C17.2129 69.624 16.7089 69.344 16.3089 68.784C15.9249 68.208 15.7329 67.464 15.7329 66.552C15.7329 65.704 15.9409 64.864 16.3569 64.032C16.7889 63.2 17.3569 62.4 18.0609 61.632C18.7649 60.864 19.5329 60.16 20.3649 59.52C21.1969 58.864 22.0289 58.296 22.8609 57.816C23.7089 57.336 24.4849 56.96 25.1889 56.688C25.8929 56.416 26.4529 56.28 26.8689 56.28C27.0929 56.28 27.2769 56.328 27.4209 56.424C27.5649 56.504 27.6369 56.656 27.6369 56.88C27.6369 57.024 27.5809 57.16 27.4689 57.288C27.4849 57.288 27.5009 57.288 27.5169 57.288C27.8689 57.288 28.0449 57.496 28.0449 57.912C28.0449 58.056 27.9889 58.352 27.8769 58.8C27.7649 59.232 27.6369 59.776 27.4929 60.432C27.3489 61.088 27.2209 61.816 27.1089 62.616C26.9969 63.4 26.9409 64.2 26.9409 65.016C26.9409 65.704 27.2049 66.048 27.7329 66.048C28.3249 66.048 28.9249 65.912 29.5329 65.64C30.1409 65.368 30.7329 65.04 31.3089 64.656C31.8849 64.256 32.4129 63.864 32.8929 63.48C33.3729 63.08 33.7809 62.744 34.1169 62.472C34.4529 62.2 34.6929 62.064 34.8369 62.064C34.9649 62.064 35.0769 62.104 35.1729 62.184C35.2689 62.264 35.3169 62.392 35.3169 62.568C35.3169 62.728 35.1569 63.016 34.8369 63.432C34.5169 63.848 34.0929 64.32 33.5649 64.848C33.0369 65.376 32.4449 65.888 31.7889 66.384C31.1329 66.88 30.4609 67.288 29.7729 67.608C29.0849 67.928 28.4289 68.088 27.8049 68.088C27.3249 68.088 26.8849 67.944 26.4849 67.656C26.1009 67.352 25.7889 66.84 25.5489 66.12C25.3249 65.4 25.2129 64.408 25.2129 63.144V62.544C24.4289 63.84 23.6049 65.024 22.7409 66.096C21.8929 67.168 21.0449 68.024 20.1969 68.664C19.3649 69.304 18.5729 69.624 17.8209 69.624ZM26.4129 58.008C26.3329 58.04 26.2209 58.088 26.0769 58.152C25.3409 58.488 24.5729 58.904 23.7729 59.4C22.9889 59.896 22.2209 60.448 21.4689 61.056C20.7329 61.664 20.0689 62.296 19.4769 62.952C18.8849 63.608 18.4129 64.272 18.0609 64.944C17.7089 65.616 17.5329 66.272 17.5329 66.912C17.5329 67.12 17.5729 67.28 17.6529 67.392C17.7489 67.504 17.9089 67.56 18.1329 67.56C18.4529 67.56 18.8689 67.36 19.3809 66.96C19.8929 66.544 20.4529 66 21.0609 65.328C21.6849 64.656 22.3089 63.912 22.9329 63.096C23.5569 62.28 24.1489 61.456 24.7089 60.624C25.2849 59.792 25.7809 59.024 26.1969 58.32C26.2609 58.208 26.3329 58.104 26.4129 58.008ZM39.921 70.152C39.409 70.152 38.873 70.024 38.313 69.768C37.769 69.528 37.305 69.128 36.921 68.568C36.553 67.992 36.369 67.232 36.369 66.288C36.369 65.184 36.465 64.016 36.657 62.784C36.849 61.552 37.097 60.32 37.401 59.088C37.721 57.84 38.073 56.656 38.457 55.536C38.841 54.416 39.225 53.416 39.609 52.536C40.009 51.656 40.377 50.968 40.713 50.472C41.049 49.96 41.329 49.704 41.553 49.704C41.857 49.704 42.113 49.824 42.321 50.064C42.545 50.304 42.657 50.64 42.657 51.072C42.657 51.248 42.553 51.664 42.345 52.32C42.137 52.96 41.873 53.768 41.553 54.744C41.233 55.72 40.889 56.776 40.521 57.912C40.169 59.048 39.833 60.192 39.513 61.344C39.193 62.496 38.929 63.584 38.721 64.608C38.513 65.632 38.409 66.504 38.409 67.224C38.409 67.432 38.465 67.632 38.577 67.824C38.689 68 38.873 68.088 39.129 68.088C39.481 68.088 39.985 68.008 40.641 67.848C41.313 67.688 42.041 67.496 42.825 67.272C43.609 67.032 44.361 66.8 45.081 66.576C45.801 66.352 46.409 66.16 46.905 66C47.401 65.84 47.681 65.76 47.745 65.76C47.937 65.76 48.097 65.816 48.225 65.928C48.353 66.024 48.417 66.176 48.417 66.384C48.417 66.64 48.225 66.936 47.841 67.272C47.473 67.608 46.977 67.944 46.353 68.28C45.745 68.616 45.065 68.92 44.313 69.192C43.561 69.48 42.801 69.712 42.033 69.888C41.281 70.064 40.577 70.152 39.921 70.152ZM60.2694 69.264C60.1254 69.264 59.8374 69.256 59.4054 69.24C58.9894 69.224 58.4934 69.2 57.9174 69.168C57.3414 69.136 56.7414 69.104 56.1174 69.072C55.5094 69.04 54.9334 69.016 54.3894 69C53.8614 68.984 53.4214 68.976 53.0694 68.976C52.6374 68.976 52.2774 68.832 51.9894 68.544C51.7174 68.256 51.5814 67.856 51.5814 67.344C51.5814 67.008 51.7334 66.576 52.0374 66.048C52.3414 65.52 52.7494 64.936 53.2614 64.296C53.7734 63.64 54.3414 62.968 54.9654 62.28C55.6054 61.592 56.2534 60.92 56.9094 60.264C57.5654 59.608 58.1974 59 58.8054 58.44C59.4134 57.88 59.9414 57.424 60.3894 57.072C59.3334 57.2 58.3014 57.368 57.2934 57.576C56.2854 57.768 55.4054 57.944 54.6534 58.104C53.9174 58.264 53.4214 58.344 53.1654 58.344C52.8454 58.344 52.5894 58.256 52.3974 58.08C52.2054 57.888 52.1094 57.632 52.1094 57.312C52.1094 57.136 52.3014 56.96 52.6854 56.784C53.0854 56.608 53.6134 56.44 54.2694 56.28C54.9254 56.12 55.6454 55.984 56.4294 55.872C57.2294 55.744 58.0374 55.648 58.8534 55.584C59.6694 55.52 60.4294 55.488 61.1334 55.488C61.6134 55.488 61.9974 55.632 62.2854 55.92C62.5894 56.208 62.7414 56.512 62.7414 56.832C62.7414 56.96 62.5574 57.248 62.1894 57.696C61.8214 58.144 61.3414 58.688 60.7494 59.328C60.1574 59.968 59.5094 60.656 58.8054 61.392C58.1014 62.128 57.4134 62.864 56.7414 63.6C56.0694 64.32 55.4694 64.992 54.9414 65.616C54.4134 66.224 54.0294 66.728 53.7894 67.128C54.2214 67.112 54.7334 67.096 55.3254 67.08C55.9174 67.064 56.5334 67.048 57.1734 67.032C57.8134 67 58.4214 66.976 58.9974 66.96C59.5734 66.928 60.0614 66.904 60.4614 66.888C60.8774 66.872 61.1494 66.864 61.2774 66.864C61.9174 66.864 62.2374 67.128 62.2374 67.656C62.2374 68.056 62.0534 68.424 61.6854 68.76C61.3174 69.096 60.8454 69.264 60.2694 69.264ZM76.5454 68.736C76.3374 68.736 76.0654 68.592 75.7294 68.304C75.4094 68 75.0334 67.456 74.6014 66.672C74.2334 65.968 73.8974 65.232 73.5934 64.464C73.2894 63.696 72.9934 62.912 72.7054 62.112C71.8094 63.264 70.9614 64.368 70.1614 65.424C69.3774 66.48 68.6974 67.408 68.1214 68.208C67.5614 68.992 67.1774 69.576 66.9694 69.96C66.8894 70.12 66.7614 70.296 66.5854 70.488C66.4094 70.68 66.2094 70.776 65.9854 70.776C65.7294 70.776 65.5134 70.68 65.3374 70.488C65.1774 70.296 65.0974 70.048 65.0974 69.744C65.0974 69.424 65.2894 68.928 65.6734 68.256C66.0734 67.568 66.5934 66.768 67.2334 65.856C67.8894 64.944 68.6174 63.96 69.4174 62.904C70.2334 61.848 71.0574 60.792 71.8894 59.736C71.5374 58.632 71.2094 57.568 70.9054 56.544C70.6174 55.504 70.3694 54.552 70.1614 53.688C69.9534 52.808 69.7934 52.072 69.6814 51.48C69.5694 50.888 69.5134 50.488 69.5134 50.28C69.5134 49.88 69.5854 49.6 69.7294 49.44C69.8894 49.28 70.0974 49.2 70.3534 49.2C70.8654 49.2 71.2254 49.536 71.4334 50.208C71.5294 50.48 71.6494 50.912 71.7934 51.504C71.9374 52.096 72.1454 52.896 72.4174 53.904C72.6894 54.912 73.0494 56.176 73.4974 57.696C74.1854 56.8 74.8414 55.92 75.4654 55.056C76.1054 54.192 76.6974 53.416 77.2414 52.728C77.7854 52.024 78.2574 51.472 78.6574 51.072C79.0574 50.656 79.3694 50.448 79.5934 50.448C80.2334 50.448 80.5534 50.768 80.5534 51.408C80.5534 51.584 80.5134 51.792 80.4334 52.032C80.3534 52.272 80.2094 52.552 80.0014 52.872C79.6654 53.432 79.1854 54.088 78.5614 54.84C77.9374 55.592 77.2414 56.416 76.4734 57.312C75.7214 58.208 74.9694 59.144 74.2174 60.12C74.6814 61.496 75.1454 62.704 75.6094 63.744C76.0734 64.784 76.4574 65.656 76.7614 66.36C77.0814 67.048 77.2414 67.568 77.2414 67.92C77.2414 68.464 77.0094 68.736 76.5454 68.736ZM90.0609 69.576C89.7889 69.576 89.5569 69.456 89.3649 69.216C89.1729 68.976 89.0769 68.624 89.0769 68.16C89.0769 67.616 89.1569 66.84 89.3169 65.832C89.4929 64.824 89.7489 63.488 90.0849 61.824C89.6529 62.848 89.1729 63.816 88.6449 64.728C88.1329 65.64 87.5889 66.384 87.0129 66.96C86.4369 67.536 85.8449 67.824 85.2369 67.824C84.6449 67.824 84.1169 67.592 83.6529 67.128C83.2049 66.664 82.9809 65.848 82.9809 64.68C82.9809 64.024 83.0369 63.288 83.1489 62.472C83.2609 61.64 83.4049 60.816 83.5809 60C83.7569 59.184 83.9329 58.456 84.1089 57.816C84.2849 57.16 84.4449 56.68 84.5889 56.376C84.7009 56.12 84.8129 55.952 84.9249 55.872C85.0369 55.776 85.1889 55.728 85.3809 55.728C85.6049 55.728 85.8449 55.824 86.1009 56.016C86.3569 56.208 86.4849 56.528 86.4849 56.976C86.4849 57.088 86.4289 57.352 86.3169 57.768C86.2209 58.168 86.0929 58.664 85.9329 59.256C85.7889 59.832 85.6369 60.456 85.4769 61.128C85.3169 61.8 85.1809 62.472 85.0689 63.144C84.9729 63.816 84.9249 64.432 84.9249 64.992C84.9249 65.296 84.9569 65.544 85.0209 65.736C85.0849 65.928 85.2449 66.024 85.5009 66.024C85.7249 66.024 86.0049 65.8 86.3409 65.352C86.6929 64.904 87.0689 64.312 87.4689 63.576C87.8849 62.824 88.3089 61.992 88.7409 61.08C89.1889 60.168 89.6209 59.232 90.0369 58.272C90.4689 57.312 90.8609 56.4 91.2129 55.536C91.3409 55.248 91.4769 55.072 91.6209 55.008C91.7649 54.928 91.9249 54.888 92.1009 54.888C92.3889 54.888 92.6449 55.008 92.8689 55.248C93.1089 55.472 93.2289 55.768 93.2289 56.136C93.2289 56.376 93.1809 56.792 93.0849 57.384C93.0049 57.976 92.8849 58.672 92.7249 59.472C92.5809 60.256 92.4129 61.088 92.2209 61.968C92.0449 62.848 91.8689 63.72 91.6929 64.584C91.5169 65.432 91.3489 66.208 91.1889 66.912C91.0449 67.616 90.9249 68.184 90.8289 68.616C90.7489 69.016 90.6369 69.272 90.4929 69.384C90.3649 69.512 90.2209 69.576 90.0609 69.576ZM98.3792 69.024C97.6912 69.024 97.2032 68.888 96.9152 68.616C96.6272 68.344 96.4832 67.944 96.4832 67.416C96.4832 64.76 96.9632 61.984 97.9232 59.088C98.8832 56.176 100.227 53.256 101.955 50.328C102.179 49.96 102.355 49.728 102.483 49.632C102.627 49.536 102.795 49.488 102.987 49.488C103.211 49.488 103.411 49.568 103.587 49.728C103.763 49.888 103.851 50.104 103.851 50.376C103.851 50.52 103.707 50.912 103.419 51.552C103.131 52.176 102.763 52.984 102.315 53.976C101.867 54.968 101.387 56.08 100.875 57.312C100.379 58.528 99.9072 59.8 99.4592 61.128C99.0112 62.456 98.6512 63.776 98.3792 65.088C98.7472 64.544 99.1872 63.96 99.6992 63.336C100.227 62.712 100.787 62.088 101.379 61.464C101.971 60.84 102.571 60.272 103.179 59.76C103.803 59.248 104.403 58.84 104.979 58.536C105.555 58.232 106.083 58.08 106.563 58.08C107.187 58.08 107.731 58.344 108.195 58.872C108.675 59.384 108.915 60.16 108.915 61.2C108.915 62.08 108.675 62.984 108.195 63.912C107.715 64.824 107.011 65.672 106.083 66.456C105.171 67.224 104.067 67.848 102.771 68.328C101.475 68.792 100.011 69.024 98.3792 69.024ZM98.4752 67.2C99.8032 67.2 101.011 66.976 102.099 66.528C103.187 66.08 104.115 65.512 104.883 64.824C105.667 64.12 106.267 63.392 106.683 62.64C107.115 61.872 107.331 61.176 107.331 60.552C107.331 60.104 107.179 59.88 106.875 59.88C106.507 59.88 106.035 60.056 105.459 60.408C104.883 60.76 104.259 61.224 103.587 61.8C102.931 62.376 102.275 63 101.619 63.672C100.963 64.328 100.355 64.968 99.7952 65.592C99.2512 66.216 98.8112 66.752 98.4752 67.2ZM112.912 68.448C112.448 68.448 112.032 68.184 111.664 67.656C111.296 67.128 111.112 66.448 111.112 65.616C111.112 64.704 111.232 63.728 111.472 62.688C111.728 61.648 112.04 60.592 112.408 59.52C112.776 58.432 113.136 57.384 113.488 56.376C113.568 56.168 113.68 56.016 113.824 55.92C113.984 55.808 114.224 55.752 114.544 55.752C115.12 55.752 115.408 56.032 115.408 56.592C115.408 56.72 115.344 57.008 115.216 57.456C115.088 57.904 114.92 58.456 114.712 59.112C114.52 59.768 114.32 60.48 114.112 61.248C113.904 62 113.72 62.76 113.56 63.528C113.4 64.296 113.288 65.008 113.224 65.664C113.48 65.392 113.768 64.976 114.088 64.416C114.424 63.856 114.784 63.224 115.168 62.52C115.552 61.8 115.952 61.08 116.368 60.36C116.784 59.624 117.2 58.952 117.616 58.344C118.048 57.72 118.464 57.224 118.864 56.856C119.28 56.472 119.664 56.28 120.016 56.28C120.528 56.28 120.96 56.44 121.312 56.76C121.68 57.064 121.96 57.608 122.152 58.392C122.36 59.16 122.464 60.248 122.464 61.656C122.464 62.408 122.536 63.112 122.68 63.768C122.84 64.424 123.088 64.952 123.424 65.352C123.776 65.736 124.224 65.928 124.768 65.928C125.584 65.928 126.312 65.784 126.952 65.496C127.592 65.192 128.144 64.856 128.608 64.488C129.088 64.104 129.488 63.768 129.808 63.48C130.128 63.176 130.376 63.024 130.552 63.024C130.92 63.024 131.104 63.216 131.104 63.6C131.104 63.76 130.984 64.016 130.744 64.368C130.52 64.704 130.2 65.088 129.784 65.52C129.384 65.936 128.92 66.344 128.392 66.744C127.88 67.128 127.328 67.448 126.736 67.704C126.16 67.96 125.576 68.088 124.984 68.088C123.88 68.088 122.976 67.872 122.272 67.44C121.584 67.008 121.072 66.296 120.736 65.304C120.416 64.312 120.256 62.984 120.256 61.32C120.256 60.408 120.2 59.744 120.088 59.328C119.992 58.896 119.808 58.608 119.536 58.464C119.344 58.8 119.096 59.28 118.792 59.904C118.488 60.512 118.136 61.192 117.736 61.944C117.352 62.696 116.944 63.456 116.512 64.224C116.096 64.976 115.672 65.672 115.24 66.312C114.808 66.952 114.392 67.472 113.992 67.872C113.592 68.256 113.232 68.448 112.912 68.448ZM131.029 70.632C130.853 70.632 130.701 70.568 130.573 70.44C130.445 70.312 130.381 70.136 130.381 69.912C130.381 69.48 130.597 68.808 131.029 67.896C131.461 66.984 132.045 65.912 132.781 64.68C133.517 63.432 134.341 62.096 135.253 60.672C136.165 59.232 137.101 57.76 138.061 56.256C139.021 54.752 139.949 53.288 140.845 51.864C139.901 52.024 138.957 52.216 138.013 52.44C137.085 52.664 136.213 52.88 135.397 53.088C134.581 53.296 133.885 53.472 133.309 53.616C132.733 53.744 132.325 53.808 132.085 53.808C131.621 53.808 131.301 53.712 131.125 53.52C130.965 53.328 130.885 53.096 130.885 52.824C130.885 52.6 131.101 52.376 131.533 52.152C131.965 51.928 132.533 51.712 133.237 51.504C133.941 51.28 134.701 51.072 135.517 50.88C136.349 50.688 137.157 50.52 137.941 50.376C138.741 50.232 139.445 50.12 140.053 50.04C140.661 49.96 141.101 49.92 141.373 49.92C141.677 49.92 141.973 49.992 142.261 50.136C142.549 50.28 142.789 50.472 142.981 50.712C143.189 50.952 143.293 51.208 143.293 51.48C143.293 51.608 143.141 51.968 142.837 52.56C142.549 53.152 142.141 53.912 141.613 54.84C141.101 55.768 140.509 56.792 139.837 57.912C139.181 59.032 138.485 60.184 137.749 61.368C137.029 62.552 136.309 63.704 135.589 64.824C134.869 65.928 134.189 66.936 133.549 67.848C132.925 68.76 132.373 69.496 131.893 70.056C131.781 70.184 131.653 70.312 131.509 70.44C131.365 70.568 131.205 70.632 131.029 70.632ZM151.755 70.512C150.779 70.512 149.915 70.128 149.163 69.36C148.411 68.608 147.899 67.616 147.627 66.384C147.403 66.544 147.235 66.624 147.123 66.624C147.011 66.624 146.907 66.584 146.811 66.504C146.731 66.424 146.691 66.216 146.691 65.88C146.691 65.24 146.939 64.576 147.435 63.888C147.531 62.592 147.875 61.344 148.467 60.144C149.075 58.928 149.843 57.792 150.771 56.736C151.699 55.664 152.699 54.688 153.771 53.808C154.843 52.928 155.899 52.168 156.939 51.528C157.979 50.888 158.907 50.392 159.723 50.04C160.555 49.688 161.179 49.512 161.595 49.512C162.091 49.512 162.339 49.744 162.339 50.208C162.339 50.368 162.107 50.6 161.643 50.904C161.179 51.192 160.563 51.56 159.795 52.008C159.027 52.44 158.187 52.968 157.275 53.592C156.363 54.2 155.451 54.896 154.539 55.68C153.643 56.464 152.819 57.344 152.067 58.32C151.315 59.296 150.723 60.376 150.291 61.56C150.931 61.24 151.619 60.992 152.355 60.816C153.107 60.624 153.883 60.528 154.683 60.528C155.627 60.528 156.355 60.816 156.867 61.392C157.395 61.968 157.659 62.792 157.659 63.864C157.659 64.696 157.483 65.512 157.131 66.312C156.779 67.096 156.307 67.808 155.715 68.448C155.139 69.072 154.499 69.568 153.795 69.936C153.107 70.32 152.427 70.512 151.755 70.512ZM149.667 64.512C149.651 64.752 149.643 64.984 149.643 65.208C149.643 66.088 149.859 66.8 150.291 67.344C150.739 67.872 151.259 68.136 151.851 68.136C152.363 68.136 152.859 68.008 153.339 67.752C153.835 67.48 154.275 67.128 154.659 66.696C155.059 66.248 155.379 65.752 155.619 65.208C155.859 64.664 155.979 64.112 155.979 63.552C155.979 62.672 155.619 62.232 154.899 62.232C153.811 62.232 152.827 62.472 151.947 62.952C151.083 63.432 150.323 63.952 149.667 64.512ZM160.592 75.48C159.808 75.48 159.16 75.224 158.648 74.712C158.136 74.2 157.88 73.584 157.88 72.864C157.88 72.304 158.16 71.824 158.72 71.424C159.28 71.04 160.04 70.664 161 70.296C161.944 69.944 162.984 69.544 164.12 69.096C164.376 68.152 164.632 67.016 164.888 65.688C165.144 64.344 165.424 62.76 165.728 60.936C165.84 60.008 165.944 59.288 166.04 58.776C166.136 58.248 166.232 57.872 166.328 57.648C166.424 57.424 166.528 57.288 166.64 57.24C166.768 57.192 166.904 57.168 167.048 57.168C167.192 57.168 167.376 57.24 167.6 57.384C167.84 57.528 168.056 57.728 168.248 57.984C168.44 58.24 168.536 58.528 168.536 58.848C168.536 59.056 168.496 59.36 168.416 59.76C168.352 60.16 168.232 60.6 168.056 61.08C167.896 61.56 167.664 62.016 167.36 62.448C167.136 63.6 166.928 64.656 166.736 65.616C166.544 66.576 166.352 67.456 166.16 68.256C167.12 67.824 168.064 67.352 168.992 66.84C169.92 66.328 170.776 65.76 171.56 65.136C172.344 64.496 173.008 63.784 173.552 63C173.712 62.776 173.872 62.664 174.032 62.664C174.112 62.664 174.192 62.712 174.272 62.808C174.368 62.904 174.416 63.064 174.416 63.288C174.416 63.896 174.168 64.512 173.672 65.136C173.176 65.744 172.504 66.352 171.656 66.96C170.808 67.552 169.864 68.136 168.824 68.712C167.784 69.272 166.712 69.808 165.608 70.32C165.192 71.712 164.752 72.776 164.288 73.512C163.84 74.264 163.312 74.776 162.704 75.048C162.112 75.336 161.408 75.48 160.592 75.48ZM167.408 54.456C167.104 54.456 166.848 54.36 166.64 54.168C166.432 53.976 166.328 53.656 166.328 53.208C166.328 52.68 166.52 52.216 166.904 51.816C167.304 51.4 167.736 51.192 168.2 51.192C168.648 51.192 169.016 51.328 169.304 51.6C169.608 51.872 169.76 52.224 169.76 52.656C169.76 53.024 169.648 53.336 169.424 53.592C169.2 53.832 168.912 53.952 168.56 53.952C168.48 53.952 168.416 53.944 168.368 53.928C168.144 54.152 167.968 54.296 167.84 54.36C167.712 54.424 167.568 54.456 167.408 54.456ZM163.472 71.232C162.752 71.52 162.048 71.776 161.36 72C160.672 72.24 160.072 72.44 159.56 72.6C159.688 73 159.872 73.272 160.112 73.416C160.336 73.576 160.632 73.656 161 73.656C161.496 73.656 161.944 73.496 162.344 73.176C162.728 72.856 163.104 72.208 163.472 71.232ZM185.467 70.44C185.115 70.44 184.819 70.304 184.579 70.032C184.355 69.76 184.243 69.312 184.243 68.688C184.243 68.48 184.267 68.256 184.315 68.016C184.363 67.76 184.451 67.504 184.579 67.248C183.779 65.264 183.107 63.336 182.563 61.464C182.019 59.592 181.555 57.632 181.171 55.584C180.659 56.64 180.171 57.736 179.707 58.872C179.259 59.992 178.835 61.088 178.435 62.16C178.035 63.232 177.675 64.232 177.355 65.16C177.035 66.088 176.755 66.888 176.515 67.56C176.259 68.36 176.003 68.896 175.747 69.168C175.491 69.456 175.227 69.6 174.955 69.6C174.587 69.6 174.307 69.512 174.115 69.336C173.939 69.16 173.851 68.848 173.851 68.4C173.851 68.064 173.939 67.544 174.115 66.84C174.291 66.136 174.531 65.32 174.835 64.392C175.155 63.464 175.515 62.488 175.915 61.464C176.315 60.44 176.739 59.44 177.187 58.464C177.651 57.488 178.115 56.608 178.579 55.824C179.043 55.024 179.483 54.392 179.899 53.928C180.331 53.448 180.723 53.208 181.075 53.208C181.443 53.208 181.755 53.28 182.011 53.424C182.283 53.568 182.579 53.944 182.899 54.552C183.107 54.968 183.347 55.576 183.619 56.376C183.891 57.16 184.163 58.048 184.435 59.04C184.707 60.016 184.971 61.024 185.227 62.064C185.483 63.088 185.707 64.04 185.899 64.92C186.539 61.96 187.099 59.368 187.579 57.144C188.059 54.904 188.427 53.152 188.683 51.888C188.955 50.624 189.099 49.96 189.115 49.896C189.211 49.48 189.315 49.224 189.427 49.128C189.539 49.032 189.699 48.984 189.907 48.984C190.195 48.984 190.475 49.104 190.747 49.344C191.035 49.568 191.179 49.88 191.179 50.28C191.179 50.472 191.131 50.912 191.035 51.6C190.955 52.288 190.827 53.152 190.651 54.192C190.491 55.216 190.283 56.36 190.027 57.624C189.771 58.872 189.475 60.176 189.139 61.536C188.803 62.88 188.427 64.216 188.011 65.544C187.611 66.856 187.171 68.096 186.691 69.264C186.515 69.712 186.307 70.016 186.067 70.176C185.843 70.352 185.643 70.44 185.467 70.44ZM200.038 53.064C199.286 53.064 198.79 52.976 198.55 52.8C198.31 52.624 198.19 52.4 198.19 52.128C198.19 51.92 198.31 51.72 198.55 51.528C198.806 51.32 199.134 51.176 199.534 51.096C200.014 51 200.582 50.904 201.238 50.808C201.91 50.696 202.606 50.6 203.326 50.52C204.062 50.424 204.766 50.352 205.438 50.304C206.126 50.256 206.726 50.232 207.238 50.232C207.99 50.248 208.526 50.392 208.846 50.664C209.182 50.936 209.35 51.184 209.35 51.408C209.35 51.568 209.278 51.728 209.134 51.888C208.99 52.032 208.734 52.104 208.366 52.104C208.126 52.104 207.79 52.128 207.358 52.176C206.942 52.224 206.47 52.288 205.942 52.368C205.926 52.88 205.862 53.6 205.75 54.528C205.654 55.44 205.502 56.488 205.294 57.672C205.086 58.84 204.814 60.072 204.478 61.368C204.158 62.648 203.766 63.92 203.302 65.184C202.854 66.432 202.326 67.6 201.718 68.688C201.126 69.76 200.446 70.672 199.678 71.424C198.926 72.176 198.086 72.688 197.158 72.96C196.902 73.024 196.694 73.072 196.534 73.104C196.374 73.136 196.19 73.152 195.982 73.152C195.822 73.152 195.63 73.032 195.406 72.792C195.182 72.552 195.07 72.168 195.07 71.64C195.07 71.256 195.23 71.016 195.55 70.92C196.638 70.648 197.59 70.136 198.406 69.384C199.238 68.632 199.966 67.568 200.59 66.192C201.23 64.8 201.782 63.04 202.246 60.912C202.726 58.784 203.15 56.208 203.518 53.184C203.534 53.024 203.566 52.864 203.614 52.704C202.91 52.8 202.238 52.888 201.598 52.968C200.958 53.032 200.438 53.064 200.038 53.064ZM223.858 70.44C223.506 70.44 223.21 70.304 222.97 70.032C222.746 69.76 222.634 69.312 222.634 68.688C222.634 68.48 222.658 68.256 222.706 68.016C222.754 67.76 222.842 67.504 222.97 67.248C222.17 65.264 221.498 63.336 220.954 61.464C220.41 59.592 219.946 57.632 219.562 55.584C219.05 56.64 218.562 57.736 218.098 58.872C217.65 59.992 217.226 61.088 216.826 62.16C216.426 63.232 216.066 64.232 215.746 65.16C215.426 66.088 215.146 66.888 214.906 67.56C214.65 68.36 214.394 68.896 214.138 69.168C213.882 69.456 213.618 69.6 213.346 69.6C212.978 69.6 212.698 69.512 212.506 69.336C212.33 69.16 212.242 68.848 212.242 68.4C212.242 68.064 212.33 67.544 212.506 66.84C212.682 66.136 212.922 65.32 213.226 64.392C213.546 63.464 213.906 62.488 214.306 61.464C214.706 60.44 215.13 59.44 215.578 58.464C216.042 57.488 216.506 56.608 216.97 55.824C217.434 55.024 217.874 54.392 218.29 53.928C218.722 53.448 219.114 53.208 219.466 53.208C219.834 53.208 220.146 53.28 220.402 53.424C220.674 53.568 220.97 53.944 221.29 54.552C221.498 54.968 221.738 55.576 222.01 56.376C222.282 57.16 222.554 58.048 222.826 59.04C223.098 60.016 223.362 61.024 223.618 62.064C223.874 63.088 224.098 64.04 224.29 64.92C224.93 61.96 225.49 59.368 225.97 57.144C226.45 54.904 226.818 53.152 227.074 51.888C227.346 50.624 227.49 49.96 227.506 49.896C227.602 49.48 227.706 49.224 227.818 49.128C227.93 49.032 228.09 48.984 228.298 48.984C228.586 48.984 228.866 49.104 229.138 49.344C229.426 49.568 229.57 49.88 229.57 50.28C229.57 50.472 229.522 50.912 229.426 51.6C229.346 52.288 229.218 53.152 229.042 54.192C228.882 55.216 228.674 56.36 228.418 57.624C228.162 58.872 227.866 60.176 227.53 61.536C227.194 62.88 226.818 64.216 226.402 65.544C226.002 66.856 225.562 68.096 225.082 69.264C224.906 69.712 224.698 70.016 224.458 70.176C224.234 70.352 224.034 70.44 223.858 70.44ZM237.71 69.792C237.31 69.792 236.982 69.68 236.726 69.456C236.486 69.248 236.366 69.016 236.366 68.76C236.366 68.472 236.406 68.256 236.486 68.112C236.582 67.952 236.782 67.84 237.086 67.776C237.838 67.6 238.614 67.392 239.414 67.152C240.23 66.896 240.99 66.632 241.694 66.36C242.398 66.072 242.966 65.792 243.398 65.52C243.846 65.248 244.07 65.008 244.07 64.8C244.07 64.608 243.894 64.424 243.542 64.248C243.19 64.056 242.742 63.848 242.198 63.624C241.654 63.4 241.07 63.152 240.446 62.88C239.822 62.608 239.238 62.296 238.694 61.944C238.15 61.592 237.702 61.192 237.35 60.744C236.998 60.28 236.822 59.752 236.822 59.16C236.822 58.232 237.046 57.368 237.494 56.568C237.958 55.752 238.558 55 239.294 54.312C240.03 53.624 240.838 52.992 241.718 52.416C242.614 51.824 243.494 51.304 244.358 50.856C245.238 50.392 246.022 49.984 246.71 49.632C246.934 49.504 247.15 49.416 247.358 49.368C247.566 49.32 247.75 49.296 247.91 49.296C248.374 49.296 248.71 49.4 248.918 49.608C249.126 49.816 249.23 50.056 249.23 50.328C249.23 50.552 249.11 50.816 248.87 51.12C248.63 51.408 248.286 51.664 247.838 51.888C247.39 52.112 246.854 52.224 246.23 52.224H246.038C245.494 52.512 244.902 52.856 244.262 53.256C243.622 53.656 242.99 54.096 242.366 54.576C241.742 55.056 241.166 55.552 240.638 56.064C240.126 56.56 239.71 57.04 239.39 57.504C239.086 57.968 238.934 58.392 238.934 58.776C238.934 59.24 239.11 59.656 239.462 60.024C239.814 60.392 240.262 60.72 240.806 61.008C241.366 61.296 241.95 61.576 242.558 61.848C243.182 62.12 243.766 62.4 244.31 62.688C244.87 62.96 245.326 63.264 245.678 63.6C246.03 63.92 246.206 64.296 246.206 64.728C246.206 65.224 246.03 65.696 245.678 66.144C245.342 66.592 244.894 67.008 244.334 67.392C243.774 67.76 243.158 68.096 242.486 68.4C241.83 68.688 241.182 68.936 240.542 69.144C239.902 69.352 239.326 69.512 238.814 69.624C238.318 69.736 237.95 69.792 237.71 69.792ZM253.928 75.168C253.128 75.168 252.392 75.112 251.72 75C251.064 74.904 250.416 74.744 249.776 74.52C249.136 74.312 248.44 74.04 247.688 73.704C247.464 73.592 247.264 73.456 247.088 73.296C246.912 73.152 246.824 72.984 246.824 72.792C246.824 72.552 246.976 72.296 247.28 72.024C247.568 71.768 247.84 71.64 248.096 71.64C248.368 71.64 248.704 71.736 249.104 71.928C249.52 72.12 250 72.344 250.544 72.6C251.088 72.872 251.688 73.104 252.344 73.296C253.016 73.488 253.736 73.584 254.504 73.584C255.336 73.584 256.12 73.24 256.856 72.552C257.592 71.864 258.192 70.872 258.656 69.576C259.12 68.296 259.352 66.752 259.352 64.944C259.352 64.4 259.336 63.8 259.304 63.144C259.288 62.472 259.256 61.768 259.208 61.032C258.824 61.864 258.392 62.688 257.912 63.504C257.448 64.32 256.96 65.056 256.448 65.712C255.952 66.368 255.432 66.896 254.888 67.296C254.36 67.68 253.824 67.872 253.28 67.872C252.592 67.872 252.096 67.696 251.792 67.344C251.488 66.992 251.336 66.448 251.336 65.712C251.336 64.944 251.392 64.112 251.504 63.216C251.616 62.32 251.76 61.416 251.936 60.504C252.128 59.576 252.352 58.696 252.608 57.864C252.864 57.032 253.136 56.312 253.424 55.704C253.584 55.384 253.824 55.224 254.144 55.224C254.368 55.224 254.584 55.344 254.792 55.584C255.016 55.808 255.128 56.104 255.128 56.472C255.128 56.76 255.064 57.168 254.936 57.696C254.808 58.224 254.648 58.824 254.456 59.496C254.264 60.168 254.072 60.872 253.88 61.608C253.688 62.328 253.528 63.04 253.4 63.744C253.272 64.432 253.208 65.064 253.208 65.64C253.208 65.88 253.368 66 253.688 66C253.864 66 254.112 65.84 254.432 65.52C254.768 65.184 255.136 64.752 255.536 64.224C255.952 63.68 256.368 63.088 256.784 62.448C257.216 61.792 257.632 61.144 258.032 60.504C258.432 59.848 258.776 59.248 259.064 58.704C259.048 58.576 259.04 58.456 259.04 58.344C259.04 58.232 259.04 58.128 259.04 58.032C259.04 57.248 259.12 56.76 259.28 56.568C259.456 56.36 259.68 56.256 259.952 56.256C260.416 56.256 260.744 56.36 260.936 56.568C261.128 56.776 261.224 57.136 261.224 57.648C261.224 57.84 261.2 58.048 261.152 58.272C261.104 58.48 261.024 58.784 260.912 59.184C261.04 60.448 261.144 61.584 261.224 62.592C261.32 63.6 261.368 64.616 261.368 65.64C261.368 67.576 261.056 69.256 260.432 70.68C259.824 72.104 258.96 73.208 257.84 73.992C256.736 74.776 255.432 75.168 253.928 75.168ZM265.057 53.616C264.401 53.616 263.937 53.584 263.665 53.52C263.393 53.44 263.225 53.336 263.161 53.208C263.113 53.08 263.089 52.952 263.089 52.824C263.089 52.648 263.177 52.488 263.353 52.344C263.545 52.184 263.929 52.056 264.505 51.96C265.241 51.8 266.105 51.64 267.097 51.48C268.105 51.304 269.177 51.144 270.313 51C271.449 50.84 272.585 50.696 273.721 50.568C274.873 50.44 275.969 50.344 277.009 50.28C278.065 50.2 279.001 50.16 279.817 50.16C280.905 50.16 281.641 50.256 282.025 50.448C282.425 50.64 282.625 50.848 282.625 51.072C282.625 51.28 282.513 51.472 282.289 51.648C282.081 51.824 281.721 51.912 281.209 51.912C281.001 51.912 280.521 51.96 279.769 52.056C279.017 52.136 278.097 52.248 277.009 52.392C275.937 52.52 274.801 52.664 273.601 52.824C273.521 53.368 273.401 54.088 273.241 54.984C273.081 55.864 272.897 56.832 272.689 57.888C272.497 58.944 272.297 60.008 272.089 61.08C271.897 62.136 271.713 63.12 271.537 64.032C271.377 64.944 271.241 65.696 271.129 66.288C271.017 66.88 270.953 67.232 270.937 67.344C270.873 67.84 270.729 68.216 270.505 68.472C270.297 68.712 270.065 68.832 269.809 68.832C269.505 68.832 269.249 68.704 269.041 68.448C268.849 68.176 268.753 67.704 268.753 67.032C268.753 66.808 268.801 66.376 268.897 65.736C268.993 65.08 269.121 64.304 269.281 63.408C269.441 62.512 269.617 61.56 269.809 60.552C270.001 59.544 270.193 58.56 270.385 57.6C270.577 56.624 270.753 55.744 270.913 54.96C271.073 54.16 271.193 53.536 271.273 53.088C270.009 53.232 268.817 53.36 267.697 53.472C266.593 53.568 265.713 53.616 265.057 53.616ZM286.258 69.432C285.666 69.432 285.138 69.272 284.674 68.952C284.21 68.616 283.842 68.2 283.57 67.704C283.314 67.208 283.186 66.72 283.186 66.24C283.186 65.888 283.378 65.424 283.762 64.848C284.146 64.256 284.666 63.592 285.322 62.856C285.978 62.104 286.714 61.312 287.53 60.48C288.362 59.648 289.226 58.816 290.122 57.984C290.986 57.152 291.85 56.36 292.714 55.608C293.578 54.84 294.378 54.136 295.114 53.496C295.866 52.856 296.506 52.312 297.034 51.864C296.106 52.024 295.186 52.208 294.274 52.416C293.362 52.624 292.514 52.824 291.73 53.016C290.946 53.192 290.274 53.344 289.714 53.472C289.154 53.584 288.762 53.64 288.538 53.64C288.234 53.64 287.986 53.552 287.794 53.376C287.602 53.2 287.506 52.984 287.506 52.728C287.506 52.552 287.706 52.368 288.106 52.176C288.506 51.968 289.034 51.768 289.69 51.576C290.346 51.368 291.066 51.176 291.85 51C292.634 50.808 293.41 50.64 294.178 50.496C294.962 50.352 295.674 50.24 296.314 50.16C296.97 50.08 297.482 50.04 297.85 50.04C298.314 50.04 298.722 50.216 299.074 50.568C299.426 50.904 299.602 51.288 299.602 51.72C299.602 51.816 299.37 52.104 298.906 52.584C298.442 53.048 297.818 53.648 297.034 54.384C296.266 55.104 295.41 55.912 294.466 56.808C293.522 57.704 292.562 58.624 291.586 59.568C290.738 60.384 289.906 61.192 289.09 61.992C288.29 62.776 287.57 63.504 286.93 64.176C286.29 64.832 285.778 65.408 285.394 65.904C285.026 66.384 284.842 66.736 284.842 66.96C284.842 67.104 284.898 67.216 285.01 67.296C285.138 67.36 285.29 67.392 285.466 67.392C285.722 67.392 286.146 67.352 286.738 67.272C287.346 67.176 288.05 67.064 288.85 66.936C289.65 66.792 290.482 66.648 291.346 66.504C292.21 66.36 293.026 66.224 293.794 66.096C294.578 65.952 295.242 65.84 295.786 65.76C296.33 65.664 296.682 65.616 296.842 65.616C297.45 65.616 297.754 65.848 297.754 66.312C297.754 66.584 297.546 66.848 297.13 67.104C296.714 67.36 296.154 67.608 295.45 67.848C294.762 68.072 293.994 68.28 293.146 68.472C292.314 68.664 291.466 68.832 290.602 68.976C289.738 69.12 288.922 69.232 288.154 69.312C287.402 69.392 286.77 69.432 286.258 69.432ZM4.344 89.696C3.784 89.696 3.32 89.448 2.952 88.952C2.6 88.44 2.424 87.536 2.424 86.24C2.424 84.88 2.448 83.56 2.496 82.28C2.544 80.984 2.632 79.824 2.76 78.8C2.904 77.776 3.096 76.96 3.336 76.352C3.576 75.744 3.888 75.44 4.272 75.44C4.544 75.44 4.784 75.592 4.992 75.896C5.2 76.184 5.304 76.568 5.304 77.048C5.304 77.544 5.256 78.208 5.16 79.04C5.064 79.872 4.944 80.768 4.8 81.728C4.672 82.672 4.56 83.592 4.464 84.488C4.368 85.368 4.32 86.112 4.32 86.72C4.32 86.976 4.328 87.184 4.344 87.344C4.376 87.488 4.424 87.56 4.488 87.56C4.728 87.56 4.984 87.352 5.256 86.936C5.544 86.504 5.848 85.944 6.168 85.256C6.488 84.552 6.824 83.784 7.176 82.952C7.528 82.104 7.888 81.264 8.256 80.432C8.624 79.6 9 78.84 9.384 78.152C9.768 77.448 10.152 76.888 10.536 76.472C10.92 76.04 11.296 75.824 11.664 75.824C12.096 75.824 12.496 76.032 12.864 76.448C13.248 76.848 13.44 77.424 13.44 78.176C13.44 78.4 13.408 78.792 13.344 79.352C13.28 79.896 13.2 80.52 13.104 81.224C13.008 81.928 12.912 82.632 12.816 83.336C12.72 84.024 12.64 84.64 12.576 85.184C12.512 85.712 12.48 86.088 12.48 86.312C12.48 87.144 12.56 87.56 12.72 87.56C13.168 87.56 13.64 87.28 14.136 86.72C14.648 86.144 15.16 85.408 15.672 84.512C16.2 83.6 16.72 82.616 17.232 81.56C17.76 80.488 18.264 79.464 18.744 78.488C18.968 77.976 19.152 77.632 19.296 77.456C19.456 77.264 19.616 77.168 19.776 77.168C20 77.168 20.208 77.288 20.4 77.528C20.608 77.768 20.712 78.096 20.712 78.512C20.712 78.656 20.704 78.8 20.688 78.944C20.672 79.072 20.632 79.216 20.568 79.376C20.024 80.816 19.44 82.152 18.816 83.384C18.192 84.6 17.552 85.664 16.896 86.576C16.256 87.472 15.624 88.176 15 88.688C14.376 89.184 13.8 89.432 13.272 89.432C12.36 89.432 11.648 89.176 11.136 88.664C10.64 88.136 10.392 87.432 10.392 86.552C10.392 86.184 10.416 85.704 10.464 85.112C10.528 84.52 10.6 83.88 10.68 83.192C10.776 82.504 10.872 81.84 10.968 81.2C11.064 80.56 11.144 80 11.208 79.52C11.288 79.04 11.336 78.712 11.352 78.536C11.368 78.312 11.344 78.2 11.28 78.2C11.216 78.2 11.088 78.408 10.896 78.824C10.72 79.224 10.504 79.736 10.248 80.36C10.008 80.968 9.752 81.6 9.48 82.256C9.176 82.976 8.824 83.768 8.424 84.632C8.04 85.48 7.624 86.288 7.176 87.056C6.744 87.824 6.288 88.456 5.808 88.952C5.328 89.448 4.84 89.696 4.344 89.696ZM32.0674 76.928C32.4994 75.888 32.9074 74.816 33.2914 73.712C33.6914 72.608 34.0514 71.48 34.3714 70.328C34.4674 70.008 34.6114 69.752 34.8034 69.56C35.0114 69.352 35.2514 69.248 35.5234 69.248C35.7154 69.248 35.8754 69.32 36.0034 69.464C36.1474 69.608 36.2194 69.8 36.2194 70.04C36.2194 70.344 36.0994 70.872 35.8594 71.624C35.6354 72.376 35.3474 73.328 34.9954 74.48C34.6594 75.632 34.3154 76.96 33.9634 78.464C33.6274 79.952 33.3394 81.6 33.0994 83.408C32.8754 85.216 32.7634 87.144 32.7634 89.192C32.7634 89.64 32.6674 90.008 32.4754 90.296C32.2834 90.6 32.0514 90.752 31.7794 90.752C31.6194 90.752 31.4674 90.712 31.3234 90.632C31.1794 90.552 31.0514 90.36 30.9394 90.056C30.8434 89.768 30.7634 89.312 30.6994 88.688C30.6354 88.048 30.6034 87.184 30.6034 86.096C30.6034 85.264 30.6514 84.36 30.7474 83.384C30.0114 84.712 29.2114 85.872 28.3474 86.864C27.4994 87.84 26.6754 88.592 25.8754 89.12C25.0914 89.648 24.4194 89.912 23.8594 89.912C23.1714 89.912 22.6114 89.68 22.1794 89.216C21.7634 88.768 21.5554 88.096 21.5554 87.2C21.5554 86.416 21.7394 85.608 22.1074 84.776C22.4754 83.944 22.9634 83.128 23.5714 82.328C24.1794 81.512 24.8514 80.744 25.5874 80.024C26.3234 79.304 27.0594 78.672 27.7954 78.128C28.5474 77.568 29.2434 77.136 29.8834 76.832C30.5234 76.512 31.0434 76.352 31.4434 76.352C31.6034 76.352 31.7474 76.408 31.8754 76.52C32.0034 76.632 32.0674 76.768 32.0674 76.928ZM31.7554 77.672C31.6434 77.784 31.5074 77.896 31.3474 78.008C31.1874 78.12 31.0114 78.24 30.8194 78.368C30.1154 78.864 29.3394 79.44 28.4914 80.096C27.6594 80.736 26.8594 81.44 26.0914 82.208C25.3394 82.96 24.7234 83.752 24.2434 84.584C23.7634 85.416 23.5234 86.272 23.5234 87.152C23.5234 87.536 23.7154 87.728 24.0994 87.728C24.6274 87.728 25.2034 87.48 25.8274 86.984C26.4674 86.472 27.1234 85.768 27.7954 84.872C28.4674 83.96 29.1394 82.896 29.8114 81.68C30.4834 80.448 31.1314 79.112 31.7554 77.672ZM36.1545 81.32C35.7225 81.288 35.5225 81.008 35.5545 80.48C35.5705 80.352 35.6585 80.2 35.8185 80.024C35.9785 79.832 36.1625 79.728 36.3705 79.712C36.8665 79.664 37.4745 79.592 38.1945 79.496C38.9305 79.384 39.7385 79.256 40.6185 79.112C40.7785 78.328 40.9705 77.504 41.1945 76.64C41.4185 75.776 41.6665 74.936 41.9385 74.12C42.2105 73.288 42.4985 72.536 42.8025 71.864C43.1065 71.192 43.4265 70.664 43.7625 70.28C43.9385 70.104 44.0985 69.984 44.2425 69.92C44.3865 69.84 44.5145 69.8 44.6265 69.8C44.8505 69.8 45.0265 69.896 45.1545 70.088C45.2985 70.28 45.3705 70.496 45.3705 70.736C45.3705 70.864 45.3465 70.992 45.2985 71.12C44.9785 72.016 44.6345 73.12 44.2665 74.432C43.8985 75.744 43.5065 77.176 43.0905 78.728C44.5625 78.488 46.0345 78.232 47.5065 77.96C48.9785 77.688 50.2425 77.44 51.2985 77.216C51.6025 77.088 51.8345 77.112 51.9945 77.288C52.1705 77.464 52.2585 77.64 52.2585 77.816C52.2585 78.04 52.1945 78.208 52.0665 78.32C51.9545 78.432 51.8345 78.528 51.7065 78.608L51.6825 78.632C51.3625 78.76 50.8825 78.912 50.2425 79.088C49.6025 79.248 48.8665 79.424 48.0345 79.616C47.2025 79.792 46.3145 79.968 45.3705 80.144C44.4425 80.32 43.5225 80.48 42.6105 80.624C42.2425 82.032 41.8665 83.48 41.4825 84.968C41.1145 86.44 40.7465 87.888 40.3785 89.312C40.2185 89.888 40.0345 90.248 39.8265 90.392C39.6345 90.552 39.4265 90.632 39.2025 90.632C38.9465 90.632 38.7225 90.536 38.5305 90.344C38.3545 90.152 38.3305 89.76 38.4585 89.168L40.2105 80.984C39.2505 81.128 38.4025 81.232 37.6665 81.296C36.9465 81.36 36.4425 81.368 36.1545 81.32ZM51.6122 90.632C51.3402 90.632 51.1082 90.48 50.9162 90.176C50.7242 89.888 50.6282 89.552 50.6282 89.168C50.6282 89.008 50.6602 88.864 50.7242 88.736C50.8042 88.608 50.9242 88.512 51.0842 88.448C51.2602 88.368 51.4362 88.296 51.6122 88.232C51.8042 88.152 51.9962 88.072 52.1882 87.992C52.1402 87.864 52.1002 87.712 52.0682 87.536C52.0362 87.36 52.0202 87.152 52.0202 86.912C52.0202 86.736 52.0522 86.4 52.1162 85.904C52.1962 85.392 52.3002 84.784 52.4282 84.08C52.5562 83.376 52.6922 82.632 52.8362 81.848C52.9962 81.048 53.1482 80.272 53.2922 79.52C53.4522 78.752 53.5962 78.064 53.7242 77.456C54.0122 76.144 54.3642 74.968 54.7802 73.928C55.2122 72.888 55.7882 72.072 56.5082 71.48C57.2442 70.872 58.2122 70.568 59.4122 70.568C60.3242 70.568 61.2202 70.768 62.1002 71.168C62.9962 71.568 63.8042 72.136 64.5242 72.872C65.2602 73.592 65.8442 74.44 66.2762 75.416C66.7082 76.392 66.9242 77.456 66.9242 78.608C66.9242 79.6 66.6922 80.544 66.2282 81.44C65.7642 82.32 65.1402 83.152 64.3562 83.936C63.5722 84.72 62.6762 85.448 61.6682 86.12C60.6762 86.792 59.6362 87.408 58.5482 87.968C57.4762 88.512 56.4202 88.992 55.3802 89.408C54.3402 89.84 53.3802 90.2 52.5002 90.488C52.3882 90.52 52.2522 90.552 52.0922 90.584C51.9322 90.616 51.7722 90.632 51.6122 90.632ZM53.8922 87.32C55.2842 86.744 56.6362 86.152 57.9482 85.544C59.2762 84.936 60.4682 84.264 61.5242 83.528C62.5802 82.776 63.4202 81.936 64.0442 81.008C64.6682 80.08 64.9802 79.016 64.9802 77.816C64.9802 77.192 64.8362 76.584 64.5482 75.992C64.2602 75.4 63.8602 74.872 63.3482 74.408C62.8522 73.928 62.2842 73.552 61.6442 73.28C61.0202 72.992 60.3642 72.848 59.6762 72.848C59.0522 72.848 58.4922 73.008 57.9962 73.328C57.5162 73.632 57.1002 74.176 56.7482 74.96C56.3962 75.744 56.0922 76.832 55.8362 78.224C55.6442 79.088 55.4442 80.024 55.2362 81.032C55.0282 82.024 54.8202 82.976 54.6122 83.888C54.4202 84.784 54.2602 85.544 54.1322 86.168C54.0042 86.776 53.9322 87.128 53.9162 87.224C53.9162 87.256 53.9082 87.288 53.8922 87.32ZM70.6644 96.128C70.3924 96.128 70.1764 96.032 70.0164 95.84C69.8724 95.648 69.8004 95.28 69.8004 94.736C69.8004 93.952 69.8564 93.04 69.9684 92C70.0804 90.96 70.2324 89.856 70.4244 88.688C70.6324 87.52 70.8564 86.352 71.0964 85.184C71.3524 84.016 71.6164 82.904 71.8884 81.848C72.1764 80.792 72.4564 79.856 72.7284 79.04C73.0004 78.208 73.2484 77.552 73.4724 77.072C73.7124 76.592 73.9204 76.352 74.0964 76.352C74.4004 76.352 74.6404 76.44 74.8164 76.616C75.0084 76.792 75.1044 77.056 75.1044 77.408C75.1044 77.856 74.9684 78.584 74.6964 79.592C74.4244 80.584 74.0724 81.88 73.6404 83.48C74.0404 82.744 74.4724 81.976 74.9364 81.176C75.4004 80.376 75.8884 79.6 76.4004 78.848C76.9124 78.08 77.4244 77.392 77.9364 76.784C78.4644 76.176 78.9764 75.688 79.4724 75.32C79.9684 74.952 80.4484 74.768 80.9124 74.768C81.4084 74.768 81.8484 74.928 82.2324 75.248C82.6164 75.552 82.9124 75.968 83.1204 76.496C83.3444 77.008 83.4564 77.584 83.4564 78.224C83.4564 79.552 83.2324 80.84 82.7844 82.088C82.3364 83.32 81.7124 84.432 80.9124 85.424C80.1284 86.4 79.2004 87.176 78.1284 87.752C77.0724 88.328 75.9284 88.616 74.6964 88.616C74.2324 88.616 73.8164 88.592 73.4484 88.544C73.0804 88.496 72.7604 88.44 72.4884 88.376C72.2964 89.432 72.1124 90.52 71.9364 91.64C71.7604 92.76 71.5844 93.952 71.4084 95.216C71.3604 95.552 71.2804 95.784 71.1684 95.912C71.0564 96.056 70.8884 96.128 70.6644 96.128ZM81.3444 76.592C81.0084 76.592 80.6084 76.784 80.1444 77.168C79.6964 77.552 79.2084 78.064 78.6804 78.704C78.1684 79.328 77.6484 80.024 77.1204 80.792C76.5924 81.544 76.0804 82.312 75.5844 83.096C75.0884 83.88 74.6324 84.608 74.2164 85.28C73.8164 85.952 73.4884 86.512 73.2324 86.96C74.4804 86.928 75.5764 86.68 76.5204 86.216C77.4644 85.736 78.2724 85.128 78.9444 84.392C79.6164 83.64 80.1604 82.832 80.5764 81.968C81.0084 81.088 81.3204 80.24 81.5124 79.424C81.7044 78.592 81.8004 77.872 81.8004 77.264C81.8004 76.816 81.6484 76.592 81.3444 76.592ZM93.6234 89.576C93.3514 89.576 93.1194 89.456 92.9274 89.216C92.7354 88.976 92.6394 88.624 92.6394 88.16C92.6394 87.616 92.7194 86.84 92.8794 85.832C93.0554 84.824 93.3114 83.488 93.6474 81.824C93.2154 82.848 92.7354 83.816 92.2074 84.728C91.6954 85.64 91.1514 86.384 90.5754 86.96C89.9994 87.536 89.4074 87.824 88.7994 87.824C88.2074 87.824 87.6794 87.592 87.2154 87.128C86.7674 86.664 86.5434 85.848 86.5434 84.68C86.5434 84.024 86.5994 83.288 86.7114 82.472C86.8234 81.64 86.9674 80.816 87.1434 80C87.3194 79.184 87.4954 78.456 87.6714 77.816C87.8474 77.16 88.0074 76.68 88.1514 76.376C88.2634 76.12 88.3754 75.952 88.4874 75.872C88.5994 75.776 88.7514 75.728 88.9434 75.728C89.1674 75.728 89.4074 75.824 89.6634 76.016C89.9194 76.208 90.0474 76.528 90.0474 76.976C90.0474 77.088 89.9914 77.352 89.8794 77.768C89.7834 78.168 89.6554 78.664 89.4954 79.256C89.3514 79.832 89.1994 80.456 89.0394 81.128C88.8794 81.8 88.7434 82.472 88.6314 83.144C88.5354 83.816 88.4874 84.432 88.4874 84.992C88.4874 85.296 88.5194 85.544 88.5834 85.736C88.6474 85.928 88.8074 86.024 89.0634 86.024C89.2874 86.024 89.5674 85.8 89.9034 85.352C90.2554 84.904 90.6314 84.312 91.0314 83.576C91.4474 82.824 91.8714 81.992 92.3034 81.08C92.7514 80.168 93.1834 79.232 93.5994 78.272C94.0314 77.312 94.4234 76.4 94.7754 75.536C94.9034 75.248 95.0394 75.072 95.1834 75.008C95.3274 74.928 95.4874 74.888 95.6634 74.888C95.9514 74.888 96.2074 75.008 96.4314 75.248C96.6714 75.472 96.7914 75.768 96.7914 76.136C96.7914 76.376 96.7434 76.792 96.6474 77.384C96.5674 77.976 96.4474 78.672 96.2874 79.472C96.1434 80.256 95.9754 81.088 95.7834 81.968C95.6074 82.848 95.4314 83.72 95.2554 84.584C95.0794 85.432 94.9114 86.208 94.7514 86.912C94.6074 87.616 94.4874 88.184 94.3914 88.616C94.3114 89.016 94.1994 89.272 94.0554 89.384C93.9274 89.512 93.7834 89.576 93.6234 89.576ZM118.613 88.28C118.597 88.536 118.493 88.744 118.301 88.904C118.109 89.064 117.885 89.144 117.629 89.144C117.341 89.144 117.101 89.048 116.909 88.856C116.717 88.664 116.621 88.368 116.621 87.968C116.621 86.928 116.669 85.8 116.765 84.584C116.861 83.352 116.981 82.136 117.125 80.936C117.269 79.72 117.413 78.6 117.557 77.576C117.029 78.328 116.453 79.16 115.829 80.072C115.221 80.984 114.597 81.888 113.957 82.784C113.317 83.68 112.693 84.504 112.085 85.256C111.477 85.992 110.925 86.592 110.429 87.056C109.933 87.504 109.525 87.728 109.205 87.728C108.613 87.728 108.101 87.496 107.669 87.032C107.237 86.552 107.021 85.952 107.021 85.232C107.021 84.944 107.053 84.552 107.117 84.056C107.181 83.544 107.253 83.008 107.333 82.448C107.413 81.888 107.485 81.368 107.549 80.888C107.613 80.392 107.645 80.024 107.645 79.784C107.645 79.56 107.621 79.368 107.573 79.208C107.541 79.032 107.461 78.944 107.333 78.944C107.141 78.944 106.877 79.16 106.541 79.592C106.205 80.008 105.829 80.544 105.413 81.2C105.013 81.856 104.597 82.552 104.165 83.288C103.749 84.024 103.357 84.72 102.989 85.376C102.621 86.016 102.309 86.52 102.053 86.888C101.845 87.24 101.653 87.496 101.477 87.656C101.301 87.816 101.085 87.896 100.829 87.896C100.525 87.896 100.245 87.736 99.9893 87.416C99.7493 87.096 99.6293 86.704 99.6293 86.24C99.6293 85.968 99.6773 85.544 99.7733 84.968C99.8693 84.376 99.9893 83.728 100.133 83.024C100.293 82.32 100.445 81.632 100.589 80.96C100.749 80.272 100.885 79.688 100.997 79.208C101.125 78.664 101.285 78.296 101.477 78.104C101.669 77.912 101.877 77.816 102.101 77.816C102.405 77.816 102.645 77.928 102.821 78.152C103.013 78.36 103.109 78.688 103.109 79.136C103.109 79.216 103.061 79.432 102.965 79.784C102.869 80.12 102.749 80.536 102.605 81.032C102.477 81.512 102.333 82.016 102.173 82.544C102.029 83.072 101.909 83.56 101.813 84.008C102.165 83.416 102.533 82.776 102.917 82.088C103.317 81.4 103.717 80.72 104.117 80.048C104.517 79.36 104.917 78.736 105.317 78.176C105.717 77.6 106.109 77.144 106.493 76.808C106.877 76.472 107.245 76.304 107.597 76.304C108.013 76.304 108.397 76.432 108.749 76.688C109.117 76.944 109.413 77.288 109.637 77.72C109.861 78.152 109.973 78.632 109.973 79.16C109.973 79.528 109.909 80.048 109.781 80.72C109.653 81.376 109.517 82.088 109.373 82.856C109.245 83.624 109.165 84.352 109.133 85.04C109.133 85.2 109.181 85.28 109.277 85.28C109.357 85.28 109.453 85.224 109.565 85.112C110.029 84.6 110.541 83.984 111.101 83.264C111.661 82.528 112.229 81.752 112.805 80.936C113.397 80.12 113.981 79.32 114.557 78.536C115.133 77.736 115.669 77.016 116.165 76.376C116.677 75.72 117.125 75.2 117.509 74.816C117.909 74.432 118.221 74.24 118.445 74.24C118.925 74.24 119.293 74.376 119.549 74.648C119.805 74.92 119.933 75.376 119.933 76.016C119.933 76.528 119.893 77.192 119.813 78.008C119.749 78.824 119.661 79.712 119.549 80.672C119.453 81.632 119.341 82.6 119.213 83.576C119.101 84.536 118.989 85.432 118.877 86.264C118.765 87.08 118.677 87.752 118.613 88.28ZM123.61 96.128C123.338 96.128 123.122 96.032 122.962 95.84C122.818 95.648 122.746 95.28 122.746 94.736C122.746 93.952 122.802 93.04 122.914 92C123.026 90.96 123.178 89.856 123.37 88.688C123.578 87.52 123.802 86.352 124.042 85.184C124.298 84.016 124.562 82.904 124.834 81.848C125.122 80.792 125.402 79.856 125.674 79.04C125.946 78.208 126.194 77.552 126.418 77.072C126.658 76.592 126.866 76.352 127.042 76.352C127.346 76.352 127.586 76.44 127.762 76.616C127.954 76.792 128.05 77.056 128.05 77.408C128.05 77.856 127.914 78.584 127.642 79.592C127.37 80.584 127.018 81.88 126.586 83.48C126.986 82.744 127.418 81.976 127.882 81.176C128.346 80.376 128.834 79.6 129.346 78.848C129.858 78.08 130.37 77.392 130.882 76.784C131.41 76.176 131.922 75.688 132.418 75.32C132.914 74.952 133.394 74.768 133.858 74.768C134.354 74.768 134.794 74.928 135.178 75.248C135.562 75.552 135.858 75.968 136.066 76.496C136.29 77.008 136.402 77.584 136.402 78.224C136.402 79.552 136.178 80.84 135.73 82.088C135.282 83.32 134.658 84.432 133.858 85.424C133.074 86.4 132.146 87.176 131.074 87.752C130.018 88.328 128.874 88.616 127.642 88.616C127.178 88.616 126.762 88.592 126.394 88.544C126.026 88.496 125.706 88.44 125.434 88.376C125.242 89.432 125.058 90.52 124.882 91.64C124.706 92.76 124.53 93.952 124.354 95.216C124.306 95.552 124.226 95.784 124.114 95.912C124.002 96.056 123.834 96.128 123.61 96.128ZM134.29 76.592C133.954 76.592 133.554 76.784 133.09 77.168C132.642 77.552 132.154 78.064 131.626 78.704C131.114 79.328 130.594 80.024 130.066 80.792C129.538 81.544 129.026 82.312 128.53 83.096C128.034 83.88 127.578 84.608 127.162 85.28C126.762 85.952 126.434 86.512 126.178 86.96C127.426 86.928 128.522 86.68 129.466 86.216C130.41 85.736 131.218 85.128 131.89 84.392C132.562 83.64 133.106 82.832 133.522 81.968C133.954 81.088 134.266 80.24 134.458 79.424C134.65 78.592 134.746 77.872 134.746 77.264C134.746 76.816 134.594 76.592 134.29 76.592Z" fill="black"/>
</svg>
