<svg width="1210" height="113" viewBox="0 0 1210 113" fill="none" xmlns="http://www.w3.org/2000/svg">
<path d="M49.2188 34.0938C50.8438 33.1562 52.7812 32.3438 55.0312 31.6562C57.2812 30.9687 59.4375 30.625 61.5 30.625C63.0312 30.625 64.375 30.8906 65.5312 31.4219C66.7188 31.9531 67.5312 32.8438 67.9688 34.0938C68.75 36.5938 69.3438 40.4375 69.75 45.625C70.1562 50.8125 70.3594 56.3438 70.3594 62.2188C70.3594 68.0625 70.1562 73.5938 69.75 78.8125C69.3438 84 68.75 87.8438 67.9688 90.3438C67.5 91.6562 66.5469 92.5938 65.1094 93.1562C63.7031 93.7188 62.1094 94 60.3281 94C58.1406 94 55.9844 93.6562 53.8594 92.9688C51.7344 92.2812 50.1875 91.4062 49.2188 90.3438C48.7188 89.6875 48.4062 88.7188 48.2812 87.4375C48.1875 86.125 48.2031 84.6406 48.3281 82.9844C48.4844 81.3281 48.6875 79.6406 48.9375 77.9219C49.1875 76.2031 49.4062 74.6094 49.5938 73.1406C49.7812 71.6406 49.8594 70.4219 49.8281 69.4844C49.7969 68.5156 49.5938 67.9688 49.2188 67.8438C48.9375 67.7812 48.5781 68 48.1406 68.5C47.7031 68.9688 47.2188 69.6406 46.6875 70.5156C46.1562 71.3906 45.5781 72.3906 44.9531 73.5156C44.3594 74.6094 43.7344 75.7656 43.0781 76.9844C42.4219 78.1719 41.75 79.3438 41.0625 80.5C40.375 81.625 39.6875 82.6562 39 83.5938C38.3438 84.5 37.6875 85.2344 37.0312 85.7969C36.375 86.3281 35.75 86.5938 35.1562 86.5938C34.2188 86.5938 33.2031 85.9375 32.1094 84.625C31.0469 83.3125 29.9688 81.7188 28.875 79.8438C27.7812 77.9375 26.7344 76.0469 25.7344 74.1719C24.7344 72.2969 23.8281 70.75 23.0156 69.5312C22.2344 68.3125 21.5938 67.75 21.0938 67.8438C20.5625 68.0938 20.375 69.1875 20.5312 71.125C20.7188 73.0312 21 75.2969 21.375 77.9219C21.7812 80.5469 22.0156 83.0156 22.0781 85.3281C22.1719 87.6406 21.8438 89.3125 21.0938 90.3438C20.1562 91.4062 18.625 92.2812 16.5 92.9688C14.375 93.6562 12.2031 94 9.98438 94C8.20312 94 6.60938 93.7188 5.20312 93.1562C3.79688 92.5938 2.84375 91.6562 2.34375 90.3438C1.5625 87.8438 0.96875 84 0.5625 78.8125C0.1875 73.5938 0 68.0625 0 62.2188C0 56.3438 0.1875 50.8125 0.5625 45.625C0.96875 40.4375 1.5625 36.5938 2.34375 34.0938C2.8125 32.8438 3.625 31.9531 4.78125 31.4219C5.9375 30.8906 7.28125 30.625 8.8125 30.625C10.875 30.625 13.0312 30.9687 15.2812 31.6562C17.5625 32.3438 19.5 33.1562 21.0938 34.0938C22.9688 35.25 24.8281 37.1094 26.6719 39.6719C28.5156 42.2031 30.1875 44.75 31.6875 47.3125C33.1875 49.8438 34.3438 51.6875 35.1562 52.8438C35.9688 51.6875 37.125 49.8438 38.625 47.3125C40.125 44.75 41.7969 42.2031 43.6406 39.6719C45.5156 37.1094 47.375 35.25 49.2188 34.0938ZM92.9531 81.0625C92.1406 81.75 91.75 82.8906 91.7812 84.4844C91.8438 86.0781 91.8438 87.6406 91.7812 89.1719C91.7188 90.7031 91.125 91.75 90 92.3125C89.0312 92.6875 87.5312 93.0625 85.5 93.4375C83.5 93.8125 81.4375 94 79.3125 94C77.9062 94 76.5781 93.875 75.3281 93.625C74.1094 93.375 73.125 92.9531 72.375 92.3594C71.625 91.7656 71.25 90.9375 71.25 89.875C71.25 86.5938 72.375 81.0625 74.625 73.2812C76.9062 65.4688 79.4844 57.7812 82.3594 50.2188C85.2656 42.625 87.8125 37.0938 90 33.625C90.9062 32.3125 92.2188 31.3437 93.9375 30.7188C95.6562 30.0625 97.4688 29.7344 99.375 29.7344C101.281 29.7344 103.094 30.0625 104.812 30.7188C106.531 31.3437 107.844 32.3125 108.75 33.625C110.938 37.0938 113.469 42.625 116.344 50.2188C119.25 57.7812 121.828 65.4688 124.078 73.2812C126.359 81.0625 127.5 86.5938 127.5 89.875C127.5 90.9375 127.125 91.7656 126.375 92.3594C125.625 92.9531 124.625 93.375 123.375 93.625C122.156 93.875 120.844 94 119.438 94C117.312 94 115.234 93.8125 113.203 93.4375C111.203 93.0625 109.719 92.6875 108.75 92.3125C107.625 91.75 107.031 90.7031 106.969 89.1719C106.906 87.6406 106.891 86.0781 106.922 84.4844C106.984 82.8906 106.609 81.75 105.797 81.0625C104.859 80.4375 103.547 80.0312 101.859 79.8438C100.203 79.625 98.5312 79.625 96.8438 79.8438C95.1875 80.0312 93.8906 80.4375 92.9531 81.0625ZM99.375 61.75C99 61.75 98.5156 62.6562 97.9219 64.4688C97.3281 66.2812 97.0781 67.5625 97.1719 68.3125C97.3594 68.6562 97.7656 68.8906 98.3906 69.0156C99.0469 69.1406 99.6875 69.1406 100.312 69.0156C100.969 68.8906 101.391 68.6562 101.578 68.3125C101.641 68 101.594 67.5 101.438 66.8125C101.312 66.125 101.125 65.3906 100.875 64.6094C100.625 63.8281 100.359 63.1562 100.078 62.5938C99.7969 62.0312 99.5625 61.75 99.375 61.75ZM139.594 50.5938C138.875 49.25 137.672 48.6094 135.984 48.6719C134.297 48.7031 132.438 49.0312 130.406 49.6562C128.375 50.25 126.484 50.7344 124.734 51.1094C122.984 51.4844 121.688 51.3125 120.844 50.5938C120.25 49.9688 119.688 49.0469 119.156 47.8281C118.625 46.5781 118.188 45.1875 117.844 43.6562C117.531 42.0938 117.375 40.5625 117.375 39.0625C117.375 37.375 117.641 35.875 118.172 34.5625C118.703 33.2188 119.594 32.3125 120.844 31.8438C123.344 31.0625 127.188 30.4844 132.375 30.1094C137.562 29.7031 143.094 29.5 148.969 29.5C154.812 29.5 160.328 29.7031 165.516 30.1094C170.734 30.4844 174.594 31.0625 177.094 31.8438C178.344 32.3125 179.234 33.2031 179.766 34.5156C180.297 35.8281 180.562 37.3281 180.562 39.0156C180.562 39.9219 180.5 40.8438 180.375 41.7812C180.25 42.7188 180.078 43.6406 179.859 44.5469C179.641 45.4219 179.375 46.25 179.062 47.0312C178.781 47.8125 178.469 48.5156 178.125 49.1406C177.812 49.7344 177.469 50.2188 177.094 50.5938C176.25 51.3125 174.953 51.4844 173.203 51.1094C171.484 50.7344 169.609 50.25 167.578 49.6562C165.547 49.0312 163.672 48.7031 161.953 48.6719C160.266 48.6094 159.062 49.25 158.344 50.5938C157.594 52.3125 157.297 54.9688 157.453 58.5625C157.609 62.125 157.906 66 158.344 70.1875C158.781 74.3438 159.078 78.2188 159.234 81.8125C159.391 85.375 159.094 88.0312 158.344 89.7812C157.625 91.1875 156.391 92.25 154.641 92.9688C152.891 93.6562 151 94 148.969 94C146.969 94 145.094 93.6562 143.344 92.9688C141.594 92.25 140.344 91.1875 139.594 89.7812C138.844 88.0312 138.547 85.375 138.703 81.8125C138.859 78.2188 139.156 74.3438 139.594 70.1875C140.031 66 140.328 62.125 140.484 58.5625C140.641 54.9688 140.344 52.3125 139.594 50.5938ZM205.125 50.5938C204.406 49.25 203.203 48.6094 201.516 48.6719C199.828 48.7031 197.969 49.0312 195.938 49.6562C193.906 50.25 192.016 50.7344 190.266 51.1094C188.516 51.4844 187.219 51.3125 186.375 50.5938C185.781 49.9688 185.219 49.0469 184.688 47.8281C184.156 46.5781 183.719 45.1875 183.375 43.6562C183.062 42.0938 182.906 40.5625 182.906 39.0625C182.906 37.375 183.172 35.875 183.703 34.5625C184.234 33.2188 185.125 32.3125 186.375 31.8438C188.875 31.0625 192.719 30.4844 197.906 30.1094C203.094 29.7031 208.625 29.5 214.5 29.5C220.344 29.5 225.859 29.7031 231.047 30.1094C236.266 30.4844 240.125 31.0625 242.625 31.8438C243.875 32.3125 244.766 33.2031 245.297 34.5156C245.828 35.8281 246.094 37.3281 246.094 39.0156C246.094 39.9219 246.031 40.8438 245.906 41.7812C245.781 42.7188 245.609 43.6406 245.391 44.5469C245.172 45.4219 244.906 46.25 244.594 47.0312C244.312 47.8125 244 48.5156 243.656 49.1406C243.344 49.7344 243 50.2188 242.625 50.5938C241.781 51.3125 240.484 51.4844 238.734 51.1094C237.016 50.7344 235.141 50.25 233.109 49.6562C231.078 49.0312 229.203 48.7031 227.484 48.6719C225.797 48.6094 224.594 49.25 223.875 50.5938C223.125 52.3125 222.828 54.9688 222.984 58.5625C223.141 62.125 223.438 66 223.875 70.1875C224.312 74.3438 224.609 78.2188 224.766 81.8125C224.922 85.375 224.625 88.0312 223.875 89.7812C223.156 91.1875 221.922 92.25 220.172 92.9688C218.422 93.6562 216.531 94 214.5 94C212.5 94 210.625 93.6562 208.875 92.9688C207.125 92.25 205.875 91.1875 205.125 89.7812C204.375 88.0312 204.078 85.375 204.234 81.8125C204.391 78.2188 204.688 74.3438 205.125 70.1875C205.562 66 205.859 62.125 206.016 58.5625C206.172 54.9688 205.875 52.3125 205.125 50.5938ZM296.953 90.7656C295.953 91.5156 294.266 92.25 291.891 92.9688C289.547 93.6562 287.219 94 284.906 94C283.312 94 281.906 93.7656 280.688 93.2969C279.469 92.7969 278.641 91.9531 278.203 90.7656C277.234 87.7344 276.281 82.875 275.344 76.1875C274.406 69.5 273.938 62.75 273.938 55.9375C273.938 51.3125 274.25 47.0781 274.875 43.2344C275.531 39.3906 276.641 36.4844 278.203 34.5156C279.828 32.7031 282.172 31.4219 285.234 30.6719C288.328 29.9219 291.75 29.5469 295.5 29.5469C299.375 29.5469 303.297 29.8281 307.266 30.3906C311.234 30.9531 314.812 31.625 318 32.4062C321.188 33.1562 323.609 33.8594 325.266 34.5156C326.641 35.1094 327.641 36.2031 328.266 37.7969C328.922 39.3594 329.25 41.0781 329.25 42.9531C329.25 45.0469 328.891 47.0781 328.172 49.0469C327.484 50.9844 326.516 52.3906 325.266 53.2656C324.016 54.0156 322.094 54.4219 319.5 54.4844C316.938 54.5156 314.141 54.4062 311.109 54.1562C308.109 53.875 305.312 53.625 302.719 53.4062C300.125 53.1562 298.203 53.1094 296.953 53.2656C296.484 53.3906 296.156 53.7969 295.969 54.4844C295.812 55.1406 295.812 55.8125 295.969 56.5C296.156 57.1875 296.484 57.6094 296.953 57.7656C298.109 57.9531 299.969 57.8438 302.531 57.4375C305.094 57 307.641 56.7031 310.172 56.5469C312.703 56.3906 314.547 56.7969 315.703 57.7656C316.766 58.9219 317.469 60.7812 317.812 63.3438C318.156 65.875 318.156 68.4219 317.812 70.9844C317.469 73.5156 316.766 75.3594 315.703 76.5156C314.891 77.2344 313.625 77.5625 311.906 77.5C310.219 77.4062 308.359 77.1719 306.328 76.7969C304.328 76.3906 302.469 76.1094 300.75 75.9531C299.062 75.7656 297.797 75.9531 296.953 76.5156C296.047 77.3906 295.828 78.7969 296.297 80.7344C296.766 82.6719 297.219 84.6094 297.656 86.5469C298.125 88.4844 297.891 89.8906 296.953 90.7656ZM360.938 75.2031C362.188 75.2031 363.234 74.9062 364.078 74.3125C364.953 73.6875 365.672 72.8281 366.234 71.7344C366.797 70.6094 367.234 69.3125 367.547 67.8438C367.859 66.3438 368.078 64.7344 368.203 63.0156C368.328 61.2969 368.406 59.5156 368.438 57.6719C368.469 55.7969 368.469 53.9219 368.438 52.0469C368.406 50.1719 368.391 48.3594 368.391 46.6094C368.391 44.8594 368.438 43.2344 368.531 41.7344C368.625 40.2031 368.781 38.8594 369 37.7031C369.25 36.5469 369.609 35.625 370.078 34.9375C371.078 33.5938 372.609 32.5469 374.672 31.7969C376.766 31.0469 378.875 30.6719 381 30.6719C382.969 30.6719 384.688 31.0156 386.156 31.7031C387.656 32.3906 388.547 33.4688 388.828 34.9375C389.078 36.5 389.359 38.8594 389.672 42.0156C390.016 45.1719 390.188 48.75 390.188 52.75C390.188 56.2812 389.953 59.9688 389.484 63.8125C389.047 67.6562 388.219 71.375 387 74.9688C385.812 78.5312 384.125 81.75 381.938 84.625C379.75 87.4688 376.953 89.75 373.547 91.4688C370.141 93.1562 365.984 94 361.078 94H360.891C354.672 93.875 349.625 92.4219 345.75 89.6406C341.875 86.8281 338.906 83.2188 336.844 78.8125C334.812 74.375 333.422 69.625 332.672 64.5625C331.953 59.5 331.594 54.7344 331.594 50.2656C331.594 46.7969 331.703 43.7188 331.922 41.0312C332.172 38.3438 332.391 36.3125 332.578 34.9375C332.828 33.4688 333.688 32.3906 335.156 31.7031C336.656 31.0156 338.391 30.6719 340.359 30.6719C342.484 30.6719 344.594 31.0469 346.688 31.7969C348.781 32.5469 350.328 33.5938 351.328 34.9375C352.234 36.3438 352.766 38.5938 352.922 41.6875C353.109 44.75 353.188 48.1719 353.156 51.9531C353.125 55.7344 353.25 59.3906 353.531 62.9219C353.812 66.4219 354.5 69.3281 355.594 71.6406C356.719 73.9219 358.5 75.1094 360.938 75.2031ZM425.391 71.7812C423.422 71.8438 421.844 71.8594 420.656 71.8281C419.469 71.7969 418.875 71.7812 418.875 71.7812C418.875 71.7812 418.969 72.3281 419.156 73.4219C419.344 74.4844 419.531 75.8438 419.719 77.5C419.938 79.125 420.094 80.8281 420.188 82.6094C420.281 84.3594 420.234 85.9531 420.047 87.3906C419.859 88.8281 419.469 89.875 418.875 90.5312C418.25 91.125 417.312 91.6875 416.062 92.2188C414.844 92.75 413.453 93.1875 411.891 93.5312C410.359 93.8438 408.844 94 407.344 94C405.625 94 404.094 93.7344 402.75 93.2031C401.438 92.6719 400.562 91.7812 400.125 90.5312C399.469 88.5312 398.75 85.5312 397.969 81.5312C397.219 77.5312 396.562 73.0469 396 68.0781C395.438 63.0781 395.156 58.2344 395.156 53.5469C395.156 49.0156 395.531 45 396.281 41.5C397.031 38 398.312 35.5938 400.125 34.2812C401.938 33.0938 404.75 32.1094 408.562 31.3281C412.406 30.5469 416.656 30.1562 421.312 30.1562C425.312 30.1562 429.344 30.5312 433.406 31.2812C437.5 32.0312 441.25 33.2812 444.656 35.0312C448.062 36.7812 450.812 39.1406 452.906 42.1094C455.031 45.0469 456.188 48.6875 456.375 53.0312V53.4531C456.375 56.3906 455.688 58.9062 454.312 61C452.938 63.0625 451.141 64.7812 448.922 66.1562C450.922 69.625 452.609 72.9531 453.984 76.1406C455.391 79.3281 456.188 81.8438 456.375 83.6875V83.9688C456.375 85.625 455.688 87.2188 454.312 88.75C452.969 90.2812 451.297 91.5469 449.297 92.5469C447.328 93.5156 445.438 94 443.625 94C442.312 94 441.141 93.6875 440.109 93.0625C438.797 92.1562 437.266 90.5938 435.516 88.375C433.797 86.125 432.031 83.5312 430.219 80.5938C428.438 77.6562 426.828 74.7188 425.391 71.7812ZM421.078 45.9531C420.578 46.1719 420.312 46.8438 420.281 47.9688C420.25 49.0938 420.391 50.2656 420.703 51.4844C421.047 52.6719 421.5 53.4531 422.062 53.8281C422.531 54.0469 423.234 54.2031 424.172 54.2969C425.109 54.3906 426.094 54.375 427.125 54.25C428.188 54.125 429.109 53.8281 429.891 53.3594C430.672 52.8906 431.109 52.2188 431.203 51.3438C431.266 50.6875 431.094 50.0938 430.688 49.5625C430.281 49 429.734 48.5156 429.047 48.1094C428.391 47.6719 427.656 47.3125 426.844 47.0312C426.031 46.7188 425.234 46.4688 424.453 46.2812C423.672 46.0938 422.969 45.9844 422.344 45.9531C421.75 45.8906 421.328 45.8906 421.078 45.9531ZM482.344 35.1719C483.125 37.5781 483.719 41.2969 484.125 46.3281C484.531 51.3594 484.734 56.7031 484.734 62.3594C484.734 68.0469 484.531 73.4062 484.125 78.4375C483.719 83.4375 483.125 87.1406 482.344 89.5469C481.781 91.0469 480.594 92.1719 478.781 92.9219C477 93.6406 475.062 94 472.969 94C470.875 94 468.922 93.6406 467.109 92.9219C465.328 92.1719 464.156 91.0469 463.594 89.5469C463.094 87.9844 462.656 85.8125 462.281 83.0312C461.938 80.2188 461.672 77.0156 461.484 73.4219C461.328 69.8281 461.25 66.1406 461.25 62.3594C461.25 58.6094 461.328 54.9375 461.484 51.3438C461.672 47.75 461.938 44.5469 462.281 41.7344C462.656 38.9219 463.094 36.7344 463.594 35.1719C464.156 33.7031 465.328 32.5938 467.109 31.8438C468.922 31.0938 470.875 30.7188 472.969 30.7188C475.062 30.7188 477 31.0938 478.781 31.8438C480.594 32.5938 481.781 33.7031 482.344 35.1719ZM513.609 70.4219C515.359 70.5156 518.156 70.3594 522 69.9531C525.875 69.5156 529.734 69.25 533.578 69.1562C537.422 69.0312 540.203 69.4531 541.922 70.4219C543.172 71.2969 544.141 72.7031 544.828 74.6406C545.547 76.5781 545.906 78.5938 545.906 80.6875C545.906 82.5938 545.578 84.3438 544.922 85.9375C544.297 87.5 543.297 88.5781 541.922 89.1719C540.297 89.8281 537.891 90.5312 534.703 91.2812C531.516 92 527.938 92.6406 523.969 93.2031C520 93.7344 516.078 94 512.203 94C508.453 94 505.031 93.6406 501.938 92.9219C498.844 92.2031 496.484 90.9531 494.859 89.1719C492.922 86.7344 491.453 82.9844 490.453 77.9219C489.484 72.8594 489 67.4844 489 61.7969C489 56.0781 489.484 50.6875 490.453 45.625C491.453 40.5625 492.922 36.8281 494.859 34.4219C496.484 32.6406 498.844 31.3906 501.938 30.6719C505.062 29.9219 508.5 29.5469 512.25 29.5469C516.094 29.5469 520 29.8281 523.969 30.3906C527.938 30.9219 531.516 31.5625 534.703 32.3125C537.891 33.0625 540.297 33.7656 541.922 34.4219C543.297 35.0156 544.297 36.1094 544.922 37.7031C545.578 39.2656 545.906 40.9844 545.906 42.8594C545.906 44.9531 545.547 46.9844 544.828 48.9531C544.141 50.8906 543.172 52.2969 541.922 53.1719C540.203 54.1406 537.422 54.5625 533.578 54.4375C529.734 54.3125 525.875 54.0469 522 53.6406C518.156 53.2344 515.359 53.0781 513.609 53.1719C513.297 53.2344 513.078 53.5 512.953 53.9688C512.859 54.4062 512.859 54.8594 512.953 55.3281C513.078 55.7969 513.297 56.0781 513.609 56.1719C514.766 56.2969 516.625 56.2344 519.188 55.9844C521.75 55.7031 524.297 55.5156 526.828 55.4219C529.391 55.3281 531.234 55.5781 532.359 56.1719C533.422 56.8594 534.125 57.9688 534.469 59.5C534.812 61.0312 534.812 62.5625 534.469 64.0938C534.125 65.625 533.422 66.7344 532.359 67.4219C531.234 68.0156 529.391 68.2656 526.828 68.1719C524.297 68.0469 521.75 67.8594 519.188 67.6094C516.625 67.3594 514.766 67.2969 513.609 67.4219C513.297 67.5156 513.078 67.7969 512.953 68.2656C512.859 68.7031 512.859 69.1562 512.953 69.625C513.078 70.0625 513.297 70.3281 513.609 70.4219ZM588.094 31C588.719 30.9062 589.359 30.8281 590.016 30.7656C590.078 29.9531 590.156 29.125 590.25 28.2812C590.625 25.75 591.328 23.9063 592.359 22.75C593.516 21.7188 595.047 21.0625 596.953 20.7812C598.859 20.5 600.453 20.3594 601.734 20.3594C602.984 20.3594 604.25 20.4531 605.531 20.6406C608.094 21.0156 609.953 21.7188 611.109 22.75C612.141 23.9063 612.828 25.75 613.172 28.2812C613.297 29.0625 613.375 29.8437 613.406 30.625C614.469 30.7188 615.5 30.8281 616.5 30.9531C620.906 31.4531 624.172 32.0625 626.297 32.7812C628.203 33.625 629.359 35.3438 629.766 37.9375C630.203 40.5 630.078 43.1094 629.391 45.7656C628.703 48.4531 627.672 50.375 626.297 51.5312C625.672 52 624.781 52.3125 623.625 52.4688C622.469 52.5938 621.141 52.625 619.641 52.5625C618.172 52.5312 616.625 52.4375 615 52.2812C613.375 52.0938 611.797 51.9062 610.266 51.7188C608.766 51.5312 607.391 51.3906 606.141 51.2969C604.922 51.1719 603.938 51.125 603.188 51.1562C602.438 51.1562 602.016 51.2812 601.922 51.5312C601.859 51.7812 602 52.0469 602.344 52.3281C602.719 52.6406 603.266 52.9844 603.984 53.3594C604.703 53.7031 605.547 54.0938 606.516 54.5312C607.484 54.9688 608.516 55.4219 609.609 55.8906C611.984 56.8594 614.359 57.9219 616.734 59.0781C619.109 60.2031 621.109 61.375 622.734 62.5938C625.141 64.4688 627 66.5625 628.312 68.875C629.625 71.1875 630.281 73.7344 630.281 76.5156V77.4531C630.125 80.6094 628.922 84.2188 626.672 88.2812C625.234 90.5 622.328 92.0312 617.953 92.875C616.484 93.1562 614.969 93.3906 613.406 93.5781L613.172 95.4531C612.828 98.0156 612.141 99.875 611.109 101.031C609.953 102.062 608.406 102.703 606.469 102.953C604.562 103.234 602.984 103.375 601.734 103.375C600.453 103.375 599.172 103.281 597.891 103.094C595.359 102.75 593.516 102.062 592.359 101.031C591.328 99.875 590.625 98.0156 590.25 95.4531C590.156 94.7031 590.078 93.9531 590.016 93.2031C589.328 93.1094 588.625 93.0156 587.906 92.9219C583.188 92.2969 579.734 91.625 577.547 90.9062C575.578 90.125 574.453 88.8594 574.172 87.1094C573.891 85.3594 573.75 83.9844 573.75 82.9844C573.75 81.3594 573.969 79.6875 574.406 77.9688C575.094 75.2812 576.141 73.3438 577.547 72.1562C578.797 71.3438 580.922 71.0156 583.922 71.1719C586.922 71.3281 590 71.625 593.156 72.0625C594.344 72.1875 595.453 72.3125 596.484 72.4375C597.516 72.5625 598.422 72.6406 599.203 72.6719C600.016 72.7031 600.656 72.6875 601.125 72.625C601.594 72.5625 601.859 72.4062 601.922 72.1562C601.922 71.6562 601.172 71.0156 599.672 70.2344C598.172 69.4219 596.281 68.5156 594 67.5156C592.219 66.7031 590.406 65.8594 588.562 64.9844C586.75 64.0781 585.062 63.1562 583.5 62.2188C581.938 61.2812 580.703 60.3125 579.797 59.3125C577.984 57.3125 576.625 54.7656 575.719 51.6719C574.844 48.5781 574.625 45.4531 575.062 42.2969C575.531 39.1406 576.859 36.4688 579.047 34.2812C580.828 32.75 583.844 31.6562 588.094 31ZM653.719 53.0312C654.531 54.0625 655.828 54.7656 657.609 55.1406C659.391 55.4844 661.172 55.4844 662.953 55.1406C664.734 54.7656 666.031 54.0625 666.844 53.0312C667.281 52.375 667.469 51.4219 667.406 50.1719C667.344 48.9219 667.172 47.5312 666.891 46C666.609 44.4375 666.344 42.8906 666.094 41.3594C665.875 39.7969 665.797 38.3906 665.859 37.1406C665.922 35.8906 666.25 34.9375 666.844 34.2812C667.844 33.3438 669.453 32.5312 671.672 31.8438C673.891 31.1562 676.141 30.8125 678.422 30.8125C680.109 30.8125 681.609 31.0781 682.922 31.6094C684.266 32.1406 685.156 33.0312 685.594 34.2812C686.375 36.7812 686.969 40.625 687.375 45.8125C687.781 51 687.984 56.5312 687.984 62.4062C687.984 68.25 687.781 73.7812 687.375 79C686.969 84.1875 686.375 88.0312 685.594 90.5312C685.156 91.7812 684.266 92.6719 682.922 93.2031C681.609 93.7344 680.094 94 678.375 94C676.875 94 675.344 93.8438 673.781 93.5312C672.25 93.1875 670.859 92.75 669.609 92.2188C668.391 91.6875 667.469 91.125 666.844 90.5312C666.094 89.6875 665.75 88.4219 665.812 86.7344C665.906 85.0156 666.141 83.1562 666.516 81.1562C666.891 79.1562 667.172 77.3125 667.359 75.625C667.547 73.9062 667.375 72.625 666.844 71.7812C666.031 70.7188 664.734 70.0156 662.953 69.6719C661.172 69.3281 659.391 69.3281 657.609 69.6719C655.828 70.0156 654.531 70.7188 653.719 71.7812C653.312 72.4375 653.125 73.3906 653.156 74.6406C653.219 75.8906 653.391 77.2969 653.672 78.8594C653.953 80.3906 654.203 81.9375 654.422 83.5C654.672 85.0312 654.766 86.4219 654.703 87.6719C654.672 88.9219 654.344 89.875 653.719 90.5312C653.094 91.125 652.156 91.6875 650.906 92.2188C649.688 92.75 648.297 93.1875 646.734 93.5312C645.203 93.8438 643.688 94 642.188 94C640.5 94 638.984 93.7344 637.641 93.2031C636.328 92.6719 635.438 91.7812 634.969 90.5312C634.188 88.0312 633.594 84.1875 633.188 79C632.812 73.7812 632.625 68.25 632.625 62.4062C632.625 56.5312 632.812 51 633.188 45.8125C633.594 40.625 634.188 36.7812 634.969 34.2812C635.438 33.0312 636.328 32.1406 637.641 31.6094C638.984 31.0781 640.5 30.8125 642.188 30.8125C643.094 30.8125 644.016 30.875 644.953 31C645.891 31.125 646.797 31.2969 647.672 31.5156C648.578 31.7344 649.422 32 650.203 32.3125C650.984 32.5938 651.672 32.9062 652.266 33.25C652.891 33.5625 653.375 33.9062 653.719 34.2812C654.469 35.125 654.812 36.4062 654.75 38.125C654.688 39.8125 654.469 41.6562 654.094 43.6562C653.719 45.6562 653.438 47.5156 653.25 49.2344C653.062 50.9219 653.219 52.1875 653.719 53.0312ZM700.031 40.2344C703.688 36.6094 707.422 34.0469 711.234 32.5469C715.078 31.0156 718.812 30.25 722.438 30.25C726.344 30.25 730 30.8906 733.406 32.1719C736.812 33.4531 739.719 35 742.125 36.8125C744.562 38.625 746.312 40.375 747.375 42.0625C749.25 45.0938 750.625 48.1562 751.5 51.25C752.375 54.3438 752.812 57.4375 752.812 60.5312C752.812 64.2188 752.281 67.8594 751.219 71.4531C750.188 75.0469 748.797 78.5469 747.047 81.9531C744.953 85.7656 741.625 88.7344 737.062 90.8594C732.5 92.9531 727.578 94 722.297 94C718.828 94 715.406 93.5156 712.031 92.5469C708.688 91.5469 705.641 90 702.891 87.9062C699.141 84.9688 696.312 81.25 694.406 76.75C692.531 72.2188 691.594 67.5156 691.594 62.6406C691.594 58.4531 692.281 54.4062 693.656 50.5C695.062 46.5938 697.188 43.1719 700.031 40.2344ZM714.609 55.4219C712.516 57.6406 711.562 60.3281 711.75 63.4844C711.938 66.6094 713.203 69.125 715.547 71.0312C718.078 72.7188 720.875 73.3438 723.938 72.9062C727.031 72.4688 729.219 71.1875 730.5 69.0625C731.625 67 732.266 64.8594 732.422 62.6406C732.578 60.3906 731.969 58.1875 730.594 56.0312C730 55.0625 728.844 54.1562 727.125 53.3125C725.438 52.4375 723.469 52.0625 721.219 52.1875C719 52.3125 716.797 53.3906 714.609 55.4219ZM786.891 71.7812C784.922 71.8438 783.344 71.8594 782.156 71.8281C780.969 71.7969 780.375 71.7812 780.375 71.7812C780.375 71.7812 780.469 72.3281 780.656 73.4219C780.844 74.4844 781.031 75.8438 781.219 77.5C781.438 79.125 781.594 80.8281 781.688 82.6094C781.781 84.3594 781.734 85.9531 781.547 87.3906C781.359 88.8281 780.969 89.875 780.375 90.5312C779.75 91.125 778.812 91.6875 777.562 92.2188C776.344 92.75 774.953 93.1875 773.391 93.5312C771.859 93.8438 770.344 94 768.844 94C767.125 94 765.594 93.7344 764.25 93.2031C762.938 92.6719 762.062 91.7812 761.625 90.5312C760.969 88.5312 760.25 85.5312 759.469 81.5312C758.719 77.5312 758.062 73.0469 757.5 68.0781C756.938 63.0781 756.656 58.2344 756.656 53.5469C756.656 49.0156 757.031 45 757.781 41.5C758.531 38 759.812 35.5938 761.625 34.2812C763.438 33.0938 766.25 32.1094 770.062 31.3281C773.906 30.5469 778.156 30.1562 782.812 30.1562C786.812 30.1562 790.844 30.5312 794.906 31.2812C799 32.0312 802.75 33.2812 806.156 35.0312C809.562 36.7812 812.312 39.1406 814.406 42.1094C816.531 45.0469 817.688 48.6875 817.875 53.0312V53.4531C817.875 56.3906 817.188 58.9062 815.812 61C814.438 63.0625 812.641 64.7812 810.422 66.1562C812.422 69.625 814.109 72.9531 815.484 76.1406C816.891 79.3281 817.688 81.8438 817.875 83.6875V83.9688C817.875 85.625 817.188 87.2188 815.812 88.75C814.469 90.2812 812.797 91.5469 810.797 92.5469C808.828 93.5156 806.938 94 805.125 94C803.812 94 802.641 93.6875 801.609 93.0625C800.297 92.1562 798.766 90.5938 797.016 88.375C795.297 86.125 793.531 83.5312 791.719 80.5938C789.938 77.6562 788.328 74.7188 786.891 71.7812ZM782.578 45.9531C782.078 46.1719 781.812 46.8438 781.781 47.9688C781.75 49.0938 781.891 50.2656 782.203 51.4844C782.547 52.6719 783 53.4531 783.562 53.8281C784.031 54.0469 784.734 54.2031 785.672 54.2969C786.609 54.3906 787.594 54.375 788.625 54.25C789.688 54.125 790.609 53.8281 791.391 53.3594C792.172 52.8906 792.609 52.2188 792.703 51.3438C792.766 50.6875 792.594 50.0938 792.188 49.5625C791.781 49 791.234 48.5156 790.547 48.1094C789.891 47.6719 789.156 47.3125 788.344 47.0312C787.531 46.7188 786.734 46.4688 785.953 46.2812C785.172 46.0938 784.469 45.9844 783.844 45.9531C783.25 45.8906 782.828 45.8906 782.578 45.9531ZM844.078 64.75C843.672 64.75 843.453 65.2656 843.422 66.2969C843.422 67.3281 843.516 68.6719 843.703 70.3281C843.891 71.9844 844.094 73.7812 844.312 75.7188C844.562 77.6562 844.766 79.5625 844.922 81.4375C845.078 83.3125 845.109 85 845.016 86.5C844.922 87.9688 844.609 89.0625 844.078 89.7812C843.172 90.9375 841.688 91.8594 839.625 92.5469C837.562 93.2344 835.438 93.5781 833.25 93.5781C831.406 93.5781 829.75 93.2812 828.281 92.6875C826.812 92.0938 825.828 91.125 825.328 89.7812C824.516 87.1562 823.875 83.0938 823.406 77.5938C822.969 72.0625 822.75 66.2344 822.75 60.1094C822.75 56.3906 822.844 52.7812 823.031 49.2812C823.219 45.7812 823.5 42.6719 823.875 39.9531C824.25 37.2031 824.734 35.0625 825.328 33.5312C825.984 32 827.062 30.9062 828.562 30.25C830.062 29.5938 831.781 29.2656 833.719 29.2656C836.156 29.2656 838.656 29.6875 841.219 30.5312C843.812 31.3437 846.016 32.3438 847.828 33.5312C848.609 34.0625 849.391 34.8281 850.172 35.8281C850.953 36.7969 851.719 37.9219 852.469 39.2031C853.219 40.4844 853.953 41.8438 854.672 43.2812C855.391 44.7188 856.078 46.1562 856.734 47.5938C857.422 49.0312 858.062 50.4062 858.656 51.7188C859.25 53.0312 859.797 54.2031 860.297 55.2344C860.828 56.2344 861.297 57.0312 861.703 57.625C862.141 58.2188 862.516 58.5156 862.828 58.5156C863.453 58.5156 863.672 57.4375 863.484 55.2812C863.297 53.125 863 50.5625 862.594 47.5938C862.188 44.625 861.938 41.8281 861.844 39.2031C861.781 36.5469 862.109 34.6562 862.828 33.5312C863.766 32.375 865.266 31.4531 867.328 30.7656C869.391 30.0469 871.516 29.6875 873.703 29.6875C875.516 29.6875 877.156 30 878.625 30.625C880.094 31.2188 881.078 32.1875 881.578 33.5312C882.422 36.1562 883.062 40.2344 883.5 45.7656C883.938 51.2656 884.156 57.0781 884.156 63.2031C884.156 66.9219 884.062 70.5312 883.875 74.0312C883.719 77.5312 883.438 80.6562 883.031 83.4062C882.656 86.125 882.172 88.25 881.578 89.7812C880.953 91.2812 879.891 92.3594 878.391 93.0156C876.891 93.6719 875.172 94 873.234 94C870.797 94 868.281 93.5938 865.688 92.7812C863.094 91.9688 860.891 90.9688 859.078 89.7812C857.516 88.625 855.969 86.7344 854.438 84.1094C852.938 81.4844 851.516 78.6875 850.172 75.7188C848.828 72.75 847.625 70.1875 846.562 68.0312C845.531 65.8438 844.703 64.75 844.078 64.75ZM924.656 72.9062C924.094 74.9375 924.078 77.2031 924.609 79.7031C925.141 82.2031 925.562 84.5469 925.875 86.7344C926.219 88.8906 925.812 90.5312 924.656 91.6562C923.656 92.4375 922.109 93.0312 920.016 93.4375C917.953 93.8125 915.75 94 913.406 94C911.062 94 908.844 93.8125 906.75 93.4375C904.688 93.0312 903.156 92.4375 902.156 91.6562C901 90.5312 900.578 88.8906 900.891 86.7344C901.234 84.5469 901.672 82.2031 902.203 79.7031C902.734 77.2031 902.719 74.9375 902.156 72.9062C901.5 71 900.453 68.7344 899.016 66.1094C897.578 63.4531 895.969 60.6406 894.188 57.6719C892.438 54.6719 890.734 51.7344 889.078 48.8594C887.453 45.9844 886.094 43.3906 885 41.0781C883.938 38.7344 883.406 36.9062 883.406 35.5938V35.4062C883.531 34.0938 884.203 33.1719 885.422 32.6406C886.641 32.0781 888.156 31.7969 889.969 31.7969C891.188 31.7969 892.469 31.9062 893.812 32.125C895.156 32.3125 896.469 32.5781 897.75 32.9219C899.031 33.2656 900.219 33.6562 901.312 34.0938C902.406 34.5 903.312 34.9375 904.031 35.4062C905.031 36.0625 905.891 37.1094 906.609 38.5469C907.359 39.9844 908.016 41.5938 908.578 43.375C909.172 45.125 909.703 46.8281 910.172 48.4844C910.672 50.1094 911.172 51.4688 911.672 52.5625C912.203 53.625 912.781 54.1562 913.406 54.1562C914.188 54.1562 914.875 53.3438 915.469 51.7188C916.094 50.0938 916.734 48.1719 917.391 45.9531C918.047 43.7344 918.797 41.6406 919.641 39.6719C920.484 37.6719 921.531 36.25 922.781 35.4062C923.781 34.7812 925.062 34.2031 926.625 33.6719C928.219 33.1094 929.906 32.6562 931.688 32.3125C933.5 31.9688 935.234 31.7969 936.891 31.7969C938.672 31.7969 940.172 32.0781 941.391 32.6406C942.641 33.1719 943.312 34.0938 943.406 35.4062V35.5938C943.406 37.2188 942.594 39.625 940.969 42.8125C939.344 46 937.422 49.4688 935.203 53.2188C932.984 56.9688 930.875 60.5938 928.875 64.0938C926.906 67.5625 925.5 70.5 924.656 72.9062ZM975.281 51.5312C974.156 50.625 973.25 49.1406 972.562 47.0781C971.875 45.0156 971.531 42.8906 971.531 40.7031C971.531 38.8906 971.828 37.25 972.422 35.7812C973.016 34.3125 973.969 33.3125 975.281 32.7812C977.438 32.0312 980.812 31.4063 985.406 30.9062C990 30.4062 994.844 30.1562 999.938 30.1562C1004.84 30.1562 1009.39 30.4688 1013.58 31.0938C1017.8 31.7187 1020.78 32.7812 1022.53 34.2812C1024 35.7188 1025.06 37.4062 1025.72 39.3438C1026.38 41.2812 1026.7 43.2969 1026.7 45.3906C1026.7 48.0469 1026.25 50.625 1025.34 53.125C1024.47 55.5938 1023.28 57.6562 1021.78 59.3125C1020.47 60.6875 1018.59 62.0312 1016.16 63.3438C1013.75 64.625 1011.27 65.8438 1008.7 67C1006.14 68.125 1003.98 69.1406 1002.23 70.0469C1000.52 70.9219 999.656 71.625 999.656 72.1562C999.844 72.6562 1000.97 72.8125 1003.03 72.625C1005.12 72.4375 1007.59 72.1719 1010.44 71.8281C1013.31 71.4531 1016.02 71.2344 1018.55 71.1719C1021.11 71.1094 1022.94 71.4375 1024.03 72.1562C1025.16 73.0938 1026.06 74.6094 1026.75 76.7031C1027.47 78.7656 1027.83 80.8906 1027.83 83.0781C1027.83 84.8906 1027.53 86.5312 1026.94 88C1026.34 89.4688 1025.38 90.4375 1024.03 90.9062C1021.72 91.6562 1018 92.3594 1012.88 93.0156C1007.78 93.6719 1002.48 94 996.984 94C991.922 94 987.312 93.5781 983.156 92.7344C979.031 91.8906 976.281 90.4062 974.906 88.2812C973.625 86.0312 972.688 83.9219 972.094 81.9531C971.531 79.9531 971.25 78.1094 971.25 76.4219C971.25 73.4844 971.953 70.8906 973.359 68.6406C974.766 66.3594 976.594 64.3438 978.844 62.5938C979.875 61.7812 981.094 61 982.5 60.25C983.938 59.4688 985.453 58.7188 987.047 58C988.641 57.2812 990.203 56.6094 991.734 55.9844C993.266 55.3281 994.641 54.7344 995.859 54.2031C997.109 53.6406 998.078 53.1406 998.766 52.7031C999.453 52.2344 999.75 51.8438 999.656 51.5312C999.25 51 997.359 50.9688 993.984 51.4375C990.609 51.875 987.031 52.25 983.25 52.5625C979.5 52.8438 976.844 52.5 975.281 51.5312ZM1037.86 40.2344C1041.17 36.6094 1044.55 34.0469 1047.98 32.5469C1051.45 31.0156 1054.84 30.25 1058.16 30.25C1061.69 30.25 1064.98 30.8906 1068.05 32.1719C1071.14 33.4531 1073.78 35 1075.97 36.8125C1078.19 38.625 1079.78 40.375 1080.75 42.0625C1082.47 45.0938 1083.7 48.1562 1084.45 51.25C1085.23 54.3438 1085.62 57.4375 1085.62 60.5312C1085.62 64.2188 1085.16 67.8594 1084.22 71.4531C1083.31 75.0469 1082.05 78.5469 1080.42 81.9531C1078.55 85.7656 1075.55 88.7344 1071.42 90.8594C1067.3 92.9531 1062.84 94 1058.06 94C1054.94 94 1051.84 93.5156 1048.78 92.5469C1045.75 91.5469 1042.97 90 1040.44 87.9062C1037.06 84.9688 1034.52 81.25 1032.8 76.75C1031.08 72.2188 1030.22 67.5 1030.22 62.5938C1030.22 58.4375 1030.84 54.4062 1032.09 50.5C1033.38 46.5625 1035.3 43.1406 1037.86 40.2344ZM1053.89 55.4219C1051.98 57.6406 1051.11 60.3281 1051.27 63.4844C1051.45 66.6094 1052.61 69.125 1054.73 71.0312C1055.58 71.7188 1056.33 72.2344 1056.98 72.5781C1057.67 72.8906 1058.27 73.0469 1058.77 73.0469C1059.3 73.0156 1059.78 72.8438 1060.22 72.5312C1060.66 72.2188 1061.06 71.7812 1061.44 71.2188C1061.84 70.625 1062.25 69.9062 1062.66 69.0625C1063.69 67 1064.27 64.8594 1064.39 62.6406C1064.55 60.3906 1064 58.1875 1062.75 56.0312C1062.38 55.3438 1061.97 54.6562 1061.53 53.9688C1061.09 53.25 1060.55 52.7188 1059.89 52.375C1059.27 52.0312 1058.47 52.0625 1057.5 52.4688C1056.53 52.875 1055.33 53.8594 1053.89 55.4219ZM1092 51.5312C1090.88 50.625 1089.97 49.1406 1089.28 47.0781C1088.59 45.0156 1088.25 42.8906 1088.25 40.7031C1088.25 38.8906 1088.55 37.25 1089.14 35.7812C1089.73 34.3125 1090.69 33.3125 1092 32.7812C1094.16 32.0312 1097.53 31.4063 1102.12 30.9062C1106.72 30.4062 1111.56 30.1562 1116.66 30.1562C1121.56 30.1562 1126.11 30.4688 1130.3 31.0938C1134.52 31.7187 1137.5 32.7812 1139.25 34.2812C1140.72 35.7188 1141.78 37.4062 1142.44 39.3438C1143.09 41.2812 1143.42 43.2969 1143.42 45.3906C1143.42 48.0469 1142.97 50.625 1142.06 53.125C1141.19 55.5938 1140 57.6562 1138.5 59.3125C1137.19 60.6875 1135.31 62.0312 1132.88 63.3438C1130.47 64.625 1127.98 65.8438 1125.42 67C1122.86 68.125 1120.7 69.1406 1118.95 70.0469C1117.23 70.9219 1116.38 71.625 1116.38 72.1562C1116.56 72.6562 1117.69 72.8125 1119.75 72.625C1121.84 72.4375 1124.31 72.1719 1127.16 71.8281C1130.03 71.4531 1132.73 71.2344 1135.27 71.1719C1137.83 71.1094 1139.66 71.4375 1140.75 72.1562C1141.88 73.0938 1142.78 74.6094 1143.47 76.7031C1144.19 78.7656 1144.55 80.8906 1144.55 83.0781C1144.55 84.8906 1144.25 86.5312 1143.66 88C1143.06 89.4688 1142.09 90.4375 1140.75 90.9062C1138.44 91.6562 1134.72 92.3594 1129.59 93.0156C1124.5 93.6719 1119.2 94 1113.7 94C1108.64 94 1104.03 93.5781 1099.88 92.7344C1095.75 91.8906 1093 90.4062 1091.62 88.2812C1090.34 86.0312 1089.41 83.9219 1088.81 81.9531C1088.25 79.9531 1087.97 78.1094 1087.97 76.4219C1087.97 73.4844 1088.67 70.8906 1090.08 68.6406C1091.48 66.3594 1093.31 64.3438 1095.56 62.5938C1096.59 61.7812 1097.81 61 1099.22 60.25C1100.66 59.4688 1102.17 58.7188 1103.77 58C1105.36 57.2812 1106.92 56.6094 1108.45 55.9844C1109.98 55.3281 1111.36 54.7344 1112.58 54.2031C1113.83 53.6406 1114.8 53.1406 1115.48 52.7031C1116.17 52.2344 1116.47 51.8438 1116.38 51.5312C1115.97 51 1114.08 50.9688 1110.7 51.4375C1107.33 51.875 1103.75 52.25 1099.97 52.5625C1096.22 52.8438 1093.56 52.5 1092 51.5312ZM1168.64 54.2969C1169.17 55.2344 1170.08 55.8594 1171.36 56.1719C1172.67 56.4844 1173.97 56.4844 1175.25 56.1719C1176.56 55.8594 1177.48 55.2344 1178.02 54.2969C1178.45 53.1406 1178.45 51.2969 1178.02 48.7656C1177.58 46.2031 1177.22 43.6562 1176.94 41.125C1176.69 38.5625 1177.05 36.7031 1178.02 35.5469C1178.83 34.7656 1180.09 34.1875 1181.81 33.8125C1183.56 33.4062 1185.42 33.2031 1187.39 33.2031C1189.33 33.2031 1191.16 33.4062 1192.88 33.8125C1194.62 34.1875 1195.92 34.7656 1196.77 35.5469C1197.52 36.3906 1197.88 37.6719 1197.84 39.3906C1197.84 41.0781 1197.67 42.9219 1197.33 44.9219C1197.02 46.9219 1196.75 48.7812 1196.53 50.5C1196.34 52.2188 1196.42 53.4844 1196.77 54.2969C1197.3 55.1406 1198.2 55.3594 1199.48 54.9531C1200.8 54.5156 1202.09 54.0938 1203.38 53.6875C1204.69 53.2812 1205.61 53.4844 1206.14 54.2969C1206.52 55.1406 1206.8 56.4375 1206.98 58.1875C1207.2 59.9062 1207.31 61.7344 1207.31 63.6719C1207.31 65.6406 1207.2 67.5 1206.98 69.25C1206.8 70.9688 1206.52 72.2344 1206.14 73.0469C1205.61 73.8906 1204.69 74.1094 1203.38 73.7031C1202.09 73.2656 1200.8 72.8438 1199.48 72.4375C1198.2 72.0312 1197.3 72.2344 1196.77 73.0469C1196.42 73.8906 1196.34 75.1719 1196.53 76.8906C1196.75 78.5781 1197.02 80.4219 1197.33 82.4219C1197.67 84.4219 1197.84 86.2812 1197.84 88C1197.88 89.7188 1197.52 90.9844 1196.77 91.7969C1195.95 92.5469 1194.72 93.1094 1193.06 93.4844C1191.44 93.8281 1189.69 94 1187.81 94C1186.47 94 1185.14 93.9219 1183.83 93.7656C1182.55 93.5781 1181.39 93.3281 1180.36 93.0156C1179.36 92.6719 1178.58 92.2656 1178.02 91.7969C1177.3 91.0781 1177.05 90 1177.27 88.5625C1177.52 87.0938 1177.89 85.5 1178.39 83.7812C1178.92 82.0625 1179.22 80.4531 1179.28 78.9531C1179.38 77.4531 1178.89 76.2969 1177.83 75.4844C1176.58 74.7656 1174.67 74.5156 1172.11 74.7344C1169.58 74.9531 1166.81 75.25 1163.81 75.625C1160.84 75.9688 1158.08 76.0312 1155.52 75.8125C1152.98 75.5625 1151.11 74.6406 1149.89 73.0469C1148.83 71.4844 1148.06 69.1875 1147.59 66.1562C1147.16 63.125 1146.94 59.8594 1146.94 56.3594C1146.94 52.1094 1147.2 48.0469 1147.73 44.1719C1148.3 40.2656 1149.02 37.3906 1149.89 35.5469C1150.52 34.3594 1151.52 33.5156 1152.89 33.0156C1154.3 32.4844 1155.84 32.2188 1157.53 32.2188C1159.72 32.2188 1161.88 32.5469 1164 33.2031C1166.12 33.8594 1167.67 34.6406 1168.64 35.5469C1169.39 36.3906 1169.75 37.6719 1169.72 39.3906C1169.72 41.0781 1169.55 42.9219 1169.2 44.9219C1168.89 46.9219 1168.62 48.7812 1168.41 50.5C1168.22 52.2188 1168.3 53.4844 1168.64 54.2969Z" fill="white" fill-opacity="0.9"/>
</svg>
