<svg width="279" height="364" viewBox="0 0 279 364" fill="none" xmlns="http://www.w3.org/2000/svg">
<path d="M31.104 4.89599C34.56 4.89599 37.44 7.2 38.016 10.56C40.896 25.632 39.744 40.704 42.72 55.776C42.816 56.544 43.968 56.448 43.968 55.68C44.256 38.016 46.176 25.056 49.824 10.272C50.592 7.008 53.376 4.89599 56.736 4.89599H78.624C82.56 4.89599 85.728 8.064 85.728 11.904C85.728 29.568 85.728 47.328 85.728 64.992C85.728 68.832 82.56 72 78.624 72H74.496C70.56 72 67.392 68.832 67.392 64.992V17.664C67.392 17.376 67.008 17.28 66.912 17.568L53.664 66.816C52.896 69.984 50.112 72 46.848 72H40.992C37.728 72 35.04 69.984 34.176 66.816C33.888 65.856 33.696 64.896 33.408 63.936L20.928 17.568C20.928 17.28 20.448 17.376 20.448 17.664V64.992C20.448 68.832 17.28 72 13.44 72H9.216C5.376 72 2.208 68.832 2.208 64.992V11.904C2.208 8.064 5.376 4.89599 9.216 4.89599H31.104ZM113.759 21.216C113.663 20.448 112.607 20.352 112.415 21.12C110.495 30.816 110.399 40.512 109.727 50.208H116.159C114.719 41.28 113.951 32.16 113.759 21.216ZM137.663 63.168C138.239 65.376 137.855 67.488 136.415 69.312C135.071 71.04 133.151 72 130.847 72C129.311 72 127.871 72 126.431 72C123.167 72 120.383 69.888 119.615 66.72C119.135 64.8 118.655 62.976 118.271 61.152H108.671C108.383 62.88 108.095 64.608 107.807 66.336C107.135 69.696 104.255 72 100.895 72C99.4553 72 98.0153 72 96.4793 72C94.2713 72 92.2553 71.04 90.9113 69.312C89.4713 67.488 89.0873 65.376 89.6633 63.168C94.1753 46.368 98.6873 29.664 103.103 12.96C103.391 12 103.679 11.04 103.871 10.08C104.735 7.008 107.519 4.89599 110.687 4.89599H116.639C119.903 4.89599 122.591 7.008 123.455 10.08L137.663 63.168ZM147.974 15.744H139.526C137.51 15.744 135.878 14.112 135.878 12V8.64C135.878 6.528 137.51 4.89599 139.526 4.89599H174.758C176.87 4.89599 178.502 6.528 178.502 8.64V12C178.502 14.112 176.87 15.744 174.758 15.744H166.31V64.992C166.31 68.832 163.142 72 159.302 72H155.078C151.238 72 147.974 68.832 147.974 64.992V15.744ZM193.536 15.744H185.088C183.072 15.744 181.44 14.112 181.44 12V8.64C181.44 6.528 183.072 4.89599 185.088 4.89599H220.32C222.432 4.89599 224.064 6.528 224.064 8.64V12C224.064 14.112 222.432 15.744 220.32 15.744H211.872V64.992C211.872 68.832 208.704 72 204.864 72H200.64C196.8 72 193.536 68.832 193.536 64.992V15.744Z" fill="#FFF1E8"/>
<path d="M41.088 95.896C43.2 95.896 44.832 97.528 44.832 99.64V103C44.832 105.112 43.2 106.744 41.088 106.744H21.696C21.024 106.744 20.448 107.32 20.448 107.992V122.776C20.448 123.448 21.024 124.024 21.696 124.024H34.08C36.096 124.024 37.824 125.656 37.824 127.768V131.128C37.824 133.24 36.096 134.872 34.08 134.872H21.696C21.024 134.872 20.448 135.448 20.448 136.12V155.992C20.448 159.832 17.28 163 13.44 163H9.216C5.376 163 2.208 159.832 2.208 155.992V102.904C2.208 99.064 5.376 95.896 9.216 95.896H41.088ZM48.2303 102.904C48.2303 99.064 51.3983 95.896 55.2383 95.896H59.4623C63.3023 95.896 66.4703 99.064 66.4703 102.904V149.08C66.4703 150.808 67.9103 152.152 69.5423 152.152C71.1743 152.152 72.6143 150.808 72.6143 149.08V102.904C72.6143 99.064 75.7823 95.896 79.6223 95.896H83.8463C87.6863 95.896 90.8543 99.064 90.8543 102.904V141.688C90.8543 153.4 81.2543 163 69.5423 163C57.8303 163 48.2303 153.4 48.2303 141.688V102.904ZM118.156 95.896C128.909 95.896 137.645 104.632 137.645 115.384C137.645 121.336 134.957 126.808 130.637 130.36C133.037 131.512 134.765 133.912 135.149 136.504C137.453 154.168 135.341 138.328 137.645 155.992C138.125 159.928 135.341 163.096 131.501 163.096H127.277C123.437 163.096 119.789 159.832 119.309 155.992L116.812 136.504C116.717 135.928 116.717 135.448 116.812 134.872H114.509C113.837 134.872 113.261 135.448 113.261 136.12V155.992C113.261 159.832 110.093 163 106.253 163H102.029C98.1885 163 95.0205 159.832 95.0205 155.992V102.904C95.0205 99.064 98.1885 95.896 102.029 95.896H118.156ZM119.405 120.952V109.816C119.405 108.184 117.965 106.744 116.333 106.744H114.509C113.837 106.744 113.261 107.32 113.261 107.992V122.776C113.261 123.448 113.837 124.024 114.509 124.024H116.333C117.965 124.024 119.405 122.584 119.405 120.952ZM148.247 95.896H152.471C156.311 95.896 159.479 99.064 159.479 102.904C159.479 120.568 159.479 138.328 159.479 155.992C159.479 159.832 156.311 163 152.471 163H148.247C144.407 163 141.239 159.832 141.239 155.992V102.904C141.239 99.064 144.407 95.896 148.247 95.896ZM182.261 122.776C182.261 123.448 182.837 124.024 183.509 124.024H195.893C197.909 124.024 199.637 125.656 199.637 127.768V131.128C199.637 133.24 197.909 134.872 195.893 134.872H183.509C182.837 134.872 182.261 135.448 182.261 136.12V150.904C182.261 151.576 182.837 152.152 183.509 152.152H202.901C205.013 152.152 206.645 153.784 206.645 155.896V159.352C206.645 161.368 205.013 163 202.901 163H171.029C167.189 163 164.021 159.832 164.021 155.992V102.904C164.021 99.064 167.189 95.896 171.029 95.896H202.901C205.013 95.896 206.645 97.528 206.645 99.64V103C206.645 105.112 205.013 106.744 202.901 106.744H183.509C182.837 106.744 182.261 107.32 182.261 107.992V122.776ZM31.104 186.896C34.56 186.896 37.44 189.2 38.016 192.56C40.896 207.632 39.744 222.704 42.72 237.776C42.816 238.544 43.968 238.448 43.968 237.68C44.256 220.016 46.176 207.056 49.824 192.272C50.592 189.008 53.376 186.896 56.736 186.896H78.624C82.56 186.896 85.728 190.064 85.728 193.904C85.728 211.568 85.728 229.328 85.728 246.992C85.728 250.832 82.56 254 78.624 254H74.496C70.56 254 67.392 250.832 67.392 246.992V199.664C67.392 199.376 67.008 199.28 66.912 199.568L53.664 248.816C52.896 251.984 50.112 254 46.848 254H40.992C37.728 254 35.04 251.984 34.176 248.816C33.888 247.856 33.696 246.896 33.408 245.936L20.928 199.568C20.928 199.28 20.448 199.376 20.448 199.664V246.992C20.448 250.832 17.28 254 13.44 254H9.216C5.376 254 2.208 250.832 2.208 246.992V193.904C2.208 190.064 5.376 186.896 9.216 186.896H31.104ZM108.479 213.776C108.479 214.448 109.055 215.024 109.727 215.024H122.111C124.127 215.024 125.855 216.656 125.855 218.768V222.128C125.855 224.24 124.127 225.872 122.111 225.872H109.727C109.055 225.872 108.479 226.448 108.479 227.12V241.904C108.479 242.576 109.055 243.152 109.727 243.152H129.119C131.231 243.152 132.863 244.784 132.863 246.896V250.352C132.863 252.368 131.231 254 129.119 254H97.2473C93.4073 254 90.2393 250.832 90.2393 246.992V193.904C90.2393 190.064 93.4073 186.896 97.2473 186.896H129.119C131.231 186.896 132.863 188.528 132.863 190.64V194C132.863 196.112 131.231 197.744 129.119 197.744H109.727C109.055 197.744 108.479 198.32 108.479 198.992V213.776ZM165.542 186.896C168.998 186.896 171.878 189.2 172.454 192.56C175.334 207.632 174.182 222.704 177.158 237.776C177.254 238.544 178.406 238.448 178.406 237.68C178.694 220.016 180.614 207.056 184.262 192.272C185.03 189.008 187.814 186.896 191.174 186.896H213.062C216.998 186.896 220.166 190.064 220.166 193.904C220.166 211.568 220.166 229.328 220.166 246.992C220.166 250.832 216.998 254 213.062 254H208.934C204.998 254 201.83 250.832 201.83 246.992V199.664C201.83 199.376 201.446 199.28 201.35 199.568L188.102 248.816C187.333 251.984 184.55 254 181.286 254H175.43C172.166 254 169.478 251.984 168.614 248.816C168.326 247.856 168.134 246.896 167.846 245.936L155.366 199.568C155.366 199.28 154.886 199.376 154.886 199.664V246.992C154.886 250.832 151.718 254 147.878 254H143.654C139.814 254 136.646 250.832 136.646 246.992V193.904C136.646 190.064 139.814 186.896 143.654 186.896H165.542ZM242.917 213.776C242.917 214.448 243.493 215.024 244.165 215.024H256.549C258.565 215.024 260.293 216.656 260.293 218.768V222.128C260.293 224.24 258.565 225.872 256.549 225.872H244.165C243.493 225.872 242.917 226.448 242.917 227.12V241.904C242.917 242.576 243.493 243.152 244.165 243.152H263.557C265.669 243.152 267.301 244.784 267.301 246.896V250.352C267.301 252.368 265.669 254 263.557 254H231.685C227.845 254 224.677 250.832 224.677 246.992V193.904C224.677 190.064 227.845 186.896 231.685 186.896H263.557C265.669 186.896 267.301 188.528 267.301 190.64V194C267.301 196.112 265.669 197.744 263.557 197.744H244.165C243.493 197.744 242.917 198.32 242.917 198.992V213.776ZM11.328 329.256C16.416 329.256 20.448 332.904 20.448 337.416C20.448 341.928 16.416 345.576 11.328 345.576C6.24 345.576 2.208 341.928 2.208 337.416C2.208 332.904 6.24 329.256 11.328 329.256ZM2.208 283.944C2.112 282.408 2.688 281.064 3.84 280.008C4.896 278.952 6.24 278.376 7.776 278.376H14.88C17.952 278.376 20.448 280.872 20.448 283.944C20.448 299.592 19.488 320.136 19.488 320.808C19.2 323.688 16.8 325.992 13.824 325.992H8.736C7.104 325.992 5.76 325.416 4.608 324.264C3.552 323.112 2.976 321.672 3.072 320.136C3.072 319.272 2.208 299.688 2.208 283.944ZM34.1093 329.256C39.1973 329.256 43.2293 332.904 43.2293 337.416C43.2293 341.928 39.1973 345.576 34.1093 345.576C29.0213 345.576 24.9893 341.928 24.9893 337.416C24.9893 332.904 29.0213 329.256 34.1093 329.256ZM24.9893 283.944C24.8933 282.408 25.4693 281.064 26.6213 280.008C27.6773 278.952 29.0213 278.376 30.5573 278.376H37.6613C40.7333 278.376 43.2293 280.872 43.2293 283.944C43.2293 299.592 42.2693 320.136 42.2693 320.808C41.9813 323.688 39.5813 325.992 36.6053 325.992H31.5173C29.8853 325.992 28.5413 325.416 27.3893 324.264C26.3333 323.112 25.7573 321.672 25.8533 320.136C25.8533 319.272 24.9893 299.688 24.9893 283.944ZM56.8905 329.256C61.9785 329.256 66.0105 332.904 66.0105 337.416C66.0105 341.928 61.9785 345.576 56.8905 345.576C51.8025 345.576 47.7705 341.928 47.7705 337.416C47.7705 332.904 51.8025 329.256 56.8905 329.256ZM47.7705 283.944C47.6745 282.408 48.2505 281.064 49.4025 280.008C50.4585 278.952 51.8025 278.376 53.3385 278.376H60.4425C63.5145 278.376 66.0105 280.872 66.0105 283.944C66.0105 299.592 65.0505 320.136 65.0505 320.808C64.7625 323.688 62.3625 325.992 59.3865 325.992H54.2985C52.6665 325.992 51.3225 325.416 50.1705 324.264C49.1145 323.112 48.5385 321.672 48.6345 320.136C48.6345 319.272 47.7705 299.688 47.7705 283.944Z" fill="white"/>
</svg>
