<svg width="306" height="243" viewBox="0 0 306 243" fill="none" xmlns="http://www.w3.org/2000/svg">
<path d="M22.656 61.152C24.288 61.152 25.728 59.808 25.728 58.08C25.728 48.768 24 43.872 34.848 43.872C54.624 43.872 40.128 72 22.656 72C10.944 72 1.344 62.4 1.344 50.688V26.208C1.344 14.496 10.944 4.89599 22.656 4.89599C40.128 4.89599 54.624 33.024 34.848 33.024C24 33.024 25.728 28.128 25.728 18.816C25.728 17.184 24.288 15.744 22.656 15.744C21.024 15.744 19.584 17.184 19.584 18.816V58.08C19.584 59.808 21.024 61.152 22.656 61.152ZM70.344 4.89599C81.096 4.89599 89.832 13.632 89.832 24.384C89.832 30.336 87.144 35.808 82.824 39.36C85.224 40.512 86.952 42.912 87.336 45.504C89.64 63.168 87.528 47.328 89.832 64.992C90.312 68.928 87.528 72.096 83.688 72.096H79.464C75.624 72.096 71.976 68.832 71.496 64.992L69 45.504C68.904 44.928 68.904 44.448 69 43.872H66.696C66.024 43.872 65.448 44.448 65.448 45.12V64.992C65.448 68.832 62.28 72 58.44 72H54.216C50.376 72 47.208 68.832 47.208 64.992V11.904C47.208 8.064 50.376 4.89599 54.216 4.89599H70.344ZM71.592 29.952V18.816C71.592 17.184 70.152 15.744 68.52 15.744H66.696C66.024 15.744 65.448 16.32 65.448 16.992V31.776C65.448 32.448 66.024 33.024 66.696 33.024H68.52C70.152 33.024 71.592 31.584 71.592 29.952ZM116.947 21.216C116.851 20.448 115.795 20.352 115.603 21.12C113.683 30.816 113.587 40.512 112.915 50.208H119.347C117.907 41.28 117.139 32.16 116.947 21.216ZM140.851 63.168C141.427 65.376 141.043 67.488 139.603 69.312C138.259 71.04 136.339 72 134.035 72C132.499 72 131.059 72 129.619 72C126.355 72 123.571 69.888 122.803 66.72C122.323 64.8 121.843 62.976 121.459 61.152H111.859C111.571 62.88 111.283 64.608 110.995 66.336C110.323 69.696 107.443 72 104.083 72C102.643 72 101.203 72 99.6668 72C97.4588 72 95.4428 71.04 94.0988 69.312C92.6588 67.488 92.2748 65.376 92.8508 63.168C97.3628 46.368 101.875 29.664 106.291 12.96C106.579 12 106.867 11.04 107.059 10.08C107.923 7.008 110.707 4.89599 113.875 4.89599H119.827C123.091 4.89599 125.779 7.008 126.643 10.08L140.851 63.168ZM165.248 16.128C165.344 15.936 165.152 15.744 165.056 15.744H147.776C145.76 15.744 144.128 14.112 144.128 12V8.64C144.128 6.528 145.76 4.89599 147.776 4.89599H183.008C185.12 4.89599 186.752 6.528 186.752 8.64V12C186.752 12.96 186.464 13.824 185.888 14.496L165.44 60.768C165.344 60.96 165.536 61.152 165.632 61.152H183.008C185.12 61.152 186.752 62.784 186.752 64.896V68.352C186.752 70.368 185.12 72 183.008 72H147.776C145.76 72 144.128 70.368 144.128 68.352V64.896C144.128 64.32 144.224 63.744 144.416 63.264L165.248 16.128ZM196.794 4.89599C198.33 4.89599 199.77 4.89599 201.114 4.89599C204.57 4.89599 207.45 7.2 208.122 10.56C208.698 13.728 210.81 19.008 212.73 27.648C212.826 27.936 213.114 28.224 213.402 28.128C213.786 28.128 213.882 27.84 213.978 27.552C215.61 23.52 217.53 19.104 219.834 10.272C220.698 7.008 223.386 4.89599 226.746 4.89599C228.09 4.89599 229.626 4.89599 231.162 4.89599C233.37 4.89599 235.386 5.856 236.73 7.584C238.074 9.408 238.554 11.52 237.978 13.728C237.402 15.936 229.338 30.144 223.098 38.208V64.992C223.098 68.832 219.93 72 216.09 72H211.866C208.026 72 204.762 68.832 204.762 64.992V38.88C198.618 31.104 191.034 16.8 189.978 13.728C189.21 11.616 189.786 9.408 191.226 7.584C192.57 5.856 194.49 4.89599 196.794 4.89599Z" fill="white"/>
<path d="M8.544 80.896C10.08 80.896 11.52 80.896 12.864 80.896C16.32 80.896 19.2 83.2 19.872 86.56C20.448 89.728 22.56 95.008 24.48 103.648C24.576 103.936 24.864 104.224 25.152 104.128C25.536 104.128 25.632 103.84 25.728 103.552C27.36 99.52 29.28 95.104 31.584 86.272C32.448 83.008 35.136 80.896 38.496 80.896C39.84 80.896 41.376 80.896 42.912 80.896C45.12 80.896 47.136 81.856 48.48 83.584C49.824 85.408 50.304 87.52 49.728 89.728C49.152 91.936 41.088 106.144 34.848 114.208V140.992C34.848 144.832 31.68 148 27.84 148H23.616C19.776 148 16.512 144.832 16.512 140.992V114.88C10.368 107.104 2.784 92.8 1.728 89.728C0.96 87.616 1.536 85.408 2.976 83.584C4.32 81.856 6.24 80.896 8.544 80.896ZM60.0128 80.896C61.5488 80.896 62.9888 80.896 64.3328 80.896C67.7888 80.896 70.6688 83.2 71.3408 86.56C71.9168 89.728 74.0288 95.008 75.9488 103.648C76.0448 103.936 76.3328 104.224 76.6208 104.128C77.0048 104.128 77.1008 103.84 77.1968 103.552C78.8288 99.52 80.7488 95.104 83.0528 86.272C83.9168 83.008 86.6048 80.896 89.9648 80.896C91.3088 80.896 92.8448 80.896 94.3808 80.896C96.5888 80.896 98.6048 81.856 99.9487 83.584C101.293 85.408 101.773 87.52 101.197 89.728C100.621 91.936 92.5568 106.144 86.3168 114.208V140.992C86.3168 144.832 83.1488 148 79.3088 148H75.0848C71.2448 148 67.9808 144.832 67.9808 140.992V114.88C61.8368 107.104 54.2528 92.8 53.1968 89.728C52.4288 87.616 53.0048 85.408 54.4448 83.584C55.7888 81.856 57.7088 80.896 60.0128 80.896ZM111.482 80.896C113.018 80.896 114.458 80.896 115.802 80.896C119.258 80.896 122.138 83.2 122.81 86.56C123.386 89.728 125.498 95.008 127.418 103.648C127.514 103.936 127.802 104.224 128.09 104.128C128.474 104.128 128.57 103.84 128.666 103.552C130.298 99.52 132.218 95.104 134.522 86.272C135.386 83.008 138.074 80.896 141.434 80.896C142.778 80.896 144.314 80.896 145.85 80.896C148.058 80.896 150.074 81.856 151.417 83.584C152.762 85.408 153.242 87.52 152.666 89.728C152.09 91.936 144.026 106.144 137.786 114.208V140.992C137.786 144.832 134.618 148 130.778 148H126.554C122.714 148 119.45 144.832 119.45 140.992V114.88C113.306 107.104 105.722 92.8 104.666 89.728C103.898 87.616 104.474 85.408 105.914 83.584C107.258 81.856 109.178 80.896 111.482 80.896Z" fill="white"/>
<path d="M20.448 163.904V183.776C20.448 184.448 21.024 185.024 21.696 185.024C22.944 185.024 24.096 185.024 25.344 185.024C26.016 185.024 26.592 184.448 26.592 183.776C26.592 177.152 26.592 170.528 26.592 163.904C26.592 160.064 29.76 156.896 33.6 156.896H37.824C41.664 156.896 44.832 160.064 44.832 163.904V216.992C44.832 220.832 41.664 224 37.824 224H33.6C29.76 224 26.592 220.832 26.592 216.992V197.12C26.592 196.448 26.016 195.872 25.344 195.872C24.096 195.872 22.944 195.872 21.696 195.872C21.024 195.872 20.448 196.448 20.448 197.12C20.448 203.744 20.448 210.368 20.448 216.992C20.448 220.832 17.28 224 13.44 224H9.216C5.376 224 2.208 220.832 2.208 216.992V163.904C2.208 160.064 5.376 156.896 9.216 156.896H13.44C17.28 156.896 20.448 160.064 20.448 163.904ZM66.7403 210.08C66.7403 211.808 68.1803 213.152 69.8123 213.152C71.4443 213.152 72.8843 211.808 72.8843 210.08V170.816C72.8843 169.184 71.4443 167.744 69.8123 167.744C68.1803 167.744 66.7403 169.184 66.7403 170.816V210.08ZM69.8123 156.896C81.5243 156.896 91.1243 166.496 91.1243 178.208V202.688C91.1243 214.4 81.5243 224 69.8123 224C58.1003 224 48.5003 214.4 48.5003 202.688V178.208C48.5003 166.496 58.1003 156.896 69.8123 156.896ZM117.875 156.896C128.627 156.896 137.363 165.632 137.363 176.384C137.363 182.336 134.675 187.808 130.355 191.36C132.755 192.512 134.483 194.912 134.867 197.504C137.171 215.168 135.059 199.328 137.363 216.992C137.843 220.928 135.059 224.096 131.219 224.096H126.995C123.155 224.096 119.507 220.832 119.027 216.992L116.531 197.504C116.435 196.928 116.435 196.448 116.531 195.872H114.227C113.555 195.872 112.979 196.448 112.979 197.12V216.992C112.979 220.832 109.811 224 105.971 224H101.747C97.9073 224 94.7393 220.832 94.7393 216.992V163.904C94.7393 160.064 97.9073 156.896 101.747 156.896H117.875ZM119.123 181.952V170.816C119.123 169.184 117.683 167.744 116.051 167.744H114.227C113.555 167.744 112.979 168.32 112.979 168.992V183.776C112.979 184.448 113.555 185.024 114.227 185.024H116.051C117.683 185.024 119.123 183.584 119.123 181.952ZM140.958 163.904C140.958 160.064 144.126 156.896 147.966 156.896H152.19C154.878 156.896 157.278 158.432 158.43 160.64C158.814 161.504 159.102 162.368 159.198 163.328L165.342 184.064V163.904C165.342 160.064 168.51 156.896 172.35 156.896H176.574C180.414 156.896 183.582 160.064 183.582 163.904V216.992C183.582 220.832 180.414 224 176.574 224H172.35C169.278 224 166.686 222.08 165.726 219.296L159.198 199.808V216.992C159.198 220.832 156.03 224 152.19 224H147.966C144.126 224 140.958 220.832 140.958 216.992V163.904ZM194.45 156.896C195.986 156.896 197.426 156.896 198.77 156.896C202.226 156.896 205.106 159.2 205.778 162.56C206.354 165.728 208.466 171.008 210.386 179.648C210.482 179.936 210.77 180.224 211.058 180.128C211.442 180.128 211.538 179.84 211.634 179.552C213.266 175.52 215.186 171.104 217.49 162.272C218.354 159.008 221.042 156.896 224.402 156.896C225.746 156.896 227.282 156.896 228.818 156.896C231.026 156.896 233.042 157.856 234.386 159.584C235.73 161.408 236.21 163.52 235.634 165.728C235.058 167.936 226.994 182.144 220.754 190.208V216.992C220.754 220.832 217.586 224 213.746 224H209.522C205.682 224 202.418 220.832 202.418 216.992V190.88C196.274 183.104 188.69 168.8 187.634 165.728C186.866 163.616 187.442 161.408 188.882 159.584C190.226 157.856 192.146 156.896 194.45 156.896ZM248.703 208.256C253.791 208.256 257.823 211.904 257.823 216.416C257.823 220.928 253.791 224.576 248.703 224.576C243.615 224.576 239.583 220.928 239.583 216.416C239.583 211.904 243.615 208.256 248.703 208.256ZM239.583 162.944C239.487 161.408 240.063 160.064 241.215 159.008C242.271 157.952 243.615 157.376 245.151 157.376H252.255C255.327 157.376 257.823 159.872 257.823 162.944C257.823 178.592 256.863 199.136 256.863 199.808C256.575 202.688 254.175 204.992 251.199 204.992H246.111C244.479 204.992 243.135 204.416 241.983 203.264C240.927 202.112 240.351 200.672 240.447 199.136C240.447 198.272 239.583 178.688 239.583 162.944ZM271.484 208.256C276.572 208.256 280.604 211.904 280.604 216.416C280.604 220.928 276.572 224.576 271.484 224.576C266.396 224.576 262.364 220.928 262.364 216.416C262.364 211.904 266.396 208.256 271.484 208.256ZM262.364 162.944C262.268 161.408 262.844 160.064 263.996 159.008C265.052 157.952 266.396 157.376 267.932 157.376H275.036C278.108 157.376 280.604 159.872 280.604 162.944C280.604 178.592 279.644 199.136 279.644 199.808C279.356 202.688 276.956 204.992 273.98 204.992H268.892C267.26 204.992 265.916 204.416 264.764 203.264C263.708 202.112 263.132 200.672 263.228 199.136C263.228 198.272 262.364 178.688 262.364 162.944ZM294.266 208.256C299.354 208.256 303.386 211.904 303.386 216.416C303.386 220.928 299.354 224.576 294.266 224.576C289.178 224.576 285.146 220.928 285.146 216.416C285.146 211.904 289.178 208.256 294.266 208.256ZM285.146 162.944C285.05 161.408 285.626 160.064 286.778 159.008C287.834 157.952 289.178 157.376 290.714 157.376H297.818C300.89 157.376 303.386 159.872 303.386 162.944C303.386 178.592 302.426 199.136 302.426 199.808C302.138 202.688 299.738 204.992 296.762 204.992H291.674C290.042 204.992 288.698 204.416 287.546 203.264C286.49 202.112 285.914 200.672 286.01 199.136C286.01 198.272 285.146 178.688 285.146 162.944Z" fill="url(#paint0_linear_74_79)"/>
<defs>
<linearGradient id="paint0_linear_74_79" x1="148.204" y1="185" x2="149.246" y2="238.498" gradientUnits="userSpaceOnUse">
<stop stop-color="white"/>
<stop offset="0.680245" stop-color="#F46BA4"/>
</linearGradient>
</defs>
</svg>
