<svg width="886" height="49" viewBox="0 0 886 49" fill="none" xmlns="http://www.w3.org/2000/svg">
<path d="M7.896 34.936C7.4 34.936 7.04 34.808 6.816 34.552C6.592 34.312 6.48 34.048 6.48 33.76C6.48 33.44 6.536 33.184 6.648 32.992C6.776 32.8 7.016 32.656 7.368 32.56C7.736 32.464 8.272 32.408 8.976 32.392C9.856 31.944 10.744 31.392 11.64 30.736C12.552 30.064 13.424 29.32 14.256 28.504C15.088 27.688 15.832 26.832 16.488 25.936C17.144 25.04 17.664 24.136 18.048 23.224C18.432 22.312 18.624 21.424 18.624 20.56C18.624 19.744 18.368 19.112 17.856 18.664C17.36 18.2 16.624 17.968 15.648 17.968C14.72 17.968 13.896 18.088 13.176 18.328C12.472 18.552 11.896 18.776 11.448 19C11.016 19.224 10.712 19.336 10.536 19.336C10.104 19.336 9.888 19.048 9.888 18.472C9.888 18.264 10.04 17.992 10.344 17.656C10.664 17.32 11.096 16.984 11.64 16.648C12.184 16.296 12.816 16.008 13.536 15.784C14.256 15.544 15.024 15.424 15.84 15.424C17.216 15.424 18.336 15.864 19.2 16.744C20.064 17.608 20.496 18.92 20.496 20.68C20.496 21.944 20.232 23.144 19.704 24.28C19.192 25.416 18.512 26.488 17.664 27.496C16.816 28.488 15.888 29.416 14.88 30.28C13.872 31.128 12.88 31.888 11.904 32.56C13.168 32.544 14.208 32.504 15.024 32.44C15.84 32.36 16.504 32.28 17.016 32.2C17.528 32.104 17.96 32.032 18.312 31.984C18.664 31.92 19.016 31.888 19.368 31.888C19.768 31.888 20.056 32 20.232 32.224C20.424 32.432 20.52 32.688 20.52 32.992C20.52 33.248 20.456 33.48 20.328 33.688C20.216 33.88 19.976 34.04 19.608 34.168C19.24 34.312 18.68 34.416 17.928 34.48C17.176 34.56 16.168 34.6 14.904 34.6C14.04 34.6 13.144 34.592 12.216 34.576C11.304 34.56 10.416 34.536 9.552 34.504C8.752 34.792 8.2 34.936 7.896 34.936ZM26.0462 35.08C25.6942 35.08 25.4222 34.976 25.2302 34.768C25.0382 34.576 24.9422 34.088 24.9422 33.304C24.9422 32.584 25.0702 31.648 25.3262 30.496C25.5822 29.328 25.9262 28.032 26.3582 26.608C26.7902 25.184 27.2782 23.712 27.8222 22.192C28.3662 20.656 28.9342 19.152 29.5262 17.68C30.1342 16.192 30.7182 14.832 31.2782 13.6C31.4862 13.152 31.7022 12.84 31.9262 12.664C32.1502 12.488 32.4142 12.4 32.7182 12.4C32.9262 12.4 33.1022 12.464 33.2462 12.592C33.4062 12.704 33.4862 12.896 33.4862 13.168C33.4862 13.264 33.3822 13.576 33.1742 14.104C32.9822 14.632 32.7102 15.328 32.3582 16.192C32.0222 17.056 31.6462 18.024 31.2302 19.096C30.8142 20.168 30.3902 21.296 29.9582 22.48C29.5262 23.664 29.1182 24.856 28.7342 26.056C28.3502 27.24 28.0222 28.376 27.7502 29.464C27.4782 30.552 27.2942 31.528 27.1982 32.392C27.5822 31.928 28.0222 31.336 28.5182 30.616C29.0142 29.896 29.5422 29.12 30.1022 28.288C30.6622 27.456 31.2302 26.632 31.8062 25.816C32.3822 25 32.9502 24.256 33.5102 23.584C34.0702 22.912 34.5902 22.376 35.0702 21.976C35.5662 21.56 35.9982 21.352 36.3662 21.352C36.9742 21.352 37.4622 21.544 37.8302 21.928C38.2142 22.296 38.4062 22.904 38.4062 23.752C38.4062 24.232 38.3102 24.808 38.1182 25.48C37.9422 26.152 37.7342 26.856 37.4942 27.592C37.2542 28.328 37.0382 29.032 36.8462 29.704C36.6702 30.376 36.5822 30.952 36.5822 31.432C36.5822 32.088 36.8302 32.416 37.3262 32.416C38.0942 32.416 38.8622 32.248 39.6302 31.912C40.4142 31.576 41.1582 31.16 41.8622 30.664C42.5662 30.152 43.2142 29.64 43.8062 29.128C44.3982 28.6 44.9022 28.152 45.3182 27.784C45.7662 27.384 46.1422 27.184 46.4462 27.184C46.8302 27.184 47.0222 27.384 47.0222 27.784C47.0222 27.896 46.9982 28.024 46.9502 28.168C46.9022 28.312 46.7742 28.496 46.5662 28.72C46.3102 29.008 45.9422 29.384 45.4622 29.848C44.9982 30.312 44.4542 30.808 43.8302 31.336C43.2222 31.864 42.5582 32.36 41.8382 32.824C41.1342 33.288 40.4062 33.672 39.6542 33.976C38.9182 34.264 38.1982 34.408 37.4942 34.408C36.5342 34.408 35.7902 34.136 35.2622 33.592C34.7502 33.032 34.4942 32.264 34.4942 31.288C34.4942 30.68 34.5902 29.944 34.7822 29.08C34.9742 28.216 35.2142 27.304 35.5022 26.344C35.8062 25.368 36.1102 24.416 36.4142 23.488C35.9022 23.84 35.3422 24.368 34.7342 25.072C34.1422 25.76 33.5182 26.544 32.8622 27.424C32.2062 28.288 31.5502 29.168 30.8942 30.064C30.2542 30.96 29.6302 31.792 29.0222 32.56C28.4302 33.312 27.8782 33.92 27.3662 34.384C26.8542 34.848 26.4142 35.08 26.0462 35.08ZM47.1463 33.448C46.6823 33.448 46.2663 33.184 45.8983 32.656C45.5303 32.128 45.3463 31.448 45.3463 30.616C45.3463 29.704 45.4663 28.728 45.7063 27.688C45.9623 26.648 46.2743 25.592 46.6423 24.52C47.0103 23.432 47.3703 22.384 47.7223 21.376C47.8023 21.168 47.9143 21.016 48.0583 20.92C48.2183 20.808 48.4583 20.752 48.7783 20.752C49.3543 20.752 49.6423 21.032 49.6423 21.592C49.6423 21.72 49.5783 22.008 49.4503 22.456C49.3223 22.904 49.1543 23.456 48.9463 24.112C48.7543 24.768 48.5543 25.48 48.3463 26.248C48.1383 27 47.9543 27.76 47.7943 28.528C47.6343 29.296 47.5223 30.008 47.4583 30.664C47.7143 30.392 48.0023 29.976 48.3223 29.416C48.6583 28.856 49.0183 28.224 49.4023 27.52C49.7863 26.8 50.1863 26.08 50.6023 25.36C51.0183 24.624 51.4343 23.952 51.8503 23.344C52.2823 22.72 52.6983 22.224 53.0983 21.856C53.5143 21.472 53.8983 21.28 54.2503 21.28C54.7623 21.28 55.1943 21.44 55.5463 21.76C55.9143 22.064 56.1943 22.608 56.3863 23.392C56.5943 24.16 56.6983 25.248 56.6983 26.656C56.6983 27.408 56.7703 28.112 56.9143 28.768C57.0743 29.424 57.3223 29.952 57.6583 30.352C58.0103 30.736 58.4583 30.928 59.0023 30.928C59.8183 30.928 60.5463 30.784 61.1863 30.496C61.8263 30.192 62.3783 29.856 62.8423 29.488C63.3223 29.104 63.7223 28.768 64.0423 28.48C64.3623 28.176 64.6103 28.024 64.7863 28.024C65.1543 28.024 65.3383 28.216 65.3383 28.6C65.3383 28.76 65.2183 29.016 64.9783 29.368C64.7543 29.704 64.4343 30.088 64.0183 30.52C63.6183 30.936 63.1543 31.344 62.6263 31.744C62.1143 32.128 61.5623 32.448 60.9703 32.704C60.3943 32.96 59.8103 33.088 59.2183 33.088C58.1143 33.088 57.2103 32.872 56.5063 32.44C55.8183 32.008 55.3063 31.296 54.9703 30.304C54.6503 29.312 54.4903 27.984 54.4903 26.32C54.4903 25.408 54.4343 24.744 54.3223 24.328C54.2263 23.896 54.0423 23.608 53.7703 23.464C53.5783 23.8 53.3303 24.28 53.0263 24.904C52.7223 25.512 52.3703 26.192 51.9703 26.944C51.5863 27.696 51.1783 28.456 50.7463 29.224C50.3303 29.976 49.9063 30.672 49.4743 31.312C49.0423 31.952 48.6263 32.472 48.2263 32.872C47.8263 33.256 47.4663 33.448 47.1463 33.448ZM67.7331 34.048C67.3971 34.048 67.1091 33.848 66.8691 33.448C66.6291 33.048 66.5091 32.248 66.5091 31.048C66.5091 29.944 66.5891 28.56 66.7491 26.896C66.9251 25.216 67.1811 23.36 67.5171 21.328C67.6931 20.4 68.0211 19.632 68.5011 19.024C68.9971 18.416 69.6371 17.904 70.4211 17.488C71.2211 17.072 72.1571 16.704 73.2291 16.384C74.3011 16.064 75.4051 15.776 76.5411 15.52C77.6931 15.248 78.7731 15.032 79.7811 14.872C80.8051 14.696 81.6451 14.608 82.3011 14.608C82.7651 14.608 83.1171 14.704 83.3571 14.896C83.5971 15.088 83.7171 15.288 83.7171 15.496C83.7171 15.688 83.6611 15.856 83.5491 16C83.4531 16.128 83.2611 16.232 82.9731 16.312C82.7651 16.376 82.3251 16.488 81.6531 16.648C80.9971 16.792 80.1891 16.968 79.2291 17.176C78.2851 17.384 77.2851 17.608 76.2291 17.848C75.1731 18.072 74.1491 18.304 73.1571 18.544C72.0211 18.864 71.1971 19.272 70.6851 19.768C70.1891 20.248 69.8611 20.928 69.7011 21.808C69.6691 22.032 69.6211 22.36 69.5571 22.792C70.0051 22.616 70.5651 22.424 71.2371 22.216C71.9091 22.008 72.5971 21.808 73.3011 21.616C74.0051 21.424 74.6531 21.272 75.2451 21.16C75.8371 21.032 76.2771 20.968 76.5651 20.968C76.7731 20.968 76.9891 21.096 77.2131 21.352C77.4531 21.608 77.5731 21.872 77.5731 22.144C77.5731 22.272 77.5331 22.4 77.4531 22.528C77.3731 22.64 77.2371 22.728 77.0451 22.792C76.9331 22.824 76.6531 22.904 76.2051 23.032C75.7731 23.144 75.2451 23.288 74.6211 23.464C74.0131 23.64 73.3731 23.832 72.7011 24.04C72.0291 24.232 71.3891 24.416 70.7811 24.592C70.1891 24.768 69.6931 24.92 69.2931 25.048C69.2131 25.816 69.1251 26.616 69.0291 27.448C68.9331 28.28 68.8451 29.072 68.7651 29.824C68.7011 30.56 68.6451 31.192 68.5971 31.72C68.5491 32.232 68.5251 32.56 68.5251 32.704C68.5251 33.6 68.2611 34.048 67.7331 34.048ZM80.8363 41.128C80.5643 41.128 80.3483 41.032 80.1883 40.84C80.0443 40.648 79.9723 40.28 79.9723 39.736C79.9723 38.952 80.0283 38.04 80.1403 37C80.2523 35.96 80.4043 34.856 80.5963 33.688C80.8043 32.52 81.0283 31.352 81.2683 30.184C81.5243 29.016 81.7883 27.904 82.0603 26.848C82.3483 25.792 82.6283 24.856 82.9003 24.04C83.1723 23.208 83.4203 22.552 83.6443 22.072C83.8843 21.592 84.0923 21.352 84.2683 21.352C84.5723 21.352 84.8123 21.44 84.9883 21.616C85.1803 21.792 85.2763 22.056 85.2763 22.408C85.2763 22.856 85.1403 23.584 84.8683 24.592C84.5963 25.584 84.2443 26.88 83.8123 28.48C84.2123 27.744 84.6443 26.976 85.1083 26.176C85.5723 25.376 86.0603 24.6 86.5723 23.848C87.0843 23.08 87.5963 22.392 88.1083 21.784C88.6363 21.176 89.1483 20.688 89.6443 20.32C90.1403 19.952 90.6203 19.768 91.0843 19.768C91.5803 19.768 92.0203 19.928 92.4043 20.248C92.7883 20.552 93.0843 20.968 93.2923 21.496C93.5163 22.008 93.6283 22.584 93.6283 23.224C93.6283 24.552 93.4043 25.84 92.9563 27.088C92.5083 28.32 91.8843 29.432 91.0843 30.424C90.3003 31.4 89.3723 32.176 88.3003 32.752C87.2443 33.328 86.1003 33.616 84.8683 33.616C84.4043 33.616 83.9883 33.592 83.6203 33.544C83.2523 33.496 82.9323 33.44 82.6603 33.376C82.4683 34.432 82.2843 35.52 82.1083 36.64C81.9323 37.76 81.7563 38.952 81.5803 40.216C81.5323 40.552 81.4523 40.784 81.3403 40.912C81.2283 41.056 81.0603 41.128 80.8363 41.128ZM91.5163 21.592C91.1803 21.592 90.7803 21.784 90.3163 22.168C89.8683 22.552 89.3803 23.064 88.8523 23.704C88.3403 24.328 87.8203 25.024 87.2923 25.792C86.7643 26.544 86.2523 27.312 85.7563 28.096C85.2603 28.88 84.8043 29.608 84.3883 30.28C83.9883 30.952 83.6603 31.512 83.4043 31.96C84.6523 31.928 85.7483 31.68 86.6923 31.216C87.6363 30.736 88.4443 30.128 89.1163 29.392C89.7883 28.64 90.3323 27.832 90.7483 26.968C91.1803 26.088 91.4923 25.24 91.6843 24.424C91.8763 23.592 91.9723 22.872 91.9723 22.264C91.9723 21.816 91.8203 21.592 91.5163 21.592ZM98.6565 34.696C98.0965 34.696 97.6325 34.448 97.2645 33.952C96.9125 33.44 96.7365 32.536 96.7365 31.24C96.7365 29.88 96.7605 28.56 96.8085 27.28C96.8565 25.984 96.9445 24.824 97.0725 23.8C97.2165 22.776 97.4085 21.96 97.6485 21.352C97.8885 20.744 98.2005 20.44 98.5845 20.44C98.8565 20.44 99.0965 20.592 99.3045 20.896C99.5125 21.184 99.6165 21.568 99.6165 22.048C99.6165 22.544 99.5685 23.208 99.4725 24.04C99.3765 24.872 99.2565 25.768 99.1125 26.728C98.9845 27.672 98.8725 28.592 98.7765 29.488C98.6805 30.368 98.6325 31.112 98.6325 31.72C98.6325 31.976 98.6405 32.184 98.6565 32.344C98.6885 32.488 98.7365 32.56 98.8005 32.56C99.0405 32.56 99.2965 32.352 99.5685 31.936C99.8565 31.504 100.161 30.944 100.48 30.256C100.801 29.552 101.137 28.784 101.489 27.952C101.841 27.104 102.201 26.264 102.569 25.432C102.937 24.6 103.313 23.84 103.697 23.152C104.081 22.448 104.465 21.888 104.849 21.472C105.233 21.04 105.609 20.824 105.977 20.824C106.409 20.824 106.809 21.032 107.177 21.448C107.561 21.848 107.753 22.424 107.753 23.176C107.753 23.4 107.721 23.792 107.657 24.352C107.593 24.896 107.513 25.52 107.417 26.224C107.321 26.928 107.225 27.632 107.129 28.336C107.033 29.024 106.953 29.64 106.889 30.184C106.825 30.712 106.793 31.088 106.793 31.312C106.793 32.144 106.873 32.56 107.033 32.56C107.481 32.56 107.953 32.28 108.449 31.72C108.961 31.144 109.473 30.408 109.985 29.512C110.513 28.6 111.033 27.616 111.545 26.56C112.073 25.488 112.577 24.464 113.057 23.488C113.281 22.976 113.465 22.632 113.609 22.456C113.769 22.264 113.929 22.168 114.089 22.168C114.313 22.168 114.521 22.288 114.713 22.528C114.921 22.768 115.025 23.096 115.025 23.512C115.025 23.656 115.017 23.8 115.001 23.944C114.985 24.072 114.945 24.216 114.881 24.376C114.337 25.816 113.753 27.152 113.129 28.384C112.505 29.6 111.865 30.664 111.209 31.576C110.569 32.472 109.937 33.176 109.312 33.688C108.689 34.184 108.113 34.432 107.585 34.432C106.673 34.432 105.961 34.176 105.449 33.664C104.953 33.136 104.705 32.432 104.705 31.552C104.705 31.184 104.729 30.704 104.777 30.112C104.841 29.52 104.913 28.88 104.993 28.192C105.089 27.504 105.185 26.84 105.281 26.2C105.377 25.56 105.457 25 105.521 24.52C105.601 24.04 105.649 23.712 105.665 23.536C105.681 23.312 105.657 23.2 105.593 23.2C105.529 23.2 105.401 23.408 105.209 23.824C105.033 24.224 104.817 24.736 104.561 25.36C104.321 25.968 104.065 26.6 103.793 27.256C103.489 27.976 103.137 28.768 102.737 29.632C102.353 30.48 101.937 31.288 101.489 32.056C101.057 32.824 100.601 33.456 100.121 33.952C99.6405 34.448 99.1525 34.696 98.6565 34.696ZM119.205 36.136C118.933 36.136 118.717 36.04 118.557 35.848C118.397 35.656 118.317 35.336 118.317 34.888C118.317 34.088 118.357 33.264 118.437 32.416C118.533 31.552 118.581 30.752 118.581 30.016C118.581 28.336 118.429 26.952 118.125 25.864C117.837 24.76 117.205 24.016 116.229 23.632C116.005 23.552 115.845 23.464 115.749 23.368C115.637 23.272 115.581 23.12 115.581 22.912C115.581 22.688 115.669 22.504 115.845 22.36C116.005 22.216 116.309 22.144 116.757 22.144C117.125 22.144 117.613 22.16 118.221 22.192C118.829 22.224 119.485 22.256 120.189 22.288C120.685 20.512 121.245 19.04 121.869 17.872C122.493 16.704 123.173 15.784 123.909 15.112C124.661 14.44 125.453 13.96 126.285 13.672C127.133 13.384 128.013 13.24 128.925 13.24C129.325 13.24 129.581 13.296 129.693 13.408C129.805 13.504 129.861 13.656 129.861 13.864C129.861 14.12 129.781 14.392 129.621 14.68C129.461 14.952 129.133 15.128 128.637 15.208C127.549 15.4 126.581 15.752 125.733 16.264C124.885 16.776 124.149 17.52 123.525 18.496C122.901 19.456 122.381 20.72 121.965 22.288C123.501 22.256 124.821 22.176 125.925 22.048C127.029 21.904 127.949 21.752 128.685 21.592C129.437 21.416 130.037 21.272 130.485 21.16C130.933 21.032 131.277 20.968 131.517 20.968C131.789 20.968 131.957 21.04 132.021 21.184C132.085 21.328 132.117 21.48 132.117 21.64C132.117 21.944 131.829 22.24 131.253 22.528C130.677 22.8 129.917 23.048 128.973 23.272C128.045 23.48 127.021 23.648 125.901 23.776C124.781 23.904 123.677 23.968 122.589 23.968C122.413 23.968 122.237 23.968 122.061 23.968C121.901 23.968 121.733 23.968 121.557 23.968C121.525 24.08 121.501 24.2 121.485 24.328C121.325 25.256 121.165 26.24 121.005 27.28C120.861 28.304 120.725 29.312 120.597 30.304C120.485 31.28 120.397 32.168 120.333 32.968C120.269 33.768 120.237 34.408 120.237 34.888C120.237 35.288 120.141 35.592 119.949 35.8C119.757 36.024 119.509 36.136 119.205 36.136ZM119.781 23.872C119.317 23.824 118.885 23.76 118.485 23.68C118.693 23.92 118.869 24.2 119.013 24.52C119.173 24.84 119.309 25.184 119.421 25.552C119.533 24.96 119.653 24.4 119.781 23.872ZM130.2 31.312C130.04 31.888 129.856 32.248 129.648 32.392C129.456 32.552 129.248 32.632 129.024 32.632C128.768 32.632 128.544 32.536 128.352 32.344C128.176 32.152 128.152 31.76 128.28 31.168C128.552 29.92 128.808 28.736 129.048 27.616C129.304 26.48 129.52 25.464 129.696 24.568C129.888 23.672 130.04 22.944 130.152 22.384C130.28 21.808 130.36 21.456 130.392 21.328C130.568 20.528 130.768 19.688 130.992 18.808C131.216 17.928 131.464 17.064 131.736 16.216C132.008 15.368 132.296 14.6 132.6 13.912C132.92 13.224 133.248 12.68 133.584 12.28C133.76 12.104 133.92 11.984 134.064 11.92C134.208 11.84 134.336 11.8 134.448 11.8C134.672 11.8 134.848 11.896 134.976 12.088C135.12 12.28 135.192 12.496 135.192 12.736C135.192 12.864 135.168 12.992 135.12 13.12C134.8 14.016 134.456 15.12 134.088 16.432C133.72 17.728 133.336 19.144 132.936 20.68C133.528 20.552 134.16 20.416 134.832 20.272C135.504 20.112 136.152 19.952 136.776 19.792C137.416 19.632 137.968 19.488 138.432 19.36C138.72 19.216 138.952 19.224 139.128 19.384C139.32 19.544 139.424 19.712 139.44 19.888C139.44 20.112 139.392 20.288 139.296 20.416C139.216 20.544 139.08 20.656 138.888 20.752C138.68 20.864 138.328 21 137.832 21.16C137.336 21.32 136.768 21.488 136.128 21.664C135.504 21.824 134.864 21.984 134.208 22.144C133.568 22.288 132.984 22.408 132.456 22.504C132.088 23.928 131.712 25.392 131.328 26.896C130.96 28.384 130.584 29.856 130.2 31.312ZM139.865 35.632C139.689 35.632 139.537 35.568 139.409 35.44C139.281 35.312 139.217 35.136 139.217 34.912C139.217 34.48 139.433 33.808 139.865 32.896C140.297 31.984 140.881 30.912 141.617 29.68C142.353 28.432 143.177 27.096 144.089 25.672C145.001 24.232 145.937 22.76 146.897 21.256C147.857 19.752 148.785 18.288 149.681 16.864C148.737 17.024 147.793 17.216 146.849 17.44C145.921 17.664 145.049 17.88 144.233 18.088C143.417 18.296 142.721 18.472 142.145 18.616C141.569 18.744 141.161 18.808 140.921 18.808C140.457 18.808 140.137 18.712 139.961 18.52C139.801 18.328 139.721 18.096 139.721 17.824C139.721 17.6 139.937 17.376 140.369 17.152C140.801 16.928 141.369 16.712 142.073 16.504C142.777 16.28 143.537 16.072 144.353 15.88C145.185 15.688 145.993 15.52 146.777 15.376C147.577 15.232 148.281 15.12 148.889 15.04C149.497 14.96 149.937 14.92 150.209 14.92C150.513 14.92 150.809 14.992 151.097 15.136C151.385 15.28 151.625 15.472 151.817 15.712C152.025 15.952 152.129 16.208 152.129 16.48C152.129 16.608 151.977 16.968 151.673 17.56C151.385 18.152 150.977 18.912 150.449 19.84C149.937 20.768 149.345 21.792 148.673 22.912C148.017 24.032 147.321 25.184 146.585 26.368C145.865 27.552 145.145 28.704 144.425 29.824C143.705 30.928 143.025 31.936 142.385 32.848C141.761 33.76 141.209 34.496 140.729 35.056C140.617 35.184 140.489 35.312 140.345 35.44C140.201 35.568 140.041 35.632 139.865 35.632ZM160.951 34.72C160.423 34.72 159.991 34.64 159.655 34.48C159.319 34.32 159.071 34.136 158.911 33.928C158.767 33.72 158.695 33.552 158.695 33.424C158.695 33.04 158.791 32.776 158.983 32.632C159.175 32.488 159.575 32.416 160.183 32.416C160.535 32.416 161.023 32.352 161.647 32.224C162.287 32.08 162.991 31.88 163.759 31.624C164.527 31.352 165.311 31.024 166.111 30.64C166.911 30.256 167.655 29.816 168.343 29.32C169.031 28.824 169.607 28.28 170.071 27.688C170.551 27.08 170.855 26.432 170.983 25.744C170.519 25.648 170.047 25.584 169.567 25.552C169.103 25.504 168.639 25.48 168.175 25.48C166.767 25.48 165.335 25.632 163.879 25.936C162.423 26.224 160.951 26.552 159.463 26.92C159.415 27.368 159.375 27.776 159.343 28.144C159.311 28.512 159.287 28.904 159.271 29.32C159.223 30.344 159.103 31.024 158.911 31.36C158.735 31.68 158.535 31.84 158.311 31.84C157.959 31.84 157.687 31.632 157.495 31.216C157.303 30.8 157.207 30.136 157.207 29.224C157.207 26.312 157.495 23.8 158.071 21.688C158.647 19.576 159.503 17.952 160.639 16.816C161.775 15.68 163.167 15.112 164.815 15.112C165.983 15.112 166.887 15.424 167.527 16.048C168.183 16.672 168.511 17.576 168.511 18.76C168.511 19.576 168.367 20.424 168.079 21.304C167.791 22.168 167.367 22.96 166.807 23.68C167.239 23.6 167.663 23.544 168.079 23.512C168.495 23.464 168.879 23.44 169.231 23.44C170.447 23.44 171.391 23.64 172.063 24.04C172.735 24.44 173.071 25.032 173.071 25.816C173.071 26.728 172.815 27.584 172.303 28.384C171.807 29.184 171.143 29.912 170.311 30.568C169.495 31.224 168.607 31.816 167.647 32.344C166.687 32.856 165.751 33.288 164.839 33.64C163.927 33.992 163.119 34.256 162.415 34.432C161.727 34.624 161.239 34.72 160.951 34.72ZM159.679 24.856C161.455 24.536 162.831 24.112 163.807 23.584C164.783 23.056 165.463 22.44 165.847 21.736C166.231 21.016 166.423 20.208 166.423 19.312C166.423 19.024 166.375 18.728 166.279 18.424C166.183 18.104 165.999 17.832 165.727 17.608C165.455 17.384 165.063 17.272 164.551 17.272C163.239 17.272 162.183 17.872 161.383 19.072C160.599 20.272 160.031 22.2 159.679 24.856ZM181.018 33.736C180.794 33.736 180.586 33.672 180.394 33.544C180.218 33.416 180.082 33.16 179.986 32.776C179.89 32.376 179.842 31.792 179.842 31.024C179.842 29.424 179.994 27.84 180.298 26.272C180.602 24.704 181.034 23.232 181.594 21.856C182.154 20.464 182.818 19.24 183.586 18.184C184.37 17.112 185.234 16.272 186.178 15.664C187.138 15.056 188.154 14.752 189.226 14.752C190.394 14.752 191.314 15.112 191.986 15.832C192.658 16.536 192.994 17.544 192.994 18.856C192.994 20.072 192.65 21.08 191.962 21.88C191.29 22.68 190.354 23.08 189.154 23.08C188.946 23.08 188.722 23.064 188.482 23.032C188.242 22.984 187.994 22.92 187.738 22.84C188.714 24.472 189.69 25.888 190.666 27.088C191.642 28.288 192.634 29.368 193.642 30.328C194.666 31.272 195.706 32.184 196.762 33.064C196.922 33.208 197.042 33.352 197.122 33.496C197.202 33.624 197.242 33.776 197.242 33.952C197.242 34.224 197.178 34.424 197.05 34.552C196.938 34.68 196.698 34.744 196.33 34.744C195.93 34.744 195.434 34.568 194.842 34.216C194.266 33.864 193.634 33.384 192.946 32.776C192.258 32.168 191.562 31.48 190.858 30.712C190.154 29.944 189.474 29.144 188.818 28.312C188.178 27.464 187.602 26.64 187.09 25.84C186.578 25.024 186.17 24.272 185.866 23.584C185.578 22.896 185.434 22.312 185.434 21.832C185.434 21.512 185.514 21.264 185.674 21.088C185.834 20.896 186.05 20.8 186.322 20.8C186.674 20.8 186.994 20.848 187.282 20.944C187.586 21.04 187.906 21.088 188.242 21.088C189.122 21.088 189.818 20.864 190.33 20.416C190.858 19.952 191.122 19.192 191.122 18.136C191.122 17.208 190.498 16.744 189.25 16.744C188.386 16.744 187.554 17.088 186.754 17.776C185.954 18.448 185.218 19.416 184.546 20.68C183.89 21.944 183.346 23.464 182.914 25.24C182.482 27 182.202 28.968 182.074 31.144C182.042 31.896 181.97 32.456 181.858 32.824C181.762 33.192 181.642 33.44 181.498 33.568C181.37 33.68 181.21 33.736 181.018 33.736ZM201.335 35.08C200.983 35.08 200.711 34.976 200.519 34.768C200.327 34.576 200.231 34.088 200.231 33.304C200.231 32.584 200.359 31.648 200.615 30.496C200.871 29.328 201.215 28.032 201.647 26.608C202.079 25.184 202.567 23.712 203.111 22.192C203.655 20.656 204.223 19.152 204.815 17.68C205.423 16.192 206.007 14.832 206.567 13.6C206.775 13.152 206.991 12.84 207.215 12.664C207.439 12.488 207.703 12.4 208.007 12.4C208.215 12.4 208.391 12.464 208.535 12.592C208.695 12.704 208.775 12.896 208.775 13.168C208.775 13.264 208.671 13.576 208.463 14.104C208.271 14.632 207.999 15.328 207.647 16.192C207.311 17.056 206.935 18.024 206.519 19.096C206.103 20.168 205.679 21.296 205.247 22.48C204.815 23.664 204.407 24.856 204.023 26.056C203.639 27.24 203.311 28.376 203.039 29.464C202.767 30.552 202.583 31.528 202.487 32.392C202.871 31.928 203.311 31.336 203.807 30.616C204.303 29.896 204.831 29.12 205.391 28.288C205.951 27.456 206.519 26.632 207.095 25.816C207.671 25 208.239 24.256 208.799 23.584C209.359 22.912 209.879 22.376 210.359 21.976C210.855 21.56 211.287 21.352 211.655 21.352C212.263 21.352 212.751 21.544 213.119 21.928C213.503 22.296 213.695 22.904 213.695 23.752C213.695 24.232 213.599 24.808 213.407 25.48C213.231 26.152 213.023 26.856 212.783 27.592C212.543 28.328 212.327 29.032 212.135 29.704C211.959 30.376 211.871 30.952 211.871 31.432C211.871 32.088 212.119 32.416 212.615 32.416C213.383 32.416 214.151 32.248 214.919 31.912C215.703 31.576 216.447 31.16 217.151 30.664C217.855 30.152 218.503 29.64 219.095 29.128C219.687 28.6 220.191 28.152 220.607 27.784C221.055 27.384 221.431 27.184 221.735 27.184C222.119 27.184 222.311 27.384 222.311 27.784C222.311 27.896 222.287 28.024 222.239 28.168C222.191 28.312 222.063 28.496 221.855 28.72C221.599 29.008 221.231 29.384 220.751 29.848C220.287 30.312 219.743 30.808 219.119 31.336C218.511 31.864 217.847 32.36 217.127 32.824C216.423 33.288 215.695 33.672 214.943 33.976C214.207 34.264 213.487 34.408 212.783 34.408C211.823 34.408 211.079 34.136 210.551 33.592C210.039 33.032 209.783 32.264 209.783 31.288C209.783 30.68 209.879 29.944 210.071 29.08C210.263 28.216 210.503 27.304 210.791 26.344C211.095 25.368 211.399 24.416 211.703 23.488C211.191 23.84 210.631 24.368 210.023 25.072C209.431 25.76 208.807 26.544 208.151 27.424C207.495 28.288 206.839 29.168 206.183 30.064C205.543 30.96 204.919 31.792 204.311 32.56C203.719 33.312 203.167 33.92 202.655 34.384C202.143 34.848 201.703 35.08 201.335 35.08ZM221.515 35.08C221.163 35.08 220.891 34.976 220.699 34.768C220.507 34.576 220.411 34.088 220.411 33.304C220.411 32.584 220.539 31.648 220.795 30.496C221.051 29.328 221.395 28.032 221.827 26.608C222.259 25.184 222.747 23.712 223.291 22.192C223.835 20.656 224.403 19.152 224.995 17.68C225.603 16.192 226.187 14.832 226.747 13.6C226.955 13.152 227.171 12.84 227.395 12.664C227.619 12.488 227.883 12.4 228.187 12.4C228.395 12.4 228.571 12.464 228.715 12.592C228.875 12.704 228.955 12.896 228.955 13.168C228.955 13.264 228.851 13.576 228.643 14.104C228.451 14.632 228.179 15.328 227.827 16.192C227.491 17.056 227.115 18.024 226.699 19.096C226.283 20.168 225.859 21.296 225.427 22.48C224.995 23.664 224.587 24.856 224.203 26.056C223.819 27.24 223.491 28.376 223.219 29.464C222.947 30.552 222.763 31.528 222.667 32.392C223.051 31.928 223.491 31.336 223.987 30.616C224.483 29.896 225.011 29.12 225.571 28.288C226.131 27.456 226.699 26.632 227.275 25.816C227.851 25 228.419 24.256 228.979 23.584C229.539 22.912 230.059 22.376 230.539 21.976C231.035 21.56 231.467 21.352 231.835 21.352C232.443 21.352 232.931 21.544 233.299 21.928C233.683 22.296 233.875 22.904 233.875 23.752C233.875 24.232 233.779 24.808 233.587 25.48C233.411 26.152 233.203 26.856 232.963 27.592C232.723 28.328 232.507 29.032 232.315 29.704C232.139 30.376 232.051 30.952 232.051 31.432C232.051 32.088 232.299 32.416 232.795 32.416C233.563 32.416 234.331 32.248 235.099 31.912C235.883 31.576 236.627 31.16 237.331 30.664C238.035 30.152 238.683 29.64 239.275 29.128C239.867 28.6 240.371 28.152 240.787 27.784C241.235 27.384 241.611 27.184 241.915 27.184C242.299 27.184 242.491 27.384 242.491 27.784C242.491 27.896 242.467 28.024 242.419 28.168C242.371 28.312 242.243 28.496 242.035 28.72C241.779 29.008 241.411 29.384 240.931 29.848C240.467 30.312 239.923 30.808 239.299 31.336C238.691 31.864 238.027 32.36 237.307 32.824C236.603 33.288 235.875 33.672 235.123 33.976C234.387 34.264 233.667 34.408 232.963 34.408C232.003 34.408 231.259 34.136 230.731 33.592C230.219 33.032 229.963 32.264 229.963 31.288C229.963 30.68 230.059 29.944 230.251 29.08C230.443 28.216 230.683 27.304 230.971 26.344C231.275 25.368 231.579 24.416 231.883 23.488C231.371 23.84 230.811 24.368 230.203 25.072C229.611 25.76 228.987 26.544 228.331 27.424C227.675 28.288 227.019 29.168 226.363 30.064C225.723 30.96 225.099 31.792 224.491 32.56C223.899 33.312 223.347 33.92 222.835 34.384C222.323 34.848 221.883 35.08 221.515 35.08ZM242.216 35.632C242.04 35.632 241.888 35.568 241.76 35.44C241.632 35.312 241.568 35.136 241.568 34.912C241.568 34.48 241.784 33.808 242.216 32.896C242.648 31.984 243.232 30.912 243.968 29.68C244.704 28.432 245.528 27.096 246.44 25.672C247.352 24.232 248.288 22.76 249.248 21.256C250.208 19.752 251.136 18.288 252.032 16.864C251.088 17.024 250.144 17.216 249.2 17.44C248.272 17.664 247.4 17.88 246.584 18.088C245.768 18.296 245.072 18.472 244.496 18.616C243.92 18.744 243.512 18.808 243.272 18.808C242.808 18.808 242.488 18.712 242.312 18.52C242.152 18.328 242.072 18.096 242.072 17.824C242.072 17.6 242.288 17.376 242.72 17.152C243.152 16.928 243.72 16.712 244.424 16.504C245.128 16.28 245.888 16.072 246.704 15.88C247.536 15.688 248.344 15.52 249.128 15.376C249.928 15.232 250.632 15.12 251.24 15.04C251.848 14.96 252.288 14.92 252.56 14.92C252.864 14.92 253.16 14.992 253.448 15.136C253.736 15.28 253.976 15.472 254.168 15.712C254.376 15.952 254.48 16.208 254.48 16.48C254.48 16.608 254.328 16.968 254.024 17.56C253.736 18.152 253.328 18.912 252.8 19.84C252.288 20.768 251.696 21.792 251.024 22.912C250.368 24.032 249.672 25.184 248.936 26.368C248.216 27.552 247.496 28.704 246.776 29.824C246.056 30.928 245.376 31.936 244.736 32.848C244.112 33.76 243.56 34.496 243.08 35.056C242.968 35.184 242.84 35.312 242.696 35.44C242.552 35.568 242.392 35.632 242.216 35.632ZM258.424 36.136C258.152 36.136 257.936 36.04 257.776 35.848C257.616 35.656 257.536 35.336 257.536 34.888C257.536 34.088 257.576 33.264 257.656 32.416C257.752 31.552 257.8 30.752 257.8 30.016C257.8 28.336 257.648 26.952 257.344 25.864C257.056 24.76 256.424 24.016 255.448 23.632C255.224 23.552 255.064 23.464 254.968 23.368C254.856 23.272 254.8 23.12 254.8 22.912C254.8 22.688 254.888 22.504 255.064 22.36C255.224 22.216 255.528 22.144 255.976 22.144C256.344 22.144 256.832 22.16 257.44 22.192C258.048 22.224 258.704 22.256 259.408 22.288C259.904 20.512 260.464 19.04 261.088 17.872C261.712 16.704 262.392 15.784 263.128 15.112C263.88 14.44 264.672 13.96 265.504 13.672C266.352 13.384 267.232 13.24 268.144 13.24C268.544 13.24 268.8 13.296 268.912 13.408C269.024 13.504 269.08 13.656 269.08 13.864C269.08 14.12 269 14.392 268.84 14.68C268.68 14.952 268.352 15.128 267.856 15.208C266.768 15.4 265.8 15.752 264.952 16.264C264.104 16.776 263.368 17.52 262.744 18.496C262.12 19.456 261.6 20.72 261.184 22.288C262.72 22.256 264.04 22.176 265.144 22.048C266.248 21.904 267.168 21.752 267.904 21.592C268.656 21.416 269.256 21.272 269.704 21.16C270.152 21.032 270.496 20.968 270.736 20.968C271.008 20.968 271.176 21.04 271.24 21.184C271.304 21.328 271.336 21.48 271.336 21.64C271.336 21.944 271.048 22.24 270.472 22.528C269.896 22.8 269.136 23.048 268.192 23.272C267.264 23.48 266.24 23.648 265.12 23.776C264 23.904 262.896 23.968 261.808 23.968C261.632 23.968 261.456 23.968 261.28 23.968C261.12 23.968 260.952 23.968 260.776 23.968C260.744 24.08 260.72 24.2 260.704 24.328C260.544 25.256 260.384 26.24 260.224 27.28C260.08 28.304 259.944 29.312 259.816 30.304C259.704 31.28 259.616 32.168 259.552 32.968C259.488 33.768 259.456 34.408 259.456 34.888C259.456 35.288 259.36 35.592 259.168 35.8C258.976 36.024 258.728 36.136 258.424 36.136ZM259 23.872C258.536 23.824 258.104 23.76 257.704 23.68C257.912 23.92 258.088 24.2 258.232 24.52C258.392 24.84 258.528 25.184 258.64 25.552C258.752 24.96 258.872 24.4 259 23.872ZM271.532 34.336C270.748 34.336 270.068 34.16 269.492 33.808C268.932 33.44 268.5 32.968 268.196 32.392C267.892 31.816 267.74 31.224 267.74 30.616C267.74 29.336 267.964 28.168 268.412 27.112C268.86 26.04 269.42 25.096 270.092 24.28C270.78 23.448 271.484 22.744 272.204 22.168C272.94 21.592 273.604 21.16 274.196 20.872C274.804 20.568 275.236 20.416 275.492 20.416C276.004 20.416 276.26 20.672 276.26 21.184C276.26 21.424 276.1 21.704 275.78 22.024C275.46 22.328 275.052 22.688 274.556 23.104C274.06 23.52 273.532 23.992 272.972 24.52C272.412 25.032 271.884 25.616 271.388 26.272C270.892 26.912 270.484 27.632 270.164 28.432C269.844 29.216 269.684 30.08 269.684 31.024C269.684 31.984 270.076 32.464 270.86 32.464C271.58 32.464 272.316 32.328 273.068 32.056C273.836 31.784 274.588 31.432 275.324 31C276.076 30.552 276.796 30.088 277.484 29.608C278.172 29.128 278.796 28.672 279.356 28.24C279.916 27.792 280.388 27.432 280.772 27.16C281.156 26.888 281.428 26.752 281.588 26.752C281.908 26.752 282.068 26.928 282.068 27.28C282.068 27.552 281.884 27.912 281.516 28.36C281.148 28.808 280.652 29.296 280.028 29.824C279.404 30.352 278.708 30.888 277.94 31.432C277.172 31.96 276.396 32.448 275.612 32.896C274.828 33.328 274.076 33.68 273.356 33.952C272.652 34.208 272.044 34.336 271.532 34.336ZM283.325 34.024C282.637 34.024 282.149 33.888 281.861 33.616C281.573 33.344 281.429 32.944 281.429 32.416C281.429 29.76 281.909 26.984 282.869 24.088C283.829 21.176 285.173 18.256 286.901 15.328C287.125 14.96 287.301 14.728 287.429 14.632C287.573 14.536 287.741 14.488 287.933 14.488C288.157 14.488 288.357 14.568 288.533 14.728C288.709 14.888 288.797 15.104 288.797 15.376C288.797 15.52 288.653 15.912 288.365 16.552C288.077 17.176 287.709 17.984 287.261 18.976C286.813 19.968 286.333 21.08 285.821 22.312C285.325 23.528 284.853 24.8 284.405 26.128C283.957 27.456 283.597 28.776 283.325 30.088C283.693 29.544 284.133 28.96 284.645 28.336C285.173 27.712 285.733 27.088 286.325 26.464C286.917 25.84 287.517 25.272 288.125 24.76C288.749 24.248 289.349 23.84 289.925 23.536C290.501 23.232 291.029 23.08 291.509 23.08C292.133 23.08 292.677 23.344 293.141 23.872C293.621 24.384 293.861 25.16 293.861 26.2C293.861 27.08 293.621 27.984 293.141 28.912C292.661 29.824 291.957 30.672 291.029 31.456C290.117 32.224 289.013 32.848 287.717 33.328C286.421 33.792 284.957 34.024 283.325 34.024ZM283.421 32.2C284.749 32.2 285.957 31.976 287.045 31.528C288.133 31.08 289.061 30.512 289.829 29.824C290.613 29.12 291.213 28.392 291.629 27.64C292.061 26.872 292.277 26.176 292.277 25.552C292.277 25.104 292.125 24.88 291.821 24.88C291.453 24.88 290.981 25.056 290.405 25.408C289.829 25.76 289.205 26.224 288.533 26.8C287.877 27.376 287.221 28 286.565 28.672C285.909 29.328 285.301 29.968 284.741 30.592C284.197 31.216 283.757 31.752 283.421 32.2ZM307.745 35.272C306.705 35.272 305.745 35.024 304.865 34.528C304.001 34.032 303.217 33.392 302.513 32.608C301.825 31.824 301.209 30.984 300.665 30.088C300.137 29.176 299.681 28.32 299.297 27.52C299.025 28.816 298.809 29.864 298.649 30.664C298.505 31.464 298.385 32.072 298.289 32.488C298.209 32.904 298.129 33.184 298.049 33.328C297.969 33.472 297.865 33.544 297.737 33.544C297.385 33.544 297.049 33.352 296.729 32.968C296.409 32.584 296.249 32.088 296.249 31.48C296.249 30.84 296.361 29.992 296.585 28.936C296.809 27.864 297.105 26.68 297.473 25.384C297.857 24.072 298.297 22.72 298.793 21.328C299.289 19.92 299.801 18.552 300.329 17.224C300.873 15.88 301.417 14.656 301.961 13.552C302.233 13.008 302.465 12.656 302.657 12.496C302.865 12.336 303.113 12.256 303.401 12.256C303.865 12.256 304.097 12.472 304.097 12.904C304.097 13.064 304.049 13.24 303.953 13.432C303.873 13.624 303.785 13.84 303.689 14.08C303.401 14.784 303.081 15.576 302.729 16.456C302.393 17.336 302.049 18.256 301.697 19.216C301.361 20.176 301.041 21.128 300.737 22.072C300.433 23.016 300.169 23.888 299.945 24.688C300.633 24.208 301.441 23.728 302.369 23.248C303.297 22.768 304.257 22.336 305.249 21.952C306.241 21.552 307.177 21.232 308.057 20.992C308.937 20.752 309.665 20.632 310.241 20.632C310.545 20.632 310.777 20.728 310.937 20.92C311.113 21.096 311.201 21.296 311.201 21.52C311.201 21.696 311.145 21.872 311.033 22.048C310.937 22.208 310.729 22.352 310.409 22.48C309.353 22.848 308.305 23.224 307.265 23.608C306.225 23.976 305.137 24.376 304.001 24.808C302.881 25.224 301.657 25.72 300.329 26.296C300.745 27 301.233 27.76 301.793 28.576C302.353 29.376 302.953 30.136 303.593 30.856C304.233 31.56 304.889 32.144 305.561 32.608C306.233 33.056 306.905 33.28 307.577 33.28C308.457 33.28 309.305 33.096 310.121 32.728C310.937 32.36 311.689 31.912 312.377 31.384C313.081 30.856 313.697 30.344 314.225 29.848C314.753 29.336 315.169 28.936 315.473 28.648C315.633 28.504 315.777 28.408 315.905 28.36C316.049 28.296 316.177 28.264 316.289 28.264C316.513 28.264 316.665 28.384 316.745 28.624C316.841 28.848 316.761 29.096 316.505 29.368C316.313 29.592 316.017 29.936 315.617 30.4C315.217 30.864 314.729 31.376 314.153 31.936C313.593 32.48 312.969 33.008 312.281 33.52C311.609 34.032 310.881 34.448 310.097 34.768C309.329 35.104 308.545 35.272 307.745 35.272ZM323.265 41.272C323.009 41.272 322.745 41.096 322.473 40.744C322.217 40.408 322.089 40.032 322.089 39.616C322.089 39.536 322.129 39.24 322.209 38.728C322.289 38.216 322.401 37.544 322.545 36.712C322.689 35.88 322.849 34.96 323.025 33.952C323.217 32.928 323.409 31.872 323.601 30.784C323.793 29.696 323.977 28.64 324.153 27.616C324.345 26.592 324.521 25.656 324.681 24.808C324.169 25.944 323.633 27.064 323.073 28.168C322.513 29.256 321.937 30.248 321.345 31.144C320.753 32.04 320.145 32.752 319.521 33.28C318.897 33.808 318.281 34.072 317.673 34.072C316.809 34.072 316.153 33.816 315.705 33.304C315.257 32.776 315.033 32.104 315.033 31.288C315.033 30.44 315.233 29.56 315.633 28.648C316.033 27.72 316.561 26.808 317.217 25.912C317.889 25 318.625 24.144 319.425 23.344C320.225 22.544 321.025 21.832 321.825 21.208C322.625 20.584 323.369 20.096 324.057 19.744C324.745 19.376 325.305 19.192 325.737 19.192C326.169 19.192 326.489 19.288 326.697 19.48C326.905 19.656 327.009 19.976 327.009 20.44C327.009 20.744 326.961 21.288 326.865 22.072C326.785 22.84 326.665 23.76 326.505 24.832C326.361 25.904 326.193 27.064 326.001 28.312C325.825 29.544 325.641 30.784 325.449 32.032C325.257 33.264 325.073 34.44 324.897 35.56C324.721 36.68 324.561 37.656 324.417 38.488C324.289 39.32 324.193 39.936 324.129 40.336C324.065 40.688 323.961 40.928 323.817 41.056C323.673 41.2 323.489 41.272 323.265 41.272ZM317.217 32.128C317.649 32.128 318.121 31.888 318.633 31.408C319.161 30.928 319.697 30.296 320.241 29.512C320.801 28.728 321.353 27.864 321.897 26.92C322.441 25.96 322.945 25 323.409 24.04C323.889 23.08 324.305 22.2 324.657 21.4C323.793 21.992 322.905 22.688 321.993 23.488C321.097 24.288 320.257 25.144 319.473 26.056C318.705 26.968 318.081 27.904 317.601 28.864C317.137 29.824 316.905 30.768 316.905 31.696C316.905 31.984 317.009 32.128 317.217 32.128ZM331.462 34.624C330.854 34.624 330.35 34.344 329.95 33.784C329.566 33.208 329.374 32.464 329.374 31.552C329.374 30.704 329.582 29.864 329.998 29.032C330.43 28.2 330.998 27.4 331.702 26.632C332.406 25.864 333.174 25.16 334.006 24.52C334.838 23.864 335.67 23.296 336.502 22.816C337.35 22.336 338.126 21.96 338.83 21.688C339.534 21.416 340.094 21.28 340.51 21.28C340.734 21.28 340.918 21.328 341.062 21.424C341.206 21.504 341.278 21.656 341.278 21.88C341.278 22.024 341.222 22.16 341.11 22.288C341.126 22.288 341.142 22.288 341.158 22.288C341.51 22.288 341.686 22.496 341.686 22.912C341.686 23.056 341.63 23.352 341.518 23.8C341.406 24.232 341.278 24.776 341.134 25.432C340.99 26.088 340.862 26.816 340.75 27.616C340.638 28.4 340.582 29.2 340.582 30.016C340.582 30.704 340.846 31.048 341.374 31.048C341.966 31.048 342.566 30.912 343.174 30.64C343.782 30.368 344.374 30.04 344.95 29.656C345.526 29.256 346.054 28.864 346.534 28.48C347.014 28.08 347.422 27.744 347.758 27.472C348.094 27.2 348.334 27.064 348.478 27.064C348.606 27.064 348.718 27.104 348.814 27.184C348.91 27.264 348.958 27.392 348.958 27.568C348.958 27.728 348.798 28.016 348.478 28.432C348.158 28.848 347.734 29.32 347.206 29.848C346.678 30.376 346.086 30.888 345.43 31.384C344.774 31.88 344.102 32.288 343.414 32.608C342.726 32.928 342.07 33.088 341.446 33.088C340.966 33.088 340.526 32.944 340.126 32.656C339.742 32.352 339.43 31.84 339.19 31.12C338.966 30.4 338.854 29.408 338.854 28.144V27.544C338.07 28.84 337.246 30.024 336.382 31.096C335.534 32.168 334.686 33.024 333.838 33.664C333.006 34.304 332.214 34.624 331.462 34.624ZM340.054 23.008C339.974 23.04 339.862 23.088 339.718 23.152C338.982 23.488 338.214 23.904 337.414 24.4C336.63 24.896 335.862 25.448 335.11 26.056C334.374 26.664 333.71 27.296 333.118 27.952C332.526 28.608 332.054 29.272 331.702 29.944C331.35 30.616 331.174 31.272 331.174 31.912C331.174 32.12 331.214 32.28 331.294 32.392C331.39 32.504 331.55 32.56 331.774 32.56C332.094 32.56 332.51 32.36 333.022 31.96C333.534 31.544 334.094 31 334.702 30.328C335.326 29.656 335.95 28.912 336.574 28.096C337.198 27.28 337.79 26.456 338.35 25.624C338.926 24.792 339.422 24.024 339.838 23.32C339.902 23.208 339.974 23.104 340.054 23.008ZM353.562 35.152C353.05 35.152 352.514 35.024 351.954 34.768C351.41 34.528 350.946 34.128 350.562 33.568C350.194 32.992 350.01 32.232 350.01 31.288C350.01 30.184 350.106 29.016 350.298 27.784C350.49 26.552 350.738 25.32 351.042 24.088C351.362 22.84 351.714 21.656 352.098 20.536C352.482 19.416 352.866 18.416 353.25 17.536C353.65 16.656 354.018 15.968 354.354 15.472C354.69 14.96 354.97 14.704 355.194 14.704C355.498 14.704 355.754 14.824 355.962 15.064C356.186 15.304 356.298 15.64 356.298 16.072C356.298 16.248 356.194 16.664 355.986 17.32C355.778 17.96 355.514 18.768 355.194 19.744C354.874 20.72 354.53 21.776 354.162 22.912C353.81 24.048 353.474 25.192 353.154 26.344C352.834 27.496 352.57 28.584 352.362 29.608C352.154 30.632 352.05 31.504 352.05 32.224C352.05 32.432 352.106 32.632 352.218 32.824C352.33 33 352.514 33.088 352.77 33.088C353.122 33.088 353.626 33.008 354.282 32.848C354.954 32.688 355.682 32.496 356.466 32.272C357.25 32.032 358.002 31.8 358.722 31.576C359.442 31.352 360.05 31.16 360.546 31C361.042 30.84 361.322 30.76 361.386 30.76C361.578 30.76 361.738 30.816 361.866 30.928C361.994 31.024 362.058 31.176 362.058 31.384C362.058 31.64 361.866 31.936 361.482 32.272C361.114 32.608 360.618 32.944 359.994 33.28C359.386 33.616 358.706 33.92 357.954 34.192C357.202 34.48 356.442 34.712 355.674 34.888C354.922 35.064 354.218 35.152 353.562 35.152ZM373.91 34.264C373.766 34.264 373.478 34.256 373.046 34.24C372.63 34.224 372.134 34.2 371.558 34.168C370.982 34.136 370.382 34.104 369.758 34.072C369.15 34.04 368.574 34.016 368.03 34C367.502 33.984 367.062 33.976 366.71 33.976C366.278 33.976 365.918 33.832 365.63 33.544C365.358 33.256 365.222 32.856 365.222 32.344C365.222 32.008 365.374 31.576 365.678 31.048C365.982 30.52 366.39 29.936 366.902 29.296C367.414 28.64 367.982 27.968 368.606 27.28C369.246 26.592 369.894 25.92 370.55 25.264C371.206 24.608 371.838 24 372.446 23.44C373.054 22.88 373.582 22.424 374.03 22.072C372.974 22.2 371.942 22.368 370.934 22.576C369.926 22.768 369.046 22.944 368.294 23.104C367.558 23.264 367.062 23.344 366.806 23.344C366.486 23.344 366.23 23.256 366.038 23.08C365.846 22.888 365.75 22.632 365.75 22.312C365.75 22.136 365.942 21.96 366.326 21.784C366.726 21.608 367.254 21.44 367.91 21.28C368.566 21.12 369.286 20.984 370.07 20.872C370.87 20.744 371.678 20.648 372.494 20.584C373.31 20.52 374.07 20.488 374.774 20.488C375.254 20.488 375.638 20.632 375.926 20.92C376.23 21.208 376.382 21.512 376.382 21.832C376.382 21.96 376.198 22.248 375.83 22.696C375.462 23.144 374.982 23.688 374.39 24.328C373.798 24.968 373.15 25.656 372.446 26.392C371.742 27.128 371.054 27.864 370.382 28.6C369.71 29.32 369.11 29.992 368.582 30.616C368.054 31.224 367.67 31.728 367.43 32.128C367.862 32.112 368.374 32.096 368.966 32.08C369.558 32.064 370.174 32.048 370.814 32.032C371.454 32 372.062 31.976 372.638 31.96C373.214 31.928 373.702 31.904 374.102 31.888C374.518 31.872 374.79 31.864 374.918 31.864C375.558 31.864 375.878 32.128 375.878 32.656C375.878 33.056 375.694 33.424 375.326 33.76C374.958 34.096 374.486 34.264 373.91 34.264ZM390.186 33.736C389.978 33.736 389.706 33.592 389.37 33.304C389.05 33 388.674 32.456 388.242 31.672C387.874 30.968 387.538 30.232 387.234 29.464C386.93 28.696 386.634 27.912 386.346 27.112C385.45 28.264 384.602 29.368 383.802 30.424C383.018 31.48 382.338 32.408 381.762 33.208C381.202 33.992 380.818 34.576 380.61 34.96C380.53 35.12 380.402 35.296 380.226 35.488C380.05 35.68 379.85 35.776 379.626 35.776C379.37 35.776 379.154 35.68 378.978 35.488C378.818 35.296 378.738 35.048 378.738 34.744C378.738 34.424 378.93 33.928 379.314 33.256C379.714 32.568 380.234 31.768 380.874 30.856C381.53 29.944 382.258 28.96 383.058 27.904C383.874 26.848 384.698 25.792 385.53 24.736C385.178 23.632 384.85 22.568 384.546 21.544C384.258 20.504 384.01 19.552 383.802 18.688C383.594 17.808 383.434 17.072 383.322 16.48C383.21 15.888 383.154 15.488 383.154 15.28C383.154 14.88 383.226 14.6 383.37 14.44C383.53 14.28 383.738 14.2 383.994 14.2C384.506 14.2 384.866 14.536 385.074 15.208C385.17 15.48 385.29 15.912 385.434 16.504C385.578 17.096 385.786 17.896 386.058 18.904C386.33 19.912 386.69 21.176 387.138 22.696C387.826 21.8 388.482 20.92 389.106 20.056C389.746 19.192 390.338 18.416 390.882 17.728C391.426 17.024 391.898 16.472 392.298 16.072C392.698 15.656 393.01 15.448 393.234 15.448C393.874 15.448 394.194 15.768 394.194 16.408C394.194 16.584 394.154 16.792 394.074 17.032C393.994 17.272 393.85 17.552 393.642 17.872C393.306 18.432 392.826 19.088 392.202 19.84C391.578 20.592 390.882 21.416 390.114 22.312C389.362 23.208 388.61 24.144 387.858 25.12C388.322 26.496 388.786 27.704 389.25 28.744C389.714 29.784 390.098 30.656 390.402 31.36C390.722 32.048 390.882 32.568 390.882 32.92C390.882 33.464 390.65 33.736 390.186 33.736ZM403.702 34.576C403.43 34.576 403.198 34.456 403.006 34.216C402.814 33.976 402.718 33.624 402.718 33.16C402.718 32.616 402.798 31.84 402.958 30.832C403.134 29.824 403.39 28.488 403.726 26.824C403.294 27.848 402.814 28.816 402.286 29.728C401.774 30.64 401.23 31.384 400.654 31.96C400.078 32.536 399.486 32.824 398.878 32.824C398.286 32.824 397.758 32.592 397.294 32.128C396.846 31.664 396.622 30.848 396.622 29.68C396.622 29.024 396.678 28.288 396.79 27.472C396.902 26.64 397.046 25.816 397.222 25C397.398 24.184 397.574 23.456 397.75 22.816C397.926 22.16 398.086 21.68 398.23 21.376C398.342 21.12 398.454 20.952 398.566 20.872C398.678 20.776 398.83 20.728 399.022 20.728C399.246 20.728 399.486 20.824 399.742 21.016C399.998 21.208 400.126 21.528 400.126 21.976C400.126 22.088 400.07 22.352 399.958 22.768C399.862 23.168 399.734 23.664 399.574 24.256C399.43 24.832 399.278 25.456 399.118 26.128C398.958 26.8 398.822 27.472 398.71 28.144C398.614 28.816 398.566 29.432 398.566 29.992C398.566 30.296 398.598 30.544 398.662 30.736C398.726 30.928 398.886 31.024 399.142 31.024C399.366 31.024 399.646 30.8 399.982 30.352C400.334 29.904 400.71 29.312 401.11 28.576C401.526 27.824 401.95 26.992 402.382 26.08C402.83 25.168 403.262 24.232 403.678 23.272C404.11 22.312 404.502 21.4 404.854 20.536C404.982 20.248 405.118 20.072 405.262 20.008C405.406 19.928 405.566 19.888 405.742 19.888C406.03 19.888 406.286 20.008 406.51 20.248C406.75 20.472 406.87 20.768 406.87 21.136C406.87 21.376 406.822 21.792 406.726 22.384C406.646 22.976 406.526 23.672 406.366 24.472C406.222 25.256 406.054 26.088 405.862 26.968C405.686 27.848 405.51 28.72 405.334 29.584C405.158 30.432 404.99 31.208 404.83 31.912C404.686 32.616 404.566 33.184 404.47 33.616C404.39 34.016 404.278 34.272 404.134 34.384C404.006 34.512 403.862 34.576 403.702 34.576ZM412.02 34.024C411.332 34.024 410.844 33.888 410.556 33.616C410.268 33.344 410.124 32.944 410.124 32.416C410.124 29.76 410.604 26.984 411.564 24.088C412.524 21.176 413.868 18.256 415.596 15.328C415.82 14.96 415.996 14.728 416.124 14.632C416.268 14.536 416.436 14.488 416.628 14.488C416.852 14.488 417.052 14.568 417.228 14.728C417.404 14.888 417.492 15.104 417.492 15.376C417.492 15.52 417.348 15.912 417.06 16.552C416.772 17.176 416.404 17.984 415.956 18.976C415.508 19.968 415.028 21.08 414.516 22.312C414.02 23.528 413.548 24.8 413.1 26.128C412.652 27.456 412.292 28.776 412.02 30.088C412.388 29.544 412.828 28.96 413.34 28.336C413.868 27.712 414.428 27.088 415.02 26.464C415.612 25.84 416.212 25.272 416.82 24.76C417.444 24.248 418.044 23.84 418.62 23.536C419.196 23.232 419.724 23.08 420.204 23.08C420.828 23.08 421.372 23.344 421.836 23.872C422.316 24.384 422.556 25.16 422.556 26.2C422.556 27.08 422.316 27.984 421.836 28.912C421.356 29.824 420.652 30.672 419.724 31.456C418.812 32.224 417.708 32.848 416.412 33.328C415.116 33.792 413.652 34.024 412.02 34.024ZM412.116 32.2C413.444 32.2 414.652 31.976 415.74 31.528C416.828 31.08 417.756 30.512 418.524 29.824C419.308 29.12 419.908 28.392 420.324 27.64C420.756 26.872 420.972 26.176 420.972 25.552C420.972 25.104 420.82 24.88 420.516 24.88C420.148 24.88 419.676 25.056 419.1 25.408C418.524 25.76 417.9 26.224 417.228 26.8C416.572 27.376 415.916 28 415.26 28.672C414.604 29.328 413.996 29.968 413.436 30.592C412.892 31.216 412.452 31.752 412.116 32.2ZM426.553 33.448C426.089 33.448 425.673 33.184 425.305 32.656C424.937 32.128 424.753 31.448 424.753 30.616C424.753 29.704 424.873 28.728 425.113 27.688C425.369 26.648 425.681 25.592 426.049 24.52C426.417 23.432 426.777 22.384 427.129 21.376C427.209 21.168 427.321 21.016 427.465 20.92C427.625 20.808 427.865 20.752 428.185 20.752C428.761 20.752 429.049 21.032 429.049 21.592C429.049 21.72 428.985 22.008 428.857 22.456C428.729 22.904 428.561 23.456 428.353 24.112C428.161 24.768 427.961 25.48 427.753 26.248C427.545 27 427.361 27.76 427.201 28.528C427.041 29.296 426.929 30.008 426.865 30.664C427.121 30.392 427.409 29.976 427.729 29.416C428.065 28.856 428.425 28.224 428.809 27.52C429.193 26.8 429.593 26.08 430.009 25.36C430.425 24.624 430.841 23.952 431.257 23.344C431.689 22.72 432.105 22.224 432.505 21.856C432.921 21.472 433.305 21.28 433.657 21.28C434.169 21.28 434.601 21.44 434.953 21.76C435.321 22.064 435.601 22.608 435.793 23.392C436.001 24.16 436.105 25.248 436.105 26.656C436.105 27.408 436.177 28.112 436.321 28.768C436.481 29.424 436.729 29.952 437.065 30.352C437.417 30.736 437.865 30.928 438.409 30.928C439.225 30.928 439.953 30.784 440.593 30.496C441.233 30.192 441.785 29.856 442.249 29.488C442.729 29.104 443.129 28.768 443.449 28.48C443.769 28.176 444.017 28.024 444.193 28.024C444.561 28.024 444.745 28.216 444.745 28.6C444.745 28.76 444.625 29.016 444.385 29.368C444.161 29.704 443.841 30.088 443.425 30.52C443.025 30.936 442.561 31.344 442.033 31.744C441.521 32.128 440.969 32.448 440.377 32.704C439.801 32.96 439.217 33.088 438.625 33.088C437.521 33.088 436.617 32.872 435.913 32.44C435.225 32.008 434.713 31.296 434.377 30.304C434.057 29.312 433.897 27.984 433.897 26.32C433.897 25.408 433.841 24.744 433.729 24.328C433.633 23.896 433.449 23.608 433.177 23.464C432.985 23.8 432.737 24.28 432.433 24.904C432.129 25.512 431.777 26.192 431.377 26.944C430.993 27.696 430.585 28.456 430.153 29.224C429.737 29.976 429.313 30.672 428.881 31.312C428.449 31.952 428.033 32.472 427.633 32.872C427.233 33.256 426.873 33.448 426.553 33.448ZM444.669 35.632C444.493 35.632 444.341 35.568 444.213 35.44C444.085 35.312 444.021 35.136 444.021 34.912C444.021 34.48 444.237 33.808 444.669 32.896C445.101 31.984 445.685 30.912 446.421 29.68C447.157 28.432 447.981 27.096 448.893 25.672C449.805 24.232 450.741 22.76 451.701 21.256C452.661 19.752 453.589 18.288 454.485 16.864C453.541 17.024 452.597 17.216 451.653 17.44C450.725 17.664 449.853 17.88 449.037 18.088C448.221 18.296 447.525 18.472 446.949 18.616C446.373 18.744 445.965 18.808 445.725 18.808C445.261 18.808 444.941 18.712 444.765 18.52C444.605 18.328 444.525 18.096 444.525 17.824C444.525 17.6 444.741 17.376 445.173 17.152C445.605 16.928 446.173 16.712 446.877 16.504C447.581 16.28 448.341 16.072 449.157 15.88C449.989 15.688 450.797 15.52 451.581 15.376C452.381 15.232 453.085 15.12 453.693 15.04C454.301 14.96 454.741 14.92 455.013 14.92C455.317 14.92 455.613 14.992 455.901 15.136C456.189 15.28 456.429 15.472 456.621 15.712C456.829 15.952 456.933 16.208 456.933 16.48C456.933 16.608 456.781 16.968 456.477 17.56C456.189 18.152 455.781 18.912 455.253 19.84C454.741 20.768 454.149 21.792 453.477 22.912C452.821 24.032 452.125 25.184 451.389 26.368C450.669 27.552 449.949 28.704 449.229 29.824C448.509 30.928 447.829 31.936 447.189 32.848C446.565 33.76 446.013 34.496 445.533 35.056C445.421 35.184 445.293 35.312 445.149 35.44C445.005 35.568 444.845 35.632 444.669 35.632ZM465.395 35.512C464.419 35.512 463.555 35.128 462.803 34.36C462.051 33.608 461.539 32.616 461.267 31.384C461.043 31.544 460.875 31.624 460.763 31.624C460.651 31.624 460.547 31.584 460.451 31.504C460.371 31.424 460.331 31.216 460.331 30.88C460.331 30.24 460.579 29.576 461.075 28.888C461.171 27.592 461.515 26.344 462.107 25.144C462.715 23.928 463.483 22.792 464.411 21.736C465.339 20.664 466.339 19.688 467.411 18.808C468.483 17.928 469.539 17.168 470.579 16.528C471.619 15.888 472.547 15.392 473.363 15.04C474.195 14.688 474.819 14.512 475.235 14.512C475.731 14.512 475.979 14.744 475.979 15.208C475.979 15.368 475.747 15.6 475.283 15.904C474.819 16.192 474.203 16.56 473.435 17.008C472.667 17.44 471.827 17.968 470.915 18.592C470.003 19.2 469.091 19.896 468.179 20.68C467.283 21.464 466.459 22.344 465.707 23.32C464.955 24.296 464.363 25.376 463.931 26.56C464.571 26.24 465.259 25.992 465.995 25.816C466.747 25.624 467.523 25.528 468.323 25.528C469.267 25.528 469.995 25.816 470.507 26.392C471.035 26.968 471.299 27.792 471.299 28.864C471.299 29.696 471.123 30.512 470.771 31.312C470.419 32.096 469.947 32.808 469.355 33.448C468.779 34.072 468.139 34.568 467.435 34.936C466.747 35.32 466.067 35.512 465.395 35.512ZM463.307 29.512C463.291 29.752 463.283 29.984 463.283 30.208C463.283 31.088 463.499 31.8 463.931 32.344C464.379 32.872 464.899 33.136 465.491 33.136C466.003 33.136 466.499 33.008 466.979 32.752C467.475 32.48 467.915 32.128 468.299 31.696C468.699 31.248 469.019 30.752 469.259 30.208C469.499 29.664 469.619 29.112 469.619 28.552C469.619 27.672 469.259 27.232 468.539 27.232C467.451 27.232 466.467 27.472 465.587 27.952C464.723 28.432 463.963 28.952 463.307 29.512ZM474.233 40.48C473.449 40.48 472.801 40.224 472.289 39.712C471.777 39.2 471.521 38.584 471.521 37.864C471.521 37.304 471.801 36.824 472.361 36.424C472.921 36.04 473.681 35.664 474.641 35.296C475.585 34.944 476.625 34.544 477.761 34.096C478.017 33.152 478.273 32.016 478.529 30.688C478.785 29.344 479.065 27.76 479.369 25.936C479.481 25.008 479.585 24.288 479.681 23.776C479.777 23.248 479.873 22.872 479.969 22.648C480.065 22.424 480.169 22.288 480.281 22.24C480.409 22.192 480.545 22.168 480.689 22.168C480.833 22.168 481.017 22.24 481.241 22.384C481.481 22.528 481.697 22.728 481.889 22.984C482.081 23.24 482.177 23.528 482.177 23.848C482.177 24.056 482.137 24.36 482.057 24.76C481.993 25.16 481.873 25.6 481.697 26.08C481.537 26.56 481.305 27.016 481.001 27.448C480.777 28.6 480.569 29.656 480.377 30.616C480.185 31.576 479.993 32.456 479.801 33.256C480.761 32.824 481.705 32.352 482.633 31.84C483.561 31.328 484.417 30.76 485.201 30.136C485.985 29.496 486.649 28.784 487.193 28C487.353 27.776 487.513 27.664 487.673 27.664C487.753 27.664 487.833 27.712 487.913 27.808C488.009 27.904 488.057 28.064 488.057 28.288C488.057 28.896 487.809 29.512 487.313 30.136C486.817 30.744 486.145 31.352 485.297 31.96C484.449 32.552 483.505 33.136 482.465 33.712C481.425 34.272 480.353 34.808 479.249 35.32C478.833 36.712 478.393 37.776 477.929 38.512C477.481 39.264 476.953 39.776 476.345 40.048C475.753 40.336 475.049 40.48 474.233 40.48ZM481.049 19.456C480.745 19.456 480.489 19.36 480.281 19.168C480.073 18.976 479.969 18.656 479.969 18.208C479.969 17.68 480.161 17.216 480.545 16.816C480.945 16.4 481.377 16.192 481.841 16.192C482.289 16.192 482.657 16.328 482.945 16.6C483.249 16.872 483.401 17.224 483.401 17.656C483.401 18.024 483.289 18.336 483.065 18.592C482.841 18.832 482.553 18.952 482.201 18.952C482.121 18.952 482.057 18.944 482.009 18.928C481.785 19.152 481.609 19.296 481.481 19.36C481.353 19.424 481.209 19.456 481.049 19.456ZM477.113 36.232C476.393 36.52 475.689 36.776 475.001 37C474.313 37.24 473.713 37.44 473.201 37.6C473.329 38 473.513 38.272 473.753 38.416C473.977 38.576 474.273 38.656 474.641 38.656C475.137 38.656 475.585 38.496 475.985 38.176C476.369 37.856 476.745 37.208 477.113 36.232ZM499.108 35.44C498.756 35.44 498.46 35.304 498.22 35.032C497.996 34.76 497.884 34.312 497.884 33.688C497.884 33.48 497.908 33.256 497.956 33.016C498.004 32.76 498.092 32.504 498.22 32.248C497.42 30.264 496.748 28.336 496.204 26.464C495.66 24.592 495.196 22.632 494.812 20.584C494.3 21.64 493.812 22.736 493.348 23.872C492.9 24.992 492.476 26.088 492.076 27.16C491.676 28.232 491.316 29.232 490.996 30.16C490.676 31.088 490.396 31.888 490.156 32.56C489.9 33.36 489.644 33.896 489.388 34.168C489.132 34.456 488.868 34.6 488.596 34.6C488.228 34.6 487.948 34.512 487.756 34.336C487.58 34.16 487.492 33.848 487.492 33.4C487.492 33.064 487.58 32.544 487.756 31.84C487.932 31.136 488.172 30.32 488.476 29.392C488.796 28.464 489.156 27.488 489.556 26.464C489.956 25.44 490.38 24.44 490.828 23.464C491.292 22.488 491.756 21.608 492.22 20.824C492.684 20.024 493.124 19.392 493.54 18.928C493.972 18.448 494.364 18.208 494.716 18.208C495.084 18.208 495.396 18.28 495.652 18.424C495.924 18.568 496.22 18.944 496.54 19.552C496.748 19.968 496.988 20.576 497.26 21.376C497.532 22.16 497.804 23.048 498.076 24.04C498.348 25.016 498.612 26.024 498.868 27.064C499.124 28.088 499.348 29.04 499.54 29.92C500.18 26.96 500.74 24.368 501.22 22.144C501.7 19.904 502.068 18.152 502.324 16.888C502.596 15.624 502.74 14.96 502.756 14.896C502.852 14.48 502.956 14.224 503.068 14.128C503.18 14.032 503.34 13.984 503.548 13.984C503.836 13.984 504.116 14.104 504.388 14.344C504.676 14.568 504.82 14.88 504.82 15.28C504.82 15.472 504.772 15.912 504.676 16.6C504.596 17.288 504.468 18.152 504.292 19.192C504.132 20.216 503.924 21.36 503.668 22.624C503.412 23.872 503.116 25.176 502.78 26.536C502.444 27.88 502.068 29.216 501.652 30.544C501.252 31.856 500.812 33.096 500.332 34.264C500.156 34.712 499.948 35.016 499.708 35.176C499.484 35.352 499.284 35.44 499.108 35.44ZM513.679 18.064C512.927 18.064 512.431 17.976 512.191 17.8C511.951 17.624 511.831 17.4 511.831 17.128C511.831 16.92 511.951 16.72 512.191 16.528C512.447 16.32 512.775 16.176 513.175 16.096C513.655 16 514.223 15.904 514.879 15.808C515.551 15.696 516.247 15.6 516.967 15.52C517.703 15.424 518.407 15.352 519.079 15.304C519.767 15.256 520.367 15.232 520.879 15.232C521.631 15.248 522.167 15.392 522.487 15.664C522.823 15.936 522.991 16.184 522.991 16.408C522.991 16.568 522.919 16.728 522.775 16.888C522.631 17.032 522.375 17.104 522.007 17.104C521.767 17.104 521.431 17.128 520.999 17.176C520.583 17.224 520.111 17.288 519.583 17.368C519.567 17.88 519.503 18.6 519.391 19.528C519.295 20.44 519.143 21.488 518.935 22.672C518.727 23.84 518.455 25.072 518.119 26.368C517.799 27.648 517.407 28.92 516.943 30.184C516.495 31.432 515.967 32.6 515.359 33.688C514.767 34.76 514.087 35.672 513.319 36.424C512.567 37.176 511.727 37.688 510.799 37.96C510.543 38.024 510.335 38.072 510.175 38.104C510.015 38.136 509.831 38.152 509.623 38.152C509.463 38.152 509.271 38.032 509.047 37.792C508.823 37.552 508.711 37.168 508.711 36.64C508.711 36.256 508.871 36.016 509.191 35.92C510.279 35.648 511.231 35.136 512.047 34.384C512.879 33.632 513.607 32.568 514.231 31.192C514.871 29.8 515.423 28.04 515.887 25.912C516.367 23.784 516.791 21.208 517.159 18.184C517.175 18.024 517.207 17.864 517.255 17.704C516.551 17.8 515.879 17.888 515.239 17.968C514.599 18.032 514.079 18.064 513.679 18.064ZM537.499 35.44C537.147 35.44 536.851 35.304 536.611 35.032C536.387 34.76 536.275 34.312 536.275 33.688C536.275 33.48 536.299 33.256 536.347 33.016C536.395 32.76 536.483 32.504 536.611 32.248C535.811 30.264 535.139 28.336 534.595 26.464C534.051 24.592 533.587 22.632 533.203 20.584C532.691 21.64 532.203 22.736 531.739 23.872C531.291 24.992 530.867 26.088 530.467 27.16C530.067 28.232 529.707 29.232 529.387 30.16C529.067 31.088 528.787 31.888 528.547 32.56C528.291 33.36 528.035 33.896 527.779 34.168C527.523 34.456 527.259 34.6 526.987 34.6C526.619 34.6 526.339 34.512 526.147 34.336C525.971 34.16 525.883 33.848 525.883 33.4C525.883 33.064 525.971 32.544 526.147 31.84C526.323 31.136 526.563 30.32 526.867 29.392C527.187 28.464 527.547 27.488 527.947 26.464C528.347 25.44 528.771 24.44 529.219 23.464C529.683 22.488 530.147 21.608 530.611 20.824C531.075 20.024 531.515 19.392 531.931 18.928C532.363 18.448 532.755 18.208 533.107 18.208C533.475 18.208 533.787 18.28 534.043 18.424C534.315 18.568 534.611 18.944 534.931 19.552C535.139 19.968 535.379 20.576 535.651 21.376C535.923 22.16 536.195 23.048 536.467 24.04C536.739 25.016 537.003 26.024 537.259 27.064C537.515 28.088 537.739 29.04 537.931 29.92C538.571 26.96 539.131 24.368 539.611 22.144C540.091 19.904 540.459 18.152 540.715 16.888C540.987 15.624 541.131 14.96 541.147 14.896C541.243 14.48 541.347 14.224 541.459 14.128C541.571 14.032 541.731 13.984 541.939 13.984C542.227 13.984 542.507 14.104 542.779 14.344C543.067 14.568 543.211 14.88 543.211 15.28C543.211 15.472 543.163 15.912 543.067 16.6C542.987 17.288 542.859 18.152 542.683 19.192C542.523 20.216 542.315 21.36 542.059 22.624C541.803 23.872 541.507 25.176 541.171 26.536C540.835 27.88 540.459 29.216 540.043 30.544C539.643 31.856 539.203 33.096 538.723 34.264C538.547 34.712 538.339 35.016 538.099 35.176C537.875 35.352 537.675 35.44 537.499 35.44ZM551.35 34.792C550.95 34.792 550.622 34.68 550.366 34.456C550.126 34.248 550.006 34.016 550.006 33.76C550.006 33.472 550.046 33.256 550.126 33.112C550.222 32.952 550.422 32.84 550.726 32.776C551.478 32.6 552.254 32.392 553.054 32.152C553.87 31.896 554.63 31.632 555.334 31.36C556.038 31.072 556.606 30.792 557.038 30.52C557.486 30.248 557.71 30.008 557.71 29.8C557.71 29.608 557.534 29.424 557.182 29.248C556.83 29.056 556.382 28.848 555.838 28.624C555.294 28.4 554.71 28.152 554.086 27.88C553.462 27.608 552.878 27.296 552.334 26.944C551.79 26.592 551.342 26.192 550.99 25.744C550.638 25.28 550.462 24.752 550.462 24.16C550.462 23.232 550.686 22.368 551.134 21.568C551.598 20.752 552.198 20 552.934 19.312C553.67 18.624 554.478 17.992 555.358 17.416C556.254 16.824 557.134 16.304 557.998 15.856C558.878 15.392 559.662 14.984 560.35 14.632C560.574 14.504 560.79 14.416 560.998 14.368C561.206 14.32 561.39 14.296 561.55 14.296C562.014 14.296 562.35 14.4 562.558 14.608C562.766 14.816 562.87 15.056 562.87 15.328C562.87 15.552 562.75 15.816 562.51 16.12C562.27 16.408 561.926 16.664 561.478 16.888C561.03 17.112 560.494 17.224 559.87 17.224H559.678C559.134 17.512 558.542 17.856 557.902 18.256C557.262 18.656 556.63 19.096 556.006 19.576C555.382 20.056 554.806 20.552 554.278 21.064C553.766 21.56 553.35 22.04 553.03 22.504C552.726 22.968 552.574 23.392 552.574 23.776C552.574 24.24 552.75 24.656 553.102 25.024C553.454 25.392 553.902 25.72 554.446 26.008C555.006 26.296 555.59 26.576 556.198 26.848C556.822 27.12 557.406 27.4 557.95 27.688C558.51 27.96 558.966 28.264 559.318 28.6C559.67 28.92 559.846 29.296 559.846 29.728C559.846 30.224 559.67 30.696 559.318 31.144C558.982 31.592 558.534 32.008 557.974 32.392C557.414 32.76 556.798 33.096 556.126 33.4C555.47 33.688 554.822 33.936 554.182 34.144C553.542 34.352 552.966 34.512 552.454 34.624C551.958 34.736 551.59 34.792 551.35 34.792ZM567.569 40.168C566.769 40.168 566.033 40.112 565.361 40C564.705 39.904 564.057 39.744 563.417 39.52C562.777 39.312 562.08 39.04 561.328 38.704C561.104 38.592 560.904 38.456 560.729 38.296C560.552 38.152 560.464 37.984 560.464 37.792C560.464 37.552 560.616 37.296 560.92 37.024C561.208 36.768 561.48 36.64 561.736 36.64C562.008 36.64 562.345 36.736 562.745 36.928C563.161 37.12 563.641 37.344 564.185 37.6C564.729 37.872 565.329 38.104 565.985 38.296C566.657 38.488 567.377 38.584 568.145 38.584C568.977 38.584 569.761 38.24 570.497 37.552C571.233 36.864 571.833 35.872 572.297 34.576C572.761 33.296 572.993 31.752 572.993 29.944C572.993 29.4 572.977 28.8 572.945 28.144C572.929 27.472 572.897 26.768 572.849 26.032C572.465 26.864 572.033 27.688 571.553 28.504C571.089 29.32 570.601 30.056 570.089 30.712C569.593 31.368 569.073 31.896 568.529 32.296C568.001 32.68 567.465 32.872 566.921 32.872C566.233 32.872 565.737 32.696 565.433 32.344C565.129 31.992 564.977 31.448 564.977 30.712C564.977 29.944 565.033 29.112 565.145 28.216C565.257 27.32 565.401 26.416 565.577 25.504C565.769 24.576 565.993 23.696 566.249 22.864C566.505 22.032 566.777 21.312 567.065 20.704C567.225 20.384 567.465 20.224 567.785 20.224C568.009 20.224 568.225 20.344 568.433 20.584C568.657 20.808 568.769 21.104 568.769 21.472C568.769 21.76 568.705 22.168 568.577 22.696C568.449 23.224 568.289 23.824 568.097 24.496C567.905 25.168 567.713 25.872 567.521 26.608C567.329 27.328 567.169 28.04 567.041 28.744C566.913 29.432 566.849 30.064 566.849 30.64C566.849 30.88 567.009 31 567.329 31C567.505 31 567.753 30.84 568.073 30.52C568.409 30.184 568.777 29.752 569.177 29.224C569.593 28.68 570.009 28.088 570.425 27.448C570.857 26.792 571.273 26.144 571.673 25.504C572.073 24.848 572.417 24.248 572.705 23.704C572.689 23.576 572.681 23.456 572.681 23.344C572.681 23.232 572.681 23.128 572.681 23.032C572.681 22.248 572.761 21.76 572.921 21.568C573.097 21.36 573.321 21.256 573.593 21.256C574.057 21.256 574.385 21.36 574.577 21.568C574.769 21.776 574.865 22.136 574.865 22.648C574.865 22.84 574.841 23.048 574.793 23.272C574.745 23.48 574.665 23.784 574.553 24.184C574.681 25.448 574.785 26.584 574.865 27.592C574.961 28.6 575.009 29.616 575.009 30.64C575.009 32.576 574.697 34.256 574.073 35.68C573.465 37.104 572.601 38.208 571.481 38.992C570.377 39.776 569.073 40.168 567.569 40.168ZM578.698 18.616C578.042 18.616 577.578 18.584 577.306 18.52C577.034 18.44 576.866 18.336 576.802 18.208C576.754 18.08 576.73 17.952 576.73 17.824C576.73 17.648 576.818 17.488 576.994 17.344C577.186 17.184 577.57 17.056 578.146 16.96C578.882 16.8 579.746 16.64 580.738 16.48C581.746 16.304 582.818 16.144 583.954 16C585.09 15.84 586.226 15.696 587.362 15.568C588.514 15.44 589.61 15.344 590.65 15.28C591.706 15.2 592.642 15.16 593.458 15.16C594.546 15.16 595.282 15.256 595.666 15.448C596.066 15.64 596.266 15.848 596.266 16.072C596.266 16.28 596.154 16.472 595.93 16.648C595.722 16.824 595.362 16.912 594.85 16.912C594.642 16.912 594.162 16.96 593.41 17.056C592.658 17.136 591.738 17.248 590.65 17.392C589.578 17.52 588.442 17.664 587.242 17.824C587.162 18.368 587.042 19.088 586.882 19.984C586.722 20.864 586.538 21.832 586.33 22.888C586.138 23.944 585.938 25.008 585.73 26.08C585.538 27.136 585.354 28.12 585.178 29.032C585.018 29.944 584.882 30.696 584.77 31.288C584.658 31.88 584.594 32.232 584.578 32.344C584.514 32.84 584.37 33.216 584.146 33.472C583.938 33.712 583.706 33.832 583.45 33.832C583.146 33.832 582.89 33.704 582.682 33.448C582.49 33.176 582.394 32.704 582.394 32.032C582.394 31.808 582.442 31.376 582.538 30.736C582.634 30.08 582.762 29.304 582.922 28.408C583.082 27.512 583.258 26.56 583.45 25.552C583.642 24.544 583.834 23.56 584.026 22.6C584.218 21.624 584.394 20.744 584.554 19.96C584.714 19.16 584.834 18.536 584.914 18.088C583.65 18.232 582.458 18.36 581.338 18.472C580.234 18.568 579.354 18.616 578.698 18.616ZM599.898 34.432C599.306 34.432 598.778 34.272 598.314 33.952C597.85 33.616 597.482 33.2 597.21 32.704C596.954 32.208 596.826 31.72 596.826 31.24C596.826 30.888 597.018 30.424 597.402 29.848C597.786 29.256 598.306 28.592 598.962 27.856C599.618 27.104 600.354 26.312 601.17 25.48C602.002 24.648 602.866 23.816 603.762 22.984C604.626 22.152 605.49 21.36 606.354 20.608C607.218 19.84 608.018 19.136 608.754 18.496C609.506 17.856 610.146 17.312 610.674 16.864C609.746 17.024 608.826 17.208 607.914 17.416C607.002 17.624 606.154 17.824 605.37 18.016C604.586 18.192 603.914 18.344 603.354 18.472C602.794 18.584 602.402 18.64 602.178 18.64C601.874 18.64 601.626 18.552 601.434 18.376C601.242 18.2 601.146 17.984 601.146 17.728C601.146 17.552 601.346 17.368 601.746 17.176C602.146 16.968 602.674 16.768 603.33 16.576C603.986 16.368 604.706 16.176 605.49 16C606.274 15.808 607.05 15.64 607.818 15.496C608.602 15.352 609.314 15.24 609.954 15.16C610.61 15.08 611.122 15.04 611.49 15.04C611.954 15.04 612.362 15.216 612.714 15.568C613.066 15.904 613.242 16.288 613.242 16.72C613.242 16.816 613.01 17.104 612.546 17.584C612.082 18.048 611.458 18.648 610.674 19.384C609.906 20.104 609.05 20.912 608.106 21.808C607.162 22.704 606.202 23.624 605.226 24.568C604.378 25.384 603.546 26.192 602.73 26.992C601.93 27.776 601.21 28.504 600.57 29.176C599.93 29.832 599.418 30.408 599.034 30.904C598.666 31.384 598.482 31.736 598.482 31.96C598.482 32.104 598.538 32.216 598.65 32.296C598.778 32.36 598.93 32.392 599.106 32.392C599.362 32.392 599.786 32.352 600.378 32.272C600.986 32.176 601.69 32.064 602.49 31.936C603.29 31.792 604.122 31.648 604.986 31.504C605.85 31.36 606.666 31.224 607.434 31.096C608.218 30.952 608.882 30.84 609.426 30.76C609.97 30.664 610.322 30.616 610.482 30.616C611.09 30.616 611.394 30.848 611.394 31.312C611.394 31.584 611.186 31.848 610.77 32.104C610.354 32.36 609.794 32.608 609.09 32.848C608.402 33.072 607.634 33.28 606.786 33.472C605.954 33.664 605.106 33.832 604.242 33.976C603.378 34.12 602.562 34.232 601.794 34.312C601.042 34.392 600.41 34.432 599.898 34.432ZM617.61 34.696C617.05 34.696 616.586 34.448 616.218 33.952C615.866 33.44 615.69 32.536 615.69 31.24C615.69 29.88 615.714 28.56 615.762 27.28C615.81 25.984 615.898 24.824 616.026 23.8C616.17 22.776 616.362 21.96 616.602 21.352C616.842 20.744 617.154 20.44 617.538 20.44C617.81 20.44 618.05 20.592 618.258 20.896C618.466 21.184 618.57 21.568 618.57 22.048C618.57 22.544 618.522 23.208 618.426 24.04C618.33 24.872 618.21 25.768 618.066 26.728C617.938 27.672 617.826 28.592 617.73 29.488C617.634 30.368 617.586 31.112 617.586 31.72C617.586 31.976 617.594 32.184 617.61 32.344C617.642 32.488 617.69 32.56 617.754 32.56C617.994 32.56 618.25 32.352 618.522 31.936C618.81 31.504 619.114 30.944 619.434 30.256C619.754 29.552 620.09 28.784 620.442 27.952C620.794 27.104 621.154 26.264 621.522 25.432C621.89 24.6 622.266 23.84 622.65 23.152C623.034 22.448 623.418 21.888 623.802 21.472C624.186 21.04 624.562 20.824 624.93 20.824C625.362 20.824 625.762 21.032 626.13 21.448C626.514 21.848 626.706 22.424 626.706 23.176C626.706 23.4 626.674 23.792 626.61 24.352C626.546 24.896 626.466 25.52 626.37 26.224C626.274 26.928 626.178 27.632 626.082 28.336C625.986 29.024 625.906 29.64 625.842 30.184C625.778 30.712 625.746 31.088 625.746 31.312C625.746 32.144 625.826 32.56 625.986 32.56C626.434 32.56 626.906 32.28 627.402 31.72C627.914 31.144 628.426 30.408 628.938 29.512C629.466 28.6 629.986 27.616 630.498 26.56C631.026 25.488 631.53 24.464 632.01 23.488C632.234 22.976 632.418 22.632 632.562 22.456C632.722 22.264 632.882 22.168 633.042 22.168C633.266 22.168 633.474 22.288 633.666 22.528C633.874 22.768 633.978 23.096 633.978 23.512C633.978 23.656 633.97 23.8 633.954 23.944C633.938 24.072 633.898 24.216 633.834 24.376C633.29 25.816 632.706 27.152 632.082 28.384C631.458 29.6 630.818 30.664 630.162 31.576C629.522 32.472 628.89 33.176 628.266 33.688C627.642 34.184 627.066 34.432 626.538 34.432C625.626 34.432 624.914 34.176 624.402 33.664C623.906 33.136 623.658 32.432 623.658 31.552C623.658 31.184 623.682 30.704 623.73 30.112C623.794 29.52 623.866 28.88 623.946 28.192C624.042 27.504 624.138 26.84 624.234 26.2C624.33 25.56 624.41 25 624.474 24.52C624.554 24.04 624.602 23.712 624.618 23.536C624.634 23.312 624.61 23.2 624.546 23.2C624.482 23.2 624.354 23.408 624.162 23.824C623.986 24.224 623.77 24.736 623.514 25.36C623.274 25.968 623.018 26.6 622.746 27.256C622.442 27.976 622.09 28.768 621.69 29.632C621.306 30.48 620.89 31.288 620.442 32.056C620.01 32.824 619.554 33.456 619.074 33.952C618.594 34.448 618.106 34.696 617.61 34.696ZM645.333 21.928C645.765 20.888 646.173 19.816 646.557 18.712C646.957 17.608 647.317 16.48 647.637 15.328C647.733 15.008 647.877 14.752 648.069 14.56C648.277 14.352 648.517 14.248 648.789 14.248C648.981 14.248 649.141 14.32 649.269 14.464C649.413 14.608 649.485 14.8 649.485 15.04C649.485 15.344 649.365 15.872 649.125 16.624C648.901 17.376 648.613 18.328 648.261 19.48C647.925 20.632 647.581 21.96 647.229 23.464C646.893 24.952 646.605 26.6 646.365 28.408C646.141 30.216 646.029 32.144 646.029 34.192C646.029 34.64 645.933 35.008 645.741 35.296C645.549 35.6 645.317 35.752 645.045 35.752C644.885 35.752 644.733 35.712 644.589 35.632C644.445 35.552 644.317 35.36 644.205 35.056C644.109 34.768 644.029 34.312 643.965 33.688C643.901 33.048 643.869 32.184 643.869 31.096C643.869 30.264 643.917 29.36 644.013 28.384C643.277 29.712 642.477 30.872 641.613 31.864C640.765 32.84 639.941 33.592 639.141 34.12C638.357 34.648 637.685 34.912 637.125 34.912C636.437 34.912 635.877 34.68 635.445 34.216C635.029 33.768 634.821 33.096 634.821 32.2C634.821 31.416 635.005 30.608 635.373 29.776C635.741 28.944 636.229 28.128 636.837 27.328C637.445 26.512 638.117 25.744 638.853 25.024C639.589 24.304 640.325 23.672 641.061 23.128C641.813 22.568 642.509 22.136 643.149 21.832C643.789 21.512 644.309 21.352 644.709 21.352C644.869 21.352 645.013 21.408 645.141 21.52C645.269 21.632 645.333 21.768 645.333 21.928ZM645.021 22.672C644.909 22.784 644.773 22.896 644.613 23.008C644.453 23.12 644.277 23.24 644.085 23.368C643.381 23.864 642.605 24.44 641.757 25.096C640.925 25.736 640.125 26.44 639.357 27.208C638.605 27.96 637.989 28.752 637.509 29.584C637.029 30.416 636.789 31.272 636.789 32.152C636.789 32.536 636.981 32.728 637.365 32.728C637.893 32.728 638.469 32.48 639.093 31.984C639.733 31.472 640.389 30.768 641.061 29.872C641.733 28.96 642.405 27.896 643.077 26.68C643.749 25.448 644.397 24.112 645.021 22.672ZM649.42 26.32C648.988 26.288 648.788 26.008 648.82 25.48C648.836 25.352 648.924 25.2 649.084 25.024C649.244 24.832 649.428 24.728 649.636 24.712C650.132 24.664 650.74 24.592 651.46 24.496C652.196 24.384 653.004 24.256 653.884 24.112C654.044 23.328 654.236 22.504 654.46 21.64C654.684 20.776 654.932 19.936 655.204 19.12C655.476 18.288 655.764 17.536 656.068 16.864C656.372 16.192 656.692 15.664 657.028 15.28C657.204 15.104 657.364 14.984 657.508 14.92C657.652 14.84 657.78 14.8 657.892 14.8C658.116 14.8 658.292 14.896 658.42 15.088C658.564 15.28 658.636 15.496 658.636 15.736C658.636 15.864 658.612 15.992 658.564 16.12C658.244 17.016 657.9 18.12 657.532 19.432C657.164 20.744 656.772 22.176 656.356 23.728C657.828 23.488 659.3 23.232 660.772 22.96C662.244 22.688 663.508 22.44 664.564 22.216C664.868 22.088 665.1 22.112 665.26 22.288C665.436 22.464 665.524 22.64 665.524 22.816C665.524 23.04 665.46 23.208 665.332 23.32C665.22 23.432 665.1 23.528 664.972 23.608L664.948 23.632C664.628 23.76 664.148 23.912 663.508 24.088C662.868 24.248 662.132 24.424 661.3 24.616C660.468 24.792 659.58 24.968 658.636 25.144C657.708 25.32 656.788 25.48 655.876 25.624C655.508 27.032 655.132 28.48 654.748 29.968C654.38 31.44 654.012 32.888 653.644 34.312C653.484 34.888 653.3 35.248 653.092 35.392C652.9 35.552 652.692 35.632 652.468 35.632C652.212 35.632 651.988 35.536 651.796 35.344C651.62 35.152 651.596 34.76 651.724 34.168L653.476 25.984C652.516 26.128 651.668 26.232 650.932 26.296C650.212 26.36 649.708 26.368 649.42 26.32ZM664.878 35.632C664.606 35.632 664.374 35.48 664.182 35.176C663.99 34.888 663.894 34.552 663.894 34.168C663.894 34.008 663.926 33.864 663.99 33.736C664.07 33.608 664.19 33.512 664.35 33.448C664.526 33.368 664.702 33.296 664.878 33.232C665.07 33.152 665.262 33.072 665.454 32.992C665.406 32.864 665.366 32.712 665.334 32.536C665.302 32.36 665.286 32.152 665.286 31.912C665.286 31.736 665.318 31.4 665.382 30.904C665.462 30.392 665.566 29.784 665.694 29.08C665.822 28.376 665.958 27.632 666.102 26.848C666.262 26.048 666.414 25.272 666.558 24.52C666.718 23.752 666.862 23.064 666.99 22.456C667.278 21.144 667.63 19.968 668.046 18.928C668.478 17.888 669.054 17.072 669.774 16.48C670.51 15.872 671.478 15.568 672.678 15.568C673.59 15.568 674.486 15.768 675.366 16.168C676.262 16.568 677.07 17.136 677.79 17.872C678.526 18.592 679.11 19.44 679.542 20.416C679.974 21.392 680.19 22.456 680.19 23.608C680.19 24.6 679.958 25.544 679.494 26.44C679.03 27.32 678.406 28.152 677.622 28.936C676.838 29.72 675.942 30.448 674.934 31.12C673.942 31.792 672.902 32.408 671.814 32.968C670.742 33.512 669.686 33.992 668.646 34.408C667.606 34.84 666.646 35.2 665.766 35.488C665.654 35.52 665.518 35.552 665.358 35.584C665.198 35.616 665.038 35.632 664.878 35.632ZM667.158 32.32C668.55 31.744 669.902 31.152 671.214 30.544C672.542 29.936 673.734 29.264 674.79 28.528C675.846 27.776 676.686 26.936 677.31 26.008C677.934 25.08 678.246 24.016 678.246 22.816C678.246 22.192 678.102 21.584 677.814 20.992C677.526 20.4 677.126 19.872 676.614 19.408C676.118 18.928 675.55 18.552 674.91 18.28C674.286 17.992 673.63 17.848 672.942 17.848C672.318 17.848 671.758 18.008 671.262 18.328C670.782 18.632 670.366 19.176 670.014 19.96C669.662 20.744 669.358 21.832 669.102 23.224C668.91 24.088 668.71 25.024 668.502 26.032C668.294 27.024 668.086 27.976 667.878 28.888C667.686 29.784 667.526 30.544 667.398 31.168C667.27 31.776 667.198 32.128 667.182 32.224C667.182 32.256 667.174 32.288 667.158 32.32ZM683.93 41.128C683.658 41.128 683.442 41.032 683.282 40.84C683.138 40.648 683.066 40.28 683.066 39.736C683.066 38.952 683.122 38.04 683.234 37C683.346 35.96 683.498 34.856 683.69 33.688C683.898 32.52 684.122 31.352 684.362 30.184C684.618 29.016 684.882 27.904 685.154 26.848C685.442 25.792 685.722 24.856 685.994 24.04C686.266 23.208 686.514 22.552 686.738 22.072C686.978 21.592 687.186 21.352 687.362 21.352C687.666 21.352 687.906 21.44 688.082 21.616C688.274 21.792 688.37 22.056 688.37 22.408C688.37 22.856 688.234 23.584 687.962 24.592C687.69 25.584 687.338 26.88 686.906 28.48C687.306 27.744 687.738 26.976 688.202 26.176C688.666 25.376 689.154 24.6 689.666 23.848C690.178 23.08 690.69 22.392 691.202 21.784C691.73 21.176 692.242 20.688 692.738 20.32C693.234 19.952 693.714 19.768 694.178 19.768C694.674 19.768 695.114 19.928 695.498 20.248C695.882 20.552 696.178 20.968 696.386 21.496C696.61 22.008 696.722 22.584 696.722 23.224C696.722 24.552 696.498 25.84 696.05 27.088C695.602 28.32 694.978 29.432 694.178 30.424C693.394 31.4 692.466 32.176 691.394 32.752C690.338 33.328 689.194 33.616 687.962 33.616C687.498 33.616 687.082 33.592 686.714 33.544C686.346 33.496 686.026 33.44 685.754 33.376C685.562 34.432 685.378 35.52 685.202 36.64C685.026 37.76 684.85 38.952 684.674 40.216C684.626 40.552 684.546 40.784 684.434 40.912C684.322 41.056 684.154 41.128 683.93 41.128ZM694.61 21.592C694.274 21.592 693.874 21.784 693.41 22.168C692.962 22.552 692.474 23.064 691.946 23.704C691.434 24.328 690.914 25.024 690.386 25.792C689.858 26.544 689.346 27.312 688.85 28.096C688.354 28.88 687.898 29.608 687.482 30.28C687.082 30.952 686.754 31.512 686.498 31.96C687.746 31.928 688.842 31.68 689.786 31.216C690.73 30.736 691.538 30.128 692.21 29.392C692.882 28.64 693.426 27.832 693.842 26.968C694.274 26.088 694.586 25.24 694.778 24.424C694.97 23.592 695.066 22.872 695.066 22.264C695.066 21.816 694.914 21.592 694.61 21.592ZM706.889 34.576C706.617 34.576 706.385 34.456 706.193 34.216C706.001 33.976 705.905 33.624 705.905 33.16C705.905 32.616 705.985 31.84 706.145 30.832C706.321 29.824 706.577 28.488 706.913 26.824C706.481 27.848 706.001 28.816 705.473 29.728C704.961 30.64 704.417 31.384 703.841 31.96C703.265 32.536 702.673 32.824 702.065 32.824C701.473 32.824 700.945 32.592 700.481 32.128C700.033 31.664 699.809 30.848 699.809 29.68C699.809 29.024 699.865 28.288 699.977 27.472C700.089 26.64 700.233 25.816 700.409 25C700.585 24.184 700.761 23.456 700.937 22.816C701.113 22.16 701.273 21.68 701.417 21.376C701.529 21.12 701.641 20.952 701.753 20.872C701.865 20.776 702.017 20.728 702.209 20.728C702.433 20.728 702.673 20.824 702.929 21.016C703.185 21.208 703.313 21.528 703.313 21.976C703.313 22.088 703.257 22.352 703.145 22.768C703.049 23.168 702.921 23.664 702.761 24.256C702.617 24.832 702.465 25.456 702.305 26.128C702.145 26.8 702.009 27.472 701.897 28.144C701.801 28.816 701.753 29.432 701.753 29.992C701.753 30.296 701.785 30.544 701.849 30.736C701.913 30.928 702.073 31.024 702.329 31.024C702.553 31.024 702.833 30.8 703.169 30.352C703.521 29.904 703.897 29.312 704.297 28.576C704.713 27.824 705.137 26.992 705.569 26.08C706.017 25.168 706.449 24.232 706.865 23.272C707.297 22.312 707.689 21.4 708.041 20.536C708.169 20.248 708.305 20.072 708.449 20.008C708.593 19.928 708.753 19.888 708.929 19.888C709.217 19.888 709.473 20.008 709.697 20.248C709.937 20.472 710.057 20.768 710.057 21.136C710.057 21.376 710.009 21.792 709.913 22.384C709.833 22.976 709.713 23.672 709.553 24.472C709.409 25.256 709.241 26.088 709.049 26.968C708.873 27.848 708.697 28.72 708.521 29.584C708.345 30.432 708.177 31.208 708.017 31.912C707.873 32.616 707.753 33.184 707.657 33.616C707.577 34.016 707.465 34.272 707.321 34.384C707.193 34.512 707.049 34.576 706.889 34.576ZM731.879 33.28C731.863 33.536 731.759 33.744 731.567 33.904C731.375 34.064 731.151 34.144 730.895 34.144C730.607 34.144 730.367 34.048 730.175 33.856C729.983 33.664 729.887 33.368 729.887 32.968C729.887 31.928 729.935 30.8 730.031 29.584C730.127 28.352 730.247 27.136 730.391 25.936C730.535 24.72 730.679 23.6 730.823 22.576C730.295 23.328 729.719 24.16 729.095 25.072C728.487 25.984 727.863 26.888 727.223 27.784C726.583 28.68 725.959 29.504 725.351 30.256C724.743 30.992 724.191 31.592 723.695 32.056C723.199 32.504 722.791 32.728 722.471 32.728C721.879 32.728 721.367 32.496 720.935 32.032C720.503 31.552 720.287 30.952 720.287 30.232C720.287 29.944 720.319 29.552 720.383 29.056C720.447 28.544 720.519 28.008 720.599 27.448C720.679 26.888 720.751 26.368 720.815 25.888C720.879 25.392 720.911 25.024 720.911 24.784C720.911 24.56 720.887 24.368 720.839 24.208C720.807 24.032 720.727 23.944 720.599 23.944C720.407 23.944 720.143 24.16 719.807 24.592C719.471 25.008 719.095 25.544 718.679 26.2C718.279 26.856 717.863 27.552 717.431 28.288C717.015 29.024 716.623 29.72 716.255 30.376C715.887 31.016 715.575 31.52 715.319 31.888C715.111 32.24 714.919 32.496 714.743 32.656C714.567 32.816 714.351 32.896 714.095 32.896C713.791 32.896 713.511 32.736 713.255 32.416C713.015 32.096 712.895 31.704 712.895 31.24C712.895 30.968 712.943 30.544 713.039 29.968C713.135 29.376 713.255 28.728 713.399 28.024C713.559 27.32 713.711 26.632 713.855 25.96C714.015 25.272 714.151 24.688 714.263 24.208C714.391 23.664 714.551 23.296 714.743 23.104C714.935 22.912 715.143 22.816 715.367 22.816C715.671 22.816 715.911 22.928 716.087 23.152C716.279 23.36 716.375 23.688 716.375 24.136C716.375 24.216 716.327 24.432 716.231 24.784C716.135 25.12 716.015 25.536 715.871 26.032C715.743 26.512 715.599 27.016 715.439 27.544C715.295 28.072 715.175 28.56 715.079 29.008C715.431 28.416 715.799 27.776 716.183 27.088C716.583 26.4 716.983 25.72 717.383 25.048C717.783 24.36 718.183 23.736 718.583 23.176C718.983 22.6 719.375 22.144 719.759 21.808C720.143 21.472 720.511 21.304 720.863 21.304C721.279 21.304 721.663 21.432 722.015 21.688C722.383 21.944 722.679 22.288 722.903 22.72C723.127 23.152 723.239 23.632 723.239 24.16C723.239 24.528 723.175 25.048 723.047 25.72C722.919 26.376 722.783 27.088 722.639 27.856C722.511 28.624 722.431 29.352 722.399 30.04C722.399 30.2 722.447 30.28 722.543 30.28C722.623 30.28 722.719 30.224 722.831 30.112C723.295 29.6 723.807 28.984 724.367 28.264C724.927 27.528 725.495 26.752 726.071 25.936C726.663 25.12 727.247 24.32 727.823 23.536C728.399 22.736 728.935 22.016 729.431 21.376C729.943 20.72 730.391 20.2 730.775 19.816C731.175 19.432 731.487 19.24 731.711 19.24C732.191 19.24 732.559 19.376 732.815 19.648C733.071 19.92 733.199 20.376 733.199 21.016C733.199 21.528 733.159 22.192 733.079 23.008C733.015 23.824 732.927 24.712 732.815 25.672C732.719 26.632 732.607 27.6 732.479 28.576C732.367 29.536 732.255 30.432 732.143 31.264C732.031 32.08 731.943 32.752 731.879 33.28ZM736.875 41.128C736.603 41.128 736.387 41.032 736.227 40.84C736.083 40.648 736.011 40.28 736.011 39.736C736.011 38.952 736.067 38.04 736.179 37C736.291 35.96 736.443 34.856 736.635 33.688C736.843 32.52 737.067 31.352 737.307 30.184C737.563 29.016 737.827 27.904 738.099 26.848C738.387 25.792 738.667 24.856 738.939 24.04C739.211 23.208 739.459 22.552 739.683 22.072C739.923 21.592 740.131 21.352 740.307 21.352C740.611 21.352 740.851 21.44 741.027 21.616C741.219 21.792 741.315 22.056 741.315 22.408C741.315 22.856 741.179 23.584 740.907 24.592C740.635 25.584 740.283 26.88 739.851 28.48C740.251 27.744 740.683 26.976 741.147 26.176C741.611 25.376 742.099 24.6 742.611 23.848C743.123 23.08 743.635 22.392 744.147 21.784C744.675 21.176 745.187 20.688 745.683 20.32C746.179 19.952 746.659 19.768 747.123 19.768C747.619 19.768 748.059 19.928 748.443 20.248C748.827 20.552 749.123 20.968 749.331 21.496C749.555 22.008 749.667 22.584 749.667 23.224C749.667 24.552 749.443 25.84 748.995 27.088C748.547 28.32 747.923 29.432 747.123 30.424C746.339 31.4 745.411 32.176 744.339 32.752C743.283 33.328 742.139 33.616 740.907 33.616C740.443 33.616 740.027 33.592 739.659 33.544C739.291 33.496 738.971 33.44 738.699 33.376C738.507 34.432 738.323 35.52 738.147 36.64C737.971 37.76 737.795 38.952 737.619 40.216C737.571 40.552 737.491 40.784 737.379 40.912C737.267 41.056 737.099 41.128 736.875 41.128ZM747.555 21.592C747.219 21.592 746.819 21.784 746.355 22.168C745.907 22.552 745.419 23.064 744.891 23.704C744.379 24.328 743.859 25.024 743.331 25.792C742.803 26.544 742.291 27.312 741.795 28.096C741.299 28.88 740.843 29.608 740.427 30.28C740.027 30.952 739.699 31.512 739.443 31.96C740.691 31.928 741.787 31.68 742.731 31.216C743.675 30.736 744.483 30.128 745.155 29.392C745.827 28.64 746.371 27.832 746.787 26.968C747.219 26.088 747.531 25.24 747.723 24.424C747.915 23.592 748.011 22.872 748.011 22.264C748.011 21.816 747.859 21.592 747.555 21.592Z" fill="black"/>
<rect x="0.5" y="0.5" width="764" height="48" rx="19.5" stroke="black"/>
<rect x="777" width="109" height="49" rx="20" fill="black"/>
<path d="M814.032 29.448C814.208 29.448 814.376 29.52 814.536 29.664C814.696 29.808 814.776 30.04 814.776 30.36C814.776 30.616 814.584 30.92 814.2 31.272C813.816 31.608 813.32 31.936 812.712 32.256C812.12 32.576 811.48 32.84 810.792 33.048C810.104 33.272 809.456 33.384 808.848 33.384C807.984 33.384 807.168 33.16 806.4 32.712C805.648 32.264 805.032 31.616 804.552 30.768C804.072 29.904 803.832 28.856 803.832 27.624C803.832 26.536 804.032 25.448 804.432 24.36C804.832 23.272 805.36 22.224 806.016 21.216C806.688 20.208 807.424 19.272 808.224 18.408C809.04 17.544 809.856 16.792 810.672 16.152C811.488 15.512 812.248 15.016 812.952 14.664C813.672 14.296 814.264 14.112 814.728 14.112C815.048 14.112 815.304 14.232 815.496 14.472C815.704 14.696 815.808 14.944 815.808 15.216C815.808 15.376 815.76 15.536 815.664 15.696C815.584 15.856 815.44 15.984 815.232 16.08C814.192 16.592 813.136 17.248 812.064 18.048C810.992 18.848 810 19.76 809.088 20.784C808.176 21.792 807.44 22.888 806.88 24.072C806.32 25.24 806.04 26.472 806.04 27.768C806.04 28.888 806.304 29.744 806.832 30.336C807.36 30.912 808.08 31.2 808.992 31.2C809.472 31.2 809.968 31.112 810.48 30.936C811.008 30.76 811.504 30.56 811.968 30.336C812.448 30.096 812.864 29.888 813.216 29.712C813.584 29.536 813.856 29.448 814.032 29.448ZM822.933 33.24C821.989 33.24 821.245 32.88 820.701 32.16C820.157 31.44 819.885 30.504 819.885 29.352C819.885 28.936 819.941 28.496 820.053 28.032C820.181 27.552 820.341 27.12 820.533 26.736C820.421 26.624 820.333 26.472 820.269 26.28C820.205 26.072 820.173 25.816 820.173 25.512C820.173 24.568 820.333 23.704 820.653 22.92C820.973 22.136 821.397 21.456 821.925 20.88C822.453 20.288 823.037 19.832 823.677 19.512C824.333 19.192 824.997 19.032 825.669 19.032C826.773 19.032 827.669 19.432 828.357 20.232C829.045 21.016 829.389 22.216 829.389 23.832C829.389 24.68 829.261 25.544 829.005 26.424C828.765 27.304 828.429 28.152 827.997 28.968C827.581 29.784 827.093 30.512 826.533 31.152C825.989 31.792 825.405 32.304 824.781 32.688C824.173 33.056 823.557 33.24 822.933 33.24ZM822.117 25.92C822.213 26.048 822.261 26.216 822.261 26.424C822.261 26.664 822.213 26.904 822.117 27.144C822.037 27.384 821.949 27.712 821.853 28.128C821.757 28.544 821.709 29.136 821.709 29.904C821.709 30.672 822.013 31.056 822.621 31.056C823.293 31.056 823.917 30.792 824.493 30.264C825.069 29.72 825.581 29.024 826.029 28.176C826.477 27.328 826.821 26.424 827.061 25.464C827.317 24.488 827.445 23.568 827.445 22.704C827.445 22.144 827.341 21.752 827.133 21.528C826.925 21.288 826.549 21.168 826.005 21.168C825.445 21.168 824.861 21.36 824.253 21.744C823.661 22.112 823.165 22.616 822.765 23.256C822.365 23.896 822.165 24.616 822.165 25.416C822.165 25.592 822.149 25.76 822.117 25.92ZM832.454 40.128C832.182 40.128 831.966 40.032 831.806 39.84C831.662 39.648 831.59 39.28 831.59 38.736C831.59 37.952 831.646 37.04 831.758 36C831.87 34.96 832.022 33.856 832.214 32.688C832.422 31.52 832.646 30.352 832.886 29.184C833.142 28.016 833.406 26.904 833.678 25.848C833.966 24.792 834.246 23.856 834.518 23.04C834.79 22.208 835.038 21.552 835.262 21.072C835.502 20.592 835.71 20.352 835.886 20.352C836.19 20.352 836.43 20.44 836.605 20.616C836.798 20.792 836.894 21.056 836.894 21.408C836.894 21.856 836.758 22.584 836.486 23.592C836.214 24.584 835.862 25.88 835.43 27.48C835.83 26.744 836.262 25.976 836.726 25.176C837.19 24.376 837.678 23.6 838.19 22.848C838.702 22.08 839.214 21.392 839.726 20.784C840.254 20.176 840.766 19.688 841.262 19.32C841.758 18.952 842.238 18.768 842.702 18.768C843.198 18.768 843.638 18.928 844.022 19.248C844.406 19.552 844.702 19.968 844.91 20.496C845.134 21.008 845.246 21.584 845.246 22.224C845.246 23.552 845.022 24.84 844.574 26.088C844.126 27.32 843.502 28.432 842.702 29.424C841.918 30.4 840.99 31.176 839.918 31.752C838.862 32.328 837.718 32.616 836.486 32.616C836.022 32.616 835.606 32.592 835.238 32.544C834.87 32.496 834.55 32.44 834.278 32.376C834.086 33.432 833.902 34.52 833.726 35.64C833.55 36.76 833.374 37.952 833.198 39.216C833.15 39.552 833.07 39.784 832.958 39.912C832.846 40.056 832.678 40.128 832.454 40.128ZM843.134 20.592C842.798 20.592 842.398 20.784 841.934 21.168C841.486 21.552 840.998 22.064 840.47 22.704C839.958 23.328 839.438 24.024 838.91 24.792C838.382 25.544 837.87 26.312 837.374 27.096C836.878 27.88 836.422 28.608 836.006 29.28C835.606 29.952 835.278 30.512 835.022 30.96C836.27 30.928 837.366 30.68 838.31 30.216C839.254 29.736 840.062 29.128 840.734 28.392C841.406 27.64 841.95 26.832 842.366 25.968C842.798 25.088 843.11 24.24 843.302 23.424C843.494 22.592 843.59 21.872 843.59 21.264C843.59 20.816 843.438 20.592 843.134 20.592ZM851.069 39.168C850.269 39.168 849.533 39.112 848.861 39C848.205 38.904 847.557 38.744 846.917 38.52C846.277 38.312 845.58 38.04 844.828 37.704C844.604 37.592 844.404 37.456 844.229 37.296C844.052 37.152 843.964 36.984 843.964 36.792C843.964 36.552 844.116 36.296 844.42 36.024C844.708 35.768 844.98 35.64 845.236 35.64C845.508 35.64 845.845 35.736 846.245 35.928C846.661 36.12 847.141 36.344 847.685 36.6C848.229 36.872 848.829 37.104 849.485 37.296C850.157 37.488 850.877 37.584 851.645 37.584C852.477 37.584 853.261 37.24 853.997 36.552C854.733 35.864 855.333 34.872 855.797 33.576C856.261 32.296 856.493 30.752 856.493 28.944C856.493 28.4 856.477 27.8 856.445 27.144C856.429 26.472 856.397 25.768 856.349 25.032C855.965 25.864 855.533 26.688 855.053 27.504C854.589 28.32 854.101 29.056 853.589 29.712C853.093 30.368 852.573 30.896 852.029 31.296C851.501 31.68 850.965 31.872 850.421 31.872C849.733 31.872 849.237 31.696 848.933 31.344C848.629 30.992 848.477 30.448 848.477 29.712C848.477 28.944 848.533 28.112 848.645 27.216C848.757 26.32 848.901 25.416 849.077 24.504C849.269 23.576 849.493 22.696 849.749 21.864C850.005 21.032 850.277 20.312 850.565 19.704C850.725 19.384 850.965 19.224 851.285 19.224C851.509 19.224 851.725 19.344 851.933 19.584C852.157 19.808 852.269 20.104 852.269 20.472C852.269 20.76 852.205 21.168 852.077 21.696C851.949 22.224 851.789 22.824 851.597 23.496C851.405 24.168 851.213 24.872 851.021 25.608C850.829 26.328 850.669 27.04 850.541 27.744C850.413 28.432 850.349 29.064 850.349 29.64C850.349 29.88 850.509 30 850.829 30C851.005 30 851.253 29.84 851.573 29.52C851.909 29.184 852.277 28.752 852.677 28.224C853.093 27.68 853.509 27.088 853.925 26.448C854.357 25.792 854.773 25.144 855.173 24.504C855.573 23.848 855.917 23.248 856.205 22.704C856.189 22.576 856.181 22.456 856.181 22.344C856.181 22.232 856.181 22.128 856.181 22.032C856.181 21.248 856.261 20.76 856.421 20.568C856.597 20.36 856.821 20.256 857.093 20.256C857.557 20.256 857.885 20.36 858.077 20.568C858.269 20.776 858.365 21.136 858.365 21.648C858.365 21.84 858.341 22.048 858.293 22.272C858.245 22.48 858.165 22.784 858.053 23.184C858.181 24.448 858.285 25.584 858.365 26.592C858.461 27.6 858.509 28.616 858.509 29.64C858.509 31.576 858.197 33.256 857.573 34.68C856.965 36.104 856.101 37.208 854.981 37.992C853.877 38.776 852.573 39.168 851.069 39.168Z" fill="white"/>
</svg>
