<svg width="1342" height="83" viewBox="0 0 1342 83" fill="none" xmlns="http://www.w3.org/2000/svg">
<rect width="1342" height="83" fill="white"/>
<path d="M15.12 14.52V9.4C15.12 6.84 15.952 4.728 16.976 4.728H18C19.024 4.728 19.856 6.84 19.856 9.4V14.52C25.872 15.288 31.184 18.808 31.696 23.672C32.144 27.256 30.736 28.728 25.424 28.728C18.192 28.728 20.176 25.784 20.176 23.672C20.176 22.584 18.576 21.624 17.488 21.624C16.336 21.624 15.44 22.584 15.44 23.672V31.096C15.44 35.64 31.696 31.16 31.696 47.352V49.912C31.696 53.56 26.576 58.104 19.856 59V64.12C19.856 66.68 19.024 68.856 18 68.856H16.976C15.952 68.856 15.12 66.68 15.12 64.12V59C9.04 58.296 3.792 54.712 3.216 49.912C2.832 46.264 4.24 44.792 9.552 44.792C16.784 44.792 14.8 47.736 14.8 49.848C14.8 51 16.4 51.896 17.488 51.896C18.576 51.896 19.536 51 19.536 49.848V42.424C19.536 37.88 3.28 42.36 3.28 26.168V23.672C3.28 19.96 8.4 15.416 15.12 14.52ZM46.6945 18.936V32.184C46.6945 32.632 47.0785 33.016 47.5265 33.016C48.3585 33.016 49.1265 33.016 49.9585 33.016C50.4065 33.016 50.7905 32.632 50.7905 32.184C50.7905 27.768 50.7905 23.352 50.7905 18.936C50.7905 16.376 52.9025 14.264 55.4625 14.264H58.2785C60.8385 14.264 62.9505 16.376 62.9505 18.936V54.328C62.9505 56.888 60.8385 59 58.2785 59H55.4625C52.9025 59 50.7905 56.888 50.7905 54.328V41.08C50.7905 40.632 50.4065 40.248 49.9585 40.248C49.1265 40.248 48.3585 40.248 47.5265 40.248C47.0785 40.248 46.6945 40.632 46.6945 41.08C46.6945 45.496 46.6945 49.912 46.6945 54.328C46.6945 56.888 44.5825 59 42.0225 59H39.2065C36.6465 59 34.5345 56.888 34.5345 54.328V18.936C34.5345 16.376 36.6465 14.264 39.2065 14.264H42.0225C44.5825 14.264 46.6945 16.376 46.6945 18.936ZM77.556 49.72C77.556 50.872 78.516 51.768 79.604 51.768C80.692 51.768 81.652 50.872 81.652 49.72V23.544C81.652 22.456 80.692 21.496 79.604 21.496C78.516 21.496 77.556 22.456 77.556 23.544V49.72ZM79.604 14.264C87.412 14.264 93.812 20.664 93.812 28.472V44.792C93.812 52.6 87.412 59 79.604 59C71.796 59 65.396 52.6 65.396 44.792V28.472C65.396 20.664 71.796 14.264 79.604 14.264ZM111.646 14.264C118.814 14.264 124.638 20.088 124.638 27.256C124.638 31.224 122.846 34.872 119.966 37.24C121.566 38.008 122.718 39.608 122.974 41.336C124.51 53.112 123.102 42.552 124.638 54.328C124.958 56.952 123.102 59.064 120.542 59.064H117.726C115.166 59.064 112.734 56.888 112.414 54.328L110.75 41.336C110.686 40.952 110.686 40.632 110.75 40.248H109.214C108.766 40.248 108.382 40.632 108.382 41.08V54.328C108.382 56.888 106.27 59 103.71 59H100.894C98.334 59 96.222 56.888 96.222 54.328V18.936C96.222 16.376 98.334 14.264 100.894 14.264H111.646ZM112.478 30.968V23.544C112.478 22.456 111.518 21.496 110.43 21.496H109.214C108.766 21.496 108.382 21.88 108.382 22.328V32.184C108.382 32.632 108.766 33.016 109.214 33.016H110.43C111.518 33.016 112.478 32.056 112.478 30.968ZM127.035 18.936C127.035 16.376 129.147 14.264 131.707 14.264H134.523C136.315 14.264 137.915 15.288 138.683 16.76C138.939 17.336 139.131 17.912 139.195 18.552L143.291 32.376V18.936C143.291 16.376 145.403 14.264 147.963 14.264H150.779C153.339 14.264 155.451 16.376 155.451 18.936V54.328C155.451 56.888 153.339 59 150.779 59H147.963C145.915 59 144.187 57.72 143.547 55.864L139.195 42.872V54.328C139.195 56.888 137.083 59 134.523 59H131.707C129.147 59 127.035 56.888 127.035 54.328V18.936ZM162.696 14.264C163.72 14.264 164.68 14.264 165.576 14.264C167.88 14.264 169.8 15.8 170.248 18.04C170.632 20.152 172.04 23.672 173.32 29.432C173.384 29.624 173.576 29.816 173.768 29.752C174.024 29.752 174.088 29.56 174.152 29.368C175.24 26.68 176.52 23.736 178.056 17.848C178.632 15.672 180.424 14.264 182.664 14.264C183.56 14.264 184.584 14.264 185.608 14.264C187.08 14.264 188.424 14.904 189.32 16.056C190.216 17.272 190.536 18.68 190.152 20.152C189.768 21.624 184.392 31.096 180.232 36.472V54.328C180.232 56.888 178.12 59 175.56 59H172.744C170.184 59 168.008 56.888 168.008 54.328V36.92C163.912 31.736 158.856 22.2 158.152 20.152C157.64 18.744 158.024 17.272 158.984 16.056C159.88 14.904 161.16 14.264 162.696 14.264ZM242.87 14.52V9.4C242.87 6.84 243.702 4.728 244.726 4.728H245.75C246.774 4.728 247.606 6.84 247.606 9.4V14.52C253.622 15.288 258.934 18.808 259.446 23.672C259.894 27.256 258.486 28.728 253.174 28.728C245.942 28.728 247.926 25.784 247.926 23.672C247.926 22.584 246.326 21.624 245.238 21.624C244.086 21.624 243.19 22.584 243.19 23.672V31.096C243.19 35.64 259.446 31.16 259.446 47.352V49.912C259.446 53.56 254.326 58.104 247.606 59V64.12C247.606 66.68 246.774 68.856 245.75 68.856H244.726C243.702 68.856 242.87 66.68 242.87 64.12V59C236.79 58.296 231.542 54.712 230.966 49.912C230.582 46.264 231.99 44.792 237.302 44.792C244.534 44.792 242.55 47.736 242.55 49.848C242.55 51 244.15 51.896 245.238 51.896C246.326 51.896 247.286 51 247.286 49.848V42.424C247.286 37.88 231.03 42.36 231.03 26.168V23.672C231.03 19.96 236.15 15.416 242.87 14.52ZM274.445 18.936V32.184C274.445 32.632 274.829 33.016 275.277 33.016C276.109 33.016 276.877 33.016 277.708 33.016C278.157 33.016 278.541 32.632 278.541 32.184C278.541 27.768 278.541 23.352 278.541 18.936C278.541 16.376 280.653 14.264 283.213 14.264H286.029C288.589 14.264 290.701 16.376 290.701 18.936V54.328C290.701 56.888 288.589 59 286.029 59H283.213C280.653 59 278.541 56.888 278.541 54.328V41.08C278.541 40.632 278.157 40.248 277.708 40.248C276.877 40.248 276.109 40.248 275.277 40.248C274.829 40.248 274.445 40.632 274.445 41.08C274.445 45.496 274.445 49.912 274.445 54.328C274.445 56.888 272.333 59 269.773 59H266.957C264.397 59 262.285 56.888 262.285 54.328V18.936C262.285 16.376 264.397 14.264 266.957 14.264H269.773C272.333 14.264 274.445 16.376 274.445 18.936ZM305.306 49.72C305.306 50.872 306.266 51.768 307.354 51.768C308.442 51.768 309.402 50.872 309.402 49.72V23.544C309.402 22.456 308.442 21.496 307.354 21.496C306.266 21.496 305.306 22.456 305.306 23.544V49.72ZM307.354 14.264C315.162 14.264 321.562 20.664 321.562 28.472V44.792C321.562 52.6 315.162 59 307.354 59C299.546 59 293.146 52.6 293.146 44.792V28.472C293.146 20.664 299.546 14.264 307.354 14.264ZM339.396 14.264C346.564 14.264 352.388 20.088 352.388 27.256C352.388 31.224 350.596 34.872 347.716 37.24C349.316 38.008 350.468 39.608 350.724 41.336C352.26 53.112 350.852 42.552 352.388 54.328C352.708 56.952 350.852 59.064 348.292 59.064H345.476C342.916 59.064 340.484 56.888 340.164 54.328L338.5 41.336C338.436 40.952 338.436 40.632 338.5 40.248H336.964C336.516 40.248 336.132 40.632 336.132 41.08V54.328C336.132 56.888 334.02 59 331.46 59H328.644C326.084 59 323.972 56.888 323.972 54.328V18.936C323.972 16.376 326.084 14.264 328.644 14.264H339.396ZM340.228 30.968V23.544C340.228 22.456 339.268 21.496 338.18 21.496H336.964C336.516 21.496 336.132 21.88 336.132 22.328V32.184C336.132 32.632 336.516 33.016 336.964 33.016H338.18C339.268 33.016 340.228 32.056 340.228 30.968ZM354.785 18.936C354.785 16.376 356.897 14.264 359.457 14.264H362.273C364.065 14.264 365.665 15.288 366.433 16.76C366.689 17.336 366.881 17.912 366.945 18.552L371.041 32.376V18.936C371.041 16.376 373.153 14.264 375.713 14.264H378.529C381.089 14.264 383.201 16.376 383.201 18.936V54.328C383.201 56.888 381.089 59 378.529 59H375.713C373.665 59 371.937 57.72 371.297 55.864L366.945 42.872V54.328C366.945 56.888 364.833 59 362.273 59H359.457C356.897 59 354.785 56.888 354.785 54.328V18.936ZM390.446 14.264C391.47 14.264 392.43 14.264 393.326 14.264C395.63 14.264 397.55 15.8 397.998 18.04C398.382 20.152 399.79 23.672 401.07 29.432C401.134 29.624 401.326 29.816 401.518 29.752C401.774 29.752 401.838 29.56 401.902 29.368C402.99 26.68 404.27 23.736 405.806 17.848C406.382 15.672 408.174 14.264 410.414 14.264C411.31 14.264 412.334 14.264 413.358 14.264C414.83 14.264 416.174 14.904 417.07 16.056C417.966 17.272 418.286 18.68 417.902 20.152C417.518 21.624 412.142 31.096 407.982 36.472V54.328C407.982 56.888 405.87 59 403.31 59H400.494C397.934 59 395.758 56.888 395.758 54.328V36.92C391.662 31.736 386.606 22.2 385.902 20.152C385.39 18.744 385.774 17.272 386.734 16.056C387.63 14.904 388.91 14.264 390.446 14.264ZM470.62 14.52V9.4C470.62 6.84 471.452 4.728 472.476 4.728H473.5C474.524 4.728 475.356 6.84 475.356 9.4V14.52C481.372 15.288 486.684 18.808 487.196 23.672C487.644 27.256 486.236 28.728 480.924 28.728C473.692 28.728 475.676 25.784 475.676 23.672C475.676 22.584 474.076 21.624 472.988 21.624C471.836 21.624 470.94 22.584 470.94 23.672V31.096C470.94 35.64 487.196 31.16 487.196 47.352V49.912C487.196 53.56 482.076 58.104 475.356 59V64.12C475.356 66.68 474.524 68.856 473.5 68.856H472.476C471.452 68.856 470.62 66.68 470.62 64.12V59C464.54 58.296 459.292 54.712 458.716 49.912C458.332 46.264 459.74 44.792 465.052 44.792C472.284 44.792 470.3 47.736 470.3 49.848C470.3 51 471.9 51.896 472.988 51.896C474.076 51.896 475.036 51 475.036 49.848V42.424C475.036 37.88 458.78 42.36 458.78 26.168V23.672C458.78 19.96 463.9 15.416 470.62 14.52ZM502.195 18.936V32.184C502.195 32.632 502.579 33.016 503.027 33.016C503.859 33.016 504.627 33.016 505.458 33.016C505.907 33.016 506.291 32.632 506.291 32.184C506.291 27.768 506.291 23.352 506.291 18.936C506.291 16.376 508.403 14.264 510.963 14.264H513.779C516.339 14.264 518.451 16.376 518.451 18.936V54.328C518.451 56.888 516.339 59 513.779 59H510.963C508.403 59 506.291 56.888 506.291 54.328V41.08C506.291 40.632 505.907 40.248 505.458 40.248C504.627 40.248 503.859 40.248 503.027 40.248C502.579 40.248 502.195 40.632 502.195 41.08C502.195 45.496 502.195 49.912 502.195 54.328C502.195 56.888 500.083 59 497.523 59H494.707C492.147 59 490.035 56.888 490.035 54.328V18.936C490.035 16.376 492.147 14.264 494.707 14.264H497.523C500.083 14.264 502.195 16.376 502.195 18.936ZM533.056 49.72C533.056 50.872 534.016 51.768 535.104 51.768C536.192 51.768 537.152 50.872 537.152 49.72V23.544C537.152 22.456 536.192 21.496 535.104 21.496C534.016 21.496 533.056 22.456 533.056 23.544V49.72ZM535.104 14.264C542.912 14.264 549.312 20.664 549.312 28.472V44.792C549.312 52.6 542.912 59 535.104 59C527.296 59 520.896 52.6 520.896 44.792V28.472C520.896 20.664 527.296 14.264 535.104 14.264ZM567.146 14.264C574.314 14.264 580.138 20.088 580.138 27.256C580.138 31.224 578.346 34.872 575.466 37.24C577.066 38.008 578.218 39.608 578.474 41.336C580.01 53.112 578.602 42.552 580.138 54.328C580.458 56.952 578.602 59.064 576.042 59.064H573.226C570.666 59.064 568.234 56.888 567.914 54.328L566.25 41.336C566.186 40.952 566.186 40.632 566.25 40.248H564.714C564.266 40.248 563.882 40.632 563.882 41.08V54.328C563.882 56.888 561.77 59 559.21 59H556.394C553.834 59 551.722 56.888 551.722 54.328V18.936C551.722 16.376 553.834 14.264 556.394 14.264H567.146ZM567.978 30.968V23.544C567.978 22.456 567.018 21.496 565.93 21.496H564.714C564.266 21.496 563.882 21.88 563.882 22.328V32.184C563.882 32.632 564.266 33.016 564.714 33.016H565.93C567.018 33.016 567.978 32.056 567.978 30.968ZM582.535 18.936C582.535 16.376 584.647 14.264 587.207 14.264H590.023C591.815 14.264 593.415 15.288 594.183 16.76C594.439 17.336 594.631 17.912 594.695 18.552L598.791 32.376V18.936C598.791 16.376 600.903 14.264 603.463 14.264H606.279C608.839 14.264 610.951 16.376 610.951 18.936V54.328C610.951 56.888 608.839 59 606.279 59H603.463C601.415 59 599.687 57.72 599.047 55.864L594.695 42.872V54.328C594.695 56.888 592.583 59 590.023 59H587.207C584.647 59 582.535 56.888 582.535 54.328V18.936ZM618.196 14.264C619.22 14.264 620.18 14.264 621.076 14.264C623.38 14.264 625.3 15.8 625.748 18.04C626.132 20.152 627.54 23.672 628.82 29.432C628.884 29.624 629.076 29.816 629.268 29.752C629.524 29.752 629.588 29.56 629.652 29.368C630.74 26.68 632.02 23.736 633.556 17.848C634.132 15.672 635.924 14.264 638.164 14.264C639.06 14.264 640.084 14.264 641.108 14.264C642.58 14.264 643.924 14.904 644.82 16.056C645.716 17.272 646.036 18.68 645.652 20.152C645.268 21.624 639.892 31.096 635.732 36.472V54.328C635.732 56.888 633.62 59 631.06 59H628.244C625.684 59 623.508 56.888 623.508 54.328V36.92C619.412 31.736 614.356 22.2 613.652 20.152C613.14 18.744 613.524 17.272 614.484 16.056C615.38 14.904 616.66 14.264 618.196 14.264ZM698.37 14.52V9.4C698.37 6.84 699.202 4.728 700.226 4.728H701.25C702.274 4.728 703.106 6.84 703.106 9.4V14.52C709.122 15.288 714.434 18.808 714.946 23.672C715.394 27.256 713.986 28.728 708.674 28.728C701.442 28.728 703.426 25.784 703.426 23.672C703.426 22.584 701.826 21.624 700.738 21.624C699.586 21.624 698.69 22.584 698.69 23.672V31.096C698.69 35.64 714.946 31.16 714.946 47.352V49.912C714.946 53.56 709.826 58.104 703.106 59V64.12C703.106 66.68 702.274 68.856 701.25 68.856H700.226C699.202 68.856 698.37 66.68 698.37 64.12V59C692.29 58.296 687.042 54.712 686.466 49.912C686.082 46.264 687.49 44.792 692.802 44.792C700.034 44.792 698.05 47.736 698.05 49.848C698.05 51 699.65 51.896 700.738 51.896C701.826 51.896 702.786 51 702.786 49.848V42.424C702.786 37.88 686.53 42.36 686.53 26.168V23.672C686.53 19.96 691.65 15.416 698.37 14.52ZM729.945 18.936V32.184C729.945 32.632 730.329 33.016 730.777 33.016C731.609 33.016 732.377 33.016 733.208 33.016C733.657 33.016 734.041 32.632 734.041 32.184C734.041 27.768 734.041 23.352 734.041 18.936C734.041 16.376 736.153 14.264 738.713 14.264H741.529C744.089 14.264 746.201 16.376 746.201 18.936V54.328C746.201 56.888 744.089 59 741.529 59H738.713C736.153 59 734.041 56.888 734.041 54.328V41.08C734.041 40.632 733.657 40.248 733.208 40.248C732.377 40.248 731.609 40.248 730.777 40.248C730.329 40.248 729.945 40.632 729.945 41.08C729.945 45.496 729.945 49.912 729.945 54.328C729.945 56.888 727.833 59 725.273 59H722.457C719.897 59 717.785 56.888 717.785 54.328V18.936C717.785 16.376 719.897 14.264 722.457 14.264H725.273C727.833 14.264 729.945 16.376 729.945 18.936ZM760.806 49.72C760.806 50.872 761.766 51.768 762.854 51.768C763.942 51.768 764.902 50.872 764.902 49.72V23.544C764.902 22.456 763.942 21.496 762.854 21.496C761.766 21.496 760.806 22.456 760.806 23.544V49.72ZM762.854 14.264C770.662 14.264 777.062 20.664 777.062 28.472V44.792C777.062 52.6 770.662 59 762.854 59C755.046 59 748.646 52.6 748.646 44.792V28.472C748.646 20.664 755.046 14.264 762.854 14.264ZM794.896 14.264C802.064 14.264 807.888 20.088 807.888 27.256C807.888 31.224 806.096 34.872 803.216 37.24C804.816 38.008 805.968 39.608 806.224 41.336C807.76 53.112 806.352 42.552 807.888 54.328C808.208 56.952 806.352 59.064 803.792 59.064H800.976C798.416 59.064 795.984 56.888 795.664 54.328L794 41.336C793.936 40.952 793.936 40.632 794 40.248H792.464C792.016 40.248 791.632 40.632 791.632 41.08V54.328C791.632 56.888 789.52 59 786.96 59H784.144C781.584 59 779.472 56.888 779.472 54.328V18.936C779.472 16.376 781.584 14.264 784.144 14.264H794.896ZM795.728 30.968V23.544C795.728 22.456 794.768 21.496 793.68 21.496H792.464C792.016 21.496 791.632 21.88 791.632 22.328V32.184C791.632 32.632 792.016 33.016 792.464 33.016H793.68C794.768 33.016 795.728 32.056 795.728 30.968ZM810.285 18.936C810.285 16.376 812.397 14.264 814.957 14.264H817.773C819.565 14.264 821.165 15.288 821.933 16.76C822.189 17.336 822.381 17.912 822.445 18.552L826.541 32.376V18.936C826.541 16.376 828.653 14.264 831.213 14.264H834.029C836.589 14.264 838.701 16.376 838.701 18.936V54.328C838.701 56.888 836.589 59 834.029 59H831.213C829.165 59 827.437 57.72 826.797 55.864L822.445 42.872V54.328C822.445 56.888 820.333 59 817.773 59H814.957C812.397 59 810.285 56.888 810.285 54.328V18.936ZM845.946 14.264C846.97 14.264 847.93 14.264 848.826 14.264C851.13 14.264 853.05 15.8 853.498 18.04C853.882 20.152 855.29 23.672 856.57 29.432C856.634 29.624 856.826 29.816 857.018 29.752C857.274 29.752 857.338 29.56 857.402 29.368C858.49 26.68 859.77 23.736 861.306 17.848C861.882 15.672 863.674 14.264 865.914 14.264C866.81 14.264 867.834 14.264 868.858 14.264C870.33 14.264 871.674 14.904 872.57 16.056C873.466 17.272 873.786 18.68 873.402 20.152C873.018 21.624 867.642 31.096 863.482 36.472V54.328C863.482 56.888 861.37 59 858.81 59H855.994C853.434 59 851.258 56.888 851.258 54.328V36.92C847.162 31.736 842.106 22.2 841.402 20.152C840.89 18.744 841.274 17.272 842.234 16.056C843.13 14.904 844.41 14.264 845.946 14.264ZM926.12 14.52V9.4C926.12 6.84 926.952 4.728 927.976 4.728H929C930.024 4.728 930.856 6.84 930.856 9.4V14.52C936.872 15.288 942.184 18.808 942.696 23.672C943.144 27.256 941.736 28.728 936.424 28.728C929.192 28.728 931.176 25.784 931.176 23.672C931.176 22.584 929.576 21.624 928.488 21.624C927.336 21.624 926.44 22.584 926.44 23.672V31.096C926.44 35.64 942.696 31.16 942.696 47.352V49.912C942.696 53.56 937.576 58.104 930.856 59V64.12C930.856 66.68 930.024 68.856 929 68.856H927.976C926.952 68.856 926.12 66.68 926.12 64.12V59C920.04 58.296 914.792 54.712 914.216 49.912C913.832 46.264 915.24 44.792 920.552 44.792C927.784 44.792 925.8 47.736 925.8 49.848C925.8 51 927.4 51.896 928.488 51.896C929.576 51.896 930.536 51 930.536 49.848V42.424C930.536 37.88 914.28 42.36 914.28 26.168V23.672C914.28 19.96 919.4 15.416 926.12 14.52ZM957.695 18.936V32.184C957.695 32.632 958.079 33.016 958.527 33.016C959.359 33.016 960.127 33.016 960.958 33.016C961.407 33.016 961.791 32.632 961.791 32.184C961.791 27.768 961.791 23.352 961.791 18.936C961.791 16.376 963.903 14.264 966.463 14.264H969.279C971.839 14.264 973.951 16.376 973.951 18.936V54.328C973.951 56.888 971.839 59 969.279 59H966.463C963.903 59 961.791 56.888 961.791 54.328V41.08C961.791 40.632 961.407 40.248 960.958 40.248C960.127 40.248 959.359 40.248 958.527 40.248C958.079 40.248 957.695 40.632 957.695 41.08C957.695 45.496 957.695 49.912 957.695 54.328C957.695 56.888 955.583 59 953.023 59H950.207C947.647 59 945.535 56.888 945.535 54.328V18.936C945.535 16.376 947.647 14.264 950.207 14.264H953.023C955.583 14.264 957.695 16.376 957.695 18.936ZM988.556 49.72C988.556 50.872 989.516 51.768 990.604 51.768C991.692 51.768 992.652 50.872 992.652 49.72V23.544C992.652 22.456 991.692 21.496 990.604 21.496C989.516 21.496 988.556 22.456 988.556 23.544V49.72ZM990.604 14.264C998.412 14.264 1004.81 20.664 1004.81 28.472V44.792C1004.81 52.6 998.412 59 990.604 59C982.796 59 976.396 52.6 976.396 44.792V28.472C976.396 20.664 982.796 14.264 990.604 14.264ZM1022.65 14.264C1029.81 14.264 1035.64 20.088 1035.64 27.256C1035.64 31.224 1033.85 34.872 1030.97 37.24C1032.57 38.008 1033.72 39.608 1033.97 41.336C1035.51 53.112 1034.1 42.552 1035.64 54.328C1035.96 56.952 1034.1 59.064 1031.54 59.064H1028.73C1026.17 59.064 1023.73 56.888 1023.41 54.328L1021.75 41.336C1021.69 40.952 1021.69 40.632 1021.75 40.248H1020.21C1019.77 40.248 1019.38 40.632 1019.38 41.08V54.328C1019.38 56.888 1017.27 59 1014.71 59H1011.89C1009.33 59 1007.22 56.888 1007.22 54.328V18.936C1007.22 16.376 1009.33 14.264 1011.89 14.264H1022.65ZM1023.48 30.968V23.544C1023.48 22.456 1022.52 21.496 1021.43 21.496H1020.21C1019.77 21.496 1019.38 21.88 1019.38 22.328V32.184C1019.38 32.632 1019.77 33.016 1020.21 33.016H1021.43C1022.52 33.016 1023.48 32.056 1023.48 30.968ZM1038.03 18.936C1038.03 16.376 1040.15 14.264 1042.71 14.264H1045.52C1047.31 14.264 1048.91 15.288 1049.68 16.76C1049.94 17.336 1050.13 17.912 1050.19 18.552L1054.29 32.376V18.936C1054.29 16.376 1056.4 14.264 1058.96 14.264H1061.78C1064.34 14.264 1066.45 16.376 1066.45 18.936V54.328C1066.45 56.888 1064.34 59 1061.78 59H1058.96C1056.91 59 1055.19 57.72 1054.55 55.864L1050.19 42.872V54.328C1050.19 56.888 1048.08 59 1045.52 59H1042.71C1040.15 59 1038.03 56.888 1038.03 54.328V18.936ZM1073.7 14.264C1074.72 14.264 1075.68 14.264 1076.58 14.264C1078.88 14.264 1080.8 15.8 1081.25 18.04C1081.63 20.152 1083.04 23.672 1084.32 29.432C1084.38 29.624 1084.58 29.816 1084.77 29.752C1085.02 29.752 1085.09 29.56 1085.15 29.368C1086.24 26.68 1087.52 23.736 1089.06 17.848C1089.63 15.672 1091.42 14.264 1093.66 14.264C1094.56 14.264 1095.58 14.264 1096.61 14.264C1098.08 14.264 1099.42 14.904 1100.32 16.056C1101.22 17.272 1101.54 18.68 1101.15 20.152C1100.77 21.624 1095.39 31.096 1091.23 36.472V54.328C1091.23 56.888 1089.12 59 1086.56 59H1083.74C1081.18 59 1079.01 56.888 1079.01 54.328V36.92C1074.91 31.736 1069.86 22.2 1069.15 20.152C1068.64 18.744 1069.02 17.272 1069.98 16.056C1070.88 14.904 1072.16 14.264 1073.7 14.264ZM1153.87 14.52V9.4C1153.87 6.84 1154.7 4.728 1155.73 4.728H1156.75C1157.77 4.728 1158.61 6.84 1158.61 9.4V14.52C1164.62 15.288 1169.93 18.808 1170.45 23.672C1170.89 27.256 1169.49 28.728 1164.17 28.728C1156.94 28.728 1158.93 25.784 1158.93 23.672C1158.93 22.584 1157.33 21.624 1156.24 21.624C1155.09 21.624 1154.19 22.584 1154.19 23.672V31.096C1154.19 35.64 1170.45 31.16 1170.45 47.352V49.912C1170.45 53.56 1165.33 58.104 1158.61 59V64.12C1158.61 66.68 1157.77 68.856 1156.75 68.856H1155.73C1154.7 68.856 1153.87 66.68 1153.87 64.12V59C1147.79 58.296 1142.54 54.712 1141.97 49.912C1141.58 46.264 1142.99 44.792 1148.3 44.792C1155.53 44.792 1153.55 47.736 1153.55 49.848C1153.55 51 1155.15 51.896 1156.24 51.896C1157.33 51.896 1158.29 51 1158.29 49.848V42.424C1158.29 37.88 1142.03 42.36 1142.03 26.168V23.672C1142.03 19.96 1147.15 15.416 1153.87 14.52ZM1185.44 18.936V32.184C1185.44 32.632 1185.83 33.016 1186.28 33.016C1187.11 33.016 1187.88 33.016 1188.71 33.016C1189.16 33.016 1189.54 32.632 1189.54 32.184C1189.54 27.768 1189.54 23.352 1189.54 18.936C1189.54 16.376 1191.65 14.264 1194.21 14.264H1197.03C1199.59 14.264 1201.7 16.376 1201.7 18.936V54.328C1201.7 56.888 1199.59 59 1197.03 59H1194.21C1191.65 59 1189.54 56.888 1189.54 54.328V41.08C1189.54 40.632 1189.16 40.248 1188.71 40.248C1187.88 40.248 1187.11 40.248 1186.28 40.248C1185.83 40.248 1185.44 40.632 1185.44 41.08C1185.44 45.496 1185.44 49.912 1185.44 54.328C1185.44 56.888 1183.33 59 1180.77 59H1177.96C1175.4 59 1173.28 56.888 1173.28 54.328V18.936C1173.28 16.376 1175.4 14.264 1177.96 14.264H1180.77C1183.33 14.264 1185.44 16.376 1185.44 18.936ZM1216.31 49.72C1216.31 50.872 1217.27 51.768 1218.35 51.768C1219.44 51.768 1220.4 50.872 1220.4 49.72V23.544C1220.4 22.456 1219.44 21.496 1218.35 21.496C1217.27 21.496 1216.31 22.456 1216.31 23.544V49.72ZM1218.35 14.264C1226.16 14.264 1232.56 20.664 1232.56 28.472V44.792C1232.56 52.6 1226.16 59 1218.35 59C1210.55 59 1204.15 52.6 1204.15 44.792V28.472C1204.15 20.664 1210.55 14.264 1218.35 14.264ZM1250.4 14.264C1257.56 14.264 1263.39 20.088 1263.39 27.256C1263.39 31.224 1261.6 34.872 1258.72 37.24C1260.32 38.008 1261.47 39.608 1261.72 41.336C1263.26 53.112 1261.85 42.552 1263.39 54.328C1263.71 56.952 1261.85 59.064 1259.29 59.064H1256.48C1253.92 59.064 1251.48 56.888 1251.16 54.328L1249.5 41.336C1249.44 40.952 1249.44 40.632 1249.5 40.248H1247.96C1247.52 40.248 1247.13 40.632 1247.13 41.08V54.328C1247.13 56.888 1245.02 59 1242.46 59H1239.64C1237.08 59 1234.97 56.888 1234.97 54.328V18.936C1234.97 16.376 1237.08 14.264 1239.64 14.264H1250.4ZM1251.23 30.968V23.544C1251.23 22.456 1250.27 21.496 1249.18 21.496H1247.96C1247.52 21.496 1247.13 21.88 1247.13 22.328V32.184C1247.13 32.632 1247.52 33.016 1247.96 33.016H1249.18C1250.27 33.016 1251.23 32.056 1251.23 30.968ZM1265.78 18.936C1265.78 16.376 1267.9 14.264 1270.46 14.264H1273.27C1275.06 14.264 1276.66 15.288 1277.43 16.76C1277.69 17.336 1277.88 17.912 1277.94 18.552L1282.04 32.376V18.936C1282.04 16.376 1284.15 14.264 1286.71 14.264H1289.53C1292.09 14.264 1294.2 16.376 1294.2 18.936V54.328C1294.2 56.888 1292.09 59 1289.53 59H1286.71C1284.66 59 1282.94 57.72 1282.3 55.864L1277.94 42.872V54.328C1277.94 56.888 1275.83 59 1273.27 59H1270.46C1267.9 59 1265.78 56.888 1265.78 54.328V18.936ZM1301.45 14.264C1302.47 14.264 1303.43 14.264 1304.33 14.264C1306.63 14.264 1308.55 15.8 1309 18.04C1309.38 20.152 1310.79 23.672 1312.07 29.432C1312.13 29.624 1312.33 29.816 1312.52 29.752C1312.77 29.752 1312.84 29.56 1312.9 29.368C1313.99 26.68 1315.27 23.736 1316.81 17.848C1317.38 15.672 1319.17 14.264 1321.41 14.264C1322.31 14.264 1323.33 14.264 1324.36 14.264C1325.83 14.264 1327.17 14.904 1328.07 16.056C1328.97 17.272 1329.29 18.68 1328.9 20.152C1328.52 21.624 1323.14 31.096 1318.98 36.472V54.328C1318.98 56.888 1316.87 59 1314.31 59H1311.49C1308.93 59 1306.76 56.888 1306.76 54.328V36.92C1302.66 31.736 1297.61 22.2 1296.9 20.152C1296.39 18.744 1296.77 17.272 1297.73 16.056C1298.63 14.904 1299.91 14.264 1301.45 14.264Z" fill="#F46BA4"/>
</svg>
