<svg width="595" height="58" viewBox="0 0 595 58" fill="none" xmlns="http://www.w3.org/2000/svg">
<path d="M10.032 23.144C8.768 23.144 7.6 22.936 6.528 22.52C5.456 22.088 4.528 21.488 3.744 20.72C2.96 19.952 2.344 19.048 1.896 18.008C1.464 16.968 1.248 15.832 1.248 14.6C1.248 13.368 1.464 12.232 1.896 11.192C2.344 10.152 2.96 9.248 3.744 8.48C4.544 7.712 5.48 7.12 6.552 6.704C7.624 6.272 8.792 6.056 10.056 6.056C11.272 6.056 12.416 6.264 13.488 6.68C14.56 7.08 15.464 7.688 16.2 8.504L15.072 9.632C14.384 8.928 13.624 8.424 12.792 8.12C11.96 7.8 11.064 7.64 10.104 7.64C9.096 7.64 8.16 7.816 7.296 8.168C6.432 8.504 5.68 8.992 5.04 9.632C4.4 10.256 3.896 10.992 3.528 11.84C3.176 12.672 3 13.592 3 14.6C3 15.608 3.176 16.536 3.528 17.384C3.896 18.216 4.4 18.952 5.04 19.592C5.68 20.216 6.432 20.704 7.296 21.056C8.16 21.392 9.096 21.56 10.104 21.56C11.064 21.56 11.96 21.4 12.792 21.08C13.624 20.76 14.384 20.248 15.072 19.544L16.2 20.672C15.464 21.488 14.56 22.104 13.488 22.52C12.416 22.936 11.264 23.144 10.032 23.144ZM19.626 23V10.4H21.258V13.832L21.09 13.232C21.442 12.272 22.034 11.544 22.866 11.048C23.698 10.536 24.73 10.28 25.962 10.28V11.936C25.898 11.936 25.834 11.936 25.77 11.936C25.706 11.92 25.642 11.912 25.578 11.912C24.25 11.912 23.21 12.32 22.458 13.136C21.706 13.936 21.33 15.08 21.33 16.568V23H19.626ZM34.3061 23.12C32.9941 23.12 31.8421 22.848 30.8501 22.304C29.8581 21.744 29.0821 20.984 28.5221 20.024C27.9621 19.048 27.6821 17.936 27.6821 16.688C27.6821 15.44 27.9461 14.336 28.4741 13.376C29.0181 12.416 29.7541 11.664 30.6821 11.12C31.6261 10.56 32.6821 10.28 33.8501 10.28C35.0341 10.28 36.0821 10.552 36.9941 11.096C37.9221 11.624 38.6501 12.376 39.1781 13.352C39.7061 14.312 39.9701 15.424 39.9701 16.688C39.9701 16.768 39.9621 16.856 39.9461 16.952C39.9461 17.032 39.9461 17.12 39.9461 17.216H28.9781V15.944H39.0341L38.3621 16.448C38.3621 15.536 38.1621 14.728 37.7621 14.024C37.3781 13.304 36.8501 12.744 36.1781 12.344C35.5061 11.944 34.7301 11.744 33.8501 11.744C32.9861 11.744 32.2101 11.944 31.5221 12.344C30.8341 12.744 30.2981 13.304 29.9141 14.024C29.5301 14.744 29.3381 15.568 29.3381 16.496V16.76C29.3381 17.72 29.5461 18.568 29.9621 19.304C30.3941 20.024 30.9861 20.592 31.7381 21.008C32.5061 21.408 33.3781 21.608 34.3541 21.608C35.1221 21.608 35.8341 21.472 36.4901 21.2C37.1621 20.928 37.7381 20.512 38.2181 19.952L39.1781 21.056C38.6181 21.728 37.9141 22.24 37.0661 22.592C36.2341 22.944 35.3141 23.12 34.3061 23.12ZM50.9829 23V20.216L50.9109 19.76V15.104C50.9109 14.032 50.6069 13.208 49.9989 12.632C49.4069 12.056 48.5189 11.768 47.3349 11.768C46.5189 11.768 45.7429 11.904 45.0069 12.176C44.2709 12.448 43.6469 12.808 43.1349 13.256L42.3669 11.984C43.0069 11.44 43.7749 11.024 44.6709 10.736C45.5669 10.432 46.5109 10.28 47.5029 10.28C49.1349 10.28 50.3909 10.688 51.2709 11.504C52.1669 12.304 52.6149 13.528 52.6149 15.176V23H50.9829ZM46.6389 23.12C45.6949 23.12 44.8709 22.968 44.1669 22.664C43.4789 22.344 42.9509 21.912 42.5829 21.368C42.2149 20.808 42.0309 20.168 42.0309 19.448C42.0309 18.792 42.1829 18.2 42.4869 17.672C42.8069 17.128 43.3189 16.696 44.0229 16.376C44.7429 16.04 45.7029 15.872 46.9029 15.872H51.2469V17.144H46.9509C45.7349 17.144 44.8869 17.36 44.4069 17.792C43.9429 18.224 43.7109 18.76 43.7109 19.4C43.7109 20.12 43.9909 20.696 44.5509 21.128C45.1109 21.56 45.8949 21.776 46.9029 21.776C47.8629 21.776 48.6869 21.56 49.3749 21.128C50.0789 20.68 50.5909 20.04 50.9109 19.208L51.2949 20.384C50.9749 21.216 50.4149 21.88 49.6149 22.376C48.8309 22.872 47.8389 23.12 46.6389 23.12ZM61.2272 23.12C60.0432 23.12 59.1312 22.8 58.4912 22.16C57.8512 21.52 57.5312 20.616 57.5312 19.448V7.616H59.2352V19.352C59.2352 20.088 59.4192 20.656 59.7872 21.056C60.1712 21.456 60.7152 21.656 61.4192 21.656C62.1712 21.656 62.7952 21.44 63.2912 21.008L63.8912 22.232C63.5552 22.536 63.1472 22.76 62.6672 22.904C62.2032 23.048 61.7232 23.12 61.2272 23.12ZM55.2752 11.816V10.4H63.0752V11.816H55.2752ZM71.8999 23.12C70.5879 23.12 69.4359 22.848 68.4439 22.304C67.4519 21.744 66.6759 20.984 66.1159 20.024C65.5559 19.048 65.2759 17.936 65.2759 16.688C65.2759 15.44 65.5399 14.336 66.0679 13.376C66.6119 12.416 67.3479 11.664 68.2759 11.12C69.2199 10.56 70.2759 10.28 71.4439 10.28C72.6279 10.28 73.6759 10.552 74.5879 11.096C75.5159 11.624 76.2439 12.376 76.7719 13.352C77.2999 14.312 77.5639 15.424 77.5639 16.688C77.5639 16.768 77.5559 16.856 77.5399 16.952C77.5399 17.032 77.5399 17.12 77.5399 17.216H66.5719V15.944H76.6279L75.9559 16.448C75.9559 15.536 75.7559 14.728 75.3559 14.024C74.9719 13.304 74.4439 12.744 73.7719 12.344C73.0999 11.944 72.3239 11.744 71.4439 11.744C70.5799 11.744 69.8039 11.944 69.1159 12.344C68.4279 12.744 67.8919 13.304 67.5079 14.024C67.1239 14.744 66.9319 15.568 66.9319 16.496V16.76C66.9319 17.72 67.1399 18.568 67.5559 19.304C67.9879 20.024 68.5799 20.592 69.3319 21.008C70.0999 21.408 70.9719 21.608 71.9479 21.608C72.7159 21.608 73.4279 21.472 74.0839 21.2C74.7559 20.928 75.3319 20.512 75.8119 19.952L76.7719 21.056C76.2119 21.728 75.5079 22.24 74.6599 22.592C73.8279 22.944 72.9079 23.12 71.8999 23.12ZM86.0483 23.12C84.8483 23.12 83.7683 22.848 82.8083 22.304C81.8643 21.76 81.1203 21.008 80.5763 20.048C80.0323 19.072 79.7603 17.952 79.7603 16.688C79.7603 15.408 80.0323 14.288 80.5763 13.328C81.1203 12.368 81.8643 11.624 82.8083 11.096C83.7683 10.552 84.8483 10.28 86.0483 10.28C87.1523 10.28 88.1363 10.528 89.0003 11.024C89.8803 11.52 90.5763 12.248 91.0883 13.208C91.6163 14.152 91.8802 15.312 91.8802 16.688C91.8802 18.048 91.6243 19.208 91.1123 20.168C90.6003 21.128 89.9043 21.864 89.0243 22.376C88.1603 22.872 87.1683 23.12 86.0483 23.12ZM86.1683 21.608C87.0643 21.608 87.8643 21.408 88.5683 21.008C89.2883 20.592 89.8483 20.016 90.2483 19.28C90.6643 18.528 90.8723 17.664 90.8723 16.688C90.8723 15.696 90.6643 14.832 90.2483 14.096C89.8483 13.36 89.2883 12.792 88.5683 12.392C87.8643 11.976 87.0643 11.768 86.1683 11.768C85.2883 11.768 84.4963 11.976 83.7923 12.392C83.0883 12.792 82.5283 13.36 82.1123 14.096C81.6963 14.832 81.4883 15.696 81.4883 16.688C81.4883 17.664 81.6963 18.528 82.1123 19.28C82.5283 20.016 83.0883 20.592 83.7923 21.008C84.4963 21.408 85.2883 21.608 86.1683 21.608ZM90.9203 23V19.208L91.0883 16.664L90.8483 14.12V5.192H92.5523V23H90.9203ZM110.083 23.12C108.979 23.12 107.987 22.872 107.107 22.376C106.227 21.864 105.531 21.128 105.019 20.168C104.507 19.208 104.251 18.048 104.251 16.688C104.251 15.312 104.507 14.152 105.019 13.208C105.547 12.248 106.251 11.52 107.131 11.024C108.011 10.528 108.995 10.28 110.083 10.28C111.283 10.28 112.355 10.552 113.299 11.096C114.259 11.624 115.011 12.368 115.555 13.328C116.099 14.288 116.371 15.408 116.371 16.688C116.371 17.952 116.099 19.072 115.555 20.048C115.011 21.008 114.259 21.76 113.299 22.304C112.355 22.848 111.283 23.12 110.083 23.12ZM103.579 23V5.192H105.283V14.12L105.043 16.664L105.211 19.208V23H103.579ZM109.963 21.608C110.859 21.608 111.659 21.408 112.363 21.008C113.067 20.592 113.627 20.016 114.043 19.28C114.459 18.528 114.667 17.664 114.667 16.688C114.667 15.696 114.459 14.832 114.043 14.096C113.627 13.36 113.067 12.792 112.363 12.392C111.659 11.976 110.859 11.768 109.963 11.768C109.067 11.768 108.259 11.976 107.539 12.392C106.835 12.792 106.275 13.36 105.859 14.096C105.459 14.832 105.259 15.696 105.259 16.688C105.259 17.664 105.459 18.528 105.859 19.28C106.275 20.016 106.835 20.592 107.539 21.008C108.259 21.408 109.067 21.608 109.963 21.608ZM119.589 27.776C118.997 27.776 118.429 27.68 117.885 27.488C117.357 27.296 116.901 27.008 116.517 26.624L117.309 25.352C117.629 25.656 117.973 25.888 118.341 26.048C118.725 26.224 119.149 26.312 119.613 26.312C120.173 26.312 120.653 26.152 121.053 25.832C121.469 25.528 121.861 24.984 122.229 24.2L123.045 22.352L123.237 22.088L128.421 10.4H130.101L123.789 24.512C123.437 25.328 123.045 25.976 122.613 26.456C122.197 26.936 121.741 27.272 121.245 27.464C120.749 27.672 120.197 27.776 119.589 27.776ZM122.949 23.36L117.141 10.4H118.917L124.053 21.968L122.949 23.36ZM139.142 23V6.2H140.606L148.286 19.304H147.518L155.126 6.2H156.59V23H154.886V8.864H155.294L148.286 20.864H147.446L140.39 8.864H140.846V23H139.142ZM169.6 23V20.216L169.528 19.76V15.104C169.528 14.032 169.224 13.208 168.616 12.632C168.024 12.056 167.136 11.768 165.952 11.768C165.136 11.768 164.36 11.904 163.624 12.176C162.888 12.448 162.264 12.808 161.752 13.256L160.984 11.984C161.624 11.44 162.392 11.024 163.288 10.736C164.184 10.432 165.128 10.28 166.12 10.28C167.752 10.28 169.008 10.688 169.888 11.504C170.784 12.304 171.232 13.528 171.232 15.176V23H169.6ZM165.256 23.12C164.312 23.12 163.488 22.968 162.784 22.664C162.096 22.344 161.568 21.912 161.2 21.368C160.832 20.808 160.648 20.168 160.648 19.448C160.648 18.792 160.8 18.2 161.104 17.672C161.424 17.128 161.936 16.696 162.64 16.376C163.36 16.04 164.32 15.872 165.52 15.872H169.864V17.144H165.568C164.352 17.144 163.504 17.36 163.024 17.792C162.56 18.224 162.328 18.76 162.328 19.4C162.328 20.12 162.608 20.696 163.168 21.128C163.728 21.56 164.512 21.776 165.52 21.776C166.48 21.776 167.304 21.56 167.992 21.128C168.696 20.68 169.208 20.04 169.528 19.208L169.912 20.384C169.592 21.216 169.032 21.88 168.232 22.376C167.448 22.872 166.456 23.12 165.256 23.12ZM179.844 23.12C178.66 23.12 177.748 22.8 177.108 22.16C176.468 21.52 176.148 20.616 176.148 19.448V7.616H177.852V19.352C177.852 20.088 178.036 20.656 178.404 21.056C178.788 21.456 179.332 21.656 180.036 21.656C180.788 21.656 181.412 21.44 181.908 21.008L182.508 22.232C182.172 22.536 181.764 22.76 181.284 22.904C180.82 23.048 180.34 23.12 179.844 23.12ZM173.892 11.816V10.4H181.692V11.816H173.892ZM189.266 23.12C188.082 23.12 187.17 22.8 186.53 22.16C185.89 21.52 185.57 20.616 185.57 19.448V7.616H187.274V19.352C187.274 20.088 187.458 20.656 187.826 21.056C188.21 21.456 188.754 21.656 189.458 21.656C190.21 21.656 190.834 21.44 191.33 21.008L191.93 22.232C191.594 22.536 191.186 22.76 190.706 22.904C190.242 23.048 189.762 23.12 189.266 23.12ZM183.314 11.816V10.4H191.114V11.816H183.314ZM203.258 14.336H212.138V15.872H203.258V14.336ZM203.45 23H201.674V6.2H213.194V7.736H203.45V23ZM221.287 23.12C220.215 23.12 219.279 22.92 218.479 22.52C217.679 22.12 217.055 21.52 216.607 20.72C216.175 19.92 215.959 18.92 215.959 17.72V10.4H217.663V17.528C217.663 18.872 217.991 19.888 218.647 20.576C219.319 21.248 220.255 21.584 221.455 21.584C222.335 21.584 223.095 21.408 223.735 21.056C224.391 20.688 224.887 20.16 225.223 19.472C225.575 18.784 225.751 17.96 225.751 17V10.4H227.455V23H225.823V19.544L226.087 20.168C225.687 21.096 225.063 21.824 224.215 22.352C223.383 22.864 222.407 23.12 221.287 23.12ZM232.204 23V10.4H233.836V13.832L233.668 13.232C234.02 12.272 234.612 11.544 235.444 11.048C236.276 10.536 237.308 10.28 238.54 10.28V11.936C238.476 11.936 238.412 11.936 238.348 11.936C238.284 11.92 238.22 11.912 238.156 11.912C236.828 11.912 235.788 12.32 235.036 13.136C234.284 13.936 233.908 15.08 233.908 16.568V23H232.204ZM241.649 23V10.4H243.353V23H241.649ZM242.513 7.616C242.161 7.616 241.865 7.496 241.625 7.256C241.385 7.016 241.265 6.728 241.265 6.392C241.265 6.056 241.385 5.776 241.625 5.552C241.865 5.312 242.161 5.192 242.513 5.192C242.865 5.192 243.161 5.304 243.401 5.528C243.641 5.752 243.761 6.032 243.761 6.368C243.761 6.72 243.641 7.016 243.401 7.256C243.177 7.496 242.881 7.616 242.513 7.616ZM253.447 23.12C252.135 23.12 250.983 22.848 249.991 22.304C248.999 21.744 248.223 20.984 247.663 20.024C247.103 19.048 246.823 17.936 246.823 16.688C246.823 15.44 247.087 14.336 247.615 13.376C248.159 12.416 248.895 11.664 249.823 11.12C250.767 10.56 251.823 10.28 252.991 10.28C254.175 10.28 255.223 10.552 256.135 11.096C257.063 11.624 257.791 12.376 258.319 13.352C258.847 14.312 259.111 15.424 259.111 16.688C259.111 16.768 259.103 16.856 259.087 16.952C259.087 17.032 259.087 17.12 259.087 17.216H248.119V15.944H258.175L257.503 16.448C257.503 15.536 257.303 14.728 256.903 14.024C256.519 13.304 255.991 12.744 255.319 12.344C254.647 11.944 253.871 11.744 252.991 11.744C252.127 11.744 251.351 11.944 250.663 12.344C249.975 12.744 249.439 13.304 249.055 14.024C248.671 14.744 248.479 15.568 248.479 16.496V16.76C248.479 17.72 248.687 18.568 249.103 19.304C249.535 20.024 250.127 20.592 250.879 21.008C251.647 21.408 252.519 21.608 253.495 21.608C254.263 21.608 254.975 21.472 255.631 21.2C256.303 20.928 256.879 20.512 257.359 19.952L258.319 21.056C257.759 21.728 257.055 22.24 256.207 22.592C255.375 22.944 254.455 23.12 253.447 23.12ZM274.092 23.12C272.844 23.12 271.724 22.848 270.732 22.304C269.756 21.744 268.988 20.984 268.428 20.024C267.868 19.048 267.588 17.936 267.588 16.688C267.588 15.424 267.868 14.312 268.428 13.352C268.988 12.392 269.756 11.64 270.732 11.096C271.724 10.552 272.844 10.28 274.092 10.28C275.164 10.28 276.132 10.488 276.996 10.904C277.86 11.32 278.54 11.944 279.036 12.776L277.764 13.64C277.332 13 276.796 12.528 276.156 12.224C275.516 11.92 274.82 11.768 274.068 11.768C273.172 11.768 272.364 11.976 271.644 12.392C270.924 12.792 270.356 13.36 269.94 14.096C269.524 14.832 269.316 15.696 269.316 16.688C269.316 17.68 269.524 18.544 269.94 19.28C270.356 20.016 270.924 20.592 271.644 21.008C272.364 21.408 273.172 21.608 274.068 21.608C274.82 21.608 275.516 21.456 276.156 21.152C276.796 20.848 277.332 20.384 277.764 19.76L279.036 20.624C278.54 21.44 277.86 22.064 276.996 22.496C276.132 22.912 275.164 23.12 274.092 23.12ZM282.384 23V10.4H284.016V13.832L283.848 13.232C284.2 12.272 284.792 11.544 285.624 11.048C286.456 10.536 287.488 10.28 288.72 10.28V11.936C288.656 11.936 288.592 11.936 288.528 11.936C288.464 11.92 288.4 11.912 288.336 11.912C287.008 11.912 285.968 12.32 285.216 13.136C284.464 13.936 284.088 15.08 284.088 16.568V23H282.384ZM297.064 23.12C295.752 23.12 294.6 22.848 293.608 22.304C292.616 21.744 291.84 20.984 291.28 20.024C290.72 19.048 290.44 17.936 290.44 16.688C290.44 15.44 290.704 14.336 291.232 13.376C291.776 12.416 292.512 11.664 293.44 11.12C294.384 10.56 295.44 10.28 296.608 10.28C297.792 10.28 298.84 10.552 299.752 11.096C300.68 11.624 301.408 12.376 301.936 13.352C302.464 14.312 302.728 15.424 302.728 16.688C302.728 16.768 302.72 16.856 302.704 16.952C302.704 17.032 302.704 17.12 302.704 17.216H291.736V15.944H301.792L301.12 16.448C301.12 15.536 300.92 14.728 300.52 14.024C300.136 13.304 299.608 12.744 298.936 12.344C298.264 11.944 297.488 11.744 296.608 11.744C295.744 11.744 294.968 11.944 294.28 12.344C293.592 12.744 293.056 13.304 292.672 14.024C292.288 14.744 292.096 15.568 292.096 16.496V16.76C292.096 17.72 292.304 18.568 292.72 19.304C293.152 20.024 293.744 20.592 294.496 21.008C295.264 21.408 296.136 21.608 297.112 21.608C297.88 21.608 298.592 21.472 299.248 21.2C299.92 20.928 300.496 20.512 300.976 19.952L301.936 21.056C301.376 21.728 300.672 22.24 299.824 22.592C298.992 22.944 298.072 23.12 297.064 23.12ZM313.741 23V20.216L313.669 19.76V15.104C313.669 14.032 313.365 13.208 312.757 12.632C312.165 12.056 311.277 11.768 310.093 11.768C309.277 11.768 308.501 11.904 307.765 12.176C307.029 12.448 306.405 12.808 305.893 13.256L305.125 11.984C305.765 11.44 306.533 11.024 307.429 10.736C308.325 10.432 309.269 10.28 310.261 10.28C311.893 10.28 313.149 10.688 314.029 11.504C314.925 12.304 315.373 13.528 315.373 15.176V23H313.741ZM309.397 23.12C308.453 23.12 307.629 22.968 306.925 22.664C306.237 22.344 305.709 21.912 305.341 21.368C304.973 20.808 304.789 20.168 304.789 19.448C304.789 18.792 304.941 18.2 305.245 17.672C305.565 17.128 306.077 16.696 306.781 16.376C307.501 16.04 308.461 15.872 309.661 15.872H314.005V17.144H309.709C308.493 17.144 307.645 17.36 307.165 17.792C306.701 18.224 306.469 18.76 306.469 19.4C306.469 20.12 306.749 20.696 307.309 21.128C307.869 21.56 308.653 21.776 309.661 21.776C310.621 21.776 311.445 21.56 312.133 21.128C312.837 20.68 313.349 20.04 313.669 19.208L314.053 20.384C313.733 21.216 313.173 21.88 312.373 22.376C311.589 22.872 310.597 23.12 309.397 23.12ZM323.985 23.12C322.801 23.12 321.889 22.8 321.249 22.16C320.609 21.52 320.289 20.616 320.289 19.448V7.616H321.993V19.352C321.993 20.088 322.177 20.656 322.545 21.056C322.929 21.456 323.473 21.656 324.177 21.656C324.929 21.656 325.553 21.44 326.049 21.008L326.649 22.232C326.313 22.536 325.905 22.76 325.425 22.904C324.961 23.048 324.481 23.12 323.985 23.12ZM318.033 11.816V10.4H325.833V11.816H318.033ZM334.442 23.12C333.226 23.12 332.13 22.848 331.154 22.304C330.194 21.744 329.434 20.984 328.874 20.024C328.314 19.048 328.034 17.936 328.034 16.688C328.034 15.424 328.314 14.312 328.874 13.352C329.434 12.392 330.194 11.64 331.154 11.096C332.114 10.552 333.21 10.28 334.442 10.28C335.69 10.28 336.794 10.552 337.754 11.096C338.73 11.64 339.49 12.392 340.034 13.352C340.594 14.312 340.874 15.424 340.874 16.688C340.874 17.936 340.594 19.048 340.034 20.024C339.49 20.984 338.73 21.744 337.754 22.304C336.778 22.848 335.674 23.12 334.442 23.12ZM334.442 21.608C335.354 21.608 336.162 21.408 336.866 21.008C337.57 20.592 338.122 20.016 338.522 19.28C338.938 18.528 339.146 17.664 339.146 16.688C339.146 15.696 338.938 14.832 338.522 14.096C338.122 13.36 337.57 12.792 336.866 12.392C336.162 11.976 335.362 11.768 334.466 11.768C333.57 11.768 332.77 11.976 332.066 12.392C331.362 12.792 330.802 13.36 330.386 14.096C329.97 14.832 329.762 15.696 329.762 16.688C329.762 17.664 329.97 18.528 330.386 19.28C330.802 20.016 331.362 20.592 332.066 21.008C332.77 21.408 333.562 21.608 334.442 21.608ZM344.353 23V10.4H345.985V13.832L345.817 13.232C346.169 12.272 346.761 11.544 347.593 11.048C348.425 10.536 349.457 10.28 350.689 10.28V11.936C350.625 11.936 350.561 11.936 350.497 11.936C350.433 11.92 350.369 11.912 350.305 11.912C348.977 11.912 347.937 12.32 347.185 13.136C346.433 13.936 346.057 15.08 346.057 16.568V23H344.353ZM365.403 23.12C364.187 23.12 363.091 22.848 362.115 22.304C361.155 21.744 360.395 20.984 359.835 20.024C359.275 19.048 358.995 17.936 358.995 16.688C358.995 15.424 359.275 14.312 359.835 13.352C360.395 12.392 361.155 11.64 362.115 11.096C363.075 10.552 364.171 10.28 365.403 10.28C366.651 10.28 367.755 10.552 368.715 11.096C369.691 11.64 370.451 12.392 370.995 13.352C371.555 14.312 371.835 15.424 371.835 16.688C371.835 17.936 371.555 19.048 370.995 20.024C370.451 20.984 369.691 21.744 368.715 22.304C367.739 22.848 366.635 23.12 365.403 23.12ZM365.403 21.608C366.315 21.608 367.123 21.408 367.827 21.008C368.531 20.592 369.083 20.016 369.483 19.28C369.899 18.528 370.107 17.664 370.107 16.688C370.107 15.696 369.899 14.832 369.483 14.096C369.083 13.36 368.531 12.792 367.827 12.392C367.123 11.976 366.323 11.768 365.427 11.768C364.531 11.768 363.731 11.976 363.027 12.392C362.323 12.792 361.763 13.36 361.347 14.096C360.931 14.832 360.723 15.696 360.723 16.688C360.723 17.664 360.931 18.528 361.347 19.28C361.763 20.016 362.323 20.592 363.027 21.008C363.731 21.408 364.523 21.608 365.403 21.608ZM375.602 23V8.816C375.602 7.696 375.93 6.792 376.586 6.104C377.242 5.416 378.186 5.072 379.418 5.072C379.898 5.072 380.362 5.136 380.81 5.264C381.258 5.392 381.634 5.592 381.938 5.864L381.362 7.136C381.122 6.928 380.842 6.776 380.522 6.68C380.202 6.568 379.858 6.512 379.49 6.512C378.77 6.512 378.218 6.712 377.834 7.112C377.45 7.512 377.258 8.104 377.258 8.888V10.808L377.306 11.6V23H375.602ZM373.346 11.816V10.4H381.146V11.816H373.346ZM393.712 23.12C392.528 23.12 391.616 22.8 390.976 22.16C390.336 21.52 390.016 20.616 390.016 19.448V7.616H391.72V19.352C391.72 20.088 391.904 20.656 392.272 21.056C392.656 21.456 393.2 21.656 393.904 21.656C394.656 21.656 395.28 21.44 395.776 21.008L396.376 22.232C396.04 22.536 395.632 22.76 395.152 22.904C394.688 23.048 394.208 23.12 393.712 23.12ZM387.76 11.816V10.4H395.56V11.816H387.76ZM405.91 10.28C406.934 10.28 407.83 10.48 408.598 10.88C409.382 11.264 409.99 11.856 410.422 12.656C410.87 13.456 411.094 14.464 411.094 15.68V23H409.39V15.848C409.39 14.52 409.054 13.52 408.382 12.848C407.726 12.16 406.798 11.816 405.598 11.816C404.702 11.816 403.918 12 403.246 12.368C402.59 12.72 402.078 13.24 401.71 13.928C401.358 14.6 401.182 15.416 401.182 16.376V23H399.478V5.192H401.182V13.856L400.846 13.208C401.246 12.296 401.886 11.584 402.766 11.072C403.646 10.544 404.694 10.28 405.91 10.28ZM421.048 23.12C419.736 23.12 418.584 22.848 417.592 22.304C416.6 21.744 415.824 20.984 415.264 20.024C414.704 19.048 414.424 17.936 414.424 16.688C414.424 15.44 414.688 14.336 415.216 13.376C415.76 12.416 416.496 11.664 417.424 11.12C418.368 10.56 419.424 10.28 420.592 10.28C421.776 10.28 422.824 10.552 423.736 11.096C424.664 11.624 425.392 12.376 425.92 13.352C426.448 14.312 426.712 15.424 426.712 16.688C426.712 16.768 426.704 16.856 426.688 16.952C426.688 17.032 426.688 17.12 426.688 17.216H415.72V15.944H425.776L425.104 16.448C425.104 15.536 424.904 14.728 424.504 14.024C424.12 13.304 423.592 12.744 422.92 12.344C422.248 11.944 421.472 11.744 420.592 11.744C419.728 11.744 418.952 11.944 418.264 12.344C417.576 12.744 417.04 13.304 416.656 14.024C416.272 14.744 416.08 15.568 416.08 16.496V16.76C416.08 17.72 416.288 18.568 416.704 19.304C417.136 20.024 417.728 20.592 418.48 21.008C419.248 21.408 420.12 21.608 421.096 21.608C421.864 21.608 422.576 21.472 423.232 21.2C423.904 20.928 424.48 20.512 424.96 19.952L425.92 21.056C425.36 21.728 424.656 22.24 423.808 22.592C422.976 22.944 422.056 23.12 421.048 23.12ZM452.206 10.28C453.23 10.28 454.118 10.48 454.87 10.88C455.638 11.264 456.23 11.856 456.646 12.656C457.078 13.456 457.294 14.464 457.294 15.68V23H455.59V15.848C455.59 14.52 455.27 13.52 454.63 12.848C454.006 12.16 453.118 11.816 451.966 11.816C451.102 11.816 450.35 12 449.71 12.368C449.086 12.72 448.598 13.24 448.246 13.928C447.91 14.6 447.742 15.416 447.742 16.376V23H446.038V15.848C446.038 14.52 445.718 13.52 445.078 12.848C444.438 12.16 443.542 11.816 442.39 11.816C441.542 11.816 440.798 12 440.158 12.368C439.518 12.72 439.022 13.24 438.67 13.928C438.334 14.6 438.166 15.416 438.166 16.376V23H436.462V10.4H438.094V13.808L437.83 13.208C438.214 12.296 438.83 11.584 439.678 11.072C440.542 10.544 441.558 10.28 442.726 10.28C443.958 10.28 445.006 10.592 445.87 11.216C446.734 11.824 447.294 12.744 447.55 13.976L446.878 13.712C447.246 12.688 447.894 11.864 448.822 11.24C449.766 10.6 450.894 10.28 452.206 10.28ZM467.051 23.12C465.835 23.12 464.739 22.848 463.763 22.304C462.803 21.744 462.043 20.984 461.483 20.024C460.923 19.048 460.643 17.936 460.643 16.688C460.643 15.424 460.923 14.312 461.483 13.352C462.043 12.392 462.803 11.64 463.763 11.096C464.723 10.552 465.819 10.28 467.051 10.28C468.299 10.28 469.403 10.552 470.363 11.096C471.339 11.64 472.099 12.392 472.643 13.352C473.203 14.312 473.483 15.424 473.483 16.688C473.483 17.936 473.203 19.048 472.643 20.024C472.099 20.984 471.339 21.744 470.363 22.304C469.387 22.848 468.283 23.12 467.051 23.12ZM467.051 21.608C467.963 21.608 468.771 21.408 469.475 21.008C470.179 20.592 470.731 20.016 471.131 19.28C471.547 18.528 471.755 17.664 471.755 16.688C471.755 15.696 471.547 14.832 471.131 14.096C470.731 13.36 470.179 12.792 469.475 12.392C468.771 11.976 467.971 11.768 467.075 11.768C466.179 11.768 465.379 11.976 464.675 12.392C463.971 12.792 463.411 13.36 462.995 14.096C462.579 14.832 462.371 15.696 462.371 16.688C462.371 17.664 462.579 18.528 462.995 19.28C463.411 20.016 463.971 20.592 464.675 21.008C465.379 21.408 466.171 21.608 467.051 21.608ZM480.346 23.12C479.306 23.12 478.322 22.976 477.394 22.688C476.466 22.384 475.738 22.008 475.21 21.56L475.978 20.216C476.49 20.6 477.146 20.936 477.946 21.224C478.746 21.496 479.586 21.632 480.466 21.632C481.666 21.632 482.53 21.448 483.058 21.08C483.586 20.696 483.85 20.192 483.85 19.568C483.85 19.104 483.698 18.744 483.394 18.488C483.106 18.216 482.722 18.016 482.242 17.888C481.762 17.744 481.226 17.624 480.634 17.528C480.042 17.432 479.45 17.32 478.858 17.192C478.282 17.064 477.754 16.88 477.274 16.64C476.794 16.384 476.402 16.04 476.098 15.608C475.81 15.176 475.666 14.6 475.666 13.88C475.666 13.192 475.858 12.576 476.242 12.032C476.626 11.488 477.186 11.064 477.922 10.76C478.674 10.44 479.586 10.28 480.658 10.28C481.474 10.28 482.29 10.392 483.106 10.616C483.922 10.824 484.594 11.104 485.122 11.456L484.378 12.824C483.818 12.44 483.218 12.168 482.578 12.008C481.938 11.832 481.298 11.744 480.658 11.744C479.522 11.744 478.682 11.944 478.138 12.344C477.61 12.728 477.346 13.224 477.346 13.832C477.346 14.312 477.49 14.688 477.778 14.96C478.082 15.232 478.474 15.448 478.954 15.608C479.45 15.752 479.986 15.872 480.562 15.968C481.154 16.064 481.738 16.184 482.314 16.328C482.906 16.456 483.442 16.64 483.922 16.88C484.418 17.104 484.81 17.432 485.098 17.864C485.402 18.28 485.554 18.832 485.554 19.52C485.554 20.256 485.346 20.896 484.93 21.44C484.53 21.968 483.938 22.384 483.154 22.688C482.386 22.976 481.45 23.12 480.346 23.12ZM492.665 23.12C491.481 23.12 490.569 22.8 489.929 22.16C489.289 21.52 488.969 20.616 488.969 19.448V7.616H490.673V19.352C490.673 20.088 490.857 20.656 491.225 21.056C491.609 21.456 492.153 21.656 492.857 21.656C493.609 21.656 494.233 21.44 494.729 21.008L495.329 22.232C494.993 22.536 494.585 22.76 494.105 22.904C493.641 23.048 493.161 23.12 492.665 23.12ZM486.713 11.816V10.4H494.513V11.816H486.713ZM505 23V8.816C505 7.696 505.328 6.792 505.984 6.104C506.64 5.416 507.584 5.072 508.816 5.072C509.296 5.072 509.76 5.136 510.208 5.264C510.656 5.392 511.032 5.592 511.336 5.864L510.76 7.136C510.52 6.928 510.24 6.776 509.92 6.68C509.6 6.568 509.256 6.512 508.888 6.512C508.168 6.512 507.616 6.712 507.232 7.112C506.848 7.512 506.656 8.104 506.656 8.888V10.808L506.704 11.6V23H505ZM502.744 11.816V10.4H510.544V11.816H502.744ZM520.506 23V20.216L520.434 19.76V15.104C520.434 14.032 520.13 13.208 519.522 12.632C518.93 12.056 518.042 11.768 516.858 11.768C516.042 11.768 515.266 11.904 514.53 12.176C513.794 12.448 513.17 12.808 512.658 13.256L511.89 11.984C512.53 11.44 513.298 11.024 514.194 10.736C515.09 10.432 516.034 10.28 517.026 10.28C518.658 10.28 519.914 10.688 520.794 11.504C521.69 12.304 522.138 13.528 522.138 15.176V23H520.506ZM516.162 23.12C515.218 23.12 514.394 22.968 513.69 22.664C513.002 22.344 512.474 21.912 512.106 21.368C511.738 20.808 511.554 20.168 511.554 19.448C511.554 18.792 511.706 18.2 512.01 17.672C512.33 17.128 512.842 16.696 513.546 16.376C514.266 16.04 515.226 15.872 516.426 15.872H520.77V17.144H516.474C515.258 17.144 514.41 17.36 513.93 17.792C513.466 18.224 513.234 18.76 513.234 19.4C513.234 20.12 513.514 20.696 514.074 21.128C514.634 21.56 515.418 21.776 516.426 21.776C517.386 21.776 518.21 21.56 518.898 21.128C519.602 20.68 520.114 20.04 520.434 19.208L520.818 20.384C520.498 21.216 519.938 21.88 519.138 22.376C518.354 22.872 517.362 23.12 516.162 23.12ZM542.511 10.28C543.535 10.28 544.423 10.48 545.175 10.88C545.943 11.264 546.535 11.856 546.951 12.656C547.383 13.456 547.599 14.464 547.599 15.68V23H545.895V15.848C545.895 14.52 545.575 13.52 544.935 12.848C544.311 12.16 543.423 11.816 542.271 11.816C541.407 11.816 540.655 12 540.015 12.368C539.391 12.72 538.903 13.24 538.551 13.928C538.215 14.6 538.047 15.416 538.047 16.376V23H536.343V15.848C536.343 14.52 536.023 13.52 535.383 12.848C534.743 12.16 533.847 11.816 532.695 11.816C531.847 11.816 531.103 12 530.463 12.368C529.823 12.72 529.327 13.24 528.975 13.928C528.639 14.6 528.471 15.416 528.471 16.376V23H526.767V10.4H528.399V13.808L528.135 13.208C528.519 12.296 529.135 11.584 529.983 11.072C530.847 10.544 531.863 10.28 533.031 10.28C534.263 10.28 535.311 10.592 536.175 11.216C537.039 11.824 537.599 12.744 537.855 13.976L537.183 13.712C537.551 12.688 538.199 11.864 539.127 11.24C540.071 10.6 541.199 10.28 542.511 10.28ZM557.356 23.12C556.14 23.12 555.044 22.848 554.068 22.304C553.108 21.744 552.348 20.984 551.788 20.024C551.228 19.048 550.948 17.936 550.948 16.688C550.948 15.424 551.228 14.312 551.788 13.352C552.348 12.392 553.108 11.64 554.068 11.096C555.028 10.552 556.124 10.28 557.356 10.28C558.604 10.28 559.708 10.552 560.668 11.096C561.644 11.64 562.404 12.392 562.948 13.352C563.508 14.312 563.788 15.424 563.788 16.688C563.788 17.936 563.508 19.048 562.948 20.024C562.404 20.984 561.644 21.744 560.668 22.304C559.692 22.848 558.588 23.12 557.356 23.12ZM557.356 21.608C558.268 21.608 559.076 21.408 559.78 21.008C560.484 20.592 561.036 20.016 561.436 19.28C561.852 18.528 562.06 17.664 562.06 16.688C562.06 15.696 561.852 14.832 561.436 14.096C561.036 13.36 560.484 12.792 559.78 12.392C559.076 11.976 558.276 11.768 557.38 11.768C556.484 11.768 555.684 11.976 554.98 12.392C554.276 12.792 553.716 13.36 553.3 14.096C552.884 14.832 552.676 15.696 552.676 16.688C552.676 17.664 552.884 18.528 553.3 19.28C553.716 20.016 554.276 20.592 554.98 21.008C555.684 21.408 556.476 21.608 557.356 21.608ZM572.475 23.12C571.403 23.12 570.467 22.92 569.667 22.52C568.867 22.12 568.243 21.52 567.795 20.72C567.363 19.92 567.147 18.92 567.147 17.72V10.4H568.851V17.528C568.851 18.872 569.179 19.888 569.835 20.576C570.507 21.248 571.443 21.584 572.643 21.584C573.523 21.584 574.283 21.408 574.923 21.056C575.579 20.688 576.075 20.16 576.411 19.472C576.763 18.784 576.939 17.96 576.939 17V10.4H578.643V23H577.011V19.544L577.275 20.168C576.875 21.096 576.251 21.824 575.403 22.352C574.571 22.864 573.595 23.12 572.475 23.12ZM586.776 23.12C585.736 23.12 584.752 22.976 583.824 22.688C582.896 22.384 582.168 22.008 581.64 21.56L582.408 20.216C582.92 20.6 583.576 20.936 584.376 21.224C585.176 21.496 586.016 21.632 586.896 21.632C588.096 21.632 588.96 21.448 589.488 21.08C590.016 20.696 590.28 20.192 590.28 19.568C590.28 19.104 590.128 18.744 589.824 18.488C589.536 18.216 589.152 18.016 588.672 17.888C588.192 17.744 587.656 17.624 587.064 17.528C586.472 17.432 585.88 17.32 585.288 17.192C584.712 17.064 584.184 16.88 583.704 16.64C583.224 16.384 582.832 16.04 582.528 15.608C582.24 15.176 582.096 14.6 582.096 13.88C582.096 13.192 582.288 12.576 582.672 12.032C583.056 11.488 583.616 11.064 584.352 10.76C585.104 10.44 586.016 10.28 587.088 10.28C587.904 10.28 588.72 10.392 589.536 10.616C590.352 10.824 591.024 11.104 591.552 11.456L590.808 12.824C590.248 12.44 589.648 12.168 589.008 12.008C588.368 11.832 587.728 11.744 587.088 11.744C585.952 11.744 585.112 11.944 584.568 12.344C584.04 12.728 583.776 13.224 583.776 13.832C583.776 14.312 583.92 14.688 584.208 14.96C584.512 15.232 584.904 15.448 585.384 15.608C585.88 15.752 586.416 15.872 586.992 15.968C587.584 16.064 588.168 16.184 588.744 16.328C589.336 16.456 589.872 16.64 590.352 16.88C590.848 17.104 591.24 17.432 591.528 17.864C591.832 18.28 591.984 18.832 591.984 19.52C591.984 20.256 591.776 20.896 591.36 21.44C590.96 21.968 590.368 22.384 589.584 22.688C588.816 22.976 587.88 23.12 586.776 23.12ZM18.12 39.28C19.144 39.28 20.032 39.48 20.784 39.88C21.552 40.264 22.144 40.856 22.56 41.656C22.992 42.456 23.208 43.464 23.208 44.68V52H21.504V44.848C21.504 43.52 21.184 42.52 20.544 41.848C19.92 41.16 19.032 40.816 17.88 40.816C17.016 40.816 16.264 41 15.624 41.368C15 41.72 14.512 42.24 14.16 42.928C13.824 43.6 13.656 44.416 13.656 45.376V52H11.952V44.848C11.952 43.52 11.632 42.52 10.992 41.848C10.352 41.16 9.456 40.816 8.304 40.816C7.456 40.816 6.712 41 6.072 41.368C5.432 41.72 4.936 42.24 4.584 42.928C4.248 43.6 4.08 44.416 4.08 45.376V52H2.376V39.4H4.008V42.808L3.744 42.208C4.128 41.296 4.744 40.584 5.592 40.072C6.456 39.544 7.472 39.28 8.64 39.28C9.872 39.28 10.92 39.592 11.784 40.216C12.648 40.824 13.208 41.744 13.464 42.976L12.792 42.712C13.16 41.688 13.808 40.864 14.736 40.24C15.68 39.6 16.808 39.28 18.12 39.28ZM33.1811 52.12C31.8691 52.12 30.7171 51.848 29.7251 51.304C28.7331 50.744 27.9571 49.984 27.3971 49.024C26.8371 48.048 26.5571 46.936 26.5571 45.688C26.5571 44.44 26.8211 43.336 27.3491 42.376C27.8931 41.416 28.6291 40.664 29.5571 40.12C30.5011 39.56 31.5571 39.28 32.7251 39.28C33.9091 39.28 34.9571 39.552 35.8691 40.096C36.7971 40.624 37.5251 41.376 38.0531 42.352C38.5811 43.312 38.8451 44.424 38.8451 45.688C38.8451 45.768 38.8371 45.856 38.8211 45.952C38.8211 46.032 38.8211 46.12 38.8211 46.216H27.8531V44.944H37.9091L37.2371 45.448C37.2371 44.536 37.0371 43.728 36.6371 43.024C36.2531 42.304 35.7251 41.744 35.0531 41.344C34.3811 40.944 33.6051 40.744 32.7251 40.744C31.8611 40.744 31.0851 40.944 30.3971 41.344C29.7091 41.744 29.1731 42.304 28.7891 43.024C28.4051 43.744 28.2131 44.568 28.2131 45.496V45.76C28.2131 46.72 28.4211 47.568 28.8371 48.304C29.2691 49.024 29.8611 49.592 30.6131 50.008C31.3811 50.408 32.2531 50.608 33.2291 50.608C33.9971 50.608 34.7091 50.472 35.3651 50.2C36.0371 49.928 36.6131 49.512 37.0931 48.952L38.0531 50.056C37.4931 50.728 36.7891 51.24 35.9411 51.592C35.1091 51.944 34.1891 52.12 33.1811 52.12ZM58.0575 39.28C59.0815 39.28 59.9695 39.48 60.7215 39.88C61.4895 40.264 62.0815 40.856 62.4975 41.656C62.9295 42.456 63.1455 43.464 63.1455 44.68V52H61.4415V44.848C61.4415 43.52 61.1215 42.52 60.4815 41.848C59.8575 41.16 58.9695 40.816 57.8175 40.816C56.9535 40.816 56.2015 41 55.5615 41.368C54.9375 41.72 54.4495 42.24 54.0975 42.928C53.7615 43.6 53.5935 44.416 53.5935 45.376V52H51.8895V44.848C51.8895 43.52 51.5695 42.52 50.9295 41.848C50.2895 41.16 49.3935 40.816 48.2415 40.816C47.3935 40.816 46.6495 41 46.0095 41.368C45.3695 41.72 44.8735 42.24 44.5215 42.928C44.1855 43.6 44.0175 44.416 44.0175 45.376V52H42.3135V39.4H43.9455V42.808L43.6815 42.208C44.0655 41.296 44.6815 40.584 45.5295 40.072C46.3935 39.544 47.4095 39.28 48.5775 39.28C49.8095 39.28 50.8575 39.592 51.7215 40.216C52.5855 40.824 53.1455 41.744 53.4015 42.976L52.7295 42.712C53.0975 41.688 53.7455 40.864 54.6735 40.24C55.6175 39.6 56.7455 39.28 58.0575 39.28ZM73.1186 52.12C71.8066 52.12 70.6546 51.848 69.6626 51.304C68.6706 50.744 67.8946 49.984 67.3346 49.024C66.7746 48.048 66.4946 46.936 66.4946 45.688C66.4946 44.44 66.7586 43.336 67.2866 42.376C67.8306 41.416 68.5666 40.664 69.4946 40.12C70.4386 39.56 71.4946 39.28 72.6626 39.28C73.8466 39.28 74.8946 39.552 75.8066 40.096C76.7346 40.624 77.4626 41.376 77.9906 42.352C78.5186 43.312 78.7826 44.424 78.7826 45.688C78.7826 45.768 78.7746 45.856 78.7586 45.952C78.7586 46.032 78.7586 46.12 78.7586 46.216H67.7906V44.944H77.8466L77.1746 45.448C77.1746 44.536 76.9746 43.728 76.5746 43.024C76.1906 42.304 75.6626 41.744 74.9906 41.344C74.3186 40.944 73.5426 40.744 72.6626 40.744C71.7986 40.744 71.0226 40.944 70.3346 41.344C69.6466 41.744 69.1106 42.304 68.7266 43.024C68.3426 43.744 68.1506 44.568 68.1506 45.496V45.76C68.1506 46.72 68.3586 47.568 68.7746 48.304C69.2066 49.024 69.7986 49.592 70.5506 50.008C71.3186 50.408 72.1906 50.608 73.1666 50.608C73.9346 50.608 74.6466 50.472 75.3026 50.2C75.9746 49.928 76.5506 49.512 77.0306 48.952L77.9906 50.056C77.4306 50.728 76.7266 51.24 75.8786 51.592C75.0466 51.944 74.1266 52.12 73.1186 52.12ZM88.5323 52V39.4H90.2363V52H88.5323ZM89.3963 36.616C89.0443 36.616 88.7483 36.496 88.5083 36.256C88.2683 36.016 88.1483 35.728 88.1483 35.392C88.1483 35.056 88.2683 34.776 88.5083 34.552C88.7483 34.312 89.0443 34.192 89.3963 34.192C89.7483 34.192 90.0443 34.304 90.2843 34.528C90.5243 34.752 90.6443 35.032 90.6443 35.368C90.6443 35.72 90.5243 36.016 90.2843 36.256C90.0603 36.496 89.7643 36.616 89.3963 36.616ZM101.41 39.28C102.434 39.28 103.33 39.48 104.098 39.88C104.882 40.264 105.49 40.856 105.922 41.656C106.37 42.456 106.594 43.464 106.594 44.68V52H104.89V44.848C104.89 43.52 104.554 42.52 103.882 41.848C103.226 41.16 102.298 40.816 101.098 40.816C100.202 40.816 99.4176 41 98.7456 41.368C98.0896 41.72 97.5776 42.24 97.2096 42.928C96.8576 43.6 96.6816 44.416 96.6816 45.376V52H94.9776V39.4H96.6096V42.856L96.3456 42.208C96.7456 41.296 97.3856 40.584 98.2656 40.072C99.1456 39.544 100.194 39.28 101.41 39.28ZM122.71 52.12C121.462 52.12 120.342 51.848 119.35 51.304C118.374 50.744 117.606 49.984 117.046 49.024C116.486 48.048 116.206 46.936 116.206 45.688C116.206 44.424 116.486 43.312 117.046 42.352C117.606 41.392 118.374 40.64 119.35 40.096C120.342 39.552 121.462 39.28 122.71 39.28C123.782 39.28 124.75 39.488 125.614 39.904C126.478 40.32 127.158 40.944 127.654 41.776L126.382 42.64C125.95 42 125.414 41.528 124.774 41.224C124.134 40.92 123.438 40.768 122.686 40.768C121.79 40.768 120.982 40.976 120.262 41.392C119.542 41.792 118.974 42.36 118.558 43.096C118.142 43.832 117.934 44.696 117.934 45.688C117.934 46.68 118.142 47.544 118.558 48.28C118.974 49.016 119.542 49.592 120.262 50.008C120.982 50.408 121.79 50.608 122.686 50.608C123.438 50.608 124.134 50.456 124.774 50.152C125.414 49.848 125.95 49.384 126.382 48.76L127.654 49.624C127.158 50.44 126.478 51.064 125.614 51.496C124.75 51.912 123.782 52.12 122.71 52.12ZM131.001 52V39.4H132.633V42.832L132.465 42.232C132.817 41.272 133.409 40.544 134.241 40.048C135.073 39.536 136.105 39.28 137.337 39.28V40.936C137.273 40.936 137.209 40.936 137.145 40.936C137.081 40.92 137.017 40.912 136.953 40.912C135.625 40.912 134.585 41.32 133.833 42.136C133.081 42.936 132.705 44.08 132.705 45.568V52H131.001ZM141.081 56.776C140.489 56.776 139.921 56.68 139.377 56.488C138.849 56.296 138.393 56.008 138.009 55.624L138.801 54.352C139.121 54.656 139.465 54.888 139.833 55.048C140.217 55.224 140.641 55.312 141.105 55.312C141.665 55.312 142.145 55.152 142.545 54.832C142.961 54.528 143.353 53.984 143.721 53.2L144.537 51.352L144.729 51.088L149.913 39.4H151.593L145.281 53.512C144.929 54.328 144.537 54.976 144.105 55.456C143.689 55.936 143.233 56.272 142.737 56.464C142.241 56.672 141.689 56.776 141.081 56.776ZM144.441 52.36L138.633 39.4H140.409L145.545 50.968L144.441 52.36ZM160.497 52.12C159.409 52.12 158.425 51.872 157.545 51.376C156.665 50.864 155.961 50.136 155.433 49.192C154.921 48.232 154.665 47.064 154.665 45.688C154.665 44.312 154.921 43.152 155.433 42.208C155.945 41.248 156.641 40.52 157.521 40.024C158.401 39.528 159.393 39.28 160.497 39.28C161.697 39.28 162.769 39.552 163.713 40.096C164.673 40.624 165.425 41.376 165.969 42.352C166.513 43.312 166.785 44.424 166.785 45.688C166.785 46.968 166.513 48.088 165.969 49.048C165.425 50.008 164.673 50.76 163.713 51.304C162.769 51.848 161.697 52.12 160.497 52.12ZM153.993 56.656V39.4H155.625V43.192L155.457 45.712L155.697 48.256V56.656H153.993ZM160.377 50.608C161.273 50.608 162.073 50.408 162.777 50.008C163.481 49.592 164.041 49.016 164.457 48.28C164.873 47.528 165.081 46.664 165.081 45.688C165.081 44.712 164.873 43.856 164.457 43.12C164.041 42.384 163.481 41.808 162.777 41.392C162.073 40.976 161.273 40.768 160.377 40.768C159.481 40.768 158.673 40.976 157.953 41.392C157.249 41.808 156.689 42.384 156.273 43.12C155.873 43.856 155.673 44.712 155.673 45.688C155.673 46.664 155.873 47.528 156.273 48.28C156.689 49.016 157.249 49.592 157.953 50.008C158.673 50.408 159.481 50.608 160.377 50.608ZM174.243 52.12C173.059 52.12 172.147 51.8 171.507 51.16C170.867 50.52 170.547 49.616 170.547 48.448V36.616H172.251V48.352C172.251 49.088 172.435 49.656 172.803 50.056C173.187 50.456 173.731 50.656 174.435 50.656C175.187 50.656 175.811 50.44 176.307 50.008L176.907 51.232C176.571 51.536 176.163 51.76 175.683 51.904C175.219 52.048 174.739 52.12 174.243 52.12ZM168.291 40.816V39.4H176.091V40.816H168.291ZM184.7 52.12C183.484 52.12 182.388 51.848 181.412 51.304C180.452 50.744 179.692 49.984 179.132 49.024C178.572 48.048 178.292 46.936 178.292 45.688C178.292 44.424 178.572 43.312 179.132 42.352C179.692 41.392 180.452 40.64 181.412 40.096C182.372 39.552 183.468 39.28 184.7 39.28C185.948 39.28 187.052 39.552 188.012 40.096C188.988 40.64 189.748 41.392 190.292 42.352C190.852 43.312 191.132 44.424 191.132 45.688C191.132 46.936 190.852 48.048 190.292 49.024C189.748 49.984 188.988 50.744 188.012 51.304C187.036 51.848 185.932 52.12 184.7 52.12ZM184.7 50.608C185.612 50.608 186.42 50.408 187.124 50.008C187.828 49.592 188.38 49.016 188.78 48.28C189.196 47.528 189.404 46.664 189.404 45.688C189.404 44.696 189.196 43.832 188.78 43.096C188.38 42.36 187.828 41.792 187.124 41.392C186.42 40.976 185.62 40.768 184.724 40.768C183.828 40.768 183.028 40.976 182.324 41.392C181.62 41.792 181.06 42.36 180.644 43.096C180.228 43.832 180.02 44.696 180.02 45.688C180.02 46.664 180.228 47.528 180.644 48.28C181.06 49.016 181.62 49.592 182.324 50.008C183.028 50.408 183.82 50.608 184.7 50.608ZM207.324 39.28C208.348 39.28 209.244 39.48 210.012 39.88C210.796 40.264 211.404 40.856 211.836 41.656C212.284 42.456 212.508 43.464 212.508 44.68V52H210.804V44.848C210.804 43.52 210.468 42.52 209.796 41.848C209.14 41.16 208.212 40.816 207.012 40.816C206.116 40.816 205.332 41 204.66 41.368C204.004 41.72 203.492 42.24 203.124 42.928C202.772 43.6 202.596 44.416 202.596 45.376V52H200.892V34.192H202.596V42.856L202.26 42.208C202.66 41.296 203.3 40.584 204.18 40.072C205.06 39.544 206.108 39.28 207.324 39.28ZM217.11 52V39.4H218.814V52H217.11ZM217.974 36.616C217.622 36.616 217.326 36.496 217.086 36.256C216.846 36.016 216.726 35.728 216.726 35.392C216.726 35.056 216.846 34.776 217.086 34.552C217.326 34.312 217.622 34.192 217.974 34.192C218.326 34.192 218.622 34.304 218.862 34.528C219.102 34.752 219.222 35.032 219.222 35.368C219.222 35.72 219.102 36.016 218.862 36.256C218.638 36.496 218.342 36.616 217.974 36.616ZM226.94 52.12C225.9 52.12 224.916 51.976 223.988 51.688C223.06 51.384 222.332 51.008 221.804 50.56L222.572 49.216C223.084 49.6 223.74 49.936 224.54 50.224C225.34 50.496 226.18 50.632 227.06 50.632C228.26 50.632 229.124 50.448 229.652 50.08C230.18 49.696 230.444 49.192 230.444 48.568C230.444 48.104 230.292 47.744 229.988 47.488C229.7 47.216 229.316 47.016 228.836 46.888C228.356 46.744 227.82 46.624 227.228 46.528C226.636 46.432 226.044 46.32 225.452 46.192C224.876 46.064 224.348 45.88 223.868 45.64C223.388 45.384 222.996 45.04 222.692 44.608C222.404 44.176 222.26 43.6 222.26 42.88C222.26 42.192 222.452 41.576 222.836 41.032C223.22 40.488 223.78 40.064 224.516 39.76C225.268 39.44 226.18 39.28 227.252 39.28C228.068 39.28 228.884 39.392 229.7 39.616C230.516 39.824 231.188 40.104 231.716 40.456L230.972 41.824C230.412 41.44 229.812 41.168 229.172 41.008C228.532 40.832 227.892 40.744 227.252 40.744C226.116 40.744 225.276 40.944 224.732 41.344C224.204 41.728 223.94 42.224 223.94 42.832C223.94 43.312 224.084 43.688 224.372 43.96C224.676 44.232 225.068 44.448 225.548 44.608C226.044 44.752 226.58 44.872 227.156 44.968C227.748 45.064 228.332 45.184 228.908 45.328C229.5 45.456 230.036 45.64 230.516 45.88C231.012 46.104 231.404 46.432 231.692 46.864C231.996 47.28 232.148 47.832 232.148 48.52C232.148 49.256 231.94 49.896 231.524 50.44C231.124 50.968 230.532 51.384 229.748 51.688C228.98 51.976 228.044 52.12 226.94 52.12ZM239.258 52.12C238.074 52.12 237.162 51.8 236.522 51.16C235.882 50.52 235.562 49.616 235.562 48.448V36.616H237.266V48.352C237.266 49.088 237.45 49.656 237.818 50.056C238.202 50.456 238.746 50.656 239.45 50.656C240.202 50.656 240.826 50.44 241.322 50.008L241.922 51.232C241.586 51.536 241.178 51.76 240.698 51.904C240.234 52.048 239.754 52.12 239.258 52.12ZM233.306 40.816V39.4H241.106V40.816H233.306ZM249.715 52.12C248.499 52.12 247.403 51.848 246.427 51.304C245.467 50.744 244.707 49.984 244.147 49.024C243.587 48.048 243.307 46.936 243.307 45.688C243.307 44.424 243.587 43.312 244.147 42.352C244.707 41.392 245.467 40.64 246.427 40.096C247.387 39.552 248.483 39.28 249.715 39.28C250.963 39.28 252.067 39.552 253.027 40.096C254.003 40.64 254.763 41.392 255.307 42.352C255.867 43.312 256.147 44.424 256.147 45.688C256.147 46.936 255.867 48.048 255.307 49.024C254.763 49.984 254.003 50.744 253.027 51.304C252.051 51.848 250.947 52.12 249.715 52.12ZM249.715 50.608C250.627 50.608 251.435 50.408 252.139 50.008C252.843 49.592 253.395 49.016 253.795 48.28C254.211 47.528 254.419 46.664 254.419 45.688C254.419 44.696 254.211 43.832 253.795 43.096C253.395 42.36 252.843 41.792 252.139 41.392C251.435 40.976 250.635 40.768 249.739 40.768C248.843 40.768 248.043 40.976 247.339 41.392C246.635 41.792 246.075 42.36 245.659 43.096C245.243 43.832 245.035 44.696 245.035 45.688C245.035 46.664 245.243 47.528 245.659 48.28C246.075 49.016 246.635 49.592 247.339 50.008C248.043 50.408 248.835 50.608 249.715 50.608ZM259.626 52V39.4H261.258V42.832L261.09 42.232C261.442 41.272 262.034 40.544 262.866 40.048C263.698 39.536 264.73 39.28 265.962 39.28V40.936C265.898 40.936 265.834 40.936 265.77 40.936C265.706 40.92 265.642 40.912 265.578 40.912C264.25 40.912 263.21 41.32 262.458 42.136C261.706 42.936 261.33 44.08 261.33 45.568V52H259.626ZM269.706 56.776C269.114 56.776 268.546 56.68 268.002 56.488C267.474 56.296 267.018 56.008 266.634 55.624L267.426 54.352C267.746 54.656 268.09 54.888 268.458 55.048C268.842 55.224 269.266 55.312 269.73 55.312C270.29 55.312 270.77 55.152 271.17 54.832C271.586 54.528 271.978 53.984 272.346 53.2L273.162 51.352L273.354 51.088L278.538 39.4H280.218L273.906 53.512C273.554 54.328 273.162 54.976 272.73 55.456C272.314 55.936 271.858 56.272 271.362 56.464C270.866 56.672 270.314 56.776 269.706 56.776ZM273.066 52.36L267.258 39.4H269.034L274.17 50.968L273.066 52.36ZM289.259 52V35.2H295.547C296.971 35.2 298.195 35.432 299.219 35.896C300.243 36.344 301.027 37 301.571 37.864C302.131 38.712 302.411 39.744 302.411 40.96C302.411 42.144 302.131 43.168 301.571 44.032C301.027 44.88 300.243 45.536 299.219 46C298.195 46.464 296.971 46.696 295.547 46.696H290.243L291.035 45.856V52H289.259ZM291.035 46L290.243 45.136H295.499C297.179 45.136 298.451 44.776 299.315 44.056C300.195 43.32 300.635 42.288 300.635 40.96C300.635 39.616 300.195 38.576 299.315 37.84C298.451 37.104 297.179 36.736 295.499 36.736H290.243L291.035 35.896V46ZM311.173 52.12C309.861 52.12 308.709 51.848 307.717 51.304C306.725 50.744 305.949 49.984 305.389 49.024C304.829 48.048 304.549 46.936 304.549 45.688C304.549 44.44 304.813 43.336 305.341 42.376C305.885 41.416 306.621 40.664 307.549 40.12C308.493 39.56 309.549 39.28 310.717 39.28C311.901 39.28 312.949 39.552 313.861 40.096C314.789 40.624 315.517 41.376 316.045 42.352C316.573 43.312 316.837 44.424 316.837 45.688C316.837 45.768 316.829 45.856 316.813 45.952C316.813 46.032 316.813 46.12 316.813 46.216H305.845V44.944H315.901L315.229 45.448C315.229 44.536 315.029 43.728 314.629 43.024C314.245 42.304 313.717 41.744 313.045 41.344C312.373 40.944 311.597 40.744 310.717 40.744C309.853 40.744 309.077 40.944 308.389 41.344C307.701 41.744 307.165 42.304 306.781 43.024C306.397 43.744 306.205 44.568 306.205 45.496V45.76C306.205 46.72 306.413 47.568 306.829 48.304C307.261 49.024 307.853 49.592 308.605 50.008C309.373 50.408 310.245 50.608 311.221 50.608C311.989 50.608 312.701 50.472 313.357 50.2C314.029 49.928 314.605 49.512 315.085 48.952L316.045 50.056C315.485 50.728 314.781 51.24 313.933 51.592C313.101 51.944 312.181 52.12 311.173 52.12ZM326.81 52.12C325.722 52.12 324.738 51.872 323.858 51.376C322.978 50.864 322.274 50.136 321.746 49.192C321.234 48.232 320.978 47.064 320.978 45.688C320.978 44.312 321.234 43.152 321.746 42.208C322.258 41.248 322.954 40.52 323.834 40.024C324.714 39.528 325.706 39.28 326.81 39.28C328.01 39.28 329.082 39.552 330.026 40.096C330.986 40.624 331.738 41.376 332.282 42.352C332.826 43.312 333.098 44.424 333.098 45.688C333.098 46.968 332.826 48.088 332.282 49.048C331.738 50.008 330.986 50.76 330.026 51.304C329.082 51.848 328.01 52.12 326.81 52.12ZM320.306 56.656V39.4H321.938V43.192L321.77 45.712L322.01 48.256V56.656H320.306ZM326.69 50.608C327.586 50.608 328.386 50.408 329.09 50.008C329.794 49.592 330.354 49.016 330.77 48.28C331.186 47.528 331.394 46.664 331.394 45.688C331.394 44.712 331.186 43.856 330.77 43.12C330.354 42.384 329.794 41.808 329.09 41.392C328.386 40.976 327.586 40.768 326.69 40.768C325.794 40.768 324.986 40.976 324.266 41.392C323.562 41.808 323.002 42.384 322.586 43.12C322.186 43.856 321.986 44.712 321.986 45.688C321.986 46.664 322.186 47.528 322.586 48.28C323.002 49.016 323.562 49.592 324.266 50.008C324.986 50.408 325.794 50.608 326.69 50.608ZM341.923 52.12C340.611 52.12 339.459 51.848 338.467 51.304C337.475 50.744 336.699 49.984 336.139 49.024C335.579 48.048 335.299 46.936 335.299 45.688C335.299 44.44 335.563 43.336 336.091 42.376C336.635 41.416 337.371 40.664 338.299 40.12C339.243 39.56 340.299 39.28 341.467 39.28C342.651 39.28 343.699 39.552 344.611 40.096C345.539 40.624 346.267 41.376 346.795 42.352C347.323 43.312 347.587 44.424 347.587 45.688C347.587 45.768 347.579 45.856 347.563 45.952C347.563 46.032 347.563 46.12 347.563 46.216H336.595V44.944H346.651L345.979 45.448C345.979 44.536 345.779 43.728 345.379 43.024C344.995 42.304 344.467 41.744 343.795 41.344C343.123 40.944 342.347 40.744 341.467 40.744C340.603 40.744 339.827 40.944 339.139 41.344C338.451 41.744 337.915 42.304 337.531 43.024C337.147 43.744 336.955 44.568 336.955 45.496V45.76C336.955 46.72 337.163 47.568 337.579 48.304C338.011 49.024 338.603 49.592 339.355 50.008C340.123 50.408 340.995 50.608 341.971 50.608C342.739 50.608 343.451 50.472 344.107 50.2C344.779 49.928 345.355 49.512 345.835 48.952L346.795 50.056C346.235 50.728 345.531 51.24 344.683 51.592C343.851 51.944 342.931 52.12 341.923 52.12Z" fill="black"/>
</svg>
