<svg width="240" height="202" viewBox="0 0 240 202" fill="none" xmlns="http://www.w3.org/2000/svg">
<path d="M7.512 62.248H4.696C4.024 62.248 3.48 61.704 3.48 61V59.88C3.48 59.176 4.024 58.632 4.696 58.632H16.44C17.144 58.632 17.688 59.176 17.688 59.88V61C17.688 61.704 17.144 62.248 16.44 62.248H13.624V78.664C13.624 79.944 12.568 81 11.288 81H9.88C8.6 81 7.512 79.944 7.512 78.664V62.248ZM31.1865 71.048V73.608C31.1865 74.312 30.6425 74.856 29.9385 74.856H22.8985V76.36C22.8985 76.936 23.3785 77.384 23.9225 77.384C26.7705 77.384 23.5385 75.4 28.0825 75.4C30.1945 75.4 31.2825 75.848 31.1865 77.032C31.1225 78.6 28.9145 81 23.9225 81C20.0185 81 16.8185 77.8 16.8185 73.896V72.2C16.8185 68.296 20.0185 65.064 23.9225 65.064C27.3145 65.064 31.1865 67.368 31.1865 71.048ZM24.9465 71.24C24.9465 70.696 24.9465 70.248 24.9465 69.736C24.9465 69.16 24.4665 68.712 23.9225 68.712C23.3785 68.712 22.8985 69.16 22.8985 69.736V71.24H24.9465ZM34.6338 58.632H36.0418C37.3218 58.632 38.3778 59.688 38.3778 60.968V78.664C38.3778 79.944 37.3218 81 36.0418 81H34.6338C33.3538 81 32.2978 79.944 32.2978 78.664C32.2978 72.776 32.2978 66.856 32.2978 60.968C32.2978 59.688 33.3538 58.632 34.6338 58.632ZM53.749 71.048V73.608C53.749 74.312 53.205 74.856 52.501 74.856H45.461V76.36C45.461 76.936 45.941 77.384 46.485 77.384C49.333 77.384 46.101 75.4 50.645 75.4C52.757 75.4 53.845 75.848 53.749 77.032C53.685 78.6 51.477 81 46.485 81C42.581 81 39.381 77.8 39.381 73.896V72.2C39.381 68.296 42.581 65.064 46.485 65.064C49.877 65.064 53.749 67.368 53.749 71.048ZM47.509 71.24C47.509 70.696 47.509 70.248 47.509 69.736C47.509 69.16 47.029 68.712 46.485 68.712C45.941 68.712 45.461 69.16 45.461 69.736V71.24H47.509ZM60.6523 76.36C60.6523 76.936 61.1323 77.384 61.6763 77.384C62.2203 77.384 62.7003 76.936 62.7003 76.36V69.736C62.7003 69.16 62.2203 68.712 61.6763 68.712C61.1323 68.712 60.6523 69.16 60.6523 69.736V76.36ZM59.3403 65.064C60.7803 65.064 61.9643 65.448 62.8603 66.216C63.1483 65.544 63.8203 65.064 64.5883 65.064H66.9563C67.9803 65.064 68.8123 65.928 68.8123 66.952V80.36C68.8123 84.264 66.4443 87.464 62.5083 87.464H60.3323C54.7003 87.464 54.9883 81.352 58.8923 81.576C60.6203 81.416 61.5163 82.184 61.4843 83.176C61.4843 83.848 61.8043 83.848 62.1243 83.816C62.4123 83.816 62.7323 83.496 62.7323 82.824V80.008C61.8363 80.68 60.7163 81.032 59.3403 81C55.8203 81 54.5723 78.568 54.5723 73.896V72.2C54.5723 67.496 55.7883 65.096 59.3403 65.064ZM72.0905 65.064H75.3225C75.8665 65.064 76.3145 65.544 76.3145 66.088C77.2105 65.416 78.3305 65.064 79.7065 65.064C82.6185 65.096 83.9625 66.728 84.3785 69.896C84.4425 70.44 84.2825 70.952 83.8985 71.368C83.5465 71.784 83.0665 72.008 82.4905 72.008H80.2505C79.2265 72.008 78.3945 71.144 78.3945 70.12V69.736C78.3945 69.16 77.9145 68.712 77.3705 68.712C76.8265 68.712 76.3465 69.16 76.3465 69.736V73.032H76.3145V78.664C76.3145 79.944 75.2585 81 73.9785 81H72.5705C71.2905 81 70.2345 79.944 70.2345 78.664V66.952C70.2345 65.928 71.0665 65.064 72.0905 65.064ZM90.7758 77.32V77.896C90.7758 79.208 92.7917 77.832 92.7917 76.52V74.152C92.0238 74.152 90.7758 76.168 90.7758 77.32ZM98.8718 72.2V79.144C98.8718 80.168 98.0398 81 97.0158 81H94.6478C93.8158 81 93.1118 80.456 92.8558 79.72C91.4798 80.712 89.5278 81 88.0558 81C86.1678 81 84.6638 79.496 84.6638 77.608C84.6638 73.8 89.3678 72.488 92.7917 72.136V69.736C92.7917 69.16 92.3118 68.712 91.7678 68.712C91.2238 68.712 90.7438 69.16 90.7438 69.736C90.7758 70.728 90.9678 71.88 87.6078 72.008C85.8158 72.072 84.9518 72.04 84.6638 71.048V70.024C85.2718 67.336 88.3438 65.064 91.7678 65.064C95.6718 65.064 98.8718 68.296 98.8718 72.2ZM105.103 65.064C105.679 65.064 106.127 65.544 106.127 66.088C107.023 65.416 108.143 65.064 109.519 65.064C111.375 65.096 112.591 65.736 113.327 67.048C114.287 65.736 115.759 65.064 117.615 65.064C121.167 65.096 122.415 67.496 122.415 72.2V78.664C122.415 79.944 121.359 81 120.079 81H118.671C117.391 81 116.335 79.944 116.335 78.664V69.736C116.335 69.16 115.855 68.712 115.311 68.712C114.735 68.712 114.287 69.16 114.287 69.736V71.592C114.287 71.784 114.287 72.008 114.287 72.2V78.664C114.287 79.944 113.231 81 111.951 81H110.543C109.263 81 108.207 79.944 108.207 78.664V69.736C108.207 69.16 107.727 68.712 107.183 68.712C106.639 68.712 106.159 69.16 106.159 69.736V73.032H106.127V78.664C106.127 79.944 105.071 81 103.791 81H102.383C101.103 81 100.047 79.944 100.047 78.664V66.952C100.047 65.928 100.879 65.064 101.903 65.064H105.103Z" fill="#F46BA4"/>
<path d="M2.592 109.32C2.16 109.288 1.96 109.008 1.992 108.48C2.008 108.352 2.096 108.2 2.256 108.024C2.416 107.832 2.6 107.728 2.808 107.712C3.304 107.664 3.912 107.592 4.632 107.496C5.368 107.384 6.176 107.256 7.056 107.112C7.216 106.328 7.408 105.504 7.632 104.64C7.856 103.776 8.104 102.936 8.376 102.12C8.648 101.288 8.936 100.536 9.24 99.864C9.544 99.192 9.864 98.664 10.2 98.28C10.376 98.104 10.536 97.984 10.68 97.92C10.824 97.84 10.952 97.8 11.064 97.8C11.288 97.8 11.464 97.896 11.592 98.088C11.736 98.28 11.808 98.496 11.808 98.736C11.808 98.864 11.784 98.992 11.736 99.12C11.416 100.016 11.072 101.12 10.704 102.432C10.336 103.744 9.944 105.176 9.528 106.728C11 106.488 12.472 106.232 13.944 105.96C15.416 105.688 16.68 105.44 17.736 105.216C18.04 105.088 18.272 105.112 18.432 105.288C18.608 105.464 18.696 105.64 18.696 105.816C18.696 106.04 18.632 106.208 18.504 106.32C18.392 106.432 18.272 106.528 18.144 106.608L18.12 106.632C17.8 106.76 17.32 106.912 16.68 107.088C16.04 107.248 15.304 107.424 14.472 107.616C13.64 107.792 12.752 107.968 11.808 108.144C10.88 108.32 9.96 108.48 9.048 108.624C8.68 110.032 8.304 111.48 7.92 112.968C7.552 114.44 7.184 115.888 6.816 117.312C6.656 117.888 6.472 118.248 6.264 118.392C6.072 118.552 5.864 118.632 5.64 118.632C5.384 118.632 5.16 118.536 4.968 118.344C4.792 118.152 4.768 117.76 4.896 117.168L6.648 108.984C5.688 109.128 4.84 109.232 4.104 109.296C3.384 109.36 2.88 109.368 2.592 109.32ZM14.4803 117.36C14.1283 117.36 13.7843 117.248 13.4482 117.024C13.1283 116.8 12.9683 116.432 12.9683 115.92C12.9683 115.504 13.0723 115.168 13.2803 114.912C13.4883 114.656 13.7283 114.472 14.0003 114.36C14.2723 114.232 14.5123 114.168 14.7203 114.168C14.9283 114.168 15.1603 114.216 15.4163 114.312C15.6883 114.408 15.9203 114.576 16.1123 114.816C16.3043 115.04 16.4003 115.376 16.4003 115.824C16.4003 116.272 16.2083 116.64 15.8242 116.928C15.4403 117.216 14.9923 117.36 14.4803 117.36ZM38.7617 116.28C38.7457 116.536 38.6417 116.744 38.4497 116.904C38.2577 117.064 38.0337 117.144 37.7777 117.144C37.4897 117.144 37.2497 117.048 37.0577 116.856C36.8657 116.664 36.7697 116.368 36.7697 115.968C36.7697 114.928 36.8177 113.8 36.9137 112.584C37.0097 111.352 37.1297 110.136 37.2737 108.936C37.4177 107.72 37.5617 106.6 37.7057 105.576C37.1777 106.328 36.6017 107.16 35.9777 108.072C35.3697 108.984 34.7457 109.888 34.1057 110.784C33.4657 111.68 32.8417 112.504 32.2337 113.256C31.6257 113.992 31.0737 114.592 30.5777 115.056C30.0817 115.504 29.6737 115.728 29.3537 115.728C28.7617 115.728 28.2497 115.496 27.8177 115.032C27.3857 114.552 27.1697 113.952 27.1697 113.232C27.1697 112.944 27.2017 112.552 27.2657 112.056C27.3297 111.544 27.4017 111.008 27.4817 110.448C27.5617 109.888 27.6337 109.368 27.6977 108.888C27.7617 108.392 27.7937 108.024 27.7937 107.784C27.7937 107.56 27.7697 107.368 27.7217 107.208C27.6897 107.032 27.6097 106.944 27.4817 106.944C27.2897 106.944 27.0257 107.16 26.6897 107.592C26.3537 108.008 25.9777 108.544 25.5617 109.2C25.1617 109.856 24.7457 110.552 24.3137 111.288C23.8977 112.024 23.5057 112.72 23.1377 113.376C22.7697 114.016 22.4577 114.52 22.2017 114.888C21.9937 115.24 21.8017 115.496 21.6257 115.656C21.4497 115.816 21.2337 115.896 20.9777 115.896C20.6737 115.896 20.3937 115.736 20.1377 115.416C19.8977 115.096 19.7777 114.704 19.7777 114.24C19.7777 113.968 19.8257 113.544 19.9217 112.968C20.0177 112.376 20.1377 111.728 20.2817 111.024C20.4417 110.32 20.5937 109.632 20.7377 108.96C20.8977 108.272 21.0337 107.688 21.1457 107.208C21.2737 106.664 21.4337 106.296 21.6257 106.104C21.8177 105.912 22.0257 105.816 22.2497 105.816C22.5537 105.816 22.7937 105.928 22.9697 106.152C23.1617 106.36 23.2577 106.688 23.2577 107.136C23.2577 107.216 23.2097 107.432 23.1137 107.784C23.0177 108.12 22.8977 108.536 22.7537 109.032C22.6257 109.512 22.4817 110.016 22.3217 110.544C22.1777 111.072 22.0577 111.56 21.9617 112.008C22.3137 111.416 22.6817 110.776 23.0657 110.088C23.4657 109.4 23.8657 108.72 24.2657 108.048C24.6657 107.36 25.0657 106.736 25.4657 106.176C25.8657 105.6 26.2577 105.144 26.6417 104.808C27.0257 104.472 27.3937 104.304 27.7457 104.304C28.1617 104.304 28.5457 104.432 28.8977 104.688C29.2657 104.944 29.5617 105.288 29.7857 105.72C30.0097 106.152 30.1217 106.632 30.1217 107.16C30.1217 107.528 30.0577 108.048 29.9297 108.72C29.8017 109.376 29.6657 110.088 29.5217 110.856C29.3937 111.624 29.3137 112.352 29.2817 113.04C29.2817 113.2 29.3297 113.28 29.4257 113.28C29.5057 113.28 29.6017 113.224 29.7137 113.112C30.1777 112.6 30.6897 111.984 31.2497 111.264C31.8097 110.528 32.3777 109.752 32.9537 108.936C33.5457 108.12 34.1297 107.32 34.7057 106.536C35.2817 105.736 35.8177 105.016 36.3137 104.376C36.8257 103.72 37.2737 103.2 37.6577 102.816C38.0577 102.432 38.3697 102.24 38.5937 102.24C39.0737 102.24 39.4417 102.376 39.6977 102.648C39.9537 102.92 40.0817 103.376 40.0817 104.016C40.0817 104.528 40.0417 105.192 39.9617 106.008C39.8977 106.824 39.8097 107.712 39.6977 108.672C39.6017 109.632 39.4897 110.6 39.3617 111.576C39.2497 112.536 39.1377 113.432 39.0257 114.264C38.9137 115.08 38.8257 115.752 38.7617 116.28ZM53.178 106.656C53.178 107.168 53.018 107.672 52.698 108.168C52.378 108.648 51.954 109.112 51.426 109.56C50.898 109.992 50.314 110.4 49.674 110.784C49.034 111.168 48.394 111.504 47.754 111.792C47.114 112.08 46.53 112.312 46.002 112.488C45.874 113.112 45.81 113.664 45.81 114.144C45.81 114.448 45.882 114.664 46.026 114.792C46.17 114.92 46.394 114.984 46.698 114.984C47.37 114.984 48.082 114.864 48.834 114.624C49.586 114.384 50.354 114.072 51.138 113.688C51.922 113.304 52.674 112.896 53.394 112.464C54.114 112.032 54.77 111.624 55.362 111.24C55.97 110.856 56.474 110.544 56.874 110.304C57.274 110.064 57.538 109.944 57.666 109.944C57.858 109.944 58.002 110.008 58.098 110.136C58.21 110.248 58.266 110.384 58.266 110.544C58.266 110.672 58.066 110.92 57.666 111.288C57.282 111.656 56.762 112.088 56.106 112.584C55.45 113.064 54.714 113.56 53.898 114.072C53.082 114.584 52.234 115.064 51.354 115.512C50.49 115.96 49.65 116.32 48.834 116.592C48.034 116.864 47.314 117 46.674 117C45.842 117 45.194 116.688 44.73 116.064C44.266 115.44 44.034 114.472 44.034 113.16C44.034 112.28 44.146 111.392 44.37 110.496C44.61 109.6 44.93 108.744 45.33 107.928C45.746 107.096 46.202 106.36 46.698 105.72C47.21 105.064 47.746 104.552 48.306 104.184C48.866 103.8 49.41 103.608 49.938 103.608C50.946 103.608 51.738 103.888 52.314 104.448C52.89 105.008 53.178 105.744 53.178 106.656ZM46.506 110.64C47.002 110.336 47.514 110.016 48.042 109.68C48.57 109.344 49.058 109 49.506 108.648C49.954 108.296 50.314 107.928 50.586 107.544C50.874 107.144 51.018 106.736 51.018 106.32C51.018 105.728 50.698 105.432 50.058 105.432C49.658 105.432 49.234 105.688 48.786 106.2C48.354 106.696 47.938 107.344 47.538 108.144C47.138 108.944 46.794 109.776 46.506 110.64ZM55.6073 120.984C55.3513 120.984 55.1513 120.88 55.0072 120.672C54.8632 120.464 54.7912 120.12 54.7912 119.64C54.7912 119.48 54.9192 119.088 55.1753 118.464C55.4313 117.84 55.7833 117.048 56.2313 116.088C56.6953 115.112 57.2153 114.024 57.7913 112.824C58.3833 111.624 59.0073 110.384 59.6633 109.104C60.3193 107.808 60.9833 106.52 61.6553 105.24C62.3273 103.96 62.9753 102.752 63.5993 101.616C64.2233 100.464 64.7913 99.456 65.3033 98.592C65.5273 98.256 65.7193 98.048 65.8793 97.968C66.0553 97.872 66.2633 97.824 66.5033 97.824C66.7433 97.824 66.9273 97.928 67.0553 98.136C67.1993 98.328 67.2713 98.56 67.2713 98.832C67.2713 98.976 67.1193 99.384 66.8153 100.056C66.5113 100.712 66.0953 101.576 65.5673 102.648C65.0393 103.704 64.4233 104.912 63.7193 106.272C63.0313 107.616 62.2873 109.056 61.4873 110.592C60.7033 112.112 59.9033 113.672 59.0873 115.272C58.2713 116.856 57.4793 118.424 56.7113 119.976C56.5353 120.344 56.3673 120.6 56.2073 120.744C56.0473 120.904 55.8473 120.984 55.6073 120.984ZM68.2103 118.08C67.8583 118.08 67.5863 117.976 67.3943 117.768C67.2023 117.576 67.1063 117.088 67.1063 116.304C67.1063 115.584 67.2343 114.648 67.4902 113.496C67.7463 112.328 68.0903 111.032 68.5223 109.608C68.9543 108.184 69.4423 106.712 69.9863 105.192C70.5303 103.656 71.0983 102.152 71.6903 100.68C72.2983 99.192 72.8823 97.832 73.4423 96.6C73.6503 96.152 73.8663 95.84 74.0903 95.664C74.3143 95.488 74.5783 95.4 74.8823 95.4C75.0903 95.4 75.2663 95.464 75.4103 95.592C75.5703 95.704 75.6503 95.896 75.6503 96.168C75.6503 96.264 75.5463 96.576 75.3383 97.104C75.1463 97.632 74.8743 98.328 74.5223 99.192C74.1863 100.056 73.8103 101.024 73.3943 102.096C72.9783 103.168 72.5543 104.296 72.1223 105.48C71.6903 106.664 71.2823 107.856 70.8983 109.056C70.5143 110.24 70.1863 111.376 69.9143 112.464C69.6423 113.552 69.4583 114.528 69.3623 115.392C69.7463 114.928 70.1863 114.336 70.6823 113.616C71.1783 112.896 71.7063 112.12 72.2663 111.288C72.8263 110.456 73.3943 109.632 73.9703 108.816C74.5463 108 75.1143 107.256 75.6743 106.584C76.2343 105.912 76.7543 105.376 77.2343 104.976C77.7303 104.56 78.1623 104.352 78.5303 104.352C79.1383 104.352 79.6263 104.544 79.9943 104.928C80.3783 105.296 80.5703 105.904 80.5703 106.752C80.5703 107.232 80.4743 107.808 80.2823 108.48C80.1063 109.152 79.8983 109.856 79.6583 110.592C79.4183 111.328 79.2023 112.032 79.0103 112.704C78.8343 113.376 78.7463 113.952 78.7463 114.432C78.7463 115.088 78.9943 115.416 79.4903 115.416C80.2583 115.416 81.0263 115.248 81.7943 114.912C82.5783 114.576 83.3223 114.16 84.0263 113.664C84.7303 113.152 85.3783 112.64 85.9703 112.128C86.5623 111.6 87.0663 111.152 87.4823 110.784C87.9303 110.384 88.3063 110.184 88.6103 110.184C88.9943 110.184 89.1863 110.384 89.1863 110.784C89.1863 110.896 89.1623 111.024 89.1143 111.168C89.0663 111.312 88.9383 111.496 88.7303 111.72C88.4743 112.008 88.1063 112.384 87.6263 112.848C87.1623 113.312 86.6183 113.808 85.9943 114.336C85.3863 114.864 84.7223 115.36 84.0023 115.824C83.2983 116.288 82.5703 116.672 81.8183 116.976C81.0823 117.264 80.3623 117.408 79.6583 117.408C78.6983 117.408 77.9543 117.136 77.4263 116.592C76.9143 116.032 76.6583 115.264 76.6583 114.288C76.6583 113.68 76.7543 112.944 76.9463 112.08C77.1383 111.216 77.3783 110.304 77.6663 109.344C77.9703 108.368 78.2743 107.416 78.5782 106.488C78.0663 106.84 77.5063 107.368 76.8983 108.072C76.3063 108.76 75.6823 109.544 75.0263 110.424C74.3703 111.288 73.7143 112.168 73.0583 113.064C72.4183 113.96 71.7943 114.792 71.1863 115.56C70.5943 116.312 70.0423 116.92 69.5303 117.384C69.0183 117.848 68.5783 118.08 68.2103 118.08ZM91.1443 117.24C90.2003 117.24 89.4563 116.88 88.9123 116.16C88.3683 115.44 88.0963 114.504 88.0963 113.352C88.0963 112.936 88.1523 112.496 88.2643 112.032C88.3923 111.552 88.5523 111.12 88.7443 110.736C88.6323 110.624 88.5443 110.472 88.4803 110.28C88.4163 110.072 88.3843 109.816 88.3843 109.512C88.3843 108.568 88.5443 107.704 88.8643 106.92C89.1843 106.136 89.6083 105.456 90.1363 104.88C90.6643 104.288 91.2483 103.832 91.8883 103.512C92.5443 103.192 93.2083 103.032 93.8803 103.032C94.9843 103.032 95.8803 103.432 96.5683 104.232C97.2563 105.016 97.6003 106.216 97.6003 107.832C97.6003 108.68 97.4723 109.544 97.2163 110.424C96.9763 111.304 96.6403 112.152 96.2083 112.968C95.7923 113.784 95.3043 114.512 94.7443 115.152C94.2003 115.792 93.6163 116.304 92.9923 116.688C92.3843 117.056 91.7683 117.24 91.1443 117.24ZM90.3283 109.92C90.4243 110.048 90.4723 110.216 90.4723 110.424C90.4723 110.664 90.4243 110.904 90.3283 111.144C90.2483 111.384 90.1603 111.712 90.0643 112.128C89.9683 112.544 89.9203 113.136 89.9203 113.904C89.9203 114.672 90.2243 115.056 90.8323 115.056C91.5043 115.056 92.1283 114.792 92.7043 114.264C93.2803 113.72 93.7923 113.024 94.2403 112.176C94.6883 111.328 95.0323 110.424 95.2723 109.464C95.5283 108.488 95.6563 107.568 95.6563 106.704C95.6563 106.144 95.5523 105.752 95.3443 105.528C95.1363 105.288 94.7603 105.168 94.2163 105.168C93.6563 105.168 93.0723 105.36 92.4643 105.744C91.8723 106.112 91.3763 106.616 90.9763 107.256C90.5763 107.896 90.3763 108.616 90.3763 109.416C90.3763 109.592 90.3603 109.76 90.3283 109.92ZM101.057 117.456C100.801 117.456 100.585 117.352 100.409 117.144C100.233 116.936 100.145 116.648 100.145 116.28C100.145 116.008 100.201 115.56 100.313 114.936C100.441 114.296 100.577 113.552 100.721 112.704C100.881 111.856 101.017 110.976 101.129 110.064C101.241 109.136 101.297 108.248 101.297 107.4C101.297 106.984 101.401 106.68 101.609 106.488C101.833 106.28 102.081 106.176 102.353 106.176C102.609 106.176 102.801 106.336 102.929 106.656C103.057 106.976 103.081 107.616 103.001 108.576C103.737 106.944 104.545 105.632 105.425 104.64C106.321 103.632 107.209 102.912 108.089 102.48C108.969 102.032 109.761 101.808 110.465 101.808C110.929 101.808 111.265 101.904 111.473 102.096C111.697 102.272 111.809 102.472 111.809 102.696C111.809 103 111.681 103.24 111.425 103.416C111.185 103.576 110.761 103.768 110.153 103.992C109.449 104.264 108.801 104.584 108.209 104.952C107.633 105.304 107.081 105.768 106.553 106.344C106.041 106.92 105.537 107.656 105.041 108.552C104.545 109.432 104.049 110.52 103.553 111.816C103.057 113.112 102.529 114.672 101.969 116.496C101.873 116.848 101.745 117.096 101.585 117.24C101.441 117.384 101.265 117.456 101.057 117.456ZM113.217 116.448C112.753 116.448 112.337 116.184 111.969 115.656C111.601 115.128 111.417 114.448 111.417 113.616C111.417 112.704 111.537 111.728 111.777 110.688C112.033 109.648 112.345 108.592 112.713 107.52C113.081 106.432 113.441 105.384 113.793 104.376C113.873 104.168 113.985 104.016 114.129 103.92C114.289 103.808 114.529 103.752 114.849 103.752C115.425 103.752 115.713 104.032 115.713 104.592C115.713 104.72 115.649 105.008 115.521 105.456C115.393 105.904 115.225 106.456 115.017 107.112C114.825 107.768 114.625 108.48 114.417 109.248C114.209 110 114.025 110.76 113.865 111.528C113.705 112.296 113.593 113.008 113.529 113.664C113.785 113.392 114.073 112.976 114.393 112.416C114.729 111.856 115.089 111.224 115.473 110.52C115.857 109.8 116.257 109.08 116.673 108.36C117.089 107.624 117.505 106.952 117.921 106.344C118.353 105.72 118.769 105.224 119.169 104.856C119.585 104.472 119.969 104.28 120.321 104.28C120.833 104.28 121.265 104.44 121.617 104.76C121.985 105.064 122.265 105.608 122.457 106.392C122.665 107.16 122.769 108.248 122.769 109.656C122.769 110.408 122.841 111.112 122.985 111.768C123.145 112.424 123.393 112.952 123.729 113.352C124.081 113.736 124.529 113.928 125.073 113.928C125.889 113.928 126.617 113.784 127.257 113.496C127.897 113.192 128.449 112.856 128.913 112.488C129.393 112.104 129.793 111.768 130.113 111.48C130.433 111.176 130.681 111.024 130.857 111.024C131.225 111.024 131.409 111.216 131.409 111.6C131.409 111.76 131.289 112.016 131.049 112.368C130.825 112.704 130.505 113.088 130.089 113.52C129.689 113.936 129.225 114.344 128.697 114.744C128.185 115.128 127.633 115.448 127.041 115.704C126.465 115.96 125.881 116.088 125.289 116.088C124.185 116.088 123.281 115.872 122.577 115.44C121.889 115.008 121.377 114.296 121.041 113.304C120.721 112.312 120.561 110.984 120.561 109.32C120.561 108.408 120.505 107.744 120.393 107.328C120.297 106.896 120.113 106.608 119.841 106.464C119.649 106.8 119.401 107.28 119.097 107.904C118.793 108.512 118.441 109.192 118.041 109.944C117.657 110.696 117.249 111.456 116.817 112.224C116.401 112.976 115.977 113.672 115.545 114.312C115.113 114.952 114.697 115.472 114.297 115.872C113.897 116.256 113.537 116.448 113.217 116.448ZM133.037 123.168C132.237 123.168 131.501 123.112 130.829 123C130.173 122.904 129.525 122.744 128.885 122.52C128.245 122.312 127.549 122.04 126.797 121.704C126.573 121.592 126.373 121.456 126.197 121.296C126.021 121.152 125.933 120.984 125.933 120.792C125.933 120.552 126.085 120.296 126.389 120.024C126.677 119.768 126.949 119.64 127.205 119.64C127.477 119.64 127.813 119.736 128.213 119.928C128.629 120.12 129.109 120.344 129.653 120.6C130.197 120.872 130.797 121.104 131.453 121.296C132.125 121.488 132.845 121.584 133.613 121.584C134.445 121.584 135.229 121.24 135.965 120.552C136.701 119.864 137.301 118.872 137.765 117.576C138.229 116.296 138.461 114.752 138.461 112.944C138.461 112.4 138.445 111.8 138.413 111.144C138.397 110.472 138.365 109.768 138.317 109.032C137.933 109.864 137.501 110.688 137.021 111.504C136.557 112.32 136.069 113.056 135.557 113.712C135.061 114.368 134.541 114.896 133.997 115.296C133.469 115.68 132.933 115.872 132.389 115.872C131.701 115.872 131.205 115.696 130.901 115.344C130.597 114.992 130.445 114.448 130.445 113.712C130.445 112.944 130.501 112.112 130.613 111.216C130.725 110.32 130.869 109.416 131.045 108.504C131.237 107.576 131.461 106.696 131.717 105.864C131.973 105.032 132.245 104.312 132.533 103.704C132.693 103.384 132.933 103.224 133.253 103.224C133.477 103.224 133.693 103.344 133.901 103.584C134.125 103.808 134.237 104.104 134.237 104.472C134.237 104.76 134.173 105.168 134.045 105.696C133.917 106.224 133.757 106.824 133.565 107.496C133.373 108.168 133.181 108.872 132.989 109.608C132.797 110.328 132.637 111.04 132.509 111.744C132.381 112.432 132.317 113.064 132.317 113.64C132.317 113.88 132.477 114 132.797 114C132.973 114 133.221 113.84 133.541 113.52C133.877 113.184 134.245 112.752 134.645 112.224C135.061 111.68 135.477 111.088 135.893 110.448C136.325 109.792 136.741 109.144 137.141 108.504C137.541 107.848 137.885 107.248 138.173 106.704C138.157 106.576 138.149 106.456 138.149 106.344C138.149 106.232 138.149 106.128 138.149 106.032C138.149 105.248 138.229 104.76 138.389 104.568C138.565 104.36 138.789 104.256 139.061 104.256C139.525 104.256 139.853 104.36 140.045 104.568C140.237 104.776 140.333 105.136 140.333 105.648C140.333 105.84 140.309 106.048 140.261 106.272C140.213 106.48 140.133 106.784 140.021 107.184C140.149 108.448 140.253 109.584 140.333 110.592C140.429 111.6 140.477 112.616 140.477 113.64C140.477 115.576 140.165 117.256 139.541 118.68C138.933 120.104 138.069 121.208 136.949 121.992C135.845 122.776 134.541 123.168 133.037 123.168ZM146.965 117.024C146.277 117.024 145.789 116.888 145.501 116.616C145.213 116.344 145.069 115.944 145.069 115.416C145.069 112.76 145.549 109.984 146.509 107.088C147.469 104.176 148.813 101.256 150.541 98.328C150.765 97.96 150.941 97.728 151.069 97.632C151.213 97.536 151.381 97.488 151.573 97.488C151.797 97.488 151.997 97.568 152.173 97.728C152.349 97.888 152.437 98.104 152.437 98.376C152.437 98.52 152.293 98.912 152.005 99.552C151.717 100.176 151.349 100.984 150.901 101.976C150.453 102.968 149.973 104.08 149.461 105.312C148.965 106.528 148.493 107.8 148.045 109.128C147.597 110.456 147.237 111.776 146.965 113.088C147.333 112.544 147.773 111.96 148.285 111.336C148.813 110.712 149.373 110.088 149.965 109.464C150.557 108.84 151.157 108.272 151.765 107.76C152.389 107.248 152.989 106.84 153.565 106.536C154.141 106.232 154.669 106.08 155.149 106.08C155.773 106.08 156.317 106.344 156.781 106.872C157.261 107.384 157.501 108.16 157.501 109.2C157.501 110.08 157.261 110.984 156.781 111.912C156.301 112.824 155.597 113.672 154.669 114.456C153.757 115.224 152.653 115.848 151.357 116.328C150.061 116.792 148.597 117.024 146.965 117.024ZM147.061 115.2C148.389 115.2 149.597 114.976 150.685 114.528C151.773 114.08 152.701 113.512 153.469 112.824C154.253 112.12 154.853 111.392 155.269 110.64C155.701 109.872 155.917 109.176 155.917 108.552C155.917 108.104 155.765 107.88 155.461 107.88C155.093 107.88 154.621 108.056 154.045 108.408C153.469 108.76 152.845 109.224 152.173 109.8C151.517 110.376 150.861 111 150.205 111.672C149.549 112.328 148.941 112.968 148.381 113.592C147.837 114.216 147.397 114.752 147.061 115.2ZM162.709 123.168C161.909 123.168 161.173 123.112 160.501 123C159.845 122.904 159.197 122.744 158.557 122.52C157.917 122.312 157.221 122.04 156.469 121.704C156.245 121.592 156.045 121.456 155.869 121.296C155.693 121.152 155.605 120.984 155.605 120.792C155.605 120.552 155.757 120.296 156.061 120.024C156.349 119.768 156.621 119.64 156.877 119.64C157.149 119.64 157.485 119.736 157.885 119.928C158.301 120.12 158.781 120.344 159.325 120.6C159.869 120.872 160.469 121.104 161.125 121.296C161.797 121.488 162.517 121.584 163.285 121.584C164.117 121.584 164.901 121.24 165.637 120.552C166.373 119.864 166.973 118.872 167.437 117.576C167.901 116.296 168.133 114.752 168.133 112.944C168.133 112.4 168.117 111.8 168.085 111.144C168.069 110.472 168.037 109.768 167.989 109.032C167.605 109.864 167.173 110.688 166.693 111.504C166.229 112.32 165.741 113.056 165.229 113.712C164.733 114.368 164.213 114.896 163.669 115.296C163.141 115.68 162.605 115.872 162.061 115.872C161.373 115.872 160.877 115.696 160.573 115.344C160.269 114.992 160.117 114.448 160.117 113.712C160.117 112.944 160.173 112.112 160.285 111.216C160.397 110.32 160.541 109.416 160.717 108.504C160.909 107.576 161.133 106.696 161.389 105.864C161.645 105.032 161.917 104.312 162.205 103.704C162.365 103.384 162.605 103.224 162.925 103.224C163.149 103.224 163.365 103.344 163.573 103.584C163.797 103.808 163.909 104.104 163.909 104.472C163.909 104.76 163.845 105.168 163.717 105.696C163.589 106.224 163.429 106.824 163.237 107.496C163.045 108.168 162.853 108.872 162.661 109.608C162.469 110.328 162.309 111.04 162.181 111.744C162.053 112.432 161.989 113.064 161.989 113.64C161.989 113.88 162.149 114 162.469 114C162.645 114 162.893 113.84 163.213 113.52C163.549 113.184 163.917 112.752 164.317 112.224C164.733 111.68 165.149 111.088 165.565 110.448C165.997 109.792 166.413 109.144 166.813 108.504C167.213 107.848 167.557 107.248 167.845 106.704C167.829 106.576 167.821 106.456 167.821 106.344C167.821 106.232 167.821 106.128 167.821 106.032C167.821 105.248 167.901 104.76 168.061 104.568C168.237 104.36 168.461 104.256 168.733 104.256C169.197 104.256 169.525 104.36 169.717 104.568C169.909 104.776 170.005 105.136 170.005 105.648C170.005 105.84 169.981 106.048 169.933 106.272C169.885 106.48 169.805 106.784 169.693 107.184C169.821 108.448 169.925 109.584 170.005 110.592C170.101 111.6 170.149 112.616 170.149 113.64C170.149 115.576 169.837 117.256 169.213 118.68C168.605 120.104 167.741 121.208 166.621 121.992C165.517 122.776 164.213 123.168 162.709 123.168ZM192.723 116.28C192.707 116.536 192.603 116.744 192.411 116.904C192.219 117.064 191.995 117.144 191.739 117.144C191.451 117.144 191.211 117.048 191.019 116.856C190.827 116.664 190.731 116.368 190.731 115.968C190.731 114.928 190.779 113.8 190.875 112.584C190.971 111.352 191.091 110.136 191.235 108.936C191.379 107.72 191.523 106.6 191.667 105.576C191.139 106.328 190.563 107.16 189.939 108.072C189.331 108.984 188.707 109.888 188.067 110.784C187.427 111.68 186.803 112.504 186.195 113.256C185.587 113.992 185.035 114.592 184.539 115.056C184.043 115.504 183.635 115.728 183.315 115.728C182.723 115.728 182.211 115.496 181.779 115.032C181.347 114.552 181.131 113.952 181.131 113.232C181.131 112.944 181.163 112.552 181.227 112.056C181.291 111.544 181.363 111.008 181.443 110.448C181.523 109.888 181.595 109.368 181.659 108.888C181.723 108.392 181.755 108.024 181.755 107.784C181.755 107.56 181.731 107.368 181.683 107.208C181.651 107.032 181.571 106.944 181.443 106.944C181.251 106.944 180.987 107.16 180.651 107.592C180.315 108.008 179.939 108.544 179.523 109.2C179.123 109.856 178.707 110.552 178.275 111.288C177.859 112.024 177.467 112.72 177.099 113.376C176.731 114.016 176.419 114.52 176.163 114.888C175.955 115.24 175.763 115.496 175.587 115.656C175.411 115.816 175.195 115.896 174.939 115.896C174.635 115.896 174.355 115.736 174.099 115.416C173.859 115.096 173.739 114.704 173.739 114.24C173.739 113.968 173.787 113.544 173.883 112.968C173.979 112.376 174.099 111.728 174.243 111.024C174.403 110.32 174.555 109.632 174.699 108.96C174.859 108.272 174.995 107.688 175.107 107.208C175.235 106.664 175.395 106.296 175.587 106.104C175.779 105.912 175.987 105.816 176.211 105.816C176.515 105.816 176.755 105.928 176.931 106.152C177.123 106.36 177.219 106.688 177.219 107.136C177.219 107.216 177.171 107.432 177.075 107.784C176.979 108.12 176.859 108.536 176.715 109.032C176.587 109.512 176.443 110.016 176.283 110.544C176.139 111.072 176.019 111.56 175.923 112.008C176.275 111.416 176.643 110.776 177.027 110.088C177.427 109.4 177.827 108.72 178.227 108.048C178.627 107.36 179.027 106.736 179.427 106.176C179.827 105.6 180.219 105.144 180.603 104.808C180.987 104.472 181.355 104.304 181.707 104.304C182.123 104.304 182.507 104.432 182.859 104.688C183.227 104.944 183.523 105.288 183.747 105.72C183.971 106.152 184.083 106.632 184.083 107.16C184.083 107.528 184.019 108.048 183.891 108.72C183.763 109.376 183.627 110.088 183.483 110.856C183.355 111.624 183.275 112.352 183.243 113.04C183.243 113.2 183.291 113.28 183.387 113.28C183.467 113.28 183.563 113.224 183.675 113.112C184.139 112.6 184.651 111.984 185.211 111.264C185.771 110.528 186.339 109.752 186.915 108.936C187.507 108.12 188.091 107.32 188.667 106.536C189.243 105.736 189.779 105.016 190.275 104.376C190.787 103.72 191.235 103.2 191.619 102.816C192.019 102.432 192.331 102.24 192.555 102.24C193.035 102.24 193.403 102.376 193.659 102.648C193.915 102.92 194.043 103.376 194.043 104.016C194.043 104.528 194.003 105.192 193.923 106.008C193.859 106.824 193.771 107.712 193.659 108.672C193.563 109.632 193.451 110.6 193.323 111.576C193.211 112.536 193.099 113.432 192.987 114.264C192.875 115.08 192.787 115.752 192.723 116.28ZM198.571 117.624C197.963 117.624 197.459 117.344 197.059 116.784C196.675 116.208 196.483 115.464 196.483 114.552C196.483 113.704 196.691 112.864 197.107 112.032C197.539 111.2 198.107 110.4 198.811 109.632C199.515 108.864 200.283 108.16 201.115 107.52C201.947 106.864 202.779 106.296 203.611 105.816C204.459 105.336 205.235 104.96 205.939 104.688C206.643 104.416 207.203 104.28 207.619 104.28C207.843 104.28 208.027 104.328 208.171 104.424C208.315 104.504 208.387 104.656 208.387 104.88C208.387 105.024 208.331 105.16 208.219 105.288C208.235 105.288 208.251 105.288 208.267 105.288C208.619 105.288 208.795 105.496 208.795 105.912C208.795 106.056 208.739 106.352 208.627 106.8C208.515 107.232 208.387 107.776 208.243 108.432C208.099 109.088 207.971 109.816 207.859 110.616C207.747 111.4 207.691 112.2 207.691 113.016C207.691 113.704 207.955 114.048 208.483 114.048C209.075 114.048 209.675 113.912 210.283 113.64C210.891 113.368 211.483 113.04 212.059 112.656C212.635 112.256 213.163 111.864 213.643 111.48C214.123 111.08 214.531 110.744 214.867 110.472C215.203 110.2 215.443 110.064 215.587 110.064C215.715 110.064 215.827 110.104 215.923 110.184C216.019 110.264 216.067 110.392 216.067 110.568C216.067 110.728 215.907 111.016 215.587 111.432C215.267 111.848 214.843 112.32 214.315 112.848C213.787 113.376 213.195 113.888 212.539 114.384C211.883 114.88 211.211 115.288 210.523 115.608C209.835 115.928 209.179 116.088 208.555 116.088C208.075 116.088 207.635 115.944 207.235 115.656C206.851 115.352 206.539 114.84 206.299 114.12C206.075 113.4 205.963 112.408 205.963 111.144V110.544C205.179 111.84 204.355 113.024 203.491 114.096C202.643 115.168 201.795 116.024 200.947 116.664C200.115 117.304 199.323 117.624 198.571 117.624ZM207.163 106.008C207.083 106.04 206.971 106.088 206.827 106.152C206.091 106.488 205.323 106.904 204.523 107.4C203.739 107.896 202.971 108.448 202.219 109.056C201.483 109.664 200.819 110.296 200.227 110.952C199.635 111.608 199.163 112.272 198.811 112.944C198.459 113.616 198.283 114.272 198.283 114.912C198.283 115.12 198.323 115.28 198.403 115.392C198.499 115.504 198.659 115.56 198.883 115.56C199.203 115.56 199.619 115.36 200.131 114.96C200.643 114.544 201.203 114 201.811 113.328C202.435 112.656 203.059 111.912 203.683 111.096C204.307 110.28 204.899 109.456 205.459 108.624C206.035 107.792 206.531 107.024 206.947 106.32C207.011 106.208 207.083 106.104 207.163 106.008ZM212.327 108.528C211.478 108.528 211.054 108.24 211.054 107.664C211.054 107.488 211.158 107.304 211.366 107.112C211.574 106.92 211.806 106.816 212.062 106.8C213.071 106.72 214.039 106.648 214.967 106.584C215.911 106.504 216.831 106.424 217.727 106.344C218.127 104.12 218.679 102.048 219.383 100.128C220.103 98.192 220.887 96.528 221.735 95.136C221.895 94.864 222.063 94.688 222.239 94.608C222.415 94.528 222.607 94.488 222.815 94.488C222.991 94.488 223.135 94.544 223.247 94.656C223.359 94.768 223.415 94.96 223.415 95.232C223.415 95.408 223.311 95.832 223.103 96.504C222.911 97.176 222.655 98.016 222.335 99.024C222.031 100.032 221.703 101.152 221.351 102.384C220.999 103.6 220.671 104.84 220.367 106.104C221.967 105.944 223.463 105.792 224.855 105.648C226.247 105.504 227.535 105.36 228.719 105.216C229.183 104.32 229.631 103.392 230.063 102.432C230.511 101.472 230.935 100.488 231.335 99.48L231.359 99.504C231.599 98.816 231.815 98.24 232.007 97.776C232.215 97.296 232.399 96.984 232.559 96.84C232.719 96.664 232.863 96.552 232.991 96.504C233.135 96.44 233.263 96.408 233.375 96.408C233.759 96.408 233.951 96.704 233.951 97.296C233.951 97.408 233.863 97.816 233.687 98.52C233.527 99.224 233.303 100.12 233.015 101.208C232.727 102.296 232.407 103.488 232.055 104.784C234.311 104.496 236.039 104.256 237.239 104.064C238.455 103.872 239.159 103.776 239.351 103.776C239.767 103.776 239.975 103.992 239.975 104.424C239.975 104.584 239.919 104.728 239.807 104.856C239.695 104.968 239.575 105.064 239.447 105.144C238.839 105.464 237.823 105.784 236.399 106.104C234.975 106.408 233.335 106.696 231.479 106.968C231.111 108.328 230.743 109.688 230.375 111.048C230.007 112.408 229.663 113.672 229.343 114.84C229.039 115.992 228.783 116.96 228.575 117.744C228.511 117.984 228.399 118.184 228.239 118.344C228.095 118.52 227.879 118.608 227.591 118.608C227.367 118.608 227.159 118.552 226.967 118.44C226.791 118.328 226.703 118.176 226.703 117.984C226.703 117.888 226.759 117.568 226.871 117.024C226.983 116.48 227.135 115.776 227.327 114.912C227.519 114.048 227.743 113.08 227.999 112.008C228.255 110.92 228.527 109.792 228.815 108.624C227.935 110.208 227.015 111.616 226.055 112.848C225.111 114.064 224.175 115.024 223.247 115.728C222.335 116.416 221.487 116.76 220.703 116.76C219.615 116.76 218.743 116.416 218.087 115.728C217.447 115.04 217.127 114.112 217.127 112.944C217.127 112.176 217.151 111.408 217.199 110.64C217.247 109.872 217.319 109.112 217.415 108.36C216.471 108.424 215.567 108.472 214.703 108.504C213.855 108.52 213.063 108.528 212.327 108.528ZM227.471 107.496C226.239 107.64 224.975 107.776 223.679 107.904C222.399 108.016 221.143 108.12 219.911 108.216C219.751 109.064 219.615 109.896 219.503 110.712C219.407 111.512 219.359 112.264 219.359 112.968C219.359 113.512 219.479 113.936 219.719 114.24C219.959 114.544 220.327 114.696 220.823 114.696C221.383 114.696 222.023 114.392 222.743 113.784C223.463 113.176 224.223 112.336 225.023 111.264C225.839 110.176 226.655 108.92 227.471 107.496Z" fill="black"/>
<path d="M23.7485 42.7994C22.1364 42.7994 22.4106 42.1913 21.8545 40.6555L17.1145 25.0568L53.6014 3.41016" fill="#FC8DCF"/>
<path d="M23.7485 42.7995C24.9924 42.7995 25.5419 42.2312 26.2363 41.5556L32.8703 35.1052L24.5955 30.1153" fill="#F46BA4"/>
<path d="M24.5942 30.1163L44.6454 44.93C46.9341 46.1927 48.5849 45.5392 49.1554 42.806L57.3174 4.34441C58.1533 0.994253 56.0404 -0.526033 53.8512 0.467959L5.92398 18.948C2.65232 20.2604 2.67223 22.0859 5.32803 22.8986L17.6274 26.7374L46.1005 8.7737C47.445 7.95883 48.6789 8.39667 47.6661 9.29558L24.5942 30.1163Z" fill="#F46BA4"/>
<path d="M12.36 180.224C13.32 180.224 14.112 181.016 14.112 181.976V191.672C14.112 194.6 11.712 197 8.784 197C4.416 197 0.792 189.968 5.736 189.968C8.448 189.968 8.016 191.192 8.016 193.52C8.016 193.952 8.352 194.288 8.784 194.288C9.192 194.288 9.528 193.952 9.528 193.52V183.008C9.528 182.96 9.504 182.936 9.48 182.936H6.96C6.456 182.936 6.024 182.528 6.024 182V181.16C6.024 180.632 6.456 180.224 6.96 180.224H12.36ZM19.4976 193.52C19.4976 193.952 19.8576 194.288 20.2656 194.288C20.6736 194.288 21.0336 193.952 21.0336 193.52V183.704C21.0336 183.296 20.6736 182.936 20.2656 182.936C19.8576 182.936 19.4976 183.296 19.4976 183.704V193.52ZM20.2656 180.224C23.1936 180.224 25.5936 182.624 25.5936 185.552V191.672C25.5936 194.6 23.1936 197 20.2656 197C17.3376 197 14.9376 194.6 14.9376 191.672V185.552C14.9376 182.624 17.3376 180.224 20.2656 180.224ZM28.2493 180.224H29.3053C30.2653 180.224 31.0573 181.016 31.0573 181.976C31.0573 186.392 31.0573 190.832 31.0573 195.248C31.0573 196.208 30.2653 197 29.3053 197H28.2493C27.2893 197 26.4973 196.208 26.4973 195.248V181.976C26.4973 181.016 27.2893 180.224 28.2493 180.224ZM32.1926 181.976C32.1926 181.016 32.9846 180.224 33.9446 180.224H35.0006C35.6726 180.224 36.2726 180.608 36.5606 181.16C36.6566 181.376 36.7286 181.592 36.7526 181.832L38.2886 187.016V181.976C38.2886 181.016 39.0806 180.224 40.0406 180.224H41.0966C42.0566 180.224 42.8486 181.016 42.8486 181.976V195.248C42.8486 196.208 42.0566 197 41.0966 197H40.0406C39.2726 197 38.6246 196.52 38.3846 195.824L36.7526 190.952V195.248C36.7526 196.208 35.9606 197 35.0006 197H33.9446C32.9846 197 32.1926 196.208 32.1926 195.248V181.976ZM48.7864 181.976C48.7864 181.016 49.5784 180.224 50.5384 180.224H51.5944C52.2664 180.224 52.8664 180.608 53.1544 181.16C53.2504 181.376 53.3224 181.592 53.3464 181.832L54.8824 187.016V181.976C54.8824 181.016 55.6744 180.224 56.6344 180.224H57.6904C58.6504 180.224 59.4424 181.016 59.4424 181.976V195.248C59.4424 196.208 58.6504 197 57.6904 197H56.6344C55.8664 197 55.2184 196.52 54.9784 195.824L53.3464 190.952V195.248C53.3464 196.208 52.5544 197 51.5944 197H50.5384C49.5784 197 48.7864 196.208 48.7864 195.248V181.976ZM64.9194 193.52C64.9194 193.952 65.2794 194.288 65.6874 194.288C66.0954 194.288 66.4554 193.952 66.4554 193.52V183.704C66.4554 183.296 66.0954 182.936 65.6874 182.936C65.2794 182.936 64.9194 183.296 64.9194 183.704V193.52ZM65.6874 180.224C68.6154 180.224 71.0154 182.624 71.0154 185.552V191.672C71.0154 194.6 68.6154 197 65.6874 197C62.7594 197 60.3594 194.6 60.3594 191.672V185.552C60.3594 182.624 62.7594 180.224 65.6874 180.224ZM79.2632 181.568C79.4552 180.752 80.1512 180.224 80.9672 180.224H82.4552C83.3192 180.224 84.0392 180.8 84.1832 181.64C84.9032 185.408 84.6152 189.176 85.3592 192.944C85.3832 193.136 85.6712 193.112 85.6712 192.92C85.7432 188.504 86.2232 185.264 87.1352 181.568C87.3272 180.752 88.0232 180.224 88.8392 180.224C89.1992 180.224 89.5832 180.224 89.9432 180.224C90.5192 180.224 90.9992 180.464 91.3592 180.896C91.6952 181.352 91.8152 181.88 91.6472 182.432L88.0952 195.704C87.9032 196.496 87.2072 197 86.3912 197H84.9272C84.1112 197 83.4152 196.496 83.2232 195.704C83.1512 195.464 83.0792 195.224 83.0312 194.984L81.7112 190.112L80.2232 195.704C80.0072 196.496 79.3352 197 78.5192 197H77.0312C76.2392 197 75.5432 196.496 75.3272 195.704L71.7752 182.432C71.6312 181.88 71.7272 181.352 72.0872 180.896C72.4232 180.464 72.9272 180.224 73.4792 180.224C73.8632 180.224 74.2232 180.224 74.5832 180.224C75.4232 180.224 76.1432 180.8 76.3112 181.64C77.0312 185.408 76.7432 189.176 77.4632 192.944C77.5112 193.136 77.7752 193.112 77.7992 192.92C77.8712 188.504 78.3272 185.264 79.2632 181.568ZM94.9414 193.064C96.2134 193.064 97.2214 193.976 97.2214 195.104C97.2214 196.232 96.2134 197.144 94.9414 197.144C93.6694 197.144 92.6614 196.232 92.6614 195.104C92.6614 193.976 93.6694 193.064 94.9414 193.064ZM92.6614 181.736C92.6374 181.352 92.7814 181.016 93.0694 180.752C93.3334 180.488 93.6694 180.344 94.0534 180.344H95.8294C96.5974 180.344 97.2214 180.968 97.2214 181.736C97.2214 185.648 96.9814 190.784 96.9814 190.952C96.9094 191.672 96.3094 192.248 95.5654 192.248H94.2934C93.8854 192.248 93.5494 192.104 93.2614 191.816C92.9974 191.528 92.8534 191.168 92.8774 190.784C92.8774 190.568 92.6614 185.672 92.6614 181.736Z" fill="#F46BA4"/>
</svg>
