<svg width="794" height="150" viewBox="0 0 794 150" fill="none" xmlns="http://www.w3.org/2000/svg">
<path d="M29.625 67.125C28.6667 65.3333 27.0625 64.4792 24.8125 64.5625C22.5625 64.6042 20.0833 65.0417 17.375 65.875C14.6667 66.6667 12.1458 67.3125 9.8125 67.8125C7.47917 68.3125 5.75 68.0833 4.625 67.125C3.83333 66.2917 3.08333 65.0625 2.375 63.4375C1.66667 61.7708 1.08333 59.9167 0.625 57.875C0.208333 55.7917 0 53.75 0 51.75C0 49.5 0.354167 47.5 1.0625 45.75C1.77083 43.9583 2.95833 42.75 4.625 42.125C7.95833 41.0833 13.0833 40.3125 20 39.8125C26.9167 39.2708 34.2917 39 42.125 39C49.9167 39 57.2708 39.2708 64.1875 39.8125C71.1458 40.3125 76.2917 41.0833 79.625 42.125C81.2917 42.75 82.4792 43.9375 83.1875 45.6875C83.8958 47.4375 84.25 49.4375 84.25 51.6875C84.25 52.8958 84.1667 54.125 84 55.375C83.8333 56.625 83.6042 57.8542 83.3125 59.0625C83.0208 60.2292 82.6667 61.3333 82.25 62.375C81.875 63.4167 81.4583 64.3542 81 65.1875C80.5833 65.9792 80.125 66.625 79.625 67.125C78.5 68.0833 76.7708 68.3125 74.4375 67.8125C72.1458 67.3125 69.6458 66.6667 66.9375 65.875C64.2292 65.0417 61.7292 64.6042 59.4375 64.5625C57.1875 64.4792 55.5833 65.3333 54.625 67.125C53.625 69.4167 53.2292 72.9583 53.4375 77.75C53.6458 82.5 54.0417 87.6667 54.625 93.25C55.2083 98.7917 55.6042 103.958 55.8125 108.75C56.0208 113.5 55.625 117.042 54.625 119.375C53.6667 121.25 52.0208 122.667 49.6875 123.625C47.3542 124.542 44.8333 125 42.125 125C39.4583 125 36.9583 124.542 34.625 123.625C32.2917 122.667 30.625 121.25 29.625 119.375C28.625 117.042 28.2292 113.5 28.4375 108.75C28.6458 103.958 29.0417 98.7917 29.625 93.25C30.2083 87.6667 30.6042 82.5 30.8125 77.75C31.0208 72.9583 30.625 69.4167 29.625 67.125ZM95.5 53.3125C100.375 48.4792 105.354 45.0625 110.438 43.0625C115.562 41.0208 120.542 40 125.375 40C130.583 40 135.458 40.8542 140 42.5625C144.542 44.2708 148.417 46.3333 151.625 48.75C154.875 51.1667 157.208 53.5 158.625 55.75C161.125 59.7917 162.958 63.875 164.125 68C165.292 72.125 165.875 76.25 165.875 80.375C165.875 85.2917 165.167 90.1458 163.75 94.9375C162.375 99.7292 160.521 104.396 158.188 108.938C155.396 114.021 150.958 117.979 144.875 120.812C138.792 123.604 132.229 125 125.188 125C120.562 125 116 124.354 111.5 123.062C107.042 121.729 102.979 119.667 99.3125 116.875C94.3125 112.958 90.5417 108 88 102C85.5 95.9583 84.25 89.6875 84.25 83.1875C84.25 77.6042 85.1667 72.2083 87 67C88.875 61.7917 91.7083 57.2292 95.5 53.3125ZM114.938 73.5625C112.146 76.5208 110.875 80.1042 111.125 84.3125C111.375 88.4792 113.062 91.8333 116.188 94.375C119.562 96.625 123.292 97.4583 127.375 96.875C131.5 96.2917 134.417 94.5833 136.125 91.75C137.625 89 138.479 86.1458 138.688 83.1875C138.896 80.1875 138.083 77.25 136.25 74.375C135.458 73.0833 133.917 71.875 131.625 70.75C129.375 69.5833 126.75 69.0833 123.75 69.25C120.792 69.4167 117.854 70.8542 114.938 73.5625ZM199.125 67.75C199.958 67.75 201.062 66.7917 202.438 64.875C203.854 62.9167 205.458 60.625 207.25 58C209.042 55.375 210.938 52.8958 212.938 50.5625C214.979 48.1875 217.042 46.5 219.125 45.5C225.75 42.9583 232.479 41.6875 239.312 41.6875C241.979 41.6875 244.229 41.9792 246.062 42.5625C247.938 43.1458 248.958 44.125 249.125 45.5V45.75C249.125 47.0417 248.229 48.75 246.438 50.875C244.688 53 242.5 55.3958 239.875 58.0625C237.292 60.7292 234.708 63.5208 232.125 66.4375C229.542 69.3125 227.354 72.1875 225.562 75.0625C223.771 77.8958 222.875 80.5417 222.875 83C222.875 84.75 223.354 86.625 224.312 88.625C225.271 90.5833 226.521 92.6042 228.062 94.6875C229.646 96.7292 231.354 98.7708 233.188 100.812C235.062 102.854 236.938 104.854 238.812 106.812C240.688 108.729 242.396 110.542 243.938 112.25C245.479 113.917 246.729 115.438 247.688 116.812C248.646 118.188 249.125 119.333 249.125 120.25V120.5C248.958 121.875 247.938 122.854 246.062 123.438C244.229 124.021 241.979 124.312 239.312 124.312C232.479 124.312 225.75 123.042 219.125 120.5C217.042 119.5 214.979 117.833 212.938 115.5C210.938 113.125 209.042 110.625 207.25 108C205.458 105.375 203.854 103.104 202.438 101.188C201.062 99.2708 199.958 98.3125 199.125 98.3125C198.292 98.3125 198 99.2708 198.25 101.188C198.542 103.104 198.938 105.375 199.438 108C199.979 110.625 200.312 113.125 200.438 115.5C200.562 117.833 200.125 119.5 199.125 120.5C197.792 121.625 195.583 122.667 192.5 123.625C189.458 124.542 186.417 125 183.375 125C181.208 125 179.271 124.667 177.562 124C175.854 123.292 174.708 122.125 174.125 120.5C173.083 117.167 172.292 112.042 171.75 105.125C171.25 98.1667 171 90.7917 171 83C171 75.1667 171.25 67.7917 171.75 60.875C172.292 53.9583 173.083 48.8333 174.125 45.5C174.708 43.875 175.854 42.7292 177.562 42.0625C179.271 41.3542 181.208 41 183.375 41C185.417 41 187.5 41.2292 189.625 41.6875C191.75 42.1458 193.646 42.7083 195.312 43.375C197.021 44.0417 198.292 44.75 199.125 45.5C200.125 46.5 200.562 48.1875 200.438 50.5625C200.312 52.8958 199.979 55.375 199.438 58C198.938 60.625 198.542 62.9167 198.25 64.875C198 66.7917 198.292 67.75 199.125 67.75ZM279.688 93.5625C282.021 93.6875 285.75 93.4792 290.875 92.9375C296.042 92.3542 301.188 92 306.312 91.875C311.438 91.7083 315.146 92.2708 317.438 93.5625C319.104 94.7292 320.396 96.6042 321.312 99.1875C322.271 101.771 322.75 104.458 322.75 107.25C322.75 109.792 322.312 112.125 321.438 114.25C320.604 116.333 319.271 117.771 317.438 118.562C315.271 119.438 312.062 120.375 307.812 121.375C303.562 122.333 298.792 123.188 293.5 123.938C288.208 124.646 282.979 125 277.812 125C272.812 125 268.25 124.521 264.125 123.562C260 122.604 256.854 120.938 254.688 118.562C252.104 115.312 250.146 110.312 248.812 103.562C247.521 96.8125 246.875 89.6458 246.875 82.0625C246.875 74.4375 247.521 67.25 248.812 60.5C250.146 53.75 252.104 48.7708 254.688 45.5625C256.854 43.1875 260 41.5208 264.125 40.5625C268.292 39.5625 272.875 39.0625 277.875 39.0625C283 39.0625 288.208 39.4375 293.5 40.1875C298.792 40.8958 303.562 41.75 307.812 42.75C312.062 43.75 315.271 44.6875 317.438 45.5625C319.271 46.3542 320.604 47.8125 321.438 49.9375C322.312 52.0208 322.75 54.3125 322.75 56.8125C322.75 59.6042 322.271 62.3125 321.312 64.9375C320.396 67.5208 319.104 69.3958 317.438 70.5625C315.146 71.8542 311.438 72.4167 306.312 72.25C301.188 72.0833 296.042 71.7292 290.875 71.1875C285.75 70.6458 282.021 70.4375 279.688 70.5625C279.271 70.6458 278.979 71 278.812 71.625C278.688 72.2083 278.688 72.8125 278.812 73.4375C278.979 74.0625 279.271 74.4375 279.688 74.5625C281.229 74.7292 283.708 74.6458 287.125 74.3125C290.542 73.9375 293.938 73.6875 297.312 73.5625C300.729 73.4375 303.188 73.7708 304.688 74.5625C306.104 75.4792 307.042 76.9583 307.5 79C307.958 81.0417 307.958 83.0833 307.5 85.125C307.042 87.1667 306.104 88.6458 304.688 89.5625C303.188 90.3542 300.729 90.6875 297.312 90.5625C293.938 90.3958 290.542 90.1458 287.125 89.8125C283.708 89.4792 281.229 89.3958 279.688 89.5625C279.271 89.6875 278.979 90.0625 278.812 90.6875C278.688 91.2708 278.688 91.875 278.812 92.5C278.979 93.0833 279.271 93.4375 279.688 93.5625ZM356.938 86C356.396 86 356.104 86.6875 356.062 88.0625C356.062 89.4375 356.188 91.2292 356.438 93.4375C356.688 95.6458 356.958 98.0417 357.25 100.625C357.583 103.208 357.854 105.75 358.062 108.25C358.271 110.75 358.312 113 358.188 115C358.062 116.958 357.646 118.417 356.938 119.375C355.729 120.917 353.75 122.146 351 123.062C348.25 123.979 345.417 124.438 342.5 124.438C340.042 124.438 337.833 124.042 335.875 123.25C333.917 122.458 332.604 121.167 331.938 119.375C330.854 115.875 330 110.458 329.375 103.125C328.792 95.75 328.5 87.9792 328.5 79.8125C328.5 74.8542 328.625 70.0417 328.875 65.375C329.125 60.7083 329.5 56.5625 330 52.9375C330.5 49.2708 331.146 46.4167 331.938 44.375C332.812 42.3333 334.25 40.875 336.25 40C338.25 39.125 340.542 38.6875 343.125 38.6875C346.375 38.6875 349.708 39.25 353.125 40.375C356.583 41.4583 359.521 42.7917 361.938 44.375C362.979 45.0833 364.021 46.1042 365.062 47.4375C366.104 48.7292 367.125 50.2292 368.125 51.9375C369.125 53.6458 370.104 55.4583 371.062 57.375C372.021 59.2917 372.938 61.2083 373.812 63.125C374.729 65.0417 375.583 66.875 376.375 68.625C377.167 70.375 377.896 71.9375 378.562 73.3125C379.271 74.6458 379.896 75.7083 380.438 76.5C381.021 77.2917 381.521 77.6875 381.938 77.6875C382.771 77.6875 383.062 76.25 382.812 73.375C382.562 70.5 382.167 67.0833 381.625 63.125C381.083 59.1667 380.75 55.4375 380.625 51.9375C380.542 48.3958 380.979 45.875 381.938 44.375C383.188 42.8333 385.188 41.6042 387.938 40.6875C390.688 39.7292 393.521 39.25 396.438 39.25C398.854 39.25 401.042 39.6667 403 40.5C404.958 41.2917 406.271 42.5833 406.938 44.375C408.062 47.875 408.917 53.3125 409.5 60.6875C410.083 68.0208 410.375 75.7708 410.375 83.9375C410.375 88.8958 410.25 93.7083 410 98.375C409.792 103.042 409.417 107.208 408.875 110.875C408.375 114.5 407.729 117.333 406.938 119.375C406.104 121.375 404.688 122.812 402.688 123.688C400.688 124.562 398.396 125 395.812 125C392.562 125 389.208 124.458 385.75 123.375C382.292 122.292 379.354 120.958 376.938 119.375C374.854 117.833 372.792 115.312 370.75 111.812C368.75 108.312 366.854 104.583 365.062 100.625C363.271 96.6667 361.667 93.25 360.25 90.375C358.875 87.4583 357.771 86 356.938 86ZM426.375 53.3125C431.25 48.4792 436.229 45.0625 441.312 43.0625C446.438 41.0208 451.417 40 456.25 40C461.458 40 466.333 40.8542 470.875 42.5625C475.417 44.2708 479.292 46.3333 482.5 48.75C485.75 51.1667 488.083 53.5 489.5 55.75C492 59.7917 493.833 63.875 495 68C496.167 72.125 496.75 76.25 496.75 80.375C496.75 85.2917 496.042 90.1458 494.625 94.9375C493.25 99.7292 491.396 104.396 489.062 108.938C486.271 114.021 481.833 117.979 475.75 120.812C469.667 123.604 463.104 125 456.062 125C451.438 125 446.875 124.354 442.375 123.062C437.917 121.729 433.854 119.667 430.188 116.875C425.188 112.958 421.417 108 418.875 102C416.375 95.9583 415.125 89.6875 415.125 83.1875C415.125 77.6042 416.042 72.2083 417.875 67C419.75 61.7917 422.583 57.2292 426.375 53.3125ZM445.812 73.5625C443.021 76.5208 441.75 80.1042 442 84.3125C442.25 88.4792 443.938 91.8333 447.062 94.375C450.438 96.625 454.167 97.4583 458.25 96.875C462.375 96.2917 465.292 94.5833 467 91.75C468.5 89 469.354 86.1458 469.562 83.1875C469.771 80.1875 468.958 77.25 467.125 74.375C466.333 73.0833 464.792 71.875 462.5 70.75C460.25 69.5833 457.625 69.0833 454.625 69.25C451.667 69.4167 448.729 70.8542 445.812 73.5625ZM567.5 45.125C569.667 43.875 572.25 42.7917 575.25 41.875C578.25 40.9583 581.125 40.5 583.875 40.5C585.917 40.5 587.708 40.8542 589.25 41.5625C590.833 42.2708 591.917 43.4583 592.5 45.125C593.542 48.4583 594.333 53.5833 594.875 60.5C595.417 67.4167 595.688 74.7917 595.688 82.625C595.688 90.4167 595.417 97.7917 594.875 104.75C594.333 111.667 593.542 116.792 592.5 120.125C591.875 121.875 590.604 123.125 588.688 123.875C586.812 124.625 584.688 125 582.312 125C579.396 125 576.521 124.542 573.688 123.625C570.854 122.708 568.792 121.542 567.5 120.125C566.833 119.25 566.417 117.958 566.25 116.25C566.125 114.5 566.146 112.521 566.312 110.312C566.521 108.104 566.792 105.854 567.125 103.562C567.458 101.271 567.75 99.1458 568 97.1875C568.25 95.1875 568.354 93.5625 568.312 92.3125C568.271 91.0208 568 90.2917 567.5 90.125C567.125 90.0417 566.646 90.3333 566.062 91C565.479 91.625 564.833 92.5208 564.125 93.6875C563.417 94.8542 562.646 96.1875 561.812 97.6875C561.021 99.1458 560.188 100.688 559.312 102.312C558.438 103.896 557.542 105.458 556.625 107C555.708 108.5 554.792 109.875 553.875 111.125C553 112.333 552.125 113.312 551.25 114.062C550.375 114.771 549.542 115.125 548.75 115.125C547.5 115.125 546.146 114.25 544.688 112.5C543.271 110.75 541.833 108.625 540.375 106.125C538.917 103.583 537.521 101.062 536.188 98.5625C534.854 96.0625 533.646 94 532.562 92.375C531.521 90.75 530.667 90 530 90.125C529.292 90.4583 529.042 91.9167 529.25 94.5C529.5 97.0417 529.875 100.062 530.375 103.562C530.917 107.062 531.229 110.354 531.312 113.438C531.438 116.521 531 118.75 530 120.125C528.75 121.542 526.708 122.708 523.875 123.625C521.042 124.542 518.146 125 515.188 125C512.812 125 510.688 124.625 508.812 123.875C506.938 123.125 505.667 121.875 505 120.125C503.958 116.792 503.167 111.667 502.625 104.75C502.125 97.7917 501.875 90.4167 501.875 82.625C501.875 74.7917 502.125 67.4167 502.625 60.5C503.167 53.5833 503.958 48.4583 505 45.125C505.625 43.4583 506.708 42.2708 508.25 41.5625C509.792 40.8542 511.583 40.5 513.625 40.5C516.375 40.5 519.25 40.9583 522.25 41.875C525.292 42.7917 527.875 43.875 530 45.125C532.5 46.6667 534.979 49.1458 537.438 52.5625C539.896 55.9375 542.125 59.3333 544.125 62.75C546.125 66.125 547.667 68.5833 548.75 70.125C549.833 68.5833 551.375 66.125 553.375 62.75C555.375 59.3333 557.604 55.9375 560.062 52.5625C562.562 49.1458 565.042 46.6667 567.5 45.125ZM630.375 46.5625C631.417 49.7708 632.208 54.7292 632.75 61.4375C633.292 68.1458 633.562 75.2708 633.562 82.8125C633.562 90.3958 633.292 97.5417 632.75 104.25C632.208 110.917 631.417 115.854 630.375 119.062C629.625 121.062 628.042 122.562 625.625 123.562C623.25 124.521 620.667 125 617.875 125C615.083 125 612.479 124.521 610.062 123.562C607.688 122.562 606.125 121.062 605.375 119.062C604.708 116.979 604.125 114.083 603.625 110.375C603.167 106.625 602.812 102.354 602.562 97.5625C602.354 92.7708 602.25 87.8542 602.25 82.8125C602.25 77.8125 602.354 72.9167 602.562 68.125C602.812 63.3333 603.167 59.0625 603.625 55.3125C604.125 51.5625 604.708 48.6458 605.375 46.5625C606.125 44.6042 607.688 43.125 610.062 42.125C612.479 41.125 615.083 40.625 617.875 40.625C620.667 40.625 623.25 41.125 625.625 42.125C628.042 43.125 629.625 44.6042 630.375 46.5625ZM638.375 81.125C638.375 74.2083 639.688 67.4583 642.312 60.875C644.979 54.2917 649.146 48.875 654.812 44.625C660.479 40.375 667.792 38.0833 676.75 37.75H677.188C681.188 37.75 685.208 38.6458 689.25 40.4375C693.292 42.1875 696.979 44.4167 700.312 47.125C703.688 49.7917 706.396 52.6042 708.438 55.5625C710.521 58.5208 711.562 61.2083 711.562 63.625C711.562 64.0833 711.521 64.5417 711.438 65C710.646 68.3333 709 70.8958 706.5 72.6875C704.042 74.4375 701.25 75.3958 698.125 75.5625C695 75.7292 692.083 75.0625 689.375 73.5625C687.875 72.6458 686.479 71.375 685.188 69.75C683.896 68.0833 682.562 66.5833 681.188 65.25C679.854 63.875 678.354 63.1458 676.688 63.0625C673.271 63.2292 670.75 65.1458 669.125 68.8125C667.542 72.4375 666.812 76.625 666.938 81.375C667.021 84.3333 667.396 87.2083 668.062 90C668.729 92.75 669.771 95.0417 671.188 96.875C672.604 98.7083 674.438 99.6458 676.688 99.6875C678.354 99.6042 679.854 98.8958 681.188 97.5625C682.562 96.1875 683.896 94.6875 685.188 93.0625C686.479 91.4375 687.875 90.1458 689.375 89.1875C692.083 87.6875 695 87.0208 698.125 87.1875C701.25 87.3542 704.042 88.3333 706.5 90.125C709 91.875 710.646 94.4167 711.438 97.75C711.521 98.2083 711.562 98.6667 711.562 99.125C711.562 101.542 710.521 104.229 708.438 107.188C706.396 110.146 703.688 112.979 700.312 115.688C696.979 118.354 693.292 120.583 689.25 122.375C685.208 124.125 681.188 125 677.188 125H676.75C667.75 124.75 660.417 122.625 654.75 118.625C649.125 114.625 644.979 109.375 642.312 102.875C639.688 96.3333 638.375 89.1458 638.375 81.3125V81.125ZM784.812 68.375C783.312 69.375 780.875 69.8542 777.5 69.8125C774.167 69.7708 770.604 69.5208 766.812 69.0625C763.021 68.5625 759.729 68.1875 756.938 67.9375C754.146 67.6875 752.604 67.8333 752.312 68.375C752.229 68.625 752.333 68.9167 752.625 69.25C752.958 69.5417 753.438 69.875 754.062 70.25C754.729 70.625 755.5 71.0417 756.375 71.5C757.292 71.9167 758.292 72.3542 759.375 72.8125C760.5 73.2708 761.667 73.7708 762.875 74.3125C764.083 74.8125 765.312 75.3542 766.562 75.9375C767.854 76.4792 769.125 77.0417 770.375 77.625C771.625 78.2083 772.833 78.8125 774 79.4375C775.167 80.0208 776.25 80.625 777.25 81.25C778.292 81.875 779.229 82.5 780.062 83.125C783.062 85.4583 785.5 88.1458 787.375 91.1875C789.25 94.1875 790.188 97.6458 790.188 101.562C790.188 103.812 789.792 106.271 789 108.938C788.25 111.562 787.021 114.375 785.312 117.375C783.479 120.208 779.792 122.188 774.25 123.312C768.75 124.438 762.625 125 755.875 125C748.542 125 741.458 124.562 734.625 123.688C727.833 122.812 722.896 121.875 719.812 120.875C718.021 120.25 716.729 118.958 715.938 117C715.146 115.042 714.75 112.854 714.75 110.438C714.75 107.521 715.208 104.688 716.125 101.938C717.083 99.1458 718.312 97.125 719.812 95.875C720.312 95.5 720.958 95.2083 721.75 95C722.583 94.7917 723.521 94.6667 724.562 94.625C725.604 94.5417 726.729 94.5208 727.938 94.5625C729.188 94.6042 730.479 94.6875 731.812 94.8125C733.146 94.8958 734.479 95.0208 735.812 95.1875C737.188 95.3125 738.542 95.4583 739.875 95.625C741.208 95.7917 742.479 95.9583 743.688 96.125C744.896 96.25 746 96.3542 747 96.4375C748.042 96.5208 748.938 96.5833 749.688 96.625C750.479 96.625 751.104 96.5625 751.562 96.4375C752.021 96.3125 752.271 96.125 752.312 95.875C752.229 94.9167 750.229 93.5625 746.312 91.8125C742.438 90.0625 738.167 88.0625 733.5 85.8125C728.833 83.5625 725.271 81.2083 722.812 78.75C720.812 76.5417 719.208 73.7917 718 70.5C716.833 67.1667 716.25 63.7292 716.25 60.1875C716.25 57.3958 716.688 54.7083 717.562 52.125C718.438 49.5417 719.854 47.2917 721.812 45.375C724.146 43.375 728.104 41.9583 733.688 41.125C739.312 40.2917 745.396 39.875 751.938 39.875C758.729 39.875 765.188 40.2083 771.312 40.875C777.438 41.5417 781.938 42.375 784.812 43.375C786.562 44.0833 787.833 45.4167 788.625 47.375C789.417 49.3333 789.812 51.5208 789.812 53.9375C789.812 56.8542 789.354 59.6875 788.438 62.4375C787.521 65.1875 786.312 67.1667 784.812 68.375Z" fill="white" fill-opacity="0.9"/>
</svg>
