<svg width="244" height="201" viewBox="0 0 244 201" fill="none" xmlns="http://www.w3.org/2000/svg">
<path d="M5.408 72.832C3.36 70.208 0.928 65.568 0.576 64.576C0.32 63.872 0.512 63.136 0.992 62.528C1.44 61.952 2.08 61.632 2.848 61.632C3.328 61.632 3.84 61.632 4.288 61.632C5.44 61.632 6.4 62.4 6.624 63.52C6.816 64.576 7.52 66.336 8.16 69.216C8.192 69.312 8.288 69.408 8.384 69.376C8.512 69.376 8.544 69.28 8.576 69.184C9.12 67.84 9.76 66.368 10.528 63.424C10.816 62.336 11.744 61.632 12.832 61.632C13.28 61.632 13.792 61.632 14.304 61.632C15.04 61.632 15.712 61.952 16.16 62.528C16.64 63.136 16.768 63.84 16.576 64.576C16.384 65.312 13.664 70.112 11.584 72.832C13.664 75.52 16.384 80.32 16.576 81.056C16.768 81.792 16.64 82.496 16.16 83.104C15.712 83.68 15.072 84 14.304 84C13.792 84 13.28 84 12.832 84C11.744 84 10.816 83.296 10.528 82.24C9.76 79.264 9.12 77.792 8.576 76.448C8.544 76.352 8.512 76.256 8.384 76.256C8.288 76.224 8.192 76.32 8.16 76.416C7.52 79.296 6.816 81.056 6.624 82.112C6.4 83.232 5.44 84 4.288 84C3.84 84 3.36 84 2.848 84C2.08 84 1.44 83.68 0.992 83.104C0.512 82.496 0.32 81.76 0.576 81.056C0.928 80.064 3.36 75.424 5.408 72.832Z" fill="#F46BA4"/>
<path d="M3.576 119.136C3.336 119.136 3.16 119.048 3.048 118.872C2.936 118.696 2.88 118.472 2.88 118.2C2.88 117.976 3.024 117.656 3.312 117.24C3.616 116.808 4.008 116.304 4.488 115.728C4.984 115.136 5.528 114.504 6.12 113.832C6.712 113.16 7.312 112.48 7.92 111.792C7.184 110.544 6.624 109.56 6.24 108.84C5.856 108.104 5.664 107.528 5.664 107.112C5.664 106.824 5.76 106.56 5.952 106.32C6.144 106.064 6.336 105.936 6.528 105.936C6.752 105.936 6.968 106.072 7.176 106.344C7.4 106.6 7.672 107.04 7.992 107.664C8.312 108.272 8.744 109.112 9.288 110.184C10.168 109.128 10.896 108.264 11.472 107.592C12.064 106.92 12.536 106.4 12.888 106.032C13.256 105.664 13.544 105.408 13.752 105.264C13.976 105.104 14.168 105.024 14.328 105.024C14.52 105.024 14.68 105.104 14.808 105.264C14.936 105.408 15 105.648 15 105.984C15 106.304 14.848 106.696 14.544 107.16C14.256 107.624 13.872 108.128 13.392 108.672C12.912 109.216 12.392 109.776 11.832 110.352C11.288 110.912 10.768 111.456 10.272 111.984C11.072 113.36 11.84 114.56 12.576 115.584C13.312 116.592 13.904 117.424 14.352 118.08C14.816 118.736 15.048 119.216 15.048 119.52C15.048 119.728 15 119.888 14.904 120C14.808 120.096 14.624 120.144 14.352 120.144C14.16 120.144 13.936 120.064 13.68 119.904C13.424 119.744 13.096 119.432 12.696 118.968C12.312 118.504 11.808 117.832 11.184 116.952C10.576 116.056 9.824 114.888 8.928 113.448C8.368 114.072 7.808 114.72 7.248 115.392C6.704 116.048 6.184 116.664 5.688 117.24C5.208 117.8 4.784 118.256 4.416 118.608C4.048 118.96 3.768 119.136 3.576 119.136ZM19.449 120.36C19.097 120.36 18.753 120.248 18.417 120.024C18.097 119.8 17.937 119.432 17.937 118.92C17.937 118.504 18.041 118.168 18.249 117.912C18.457 117.656 18.697 117.472 18.969 117.36C19.241 117.232 19.481 117.168 19.689 117.168C19.897 117.168 20.129 117.216 20.385 117.312C20.657 117.408 20.889 117.576 21.081 117.816C21.273 118.04 21.369 118.376 21.369 118.824C21.369 119.272 21.177 119.64 20.793 119.928C20.409 120.216 19.961 120.36 19.449 120.36ZM28.9309 120.336C28.1469 120.336 27.4669 120.16 26.8909 119.808C26.3309 119.44 25.8989 118.968 25.5949 118.392C25.2909 117.816 25.1389 117.224 25.1389 116.616C25.1389 115.336 25.3629 114.168 25.8109 113.112C26.2589 112.04 26.8189 111.096 27.4909 110.28C28.1789 109.448 28.8829 108.744 29.6029 108.168C30.3389 107.592 31.0029 107.16 31.5949 106.872C32.2029 106.568 32.6349 106.416 32.8909 106.416C33.4029 106.416 33.6589 106.672 33.6589 107.184C33.6589 107.424 33.4989 107.704 33.1789 108.024C32.8589 108.328 32.4509 108.688 31.9549 109.104C31.4589 109.52 30.9309 109.992 30.3709 110.52C29.8109 111.032 29.2829 111.616 28.7869 112.272C28.2909 112.912 27.8829 113.632 27.5629 114.432C27.2429 115.216 27.0829 116.08 27.0829 117.024C27.0829 117.984 27.4749 118.464 28.2589 118.464C28.9789 118.464 29.7149 118.328 30.4669 118.056C31.2349 117.784 31.9869 117.432 32.7229 117C33.4749 116.552 34.1949 116.088 34.8829 115.608C35.5709 115.128 36.1949 114.672 36.7549 114.24C37.3149 113.792 37.7869 113.432 38.1709 113.16C38.5549 112.888 38.8269 112.752 38.9869 112.752C39.3069 112.752 39.4669 112.928 39.4669 113.28C39.4669 113.552 39.2829 113.912 38.9149 114.36C38.5469 114.808 38.0509 115.296 37.4269 115.824C36.8029 116.352 36.1069 116.888 35.3389 117.432C34.5709 117.96 33.7949 118.448 33.0109 118.896C32.2269 119.328 31.4749 119.68 30.7549 119.952C30.0509 120.208 29.4429 120.336 28.9309 120.336ZM41.5037 120.24C40.5597 120.24 39.8157 119.88 39.2717 119.16C38.7277 118.44 38.4557 117.504 38.4557 116.352C38.4557 115.936 38.5117 115.496 38.6237 115.032C38.7517 114.552 38.9117 114.12 39.1037 113.736C38.9917 113.624 38.9037 113.472 38.8397 113.28C38.7757 113.072 38.7437 112.816 38.7437 112.512C38.7437 111.568 38.9037 110.704 39.2237 109.92C39.5437 109.136 39.9677 108.456 40.4957 107.88C41.0237 107.288 41.6077 106.832 42.2477 106.512C42.9037 106.192 43.5677 106.032 44.2397 106.032C45.3437 106.032 46.2397 106.432 46.9277 107.232C47.6157 108.016 47.9597 109.216 47.9597 110.832C47.9597 111.68 47.8317 112.544 47.5757 113.424C47.3357 114.304 46.9997 115.152 46.5677 115.968C46.1517 116.784 45.6637 117.512 45.1037 118.152C44.5597 118.792 43.9757 119.304 43.3517 119.688C42.7437 120.056 42.1277 120.24 41.5037 120.24ZM40.6877 112.92C40.7837 113.048 40.8317 113.216 40.8317 113.424C40.8317 113.664 40.7837 113.904 40.6877 114.144C40.6077 114.384 40.5197 114.712 40.4237 115.128C40.3277 115.544 40.2797 116.136 40.2797 116.904C40.2797 117.672 40.5837 118.056 41.1917 118.056C41.8637 118.056 42.4877 117.792 43.0637 117.264C43.6397 116.72 44.1517 116.024 44.5997 115.176C45.0477 114.328 45.3917 113.424 45.6317 112.464C45.8877 111.488 46.0157 110.568 46.0157 109.704C46.0157 109.144 45.9117 108.752 45.7037 108.528C45.4957 108.288 45.1197 108.168 44.5757 108.168C44.0157 108.168 43.4317 108.36 42.8237 108.744C42.2317 109.112 41.7357 109.616 41.3357 110.256C40.9357 110.896 40.7357 111.616 40.7357 112.416C40.7357 112.592 40.7197 112.76 40.6877 112.92ZM69.4648 119.28C69.4488 119.536 69.3448 119.744 69.1528 119.904C68.9608 120.064 68.7368 120.144 68.4808 120.144C68.1928 120.144 67.9528 120.048 67.7608 119.856C67.5688 119.664 67.4728 119.368 67.4728 118.968C67.4728 117.928 67.5208 116.8 67.6168 115.584C67.7128 114.352 67.8328 113.136 67.9768 111.936C68.1208 110.72 68.2648 109.6 68.4088 108.576C67.8808 109.328 67.3048 110.16 66.6808 111.072C66.0728 111.984 65.4488 112.888 64.8088 113.784C64.1688 114.68 63.5448 115.504 62.9368 116.256C62.3288 116.992 61.7768 117.592 61.2808 118.056C60.7848 118.504 60.3768 118.728 60.0568 118.728C59.4648 118.728 58.9528 118.496 58.5208 118.032C58.0888 117.552 57.8728 116.952 57.8728 116.232C57.8728 115.944 57.9048 115.552 57.9688 115.056C58.0328 114.544 58.1048 114.008 58.1848 113.448C58.2648 112.888 58.3368 112.368 58.4008 111.888C58.4648 111.392 58.4968 111.024 58.4968 110.784C58.4968 110.56 58.4728 110.368 58.4248 110.208C58.3928 110.032 58.3128 109.944 58.1848 109.944C57.9928 109.944 57.7288 110.16 57.3928 110.592C57.0568 111.008 56.6808 111.544 56.2648 112.2C55.8648 112.856 55.4488 113.552 55.0168 114.288C54.6008 115.024 54.2088 115.72 53.8408 116.376C53.4728 117.016 53.1608 117.52 52.9048 117.888C52.6968 118.24 52.5048 118.496 52.3288 118.656C52.1528 118.816 51.9368 118.896 51.6808 118.896C51.3768 118.896 51.0968 118.736 50.8408 118.416C50.6008 118.096 50.4808 117.704 50.4808 117.24C50.4808 116.968 50.5288 116.544 50.6248 115.968C50.7208 115.376 50.8408 114.728 50.9848 114.024C51.1448 113.32 51.2968 112.632 51.4408 111.96C51.6008 111.272 51.7368 110.688 51.8488 110.208C51.9768 109.664 52.1368 109.296 52.3288 109.104C52.5208 108.912 52.7288 108.816 52.9528 108.816C53.2568 108.816 53.4968 108.928 53.6728 109.152C53.8648 109.36 53.9608 109.688 53.9608 110.136C53.9608 110.216 53.9128 110.432 53.8168 110.784C53.7208 111.12 53.6008 111.536 53.4568 112.032C53.3288 112.512 53.1848 113.016 53.0248 113.544C52.8808 114.072 52.7608 114.56 52.6648 115.008C53.0168 114.416 53.3848 113.776 53.7688 113.088C54.1688 112.4 54.5688 111.72 54.9688 111.048C55.3688 110.36 55.7688 109.736 56.1688 109.176C56.5688 108.6 56.9608 108.144 57.3448 107.808C57.7288 107.472 58.0968 107.304 58.4488 107.304C58.8648 107.304 59.2488 107.432 59.6008 107.688C59.9688 107.944 60.2648 108.288 60.4888 108.72C60.7128 109.152 60.8248 109.632 60.8248 110.16C60.8248 110.528 60.7608 111.048 60.6328 111.72C60.5048 112.376 60.3688 113.088 60.2248 113.856C60.0968 114.624 60.0168 115.352 59.9848 116.04C59.9848 116.2 60.0328 116.28 60.1288 116.28C60.2088 116.28 60.3048 116.224 60.4168 116.112C60.8808 115.6 61.3928 114.984 61.9528 114.264C62.5128 113.528 63.0808 112.752 63.6568 111.936C64.2488 111.12 64.8328 110.32 65.4088 109.536C65.9848 108.736 66.5208 108.016 67.0168 107.376C67.5288 106.72 67.9768 106.2 68.3608 105.816C68.7608 105.432 69.0728 105.24 69.2968 105.24C69.7768 105.24 70.1448 105.376 70.4008 105.648C70.6568 105.92 70.7848 106.376 70.7848 107.016C70.7848 107.528 70.7448 108.192 70.6648 109.008C70.6008 109.824 70.5128 110.712 70.4008 111.672C70.3048 112.632 70.1928 113.6 70.0648 114.576C69.9528 115.536 69.8408 116.432 69.7288 117.264C69.6168 118.08 69.5288 118.752 69.4648 119.28ZM72.7635 123.984C72.5075 123.984 72.3075 123.88 72.1635 123.672C72.0195 123.464 71.9475 123.12 71.9475 122.64C71.9475 122.48 72.0755 122.088 72.3315 121.464C72.5875 120.84 72.9395 120.048 73.3875 119.088C73.8515 118.112 74.3715 117.024 74.9475 115.824C75.5395 114.624 76.1635 113.384 76.8195 112.104C77.4755 110.808 78.1395 109.52 78.8115 108.24C79.4835 106.96 80.1315 105.752 80.7555 104.616C81.3795 103.464 81.9475 102.456 82.4595 101.592C82.6835 101.256 82.8755 101.048 83.0355 100.968C83.2115 100.872 83.4195 100.824 83.6595 100.824C83.8995 100.824 84.0835 100.928 84.2115 101.136C84.3555 101.328 84.4275 101.56 84.4275 101.832C84.4275 101.976 84.2755 102.384 83.9715 103.056C83.6675 103.712 83.2515 104.576 82.7235 105.648C82.1955 106.704 81.5795 107.912 80.8755 109.272C80.1875 110.616 79.4435 112.056 78.6435 113.592C77.8595 115.112 77.0595 116.672 76.2435 118.272C75.4275 119.856 74.6355 121.424 73.8675 122.976C73.6915 123.344 73.5235 123.6 73.3635 123.744C73.2035 123.904 73.0035 123.984 72.7635 123.984ZM85.3665 121.08C85.0145 121.08 84.7425 120.976 84.5505 120.768C84.3585 120.576 84.2625 120.088 84.2625 119.304C84.2625 118.584 84.3905 117.648 84.6465 116.496C84.9025 115.328 85.2465 114.032 85.6785 112.608C86.1105 111.184 86.5985 109.712 87.1425 108.192C87.6865 106.656 88.2545 105.152 88.8465 103.68C89.4545 102.192 90.0385 100.832 90.5985 99.6C90.8065 99.152 91.0225 98.84 91.2465 98.664C91.4705 98.488 91.7345 98.4 92.0385 98.4C92.2465 98.4 92.4225 98.464 92.5665 98.592C92.7265 98.704 92.8065 98.896 92.8065 99.168C92.8065 99.264 92.7025 99.576 92.4945 100.104C92.3025 100.632 92.0305 101.328 91.6785 102.192C91.3425 103.056 90.9665 104.024 90.5505 105.096C90.1345 106.168 89.7105 107.296 89.2785 108.48C88.8465 109.664 88.4385 110.856 88.0545 112.056C87.6705 113.24 87.3425 114.376 87.0705 115.464C86.7985 116.552 86.6145 117.528 86.5185 118.392C86.9025 117.928 87.3425 117.336 87.8385 116.616C88.3345 115.896 88.8625 115.12 89.4225 114.288C89.9825 113.456 90.5505 112.632 91.1265 111.816C91.7025 111 92.2705 110.256 92.8305 109.584C93.3905 108.912 93.9105 108.376 94.3905 107.976C94.8865 107.56 95.3185 107.352 95.6865 107.352C96.2945 107.352 96.7825 107.544 97.1505 107.928C97.5345 108.296 97.7265 108.904 97.7265 109.752C97.7265 110.232 97.6305 110.808 97.4385 111.48C97.2625 112.152 97.0545 112.856 96.8145 113.592C96.5745 114.328 96.3585 115.032 96.1665 115.704C95.9905 116.376 95.9025 116.952 95.9025 117.432C95.9025 118.088 96.1505 118.416 96.6465 118.416C97.4145 118.416 98.1825 118.248 98.9505 117.912C99.7345 117.576 100.479 117.16 101.183 116.664C101.887 116.152 102.535 115.64 103.127 115.128C103.719 114.6 104.223 114.152 104.639 113.784C105.087 113.384 105.463 113.184 105.767 113.184C106.151 113.184 106.343 113.384 106.343 113.784C106.343 113.896 106.319 114.024 106.271 114.168C106.223 114.312 106.095 114.496 105.887 114.72C105.631 115.008 105.263 115.384 104.783 115.848C104.319 116.312 103.775 116.808 103.151 117.336C102.543 117.864 101.879 118.36 101.159 118.824C100.455 119.288 99.7265 119.672 98.9745 119.976C98.2385 120.264 97.5185 120.408 96.8145 120.408C95.8545 120.408 95.1105 120.136 94.5825 119.592C94.0705 119.032 93.8145 118.264 93.8145 117.288C93.8145 116.68 93.9105 115.944 94.1025 115.08C94.2945 114.216 94.5345 113.304 94.8225 112.344C95.1265 111.368 95.4305 110.416 95.7345 109.488C95.2225 109.84 94.6625 110.368 94.0545 111.072C93.4625 111.76 92.8385 112.544 92.1825 113.424C91.5265 114.288 90.8705 115.168 90.2145 116.064C89.5745 116.96 88.9505 117.792 88.3425 118.56C87.7505 119.312 87.1985 119.92 86.6865 120.384C86.1745 120.848 85.7345 121.08 85.3665 121.08ZM106.793 120.024C106.105 120.024 105.617 119.888 105.329 119.616C105.041 119.344 104.897 118.944 104.897 118.416C104.897 115.76 105.377 112.984 106.337 110.088C107.297 107.176 108.641 104.256 110.369 101.328C110.593 100.96 110.769 100.728 110.897 100.632C111.041 100.536 111.209 100.488 111.401 100.488C111.625 100.488 111.825 100.568 112.001 100.728C112.177 100.888 112.265 101.104 112.265 101.376C112.265 101.52 112.121 101.912 111.833 102.552C111.545 103.176 111.177 103.984 110.729 104.976C110.281 105.968 109.801 107.08 109.289 108.312C108.793 109.528 108.321 110.8 107.873 112.128C107.425 113.456 107.065 114.776 106.793 116.088C107.161 115.544 107.601 114.96 108.113 114.336C108.641 113.712 109.201 113.088 109.793 112.464C110.385 111.84 110.985 111.272 111.593 110.76C112.217 110.248 112.817 109.84 113.393 109.536C113.969 109.232 114.497 109.08 114.977 109.08C115.601 109.08 116.145 109.344 116.609 109.872C117.089 110.384 117.329 111.16 117.329 112.2C117.329 113.08 117.089 113.984 116.609 114.912C116.129 115.824 115.425 116.672 114.497 117.456C113.585 118.224 112.481 118.848 111.185 119.328C109.889 119.792 108.425 120.024 106.793 120.024ZM106.889 118.2C108.217 118.2 109.425 117.976 110.513 117.528C111.601 117.08 112.529 116.512 113.297 115.824C114.081 115.12 114.681 114.392 115.097 113.64C115.529 112.872 115.745 112.176 115.745 111.552C115.745 111.104 115.593 110.88 115.289 110.88C114.921 110.88 114.449 111.056 113.873 111.408C113.297 111.76 112.673 112.224 112.001 112.8C111.345 113.376 110.689 114 110.033 114.672C109.377 115.328 108.769 115.968 108.209 116.592C107.665 117.216 107.225 117.752 106.889 118.2ZM138.582 119.28C138.566 119.536 138.462 119.744 138.27 119.904C138.078 120.064 137.854 120.144 137.598 120.144C137.31 120.144 137.07 120.048 136.878 119.856C136.686 119.664 136.59 119.368 136.59 118.968C136.59 117.928 136.638 116.8 136.734 115.584C136.83 114.352 136.95 113.136 137.094 111.936C137.238 110.72 137.382 109.6 137.526 108.576C136.998 109.328 136.422 110.16 135.798 111.072C135.19 111.984 134.566 112.888 133.926 113.784C133.286 114.68 132.662 115.504 132.054 116.256C131.446 116.992 130.894 117.592 130.398 118.056C129.902 118.504 129.494 118.728 129.174 118.728C128.582 118.728 128.07 118.496 127.638 118.032C127.206 117.552 126.99 116.952 126.99 116.232C126.99 115.944 127.022 115.552 127.086 115.056C127.15 114.544 127.222 114.008 127.302 113.448C127.382 112.888 127.454 112.368 127.518 111.888C127.582 111.392 127.614 111.024 127.614 110.784C127.614 110.56 127.59 110.368 127.542 110.208C127.51 110.032 127.43 109.944 127.302 109.944C127.11 109.944 126.846 110.16 126.51 110.592C126.174 111.008 125.798 111.544 125.382 112.2C124.982 112.856 124.566 113.552 124.134 114.288C123.718 115.024 123.326 115.72 122.958 116.376C122.59 117.016 122.278 117.52 122.022 117.888C121.814 118.24 121.622 118.496 121.446 118.656C121.27 118.816 121.054 118.896 120.798 118.896C120.494 118.896 120.214 118.736 119.958 118.416C119.718 118.096 119.598 117.704 119.598 117.24C119.598 116.968 119.646 116.544 119.742 115.968C119.838 115.376 119.958 114.728 120.102 114.024C120.262 113.32 120.414 112.632 120.558 111.96C120.718 111.272 120.854 110.688 120.966 110.208C121.094 109.664 121.254 109.296 121.446 109.104C121.638 108.912 121.846 108.816 122.07 108.816C122.374 108.816 122.614 108.928 122.79 109.152C122.982 109.36 123.078 109.688 123.078 110.136C123.078 110.216 123.03 110.432 122.934 110.784C122.838 111.12 122.718 111.536 122.574 112.032C122.446 112.512 122.302 113.016 122.142 113.544C121.998 114.072 121.878 114.56 121.782 115.008C122.134 114.416 122.502 113.776 122.886 113.088C123.286 112.4 123.686 111.72 124.086 111.048C124.486 110.36 124.886 109.736 125.286 109.176C125.686 108.6 126.078 108.144 126.462 107.808C126.846 107.472 127.214 107.304 127.566 107.304C127.982 107.304 128.366 107.432 128.718 107.688C129.086 107.944 129.382 108.288 129.606 108.72C129.83 109.152 129.942 109.632 129.942 110.16C129.942 110.528 129.878 111.048 129.75 111.72C129.622 112.376 129.486 113.088 129.342 113.856C129.214 114.624 129.134 115.352 129.102 116.04C129.102 116.2 129.15 116.28 129.246 116.28C129.326 116.28 129.422 116.224 129.534 116.112C129.998 115.6 130.51 114.984 131.07 114.264C131.63 113.528 132.198 112.752 132.774 111.936C133.366 111.12 133.95 110.32 134.526 109.536C135.102 108.736 135.638 108.016 136.134 107.376C136.646 106.72 137.094 106.2 137.478 105.816C137.878 105.432 138.19 105.24 138.414 105.24C138.894 105.24 139.262 105.376 139.518 105.648C139.774 105.92 139.902 106.376 139.902 107.016C139.902 107.528 139.862 108.192 139.782 109.008C139.718 109.824 139.63 110.712 139.518 111.672C139.422 112.632 139.31 113.6 139.182 114.576C139.07 115.536 138.958 116.432 138.846 117.264C138.734 118.08 138.646 118.752 138.582 119.28ZM145.338 122.136C145.066 122.136 144.85 122.04 144.69 121.848C144.53 121.656 144.45 121.336 144.45 120.888C144.45 120.088 144.49 119.264 144.57 118.416C144.666 117.552 144.714 116.752 144.714 116.016C144.714 114.336 144.562 112.952 144.258 111.864C143.97 110.76 143.338 110.016 142.362 109.632C142.138 109.552 141.978 109.464 141.882 109.368C141.77 109.272 141.714 109.12 141.714 108.912C141.714 108.688 141.802 108.504 141.978 108.36C142.138 108.216 142.442 108.144 142.89 108.144C143.258 108.144 143.746 108.16 144.354 108.192C144.962 108.224 145.618 108.256 146.322 108.288C146.818 106.512 147.378 105.04 148.002 103.872C148.626 102.704 149.306 101.784 150.042 101.112C150.794 100.44 151.586 99.96 152.418 99.672C153.266 99.384 154.146 99.24 155.058 99.24C155.458 99.24 155.714 99.296 155.826 99.408C155.938 99.504 155.994 99.656 155.994 99.864C155.994 100.12 155.914 100.392 155.754 100.68C155.594 100.952 155.266 101.128 154.77 101.208C153.682 101.4 152.714 101.752 151.866 102.264C151.018 102.776 150.282 103.52 149.658 104.496C149.034 105.456 148.514 106.72 148.098 108.288C149.634 108.256 150.954 108.176 152.058 108.048C153.162 107.904 154.082 107.752 154.818 107.592C155.57 107.416 156.17 107.272 156.618 107.16C157.066 107.032 157.41 106.968 157.65 106.968C157.922 106.968 158.09 107.04 158.154 107.184C158.218 107.328 158.25 107.48 158.25 107.64C158.25 107.944 157.962 108.24 157.386 108.528C156.81 108.8 156.05 109.048 155.106 109.272C154.178 109.48 153.154 109.648 152.034 109.776C150.914 109.904 149.81 109.968 148.722 109.968C148.546 109.968 148.37 109.968 148.194 109.968C148.034 109.968 147.866 109.968 147.69 109.968C147.658 110.08 147.634 110.2 147.618 110.328C147.458 111.256 147.298 112.24 147.138 113.28C146.994 114.304 146.858 115.312 146.73 116.304C146.618 117.28 146.53 118.168 146.466 118.968C146.402 119.768 146.37 120.408 146.37 120.888C146.37 121.288 146.274 121.592 146.082 121.8C145.89 122.024 145.642 122.136 145.338 122.136ZM145.914 109.872C145.45 109.824 145.018 109.76 144.618 109.68C144.826 109.92 145.002 110.2 145.146 110.52C145.306 110.84 145.442 111.184 145.554 111.552C145.666 110.96 145.786 110.4 145.914 109.872ZM177.236 101.592C175.876 102.008 174.66 102.752 173.588 103.824C172.532 104.88 171.708 106.384 171.116 108.336C172.716 108.304 174.108 108.184 175.292 107.976C176.476 107.768 177.444 107.56 178.196 107.352C178.948 107.144 179.452 107.04 179.708 107.04C179.868 107.04 179.996 107.104 180.092 107.232C180.204 107.36 180.26 107.512 180.26 107.688C180.26 108.04 179.876 108.384 179.108 108.72C178.34 109.056 177.308 109.336 176.012 109.56C174.716 109.784 173.26 109.896 171.644 109.896C171.356 109.896 171.052 109.888 170.732 109.872C170.7 109.984 170.676 110.104 170.66 110.232C170.532 110.968 170.372 111.856 170.18 112.896C169.988 113.92 169.788 115 169.58 116.136C169.372 117.272 169.172 118.376 168.98 119.448C168.788 120.504 168.62 121.44 168.476 122.256C168.332 123.088 168.236 123.688 168.188 124.056C168.124 124.392 167.988 124.64 167.78 124.8C167.588 124.96 167.38 125.04 167.156 125.04C166.932 125.04 166.724 124.952 166.532 124.776C166.34 124.616 166.244 124.352 166.244 123.984C166.244 123.824 166.284 123.496 166.364 123C166.46 122.504 166.572 121.904 166.7 121.2C166.828 120.496 166.948 119.736 167.06 118.92C167.188 118.104 167.292 117.28 167.372 116.448C167.468 115.616 167.516 114.832 167.516 114.096C167.516 113.68 167.5 113.304 167.468 112.968C166.62 113.592 165.644 114.096 164.54 114.48C163.436 114.864 162.26 115.12 161.012 115.248C160.66 116.048 160.26 116.768 159.812 117.408C159.364 118.032 158.884 118.528 158.372 118.896C157.876 119.264 157.364 119.448 156.836 119.448C156.324 119.448 155.892 119.112 155.54 118.44C155.204 117.768 155.036 116.752 155.036 115.392C155.036 114.416 155.1 113.52 155.228 112.704C155.068 112.176 154.988 111.568 154.988 110.88C154.988 110 155.18 109.184 155.564 108.432C155.964 107.68 156.492 107.072 157.148 106.608C157.82 106.144 158.564 105.912 159.38 105.912C160.212 105.912 160.9 106.224 161.444 106.848C162.004 107.456 162.284 108.352 162.284 109.536C162.284 110.192 162.228 110.864 162.116 111.552C162.004 112.224 161.844 112.896 161.636 113.568C162.708 113.408 163.724 113.136 164.684 112.752C165.644 112.368 166.484 111.912 167.204 111.384C167.06 110.872 166.836 110.456 166.532 110.136C166.244 109.816 165.86 109.624 165.38 109.56C164.98 109.512 164.78 109.264 164.78 108.816C164.78 108.656 164.86 108.504 165.02 108.36C165.196 108.216 165.396 108.144 165.62 108.144C166.052 108.144 166.548 108.168 167.108 108.216C167.684 108.264 168.404 108.296 169.268 108.312C169.684 107.144 170.204 106.04 170.828 105C171.468 103.96 172.156 103.048 172.892 102.264C173.628 101.48 174.364 100.864 175.1 100.416C175.836 99.968 176.516 99.744 177.14 99.744C177.604 99.744 177.9 99.808 178.028 99.936C178.172 100.064 178.244 100.264 178.244 100.536C178.244 100.84 178.148 101.072 177.956 101.232C177.78 101.376 177.54 101.496 177.236 101.592ZM157.004 112.2C157.26 112.68 157.628 113.048 158.108 113.304C158.588 113.544 159.076 113.68 159.572 113.712C159.78 113.04 159.94 112.336 160.052 111.6C160.18 110.864 160.244 110.16 160.244 109.488C160.244 109.088 160.148 108.76 159.956 108.504C159.764 108.232 159.5 108.096 159.164 108.096C158.652 108.096 158.172 108.296 157.724 108.696C157.292 109.096 156.996 109.608 156.836 110.232C156.932 110.296 157.012 110.392 157.076 110.52C157.156 110.648 157.196 110.84 157.196 111.096C157.196 111.16 157.18 111.296 157.148 111.504C157.116 111.696 157.068 111.928 157.004 112.2ZM158.948 115.344C158.532 115.328 158.124 115.264 157.724 115.152C157.34 115.04 156.98 114.872 156.644 114.648C156.612 115 156.596 115.32 156.596 115.608C156.596 116.6 156.796 117.096 157.196 117.096C157.516 117.096 157.82 116.936 158.108 116.616C158.412 116.296 158.692 115.872 158.948 115.344ZM168.332 110.376C168.524 110.168 168.7 109.952 168.86 109.728C168.86 109.712 168.86 109.696 168.86 109.68C168.684 109.664 168.5 109.64 168.308 109.608C168.132 109.576 167.956 109.552 167.78 109.536C167.988 109.776 168.172 110.056 168.332 110.376ZM177.26 122.136C176.988 122.136 176.772 122.04 176.612 121.848C176.452 121.656 176.372 121.336 176.372 120.888C176.372 120.088 176.412 119.264 176.492 118.416C176.588 117.552 176.636 116.752 176.636 116.016C176.636 114.336 176.484 112.952 176.18 111.864C175.892 110.76 175.26 110.016 174.284 109.632C174.059 109.552 173.899 109.464 173.803 109.368C173.691 109.272 173.635 109.12 173.635 108.912C173.635 108.688 173.723 108.504 173.899 108.36C174.059 108.216 174.364 108.144 174.812 108.144C175.18 108.144 175.668 108.16 176.276 108.192C176.884 108.224 177.54 108.256 178.244 108.288C178.74 106.512 179.3 105.04 179.924 103.872C180.548 102.704 181.228 101.784 181.964 101.112C182.716 100.44 183.508 99.96 184.34 99.672C185.188 99.384 186.068 99.24 186.98 99.24C187.38 99.24 187.636 99.296 187.747 99.408C187.86 99.504 187.916 99.656 187.916 99.864C187.916 100.12 187.836 100.392 187.676 100.68C187.516 100.952 187.188 101.128 186.692 101.208C185.604 101.4 184.636 101.752 183.788 102.264C182.94 102.776 182.204 103.52 181.58 104.496C180.956 105.456 180.436 106.72 180.02 108.288C181.556 108.256 182.876 108.176 183.98 108.048C185.084 107.904 186.004 107.752 186.74 107.592C187.492 107.416 188.092 107.272 188.54 107.16C188.988 107.032 189.332 106.968 189.572 106.968C189.844 106.968 190.012 107.04 190.076 107.184C190.14 107.328 190.172 107.48 190.172 107.64C190.172 107.944 189.884 108.24 189.308 108.528C188.732 108.8 187.972 109.048 187.028 109.272C186.1 109.48 185.076 109.648 183.956 109.776C182.836 109.904 181.732 109.968 180.644 109.968C180.468 109.968 180.292 109.968 180.116 109.968C179.956 109.968 179.788 109.968 179.612 109.968C179.58 110.08 179.556 110.2 179.54 110.328C179.38 111.256 179.22 112.24 179.06 113.28C178.916 114.304 178.78 115.312 178.652 116.304C178.54 117.28 178.452 118.168 178.388 118.968C178.324 119.768 178.292 120.408 178.292 120.888C178.292 121.288 178.196 121.592 178.004 121.8C177.812 122.024 177.564 122.136 177.26 122.136ZM177.836 109.872C177.372 109.824 176.94 109.76 176.54 109.68C176.748 109.92 176.924 110.2 177.068 110.52C177.228 110.84 177.364 111.184 177.476 111.552C177.588 110.96 177.708 110.4 177.836 109.872ZM187.673 118.12C187.369 118.12 187.097 118.008 186.857 117.784C186.617 117.544 186.497 117.176 186.497 116.68C186.497 116.328 186.545 115.84 186.641 115.216C186.737 114.576 186.865 113.88 187.025 113.128C187.185 112.376 187.353 111.632 187.529 110.896C187.721 110.144 187.913 109.472 188.105 108.88C188.297 108.288 188.465 107.848 188.609 107.56C188.737 107.336 188.857 107.192 188.969 107.128C189.097 107.064 189.217 107.032 189.329 107.032C189.553 107.032 189.745 107.104 189.905 107.248C190.081 107.392 190.169 107.672 190.169 108.088C190.169 108.328 190.121 108.728 190.025 109.288C189.945 109.832 189.833 110.472 189.689 111.208C189.561 111.928 189.417 112.672 189.257 113.44C189.113 114.192 188.969 114.912 188.825 115.6C188.681 116.288 188.569 116.864 188.489 117.328C188.425 117.584 188.313 117.784 188.153 117.928C188.009 118.056 187.849 118.12 187.673 118.12ZM190.025 104.848C189.657 104.848 189.305 104.736 188.969 104.512C188.649 104.288 188.489 103.928 188.489 103.432C188.489 103.016 188.585 102.68 188.777 102.424C188.985 102.168 189.225 101.984 189.497 101.872C189.785 101.744 190.033 101.68 190.241 101.68C190.449 101.68 190.681 101.728 190.937 101.824C191.209 101.904 191.441 102.064 191.633 102.304C191.825 102.528 191.921 102.864 191.921 103.312C191.921 103.616 191.817 103.888 191.609 104.128C191.401 104.352 191.145 104.528 190.841 104.656C190.553 104.784 190.281 104.848 190.025 104.848ZM197.282 120.336C196.498 120.336 195.818 120.16 195.242 119.808C194.682 119.44 194.25 118.968 193.946 118.392C193.642 117.816 193.49 117.224 193.49 116.616C193.49 115.336 193.714 114.168 194.162 113.112C194.61 112.04 195.17 111.096 195.842 110.28C196.53 109.448 197.234 108.744 197.954 108.168C198.69 107.592 199.354 107.16 199.946 106.872C200.554 106.568 200.986 106.416 201.242 106.416C201.754 106.416 202.01 106.672 202.01 107.184C202.01 107.424 201.85 107.704 201.53 108.024C201.21 108.328 200.802 108.688 200.306 109.104C199.81 109.52 199.282 109.992 198.722 110.52C198.162 111.032 197.634 111.616 197.138 112.272C196.642 112.912 196.234 113.632 195.914 114.432C195.594 115.216 195.434 116.08 195.434 117.024C195.434 117.984 195.826 118.464 196.61 118.464C197.33 118.464 198.066 118.328 198.818 118.056C199.586 117.784 200.338 117.432 201.074 117C201.826 116.552 202.546 116.088 203.234 115.608C203.922 115.128 204.546 114.672 205.106 114.24C205.666 113.792 206.138 113.432 206.522 113.16C206.906 112.888 207.178 112.752 207.338 112.752C207.658 112.752 207.818 112.928 207.818 113.28C207.818 113.552 207.634 113.912 207.266 114.36C206.898 114.808 206.402 115.296 205.778 115.824C205.154 116.352 204.458 116.888 203.69 117.432C202.922 117.96 202.146 118.448 201.362 118.896C200.578 119.328 199.826 119.68 199.106 119.952C198.402 120.208 197.794 120.336 197.282 120.336ZM207.665 120.12C207.361 120.12 207.089 120.008 206.849 119.784C206.609 119.544 206.489 119.176 206.489 118.68C206.489 118.328 206.537 117.84 206.633 117.216C206.729 116.576 206.857 115.88 207.017 115.128C207.177 114.376 207.345 113.632 207.521 112.896C207.713 112.144 207.905 111.472 208.097 110.88C208.289 110.288 208.457 109.848 208.601 109.56C208.729 109.336 208.849 109.192 208.961 109.128C209.089 109.064 209.209 109.032 209.321 109.032C209.545 109.032 209.737 109.104 209.897 109.248C210.073 109.392 210.161 109.672 210.161 110.088C210.161 110.328 210.113 110.728 210.017 111.288C209.937 111.832 209.825 112.472 209.681 113.208C209.553 113.928 209.409 114.672 209.249 115.44C209.105 116.192 208.961 116.912 208.817 117.6C208.673 118.288 208.561 118.864 208.481 119.328C208.417 119.584 208.305 119.784 208.145 119.928C208.001 120.056 207.841 120.12 207.665 120.12ZM210.017 106.848C209.649 106.848 209.297 106.736 208.961 106.512C208.641 106.288 208.481 105.928 208.481 105.432C208.481 105.016 208.577 104.68 208.769 104.424C208.977 104.168 209.217 103.984 209.489 103.872C209.777 103.744 210.025 103.68 210.233 103.68C210.441 103.68 210.673 103.728 210.929 103.824C211.201 103.904 211.433 104.064 211.625 104.304C211.817 104.528 211.913 104.864 211.913 105.312C211.913 105.616 211.809 105.888 211.601 106.128C211.393 106.352 211.137 106.528 210.833 106.656C210.545 106.784 210.273 106.848 210.017 106.848ZM214.602 120.624C213.994 120.624 213.49 120.344 213.09 119.784C212.706 119.208 212.514 118.464 212.514 117.552C212.514 116.704 212.722 115.864 213.138 115.032C213.57 114.2 214.138 113.4 214.842 112.632C215.546 111.864 216.314 111.16 217.146 110.52C217.978 109.864 218.81 109.296 219.642 108.816C220.49 108.336 221.266 107.96 221.97 107.688C222.674 107.416 223.234 107.28 223.65 107.28C223.874 107.28 224.058 107.328 224.202 107.424C224.346 107.504 224.418 107.656 224.418 107.88C224.418 108.024 224.362 108.16 224.25 108.288C224.266 108.288 224.282 108.288 224.298 108.288C224.65 108.288 224.826 108.496 224.826 108.912C224.826 109.056 224.77 109.352 224.658 109.8C224.546 110.232 224.418 110.776 224.274 111.432C224.13 112.088 224.002 112.816 223.89 113.616C223.778 114.4 223.722 115.2 223.722 116.016C223.722 116.704 223.986 117.048 224.514 117.048C225.106 117.048 225.706 116.912 226.314 116.64C226.922 116.368 227.514 116.04 228.09 115.656C228.666 115.256 229.194 114.864 229.674 114.48C230.154 114.08 230.562 113.744 230.898 113.472C231.234 113.2 231.474 113.064 231.618 113.064C231.746 113.064 231.858 113.104 231.954 113.184C232.05 113.264 232.098 113.392 232.098 113.568C232.098 113.728 231.938 114.016 231.618 114.432C231.298 114.848 230.874 115.32 230.346 115.848C229.818 116.376 229.226 116.888 228.57 117.384C227.914 117.88 227.242 118.288 226.554 118.608C225.866 118.928 225.21 119.088 224.586 119.088C224.106 119.088 223.666 118.944 223.266 118.656C222.882 118.352 222.57 117.84 222.33 117.12C222.106 116.4 221.994 115.408 221.994 114.144V113.544C221.21 114.84 220.386 116.024 219.522 117.096C218.674 118.168 217.826 119.024 216.978 119.664C216.146 120.304 215.354 120.624 214.602 120.624ZM223.194 109.008C223.114 109.04 223.002 109.088 222.858 109.152C222.122 109.488 221.354 109.904 220.554 110.4C219.77 110.896 219.002 111.448 218.25 112.056C217.514 112.664 216.85 113.296 216.258 113.952C215.666 114.608 215.194 115.272 214.842 115.944C214.49 116.616 214.314 117.272 214.314 117.912C214.314 118.12 214.354 118.28 214.434 118.392C214.53 118.504 214.69 118.56 214.914 118.56C215.234 118.56 215.65 118.36 216.162 117.96C216.674 117.544 217.234 117 217.842 116.328C218.466 115.656 219.09 114.912 219.714 114.096C220.338 113.28 220.93 112.456 221.49 111.624C222.066 110.792 222.562 110.024 222.978 109.32C223.042 109.208 223.114 109.104 223.194 109.008ZM234.988 120.96C233.756 120.96 232.788 120.56 232.084 119.76C231.396 118.944 231.052 117.808 231.052 116.352C231.052 115.456 231.172 114.408 231.412 113.208C231.668 111.992 231.988 110.712 232.372 109.368C232.772 108.008 233.204 106.664 233.668 105.336C234.132 104.008 234.58 102.776 235.012 101.64C235.46 100.488 235.852 99.528 236.188 98.76C236.38 98.328 236.652 98.112 237.004 98.112C237.484 98.112 237.724 98.408 237.724 99C237.724 99.192 237.636 99.584 237.46 100.176C237.284 100.768 237.052 101.504 236.764 102.384C236.476 103.248 236.164 104.208 235.828 105.264C235.492 106.32 235.148 107.408 234.796 108.528C234.46 109.632 234.148 110.728 233.86 111.816C233.572 112.888 233.34 113.896 233.164 114.84C232.988 115.784 232.9 116.592 232.9 117.264C232.9 117.696 233.012 118.04 233.236 118.296C233.476 118.536 233.796 118.656 234.196 118.656C234.932 118.656 235.668 118.512 236.404 118.224C237.156 117.92 237.876 117.552 238.564 117.12C239.252 116.672 239.876 116.232 240.436 115.8C241.012 115.352 241.5 114.984 241.9 114.696C242.3 114.392 242.58 114.24 242.74 114.24C243.092 114.24 243.268 114.432 243.268 114.816C243.268 114.944 243.14 115.184 242.884 115.536C242.628 115.872 242.284 116.272 241.852 116.736C241.42 117.2 240.916 117.68 240.34 118.176C239.78 118.656 239.188 119.112 238.564 119.544C237.956 119.96 237.34 120.296 236.716 120.552C236.108 120.824 235.532 120.96 234.988 120.96Z" fill="black"/>
<path d="M12.9678 11.7867L28.7042 34.1624L32.3732 34.24L16.6367 11.8644L12.9678 11.7867Z" fill="#F46BA4"/>
<path d="M23.1155 0.468842C10.8758 0.209906 0.740331 10.0932 0.476928 22.5439C0.213525 34.9947 9.92199 45.2977 22.1616 45.5567C34.4012 45.8156 44.5367 35.9323 44.8001 23.4816C45.0635 11.0308 35.3551 0.727778 23.1155 0.468842ZM27.8013 35.9046L20.6371 25.7155L11.2953 35.5554L8.94864 35.5057L19.6188 24.267L9.55474 9.95335L17.5413 10.1223L24.1391 19.506L32.7422 10.4439L35.0888 10.4935L25.1574 20.955L35.7878 36.0735L27.8013 35.9046Z" fill="#F46BA4"/>
<path d="M10.272 179.224C10.8 179.224 11.208 179.632 11.208 180.16V181C11.208 181.528 10.8 181.936 10.272 181.936H5.424C5.256 181.936 5.112 182.08 5.112 182.248V185.944C5.112 186.112 5.256 186.256 5.424 186.256H8.52C9.024 186.256 9.456 186.664 9.456 187.192V188.032C9.456 188.56 9.024 188.968 8.52 188.968H5.424C5.256 188.968 5.112 189.112 5.112 189.28V194.248C5.112 195.208 4.32 196 3.36 196H2.304C1.344 196 0.552 195.208 0.552 194.248V180.976C0.552 180.016 1.344 179.224 2.304 179.224H10.272ZM16.2632 192.52C16.2632 192.952 16.6232 193.288 17.0312 193.288C17.4392 193.288 17.7992 192.952 17.7992 192.52V182.704C17.7992 182.296 17.4392 181.936 17.0312 181.936C16.6232 181.936 16.2632 182.296 16.2632 182.704V192.52ZM17.0312 179.224C19.9592 179.224 22.3592 181.624 22.3592 184.552V190.672C22.3592 193.6 19.9592 196 17.0312 196C14.1032 196 11.7032 193.6 11.7032 190.672V184.552C11.7032 181.624 14.1032 179.224 17.0312 179.224ZM26.0709 179.224C27.0309 179.224 27.8229 180.016 27.8229 180.976V192.976C27.8229 193.144 27.9669 193.288 28.1349 193.288H32.9829C33.5109 193.288 33.9189 193.696 33.9189 194.224V195.088C33.9189 195.592 33.5109 196 32.9829 196H25.0149C24.0549 196 23.2629 195.208 23.2629 194.248V180.976C23.2629 180.016 24.0549 179.224 25.0149 179.224H26.0709ZM37.6725 179.224C38.6325 179.224 39.4245 180.016 39.4245 180.976V192.976C39.4245 193.144 39.5685 193.288 39.7365 193.288H44.5845C45.1125 193.288 45.5205 193.696 45.5205 194.224V195.088C45.5205 195.592 45.1125 196 44.5845 196H36.6165C35.6565 196 34.8645 195.208 34.8645 194.248V180.976C34.8645 180.016 35.6565 179.224 36.6165 179.224H37.6725ZM50.646 192.52C50.646 192.952 51.006 193.288 51.414 193.288C51.822 193.288 52.182 192.952 52.182 192.52V182.704C52.182 182.296 51.822 181.936 51.414 181.936C51.006 181.936 50.646 182.296 50.646 182.704V192.52ZM51.414 179.224C54.342 179.224 56.742 181.624 56.742 184.552V190.672C56.742 193.6 54.342 196 51.414 196C48.486 196 46.086 193.6 46.086 190.672V184.552C46.086 181.624 48.486 179.224 51.414 179.224ZM64.9898 180.568C65.1818 179.752 65.8778 179.224 66.6938 179.224H68.1818C69.0458 179.224 69.7657 179.8 69.9098 180.64C70.6298 184.408 70.3418 188.176 71.0858 191.944C71.1098 192.136 71.3978 192.112 71.3978 191.92C71.4698 187.504 71.9498 184.264 72.8618 180.568C73.0538 179.752 73.7498 179.224 74.5658 179.224C74.9258 179.224 75.3098 179.224 75.6698 179.224C76.2458 179.224 76.7258 179.464 77.0858 179.896C77.4218 180.352 77.5418 180.88 77.3738 181.432L73.8218 194.704C73.6298 195.496 72.9338 196 72.1178 196H70.6537C69.8378 196 69.1418 195.496 68.9498 194.704C68.8778 194.464 68.8058 194.224 68.7578 193.984L67.4378 189.112L65.9498 194.704C65.7338 195.496 65.0618 196 64.2458 196H62.7578C61.9658 196 61.2698 195.496 61.0538 194.704L57.5018 181.432C57.3578 180.88 57.4538 180.352 57.8138 179.896C58.1498 179.464 58.6538 179.224 59.2058 179.224C59.5898 179.224 59.9498 179.224 60.3098 179.224C61.1498 179.224 61.8698 179.8 62.0378 180.64C62.7578 184.408 62.4698 188.176 63.1898 191.944C63.2378 192.136 63.5018 192.112 63.5258 191.92C63.5978 187.504 64.0538 184.264 64.9898 180.568ZM83.1926 180.976C83.1926 180.016 83.9846 179.224 84.9446 179.224H86.0006C86.6726 179.224 87.2726 179.608 87.5606 180.16C87.6566 180.376 87.7286 180.592 87.7526 180.832L89.2886 186.016V180.976C89.2886 180.016 90.0806 179.224 91.0406 179.224H92.0966C93.0566 179.224 93.8486 180.016 93.8486 180.976V194.248C93.8486 195.208 93.0566 196 92.0966 196H91.0406C90.2726 196 89.6246 195.52 89.3846 194.824L87.7526 189.952V194.248C87.7526 195.208 86.9606 196 86.0006 196H84.9446C83.9846 196 83.1926 195.208 83.1926 194.248V180.976ZM99.3257 192.52C99.3257 192.952 99.6857 193.288 100.094 193.288C100.502 193.288 100.862 192.952 100.862 192.52V182.704C100.862 182.296 100.502 181.936 100.094 181.936C99.6857 181.936 99.3257 182.296 99.3257 182.704V192.52ZM100.094 179.224C103.022 179.224 105.422 181.624 105.422 184.552V190.672C105.422 193.6 103.022 196 100.094 196C97.1657 196 94.7657 193.6 94.7657 190.672V184.552C94.7657 181.624 97.1657 179.224 100.094 179.224ZM113.669 180.568C113.861 179.752 114.557 179.224 115.373 179.224H116.861C117.725 179.224 118.445 179.8 118.589 180.64C119.309 184.408 119.021 188.176 119.765 191.944C119.789 192.136 120.077 192.112 120.077 191.92C120.149 187.504 120.629 184.264 121.541 180.568C121.733 179.752 122.429 179.224 123.245 179.224C123.605 179.224 123.989 179.224 124.349 179.224C124.925 179.224 125.405 179.464 125.765 179.896C126.101 180.352 126.221 180.88 126.053 181.432L122.501 194.704C122.309 195.496 121.613 196 120.797 196H119.333C118.517 196 117.821 195.496 117.629 194.704C117.557 194.464 117.485 194.224 117.437 193.984L116.117 189.112L114.629 194.704C114.413 195.496 113.741 196 112.925 196H111.437C110.645 196 109.949 195.496 109.733 194.704L106.181 181.432C106.037 180.88 106.133 180.352 106.493 179.896C106.829 179.464 107.333 179.224 107.885 179.224C108.269 179.224 108.629 179.224 108.989 179.224C109.829 179.224 110.549 179.8 110.717 180.64C111.437 184.408 111.149 188.176 111.869 191.944C111.917 192.136 112.181 192.112 112.205 191.92C112.277 187.504 112.733 184.264 113.669 180.568ZM129.348 192.064C130.62 192.064 131.628 192.976 131.628 194.104C131.628 195.232 130.62 196.144 129.348 196.144C128.076 196.144 127.068 195.232 127.068 194.104C127.068 192.976 128.076 192.064 129.348 192.064ZM127.068 180.736C127.044 180.352 127.188 180.016 127.476 179.752C127.74 179.488 128.076 179.344 128.46 179.344H130.236C131.004 179.344 131.628 179.968 131.628 180.736C131.628 184.648 131.388 189.784 131.388 189.952C131.316 190.672 130.716 191.248 129.972 191.248H128.7C128.292 191.248 127.956 191.104 127.668 190.816C127.404 190.528 127.26 190.168 127.284 189.784C127.284 189.568 127.068 184.672 127.068 180.736Z" fill="#F46BA4"/>
</svg>
